<svg id="Layer_1" data-name="Layer 1" xmlns="http://www.w3.org/2000/svg" xmlns:xlink="http://www.w3.org/1999/xlink" viewBox="0 0 374.37 380.41"><defs><style>.cls-1{fill:none;}.cls-2{fill:#ff9de6;}.cls-3{fill:#e8e500;}.cls-4{fill:#92b4e6;}.cls-5{fill:#93f56c;}.cls-6{clip-path:url(#clip-path);}.cls-7{fill:#a5f8f3;}</style><clipPath id="clip-path" transform="translate(-7011.08 -7010.55)"><rect class="cls-1" x="7055.01" y="7010.55" width="132.14" height="135.08"/></clipPath></defs><path class="cls-2" d="M7041.37,7155.69l17.15-15.11,18.77-92,3.4,30.28,43.87-45.88h-83.19v122.7" transform="translate(-7011.08 -7010.55)"/><path class="cls-3" d="M7041.37,7305.69l58.31-106.25,55.71,20.42v-36.25l-32.91,3.58,63.61-72.15L7208,7223.35,7023.5,7388.82l-12-68.4,29.86-14.73" transform="translate(-7011.08 -7010.55)"/><path class="cls-4" d="M7041.37,7305.69l-29.69,15.08.22-.42,12.68,68.28-1.8-.62,184.53-165.47-.34,1L7185,7115.26l1.88.5-63.61,72.14-.94-1.79,32.91-3.57,1.21-.13v39l-1.46-.53-55.72-20.42,1.33-.49c-4.86,8.87-9.7,17.78-14.7,26.58L7071.07,7253Zm0,0,28.61-53.54,14.28-26.69c4.72-8.92,9.61-17.72,14.47-26.54l.44-.82.88.32,55.71,20.42-1.46,1v-36.24l1.21,1.07-32.91,3.58-2.79.3,1.85-2.09,63.62-72.15,1.45-1.64.43,2.14,21.93,108.3.13.61-.46.42-184.53,165.47-1.48,1.33-.32-1.95-11.31-68.53,0-.29.26-.12,30-14.38" transform="translate(-7011.08 -7010.55)"/><path class="cls-5" d="M7085.22,7038.19l-35.38,2.34,3.94,66.46-12.41,16.74c-.08.09-.14.18-.21.27l.21-.29V7033h46.77l-2.92,5.2" transform="translate(-7011.08 -7010.55)"/><path class="cls-4" d="M7089.41,7033l-3.22,5.73-.3.53-.6.05-34.27,2.28,1.9,32.12.49,8.31c.17,2.77.41,5.53.49,8.31l.51,16.64,0,.26-.14.16-6.68,8.45c-2.14,2.66-4.22,5.27-6.24,7.9-.08.09-.14.18-.21.27l.21-.29c2.05-2.85,4-5.71,5.95-8.53l5.79-8.36-1.42-16.37c-.25-2.77-.33-5.54-.5-8.31l-.49-8.3-2-33.24-.06-1.1,1.11-.08,34.76-2.31,2.31-4.12h2.56" transform="translate(-7011.08 -7010.55)"/><path class="cls-5" d="M7038.86,7380.71l69.91-60.57-30.42-52.55-61.49,92.48,22,20.64" transform="translate(-7011.08 -7010.55)"/><path class="cls-4" d="M7038.86,7380.71l-22.62-20-.54-.48.41-.67,3.68-5.89c1.24-2,2.58-3.84,3.85-5.77l7.69-11.56,15.37-23.12,30.74-46.24,1-1.45.87,1.51,30.43,52.55.45.77-.68.59-35.3,30.49c-3,2.5-5.87,5.17-8.85,7.56l-8.89,7.27Zm0,0,17.36-15.84,8.59-7.87c2.84-2.66,5.76-5.05,8.63-7.59l34.61-30.09-.22,1.36-30.42-52.54,1.84.06-30.74,46.23-15.37,23.11-7.69,11.57c-1.29,1.92-2.52,3.89-3.84,5.78l-4,5.68-.13-1.16,21.38,21.3" transform="translate(-7011.08 -7010.55)"/><path class="cls-5" d="M7113.82,7317.17l-32.46-55.34,14.22-20.47,33.57,62.1-15.33,13.71" transform="translate(-7011.08 -7010.55)"/><path class="cls-4" d="M7113.82,7317.17c2.59-2.48,5.09-4.95,7.52-7.35l7.14-7.1-.21,1.21c-1.58-2.49-2.84-5.15-4.28-7.72l-4.19-7.76-8.39-15.52-16.79-31.05,1.85.1-14.22,20.47,0-1.17q8,13.65,15.91,27.32c1.33,2.28,2.63,4.59,4,6.83.66,1.13,1.28,2.34,1.92,3.55l1.91,3.59Zm0,0-8.4-13.07-2.14-3.32c-.72-1.11-1.46-2.2-2.14-3.38-1.37-2.36-2.77-4.67-4.16-7q-8.32-14-16.56-28l-.34-.6.39-.57,14.22-20.47,1-1.45.83,1.56,16.79,31,8.39,15.53,4.2,7.76c1.36,2.61,2.89,5.12,4.11,7.81l.35.76-.56.45-8.17,6.61c-2.68,2.17-5.29,4.26-7.82,6.36" transform="translate(-7011.08 -7010.55)"/><path class="cls-5" d="M7134.91,7298.71l-34.81-63.88,45.08,12.38Z" transform="translate(-7011.08 -7010.55)"/><path class="cls-4" d="M7134.91,7298.71c.82-4.55,1.58-9,2.29-13.5s1.25-8.94,2.1-13c1.52-8.41,3.14-16.76,4.82-25.17l.78,1.25-45.08-12.38,1.24-1.56c5.73,10.49,11.36,21,16.93,31.48l4.18,7.92,2.09,3.94c.7,1.32,1.38,2.75,2.06,4.14Q7130.49,7290.17,7134.91,7298.71Zm0,0q-4.26-7.43-8.82-15c-.75-1.27-1.52-2.5-2.28-3.84l-2.26-4.05-4.52-8.05c-6-10.75-12-21.59-17.87-32.39l-1.23-2.24,2.47.67,45.08,12.39,1,.27-.2,1c-1.75,8.74-3.55,17.56-5.45,26.31-.87,4.5-2.06,8.56-3,12.72s-1.95,8.22-2.85,12.25" transform="translate(-7011.08 -7010.55)"/><path class="cls-2" d="M7190.31,7209.94l-5.61-126.34,40.06,21.36v-38.24l56.62-3.83-4.09-39.39,105.54-7.57L7367,7033.5l-176.68,176.44" transform="translate(-7011.08 -7010.55)"/><path class="cls-4" d="M7190.31,7209.94q24.38-24.63,48.42-49.16l12-12.28,12-12.07,24-24.1,48-48.14,24.06-24,6-6c.5-.5,1-1,1.49-1.5l1.43-1.58,2.86-3.18,11.43-12.66.89,1.8-105.55,7.57,1-1.19,4.09,39.39.11,1.12-1.12.08-56.61,3.83,1-1.09v40.05l-1.6-.85-40.07-21.36,1.6-1,1.37,31.31c.47,10.4.7,20.9,1,31.43l1,31.71Zm0,0-1.66-31.22-1.82-31.47c-.6-10.53-1.32-21.08-1.78-31.73l-1.44-31.88-.08-1.9,1.67.91,40.08,21.36-1.6.95v-39.25l1-.07,56.62-3.83-1,1.2-4.08-39.4-.13-1.11,1.12-.08,105.54-7.57,2.7-.19-1.81,2-11.45,12.7-2.86,3.17-1.44,1.59c-.49.51-1,1-1.51,1.52l-6.07,6.06L7336,7066l-48.68,48.46L7263,7138.59l-12.19,12.07-12.17,11.86q-24.29,23.73-48.29,47.42" transform="translate(-7011.08 -7010.55)"/><path class="cls-3" d="M7124,7033.5l-43.61,45.64-3.41-30.29-18.76,92L7177.19,7033l7.51-21.22-43.62,3.39-17,18.34" transform="translate(-7011.08 -7010.55)"/><g class="cls-6"><path class="cls-4" d="M7124,7033.5l4.24-4.61c1.42-1.52,2.81-3.08,4.21-4.62,2.81-3.08,5.55-6.23,8.33-9.35l.09-.08.14,0,10.89-1.14,10.88-1.12c3.62-.35,7.25-.77,10.88-1.05l10.91-.83,1.66-.13-.55,1.57-7.5,21.23-.09.26-.2.18L7059,7141.65l-2.46,2.23.66-3.24,18.76-92,1.38-6.74.77,6.83,3.41,30.29-1.87-.63c1.8-1.91,3.6-3.83,5.44-5.72l5.57-5.59,5.58-5.57,5.62-5.56c3.75-3.69,7.45-7.42,11.18-11.14l5.53-5.63Zm0,0-5.42,5.73-5.38,5.78c-3.54,3.89-7.11,7.76-10.62,11.68l-5.29,5.86-5.32,5.82-5.34,5.82c-1.79,1.93-3.64,3.81-5.45,5.7l-1.62,1.69-.26-2.32-3.4-30.29,2.14.1-18.76,92-1.79-1,118.93-107.87-.29.45,7.5-21.23,1.1,1.44-10.9.88c-3.63.27-7.27.43-10.91.65L7152,7015l-10.93.56.24-.11c-2.91,3-5.84,6-8.72,9-1.43,1.52-2.88,3-4.3,4.54l-4.28,4.57" transform="translate(-7011.08 -7010.55)"/></g><path class="cls-4" d="M7082.47,7082.21l45-46.63h12.61l-31.35,32-26.24,14.64" transform="translate(-7011.08 -7010.55)"/><path class="cls-4" d="M7041.37,7132.06l13.33-17,3.56,25.81-16.89,14.83v-23.62" transform="translate(-7011.08 -7010.55)"/><path class="cls-4" d="M7122.55,7033l-22.17,22.31-.7-5,18.71-17.27h4.16" transform="translate(-7011.08 -7010.55)"/><path class="cls-4" d="M7099.29,7056.3l-.73-5.26-3.87,4.12.93,4.71,3.67-3.57" transform="translate(-7011.08 -7010.55)"/><path class="cls-3" d="M7310.52,7032.14l-18.75,49.22-49.41,8.84-10.22,53.09-21.81-18.71,8.16,56.46,42.94-42.88,5.12-40.48,47.52-12.09,38.36-62.09-41.91,8.64" transform="translate(-7011.08 -7010.55)"/><path class="cls-4" d="M7310.52,7032.14l41.75-9.37,1.68-.37-.89,1.5-9.34,15.67c-3.08,5.25-6.38,10.35-9.55,15.55l-19.17,31-.23.37-.43.11-47.52,12.1.82-.92-5.14,40.48,0,.37-.27.27-42.94,42.87-1.53,1.53-.31-2.15-8.15-56.47-.41-2.85,2.19,1.88,21.81,18.71-1.77.62L7241.3,7090l.14-.74.73-.13,24.7-4.42,12.36-2.24c4.12-.7,8.26-1.35,12.38-2l-.7.59Zm0,0-17.89,49.54-.17.48-.53.1c-4.1.8-8.2,1.62-12.32,2.4l-12.35,2.18-24.7,4.43.87-.86-10.22,53.08-.35,1.84-1.42-1.22-21.81-18.72,1.78-1,8.15,56.46-1.84-.61,42.93-42.87-.31.62,5.14-40.47.09-.73.72-.19,47.51-12.09-.66.48,19.18-31.05c3.22-5.15,6.32-10.39,9.63-15.49l9.84-15.37.79,1.12-42.06,7.91" transform="translate(-7011.08 -7010.55)"/><path class="cls-4" d="M7235.51,7146l9.84-52.83,47-9.83-1.15,2.68-42.68,9.19-7.28,43.27-5.75,7.52" transform="translate(-7011.08 -7010.55)"/><path class="cls-4" d="M7223.77,7175.76l-2-12.31,4.17-3.32,1.85,11.63-4,4" transform="translate(-7011.08 -7010.55)"/><path class="cls-4" d="M7229.8,7169.73l-2-12.32,4.18-3.32,1.85,11.64-4,4" transform="translate(-7011.08 -7010.55)"/><path class="cls-4" d="M7235.82,7164.11l-2-12.31,4.17-3.32,1.86,11.63-4,4" transform="translate(-7011.08 -7010.55)"/><path class="cls-5" d="M7273.54,7126.28l1.24-23.52,30.13-7.81-31.37,31.33" transform="translate(-7011.08 -7010.55)"/><path class="cls-4" d="M7275.82,7103.61l-1,19.91,26.55-26.52Zm-3.51,25.44,1.43-27.14,34.76-9-36.19,36.15" transform="translate(-7011.08 -7010.55)"/><path class="cls-7" d="M7143.63,7102.45l-27.36,20.42,23.28,32.16,51.62-81.68-64.91,7.66-88.51,77.89v51l89.26-72.22" transform="translate(-7011.08 -7010.55)"/><path class="cls-4" d="M7143.63,7102.45l-13.48,10.49-13.51,10.43.14-.87,11.89,15.89,5.95,7.95c2,2.67,3.87,5.37,5.81,8.06l-1.8.05,51.62-81.67,1,1.66-64.9,7.65.58-.26-88.51,77.88.37-.81v51l-1.77-.84,22.32-18.06,11.15-9c3.71-3,7.51-5.93,11.27-8.88l22.59-17.73,22.62-17.67-22,18.44-22,18.39c-3.69,3.06-7.33,6.16-11.05,9.17l-11.18,9-22.31,18.06-1.77,1.43v-53.81l.37-.32,88.5-77.89.26-.22.34,0,64.91-7.66,2.26-.27-1.21,1.93-51.63,81.67-.85,1.35-.95-1.29c-1.94-2.68-3.91-5.34-5.83-8l-5.7-8.13-11.37-16.27-.35-.5.49-.36,13.85-10,13.88-9.95" transform="translate(-7011.08 -7010.55)"/><path class="cls-4" d="M7171.4,7094.34c-2.48,4.35-5,8.66-7.57,13-.65,1.07-1.27,2.17-1.92,3.23s-1.37,2.1-2,3.16l-4.05,6.33-16.19,25.33-.56.88-.62-.83L7123,7125l-.42-.56.54-.44L7142,7108.7l.48-.39.47.41,8.69,7.83.56.51-.54.54-3.32,3.32c-1.07,1.14-2.23,2.19-3.39,3.25l-6.89,6.39-.23.21-.19-.22-4.21-5.29,4.65,4.91-.42,0,6.39-6.88c1.07-1.15,2.12-2.31,3.26-3.38l3.33-3.31,0,1.05-8.69-7.83.93,0L7124,7125.14l.13-1,15.5,20.41-1.19.05,16.19-25.32,4.05-6.33c.67-1.05,1.32-2.14,2-3.18s1.42-2.06,2.13-3.1c2.87-4.11,5.7-8.25,8.6-12.33" transform="translate(-7011.08 -7010.55)"/><path class="cls-4" d="M7043.45,7171.74c2-2.79,4-5.53,6-8.29,1-1.36,2-2.79,3.09-4.07l3.25-4,.13-.17.2-.06,13.51-4.36-.39.3,11.8-18.57.2-.3.36,0,9.51-.74-.52.29,15.58-20.54.12-.16.18-.07c1.31-.54,2.59-1.18,3.95-1.64l4-1.47q4-1.5,8-2.94-3.82,1.92-7.67,3.79l-3.84,1.87c-1.27.67-2.61,1.15-3.91,1.72l.3-.23-15.59,20.55-.2.25-.33,0-9.5.73.55-.33-11.81,18.57-.14.22-.25.08-13.5,4.35.33-.23-3.21,4c-1,1.36-2.24,2.58-3.37,3.86-2.29,2.53-4.57,5.08-6.89,7.58" transform="translate(-7011.08 -7010.55)"/><path class="cls-4" d="M7133.75,7181l49.92-59.19-44.81,56.32,23.43-.85-28.54,3.72" transform="translate(-7011.08 -7010.55)"/><path class="cls-4" d="M7157.26,7238.15l30.93-31-3.07-63.56.89,62.16-28.75,32.41" transform="translate(-7011.08 -7010.55)"/><path class="cls-4" d="M7184.7,7033l-37.83,35.94,61.08-8.42-15.85,21.27,28.45,15.9.35-36.49,32.71-2.21L7233,7040.52l1.45,16.33-18,1.28-.26,31.22-17.12-6.81L7214,7056l-49.67,7.75,41.15-30.76H7184.7" transform="translate(-7011.08 -7010.55)"/><path class="cls-4" d="M7222.92,7026.35l29.33,26.07-1.79,1,6,1.14-.89-4.08-1.39.83-22.63-24.93h-8.63" transform="translate(-7011.08 -7010.55)"/><path class="cls-4" d="M7233.72,7026.35l29.32,26.07-1.79,1,6,1.14-.9-4.08-1.38.83-22.63-24.93h-8.63" transform="translate(-7011.08 -7010.55)"/><path class="cls-4" d="M7244.83,7026.35l29.33,26.07-1.79,1,6,1.14-.89-4.08-1.39.83-22.63-24.93h-8.63" transform="translate(-7011.08 -7010.55)"/><path class="cls-4" d="M7030.14,7285.11l43.44-50.93,1.7,3,1.74-10.27-6.94,1.68,1.47,2.32-41.73,39.5.32,14.69" transform="translate(-7011.08 -7010.55)"/><path class="cls-4" d="M7029.74,7266.72l43.44-50.93,1.7,3,1.74-10.27-6.95,1.66,1.48,2.34L7029.41,7252l.33,14.7" transform="translate(-7011.08 -7010.55)"/><path class="cls-4" d="M7029.32,7247.78l43.44-50.94,1.71,3,1.73-10.27-6.94,1.68,1.47,2.33-41.73,39.5.32,14.69" transform="translate(-7011.08 -7010.55)"/><path class="cls-4" d="M7237.3,7063.34l41.84-2.61-.51-4.86-.95,3.74-40.38,3.73" transform="translate(-7011.08 -7010.55)"/><path class="cls-4" d="M7227.2,7033l5.71,22.42-15.85,1.44v-4l-46.09,8.6,37.24-28.46h8.34l-35.78,24.46,38.17-10.23,1.79,7.31,8.51-1-9.79-20.54h7.75" transform="translate(-7011.08 -7010.55)"/><path class="cls-4" d="M7149.6,7211.61,7096,7190.17l-8,10.37-4.61-18.46,42.09-35.31,10.48,15.07-26.2,30.45,39.83-1.42Zm-33.1-21.74,23.13-28.12-14.23-19-46.34,37.43,6,35.73,12.27-22.62,53.67,20.41v-25l-34.46,1.15" transform="translate(-7011.08 -7010.55)"/></svg>