<svg id="Layer_1" data-name="Layer 1" xmlns="http://www.w3.org/2000/svg" xmlns:xlink="http://www.w3.org/1999/xlink" viewBox="0 0 555.19 269.06"><defs><style>.cls-1{fill:none;}.cls-2{fill:#c8c7c7;}.cls-3{fill:#c16758;}.cls-4{clip-path:url(#clip-path);}.cls-5{fill:#604c51;}.cls-6{clip-path:url(#clip-path-2);}.cls-7{fill:#7c7073;}.cls-8{fill:#8e5047;}.cls-9{fill:#32120c;}.cls-10{fill:#472715;}.cls-11{fill:#a7a5a6;}.cls-12{fill:#6d3517;}.cls-13{fill:#260d08;}</style><clipPath id="clip-path" transform="translate(-90.47 -19.66)"><rect class="cls-1" x="90.27" y="46" width="520.73" height="236"/></clipPath><clipPath id="clip-path-2" transform="translate(-90.47 -19.66)"><rect class="cls-1" x="113" y="19.46" width="517" height="269.25"/></clipPath></defs><path class="cls-2" d="M590,263.81h-15.8l6.2-15.74c9.43-1.64,18.66-12,21.37-24.63l13.9-64.7q.93-2.36,1.89-4.75,3.51-8.79,7.24-18.14a81.36,81.36,0,0,0,3.51-9.65,23,23,0,0,0,.19-10.69,19.3,19.3,0,0,0-2.33-5.67l6.69-31.16a27.41,27.41,0,0,0,.63-5.79,23.29,23.29,0,0,0-.16-2.8C642.45,72.8,647.53,82.57,645,94.2L613.94,239c-3,13.72-13.66,24.85-23.93,24.85m-15.82,0H399.61L384,261.07l15.95-1.48c30.87-2.94,59.17-5.34,84.27-7.59,15.45-1.4,29.71-2.62,42.58-3.7h51.11a15.67,15.67,0,0,0,2.44-.21l-6.11,15.72m-186.29,0H354.57l20.61-1.92,2.13.32,10.59,1.6m-80.45,0H188.69c-8.78,0-18.07-8.14-22.6-19.08a18.89,18.89,0,0,0,10.44,3.57H285.46l77,11.66-55,3.85m65.85-4.61-62.21-10.9h211c-11.64.9-24.32,1.88-37.95,2.88-25.12,1.85-53.45,4.06-84.38,6.17L373.3,259.2M616.7,154l9-42a18.11,18.11,0,0,1,1.46,3.87,21.73,21.73,0,0,1-.06,10.08,82.4,82.4,0,0,1-3.32,9.55q-3.62,9.38-7,18.24c0,.09-.07.19-.11.28" transform="translate(-90.47 -19.66)"/><path class="cls-3" d="M601.78,223.44c-2.95,13.72-13.66,24.86-23.92,24.86H176.53c-10.27,0-21.22-11.14-24.46-24.86L117.87,78.68C114.63,65,122,53.83,134.3,53.83H615.89c12.32,0,19.93,11.13,17,24.85L601.78,223.44" transform="translate(-90.47 -19.66)"/><g class="cls-4"><path class="cls-5" d="M590.85,217.94l7.29-56.51c2.32-18,5.16-39.82,8.24-64.89q1.15-9.41,2.4-19.39a83.27,83.27,0,0,0,1-10.06,21.8,21.8,0,0,0-2.38-9.8,16.14,16.14,0,0,0-7.17-7.12,15.45,15.45,0,0,0-4.95-1.5,23.91,23.91,0,0,0-5.34.06l-22.65,2.11L356.32,70.5,297.57,76q-29.79,2.65-60.23,5.35L206.84,84l-30.7,2.58-61.7,5.17-1.93.16-.94.07-.71.11a7.07,7.07,0,0,0-1.4.25,9.16,9.16,0,0,0-1.32.38,10.8,10.8,0,0,0-4.39,2.87c-2.42,2.57-3.49,6.53-3.17,10.63a26.34,26.34,0,0,0,.38,2.89l.5,1.85.14.47c0,.09,0,.08,0,.07l.06.18.3.92,2.37,7.39q2.35,7.38,4.73,14.75,4.74,14.73,9.44,29.4t9.25,29.27Q137,222.62,146,251.25l.55,1.79.55,1.58c.33,1.06.84,2.06,1.27,3.08a37.74,37.74,0,0,0,3.42,5.7,36,36,0,0,0,4.43,4.87,26,26,0,0,0,5.24,3.57,19.64,19.64,0,0,0,2.81,1.13l1.41.35c.43.06.79.1,1.18.18a2,2,0,0,0,.52,0h1.45l.46,0,.91-.06,3.67-.26,14.55-1,211.3-14.8c30.93-2.11,59.26-4.32,84.38-6.17s47-3.6,65-5l12.79-1,5.83-.46a18.81,18.81,0,0,0,5.33-1,22.91,22.91,0,0,0,8-5.34,33,33,0,0,0,4.91-6.41,36.75,36.75,0,0,0,4.12-10.24,26.94,26.94,0,0,0,.57-2.78c.11-.63.16-.95.16-.95m0,0-.15.95c-.12.63-.23,1.57-.56,2.79a37.24,37.24,0,0,1-4.07,10.26,33.27,33.27,0,0,1-4.91,6.46,22.87,22.87,0,0,1-8,5.4,19.11,19.11,0,0,1-5.36,1.06l-5.83.48-12.78,1.08c-18,1.51-39.9,3.32-65,5.58s-53.4,4.65-84.27,7.59L189,279.23l-14.52,1.36-3.66.34-.91.08-.45,0-.71,0c-.64,0-1.15.05-1.92,0s-1.67-.14-2.46-.26l-2.18-.47a27.78,27.78,0,0,1-4.06-1.52,33.58,33.58,0,0,1-7.07-4.57,43.38,43.38,0,0,1-5.7-6,46.23,46.23,0,0,1-4.4-7c-.57-1.25-1.22-2.48-1.67-3.79l-.71-1.94-.6-1.77q-9.45-28.46-19.09-57.53l-9.65-29.15q-4.78-14.64-9.59-29.36c-1.59-4.9-3.19-9.82-4.8-14.72l-2.41-7.38-.29-.92-.21-.68-.13-.46-.52-1.89a35.35,35.35,0,0,1-.73-4.78,27,27,0,0,1,.91-9.49,21.65,21.65,0,0,1,4.82-8.73,21,21,0,0,1,8.41-5.61,22.26,22.26,0,0,1,4.8-1.17l1.21-.16,1-.08,1.93-.17,61.72-4.9L206,74.25Q221.37,73.1,236.58,72l60.3-4.48,58.87-4.12,211.3-14.79L589.75,47l1.43-.1,1.39,0a19.16,19.16,0,0,1,2.88.19,18,18,0,0,1,5.43,1.74,17.72,17.72,0,0,1,7.7,7.86A22.94,22.94,0,0,1,611,67.07a83.43,83.43,0,0,1-1.09,10.23q-1.39,10-2.68,19.35c-3.5,25-6.41,46.83-8.8,64.81-4.8,35.94-7.55,56.48-7.55,56.48" transform="translate(-90.47 -19.66)"/></g><g class="cls-6"><path class="cls-7" d="M572.65,267.79s7.49-19.31,20.62-53.1c6.56-16.9,14.54-37.4,23.54-61q3.39-8.85,7-18.24a82.4,82.4,0,0,0,3.32-9.55,21.73,21.73,0,0,0,.06-10.08,16.28,16.28,0,0,0-5.26-8.65,15.77,15.77,0,0,0-4.45-2.65,23.51,23.51,0,0,0-5.2-1.23l-22.5-3.41L380.33,68.12,322,59.28,262.24,50,232,45.23l-30.41-4.89L140.44,30.5l-1.91-.3-.94-.15-.71-.08a7.58,7.58,0,0,0-1.41-.09,4.68,4.68,0,0,1-.53,0,4,4,0,0,0-.85.05,10.82,10.82,0,0,0-4.94,1.74c-3,1.9-5,5.49-5.62,9.53a24.6,24.6,0,0,0-.32,2.91l0,1.91,0,.49v.08s0,0,0,.18l.06,1,.53,7.74c.36,5.15.71,10.31,1.06,15.45q1.06,15.45,2.12,30.82t2,30.65q1.93,30.54,3.86,60.51l.1,1.87.15,1.67c.07,1.11.32,2.19.5,3.29a37.37,37.37,0,0,0,2,6.36,36.17,36.17,0,0,0,3.13,5.78A25.23,25.23,0,0,0,143,216.6a20.21,20.21,0,0,0,2.44,1.78l1.29.67c.39.16.74.29,1.1.46a1.18,1.18,0,0,0,.36.11l.45.11.89.22c.22.05.18.05.15.05h.05l.45.07.91.17,3.61.63L169,223.39,377.68,260c30.52,5.42,58.55,10.11,83.38,14.36s46.48,7.85,64.33,10.8l12.65,2.1,5.76.95a18.49,18.49,0,0,0,5.41.3,22.78,22.78,0,0,0,9.08-3.25,33.82,33.82,0,0,0,6.31-5,37,37,0,0,0,6.45-8.95,27.53,27.53,0,0,0,1.21-2.57l.39-.88m0,0-.38.89c-.27.58-.6,1.47-1.2,2.57a36.85,36.85,0,0,1-6.43,9,32.15,32.15,0,0,1-6.3,5.08,22.65,22.65,0,0,1-9.11,3.31,18.67,18.67,0,0,1-5.45-.27l-5.78-.93-12.66-2c-17.85-2.89-39.53-6.39-64.41-10.25S408,266.8,377.31,262.21L167.87,230.47l-14.42-2.19-3.63-.55-.91-.13-.45-.07-.69-.14c-.63-.15-1.13-.21-1.87-.44s-1.6-.54-2.34-.84l-2-1a28.31,28.31,0,0,1-3.58-2.46,33.47,33.47,0,0,1-5.77-6.14,44,44,0,0,1-4.12-7.16,46.79,46.79,0,0,1-2.6-7.84c-.25-1.36-.58-2.7-.71-4.09l-.23-2.05-.16-1.86q-2.33-29.91-4.72-60.45-1.19-15.27-2.38-30.62T115,71.64c-.37-5.14-.75-10.3-1.13-15.45l-.57-7.74-.07-1,0-.7,0-.48,0-2a33.31,33.31,0,0,1,.44-4.81,26.81,26.81,0,0,1,3.15-9,21.89,21.89,0,0,1,6.77-7.32A20.9,20.9,0,0,1,133,19.79a22.13,22.13,0,0,1,4.95,0l1.22.14,1,.15,1.92.32,61.08,10.13,30.39,5.05,30.19,5.14,59.6,10.2,58.13,10.18L590.13,97.66l22.42,3.93,1.41.25,1.36.32a18,18,0,0,1,2.73.88,17.42,17.42,0,0,1,4.86,3,17.76,17.76,0,0,1,5.6,9.49,23,23,0,0,1-.19,10.69,81.36,81.36,0,0,1-3.51,9.65q-3.72,9.35-7.24,18.14c-9.39,23.44-17.43,43.93-24.06,60.8-13.28,33.73-20.86,53-20.86,53" transform="translate(-90.47 -19.66)"/></g><path class="cls-8" d="M577.86,248.3H526.75q12-1,22.4-1.88l12.78-1.08,5.83-.48a19.11,19.11,0,0,0,5.36-1.06,22.87,22.87,0,0,0,8-5.4,33.27,33.27,0,0,0,4.91-6.46,37.24,37.24,0,0,0,4.07-10.26c.33-1.22.44-2.16.56-2.79l.15-.95s2.75-20.54,7.55-56.48c2.21-16.58,4.85-36.44,8-59.05l5.88.89a23.51,23.51,0,0,1,5.2,1.23,15.77,15.77,0,0,1,4.45,2.65,14.79,14.79,0,0,1,3.8,4.78l-9,42c-9,23.47-16.9,43.88-23.43,60.71-5.27,13.58-9.64,24.81-13,33.4a15.67,15.67,0,0,1-2.44.21m-55.81,0h-211l-130-22.79c9.87.79,19.79,1.22,29.59,1.58q7.81.3,15.64.29c33.66,0,67.36-3.92,100.39-10.08,61-11.39,124-30.57,170.11-74.18,15.79-14.93,28.41-32.48,38.64-51.47l54.29,8.24,15.89,2.41c-2.8,22.66-5.38,42.53-7.52,59.13l-7.29,56.51s-.05.32-.16.95a26.94,26.94,0,0,1-.57,2.78A36.75,36.75,0,0,1,586,231.91a33,33,0,0,1-4.91,6.41,22.91,22.91,0,0,1-8,5.34,18.81,18.81,0,0,1-5.33,1l-5.83.46-12.79,1-27.07,2.15" transform="translate(-90.47 -19.66)"/><path class="cls-9" d="M526.75,248.3h-4.7l27.07-2.15,12.79-1,5.83-.46a18.81,18.81,0,0,0,5.33-1,22.91,22.91,0,0,0,8-5.34,33,33,0,0,0,4.91-6.41,36.75,36.75,0,0,0,4.12-10.24,26.94,26.94,0,0,0,.57-2.78c.11-.63.16-.95.16-.95l7.29-56.51c2.14-16.6,4.72-36.47,7.52-59.13l.73.11c-3.14,22.61-5.78,42.47-8,59.05-4.8,35.94-7.55,56.48-7.55,56.48l-.15.95c-.12.63-.23,1.57-.56,2.79a37.24,37.24,0,0,1-4.07,10.26,33.27,33.27,0,0,1-4.91,6.46,22.87,22.87,0,0,1-8,5.4,19.11,19.11,0,0,1-5.36,1.06l-5.83.48-12.78,1.08q-10.38.86-22.4,1.88" transform="translate(-90.47 -19.66)"/><path class="cls-8" d="M285.46,248.3H176.53c-9,0-18.57-8.6-23-20l14.3,2.17L285.46,248.3" transform="translate(-90.47 -19.66)"/><path class="cls-8" d="M580.41,248.07l13.1-33.28c6.18-15.72,13.59-34.59,22.17-56l-13.9,64.7c-2.71,12.58-11.94,23-21.37,24.63" transform="translate(-90.47 -19.66)"/><path class="cls-8" d="M626.18,109.84a16.09,16.09,0,0,0-3.27-3.82,17.42,17.42,0,0,0-4.86-3,18,18,0,0,0-2.73-.88l-1.36-.32-1.41-.25-5.89-1c.18-1.29.36-2.6.54-3.91q1.29-9.39,2.68-19.35A83.43,83.43,0,0,0,611,67.07a26.84,26.84,0,0,0-.34-4.08c7.41,1.21,14.78,2.68,22.21,4.41-1.94-8-8.13-13.44-16.64-13.57,10.36.16,17.3,8.23,17.3,19.06a27.41,27.41,0,0,1-.63,5.79l-6.69,31.16m-20.29-9.41-15.76-2.77L537.2,88.39c3.13-6,6-12.14,8.71-18.37q2.42-5.62,4.63-11.35,11,.36,22.1.67a285.68,285.68,0,0,1,36.63,3.43,26.29,26.29,0,0,1,.46,4.32,83.27,83.27,0,0,1-1,10.06q-1.24,10-2.4,19.39c-.17,1.3-.33,2.6-.49,3.89" transform="translate(-90.47 -19.66)"/><path class="cls-9" d="M606.66,100.56l-.77-.13c.16-1.29.32-2.59.49-3.89q1.15-9.41,2.4-19.39a83.27,83.27,0,0,0,1-10.06,26.29,26.29,0,0,0-.46-4.32l1.36.22a26.84,26.84,0,0,1,.34,4.08,83.43,83.43,0,0,1-1.09,10.23q-1.39,10-2.68,19.35c-.18,1.31-.36,2.62-.54,3.91" transform="translate(-90.47 -19.66)"/><path class="cls-10" d="M311.09,248.3H285.46L167.87,230.47l-14.3-2.17a37.51,37.51,0,0,1-1.5-4.86l-.41-1.73c3.32.67,6.66,1.22,10,1.69,6.44.92,12.95,1.59,19.49,2.11l130,22.79m269.21-.21c3.33-8.59,7.7-19.82,13-33.4,6.53-16.83,14.48-37.24,23.43-60.71l-1,4.76c-8.58,21.46-16,40.33-22.17,56l-13.1,33.28-.11,0M625.72,112a14.79,14.79,0,0,0-3.8-4.78,15.77,15.77,0,0,0-4.45-2.65,23.51,23.51,0,0,0-5.2-1.23l-5.88-.89-.73-.11-15.89-2.41-54.29-8.24c.58-1.08,1.16-2.17,1.72-3.26l52.93,9.27,15.76,2.77.77.13,5.89,1,1.41.25,1.36.32a18,18,0,0,1,2.73.88,17.42,17.42,0,0,1,4.86,3,16.09,16.09,0,0,1,3.27,3.82l-.46,2.12" transform="translate(-90.47 -19.66)"/><path class="cls-11" d="M146.4,199.45l-18-76,18,76" transform="translate(-90.47 -19.66)"/><path class="cls-8" d="M146.4,199.45l-18-76q-.7-10.83-1.4-21.71l-.75-11,49.84-4.18L206.84,84l30.5-2.69q30.41-2.68,60.23-5.35l5.7-.53C275.11,83.08,248,94.2,223.94,111.09c-17,11.94-32,27.18-46.43,42-12.67,13-26.3,28.34-31.11,46.34M125.6,80.63c-.22-3.23-.45-6.47-.67-9.7q-.47-6.9-1-13.81a16.85,16.85,0,0,1,10.32-3.29H287l35,5.45,29.08,4.41-54.19,3.79L236.58,72Q221.36,73.08,206,74.25l-30.71,2.43L125.6,80.63" transform="translate(-90.47 -19.66)"/><path class="cls-9" d="M126.3,90.78c-.23-3.38-.47-6.76-.7-10.15l49.73-3.95L206,74.25Q221.37,73.1,236.58,72l60.3-4.48,54.19-3.79c2,.3,4,.61,6,.9q-5.55.82-11.1,1.74a428.64,428.64,0,0,0-42.71,9.12l-5.7.53q-29.79,2.65-60.23,5.35L206.84,84l-30.7,2.58L126.3,90.78" transform="translate(-90.47 -19.66)"/><path class="cls-8" d="M382.77,61.34l-1.3-.23-41.56-7.28h152q-24.36,1.7-50,3.49c-19.75.63-39.45,1.91-59.12,4m167.77-2.67c-17.07-.55-34.13-1.13-51.21-1.5l35.88-3.34h17.17c-.61,1.62-1.21,3.23-1.84,4.84" transform="translate(-90.47 -19.66)"/><path class="cls-9" d="M441.89,57.32q25.65-1.77,50-3.49h43.29l-35.88,3.34-4.41-.09q-11.16-.21-22.3-.22-15.37,0-30.73.46" transform="translate(-90.47 -19.66)"/><path class="cls-10" d="M128.45,123.46,117.87,78.68c-2.18-9.22.43-17.27,6.11-21.56q.48,6.91,1,13.81c.22,3.23.45,6.47.67,9.7.23,3.39.47,6.77.7,10.15l.75,11q.7,10.89,1.4,21.71M357.08,64.59c-2-.29-4-.6-6-.9L322,59.28l-35-5.45h52.9l41.56,7.28,1.3.23q-12.86,1.38-25.69,3.25" transform="translate(-90.47 -19.66)"/><path class="cls-12" d="M632.84,67.4c-7.43-1.73-14.8-3.2-22.21-4.41a20.74,20.74,0,0,0-2-6.34,19.23,19.23,0,0,0-1.76-2.82h9.38c8.51.13,14.7,5.62,16.64,13.57m-23.57-4.63a285.68,285.68,0,0,0-36.63-3.43q-11.05-.3-22.1-.67c.63-1.61,1.23-3.22,1.84-4.84H605a17.78,17.78,0,0,1,2.39,3.46,19.22,19.22,0,0,1,1.92,5.48" transform="translate(-90.47 -19.66)"/><path class="cls-13" d="M610.63,63l-1.36-.22a19.22,19.22,0,0,0-1.92-5.48A17.78,17.78,0,0,0,605,53.83h1.86a19.23,19.23,0,0,1,1.76,2.82,20.74,20.74,0,0,1,2,6.34" transform="translate(-90.47 -19.66)"/></svg>