<?xml version="1.0" encoding="UTF-8"?>
<svg xmlns="http://www.w3.org/2000/svg" xmlns:xlink="http://www.w3.org/1999/xlink" width="750pt" height="299.999988pt" viewBox="0 0 750 299.999988" version="1.2">
<defs>
<clipPath id="clip1">
  <path d="M 212 9.214844 L 520.898438 9.214844 L 520.898438 281.382812 L 212 281.382812 Z M 212 9.214844 "/>
</clipPath>
</defs>
<g id="surface1">
<path style=" stroke:none;fill-rule:nonzero;fill:rgb(35.289001%,76.858521%,80.778503%);fill-opacity:1;" d="M 361.566406 145.839844 C 360.863281 142.953125 360.945312 140.203125 362.144531 137.769531 C 364.992188 131.914062 369.730469 130.015625 373.78125 129.582031 "/>
<path style=" stroke:none;fill-rule:nonzero;fill:rgb(100%,100%,100%);fill-opacity:1;" d="M 361.566406 147.609375 C 360.765625 147.609375 360.050781 147.070312 359.847656 146.261719 C 359.007812 142.785156 359.242188 139.667969 360.558594 136.988281 C 363.164062 131.628906 367.675781 128.457031 373.59375 127.824219 C 374.535156 127.679688 375.429688 128.421875 375.535156 129.394531 C 375.640625 130.359375 374.9375 131.230469 373.96875 131.339844 C 369.253906 131.84375 365.8125 134.265625 363.730469 138.539062 C 362.785156 140.460938 362.632812 142.769531 363.285156 145.417969 C 363.511719 146.375 362.933594 147.324219 361.988281 147.5625 C 361.839844 147.59375 361.703125 147.609375 361.566406 147.609375 "/>
<path style=" stroke:none;fill-rule:nonzero;fill:rgb(35.289001%,76.858521%,80.778503%);fill-opacity:1;" d="M 370.460938 161.285156 C 368.167969 158.519531 366.078125 155.636719 364.457031 152.777344 "/>
<path style=" stroke:none;fill-rule:nonzero;fill:rgb(100%,100%,100%);fill-opacity:1;" d="M 370.460938 163.054688 C 369.957031 163.054688 369.445312 162.832031 369.101562 162.414062 C 366.542969 159.328125 364.46875 156.371094 362.914062 153.648438 C 362.441406 152.800781 362.738281 151.722656 363.585938 151.242188 C 364.421875 150.769531 365.5 151.058594 365.992188 151.910156 C 367.433594 154.453125 369.394531 157.230469 371.816406 160.164062 C 372.4375 160.917969 372.332031 162.027344 371.582031 162.648438 C 371.257812 162.925781 370.859375 163.054688 370.460938 163.054688 "/>
<g clip-path="url(#clip1)" clip-rule="nonzero">
<path style=" stroke:none;fill-rule:nonzero;fill:rgb(96.469116%,52.938843%,7.058716%);fill-opacity:1;" d="M 514.4375 186.070312 C 512.378906 183.144531 509.394531 181.09375 505.878906 180.289062 C 506.113281 180.289062 506.304688 180.199219 506.53125 180.175781 C 506.773438 180.148438 506.996094 180.105469 507.222656 180.082031 C 507.847656 179.972656 508.46875 179.855469 509.042969 179.667969 C 510.421875 179.28125 511.722656 178.699219 512.914062 177.921875 C 513.085938 177.804688 513.273438 177.734375 513.433594 177.644531 C 514.238281 177.085938 514.910156 176.578125 515.5625 175.910156 C 518.554688 172.988281 520.410156 168.472656 520.476562 163.476562 C 520.140625 154.191406 513.308594 147.46875 505.546875 147.46875 C 505.738281 147.421875 505.917969 147.335938 506.117188 147.261719 C 506.457031 147.148438 506.789062 147.007812 507.117188 146.871094 C 507.660156 146.664062 508.203125 146.40625 508.71875 146.109375 C 509.0625 145.925781 509.421875 145.71875 509.75 145.488281 C 510.207031 145.1875 510.621094 144.839844 511.042969 144.496094 C 511.335938 144.242188 511.675781 143.996094 511.957031 143.6875 C 512.617188 143.046875 513.226562 142.328125 513.78125 141.550781 C 514.742188 140.050781 515.457031 138.296875 515.941406 136.457031 C 516.519531 134.320312 516.617188 132.039062 516.183594 129.710938 C 516.09375 129.25 516.09375 128.789062 515.96875 128.324219 C 515.652344 127.222656 515.269531 126.164062 514.824219 125.152344 C 514.792969 125.082031 514.769531 124.964844 514.738281 124.894531 C 514.722656 124.875 514.714844 124.847656 514.703125 124.828125 C 513.226562 121.625 511.0625 119.023438 508.152344 117.503906 C 507.214844 116.996094 506.25 116.578125 505.246094 116.28125 C 505.136719 116.238281 505.015625 116.238281 504.898438 116.214844 C 504.015625 115.957031 503.128906 115.769531 502.226562 115.683594 C 502.113281 115.683594 502.027344 115.703125 501.921875 115.703125 C 500.992188 115.632812 500.0625 115.632812 499.125 115.769531 C 498.089844 115.890625 497.070312 116.144531 496.058594 116.511719 L 496.058594 116.460938 C 496.058594 116.460938 496.058594 116.460938 496.0625 116.460938 C 498.808594 115.476562 501.027344 113.632812 502.667969 111.355469 C 505.175781 107.894531 506.210938 103.363281 505.160156 98.730469 C 505.105469 98.457031 505.105469 98.199219 505.023438 97.925781 C 504.742188 96.863281 504.308594 95.804688 503.78125 94.769531 C 503.757812 94.703125 503.742188 94.632812 503.703125 94.5625 C 503.695312 94.535156 503.695312 94.535156 503.695312 94.515625 C 502.921875 92.789062 501.785156 91.363281 500.503906 90.089844 C 498.484375 88.066406 496.039062 86.59375 493.539062 85.855469 C 492.726562 85.628906 491.929688 85.507812 491.121094 85.421875 C 487.820312 84.976562 484.53125 85.695312 481.609375 87.628906 C 485.683594 85.027344 487.804688 80.738281 487.972656 76.109375 C 488.109375 72.21875 486.882812 68.121094 484.050781 64.5 C 480.71875 60.84375 476.351562 58.652344 472.164062 58.378906 C 470.269531 58.28125 468.417969 58.628906 466.660156 59.246094 C 465.335938 59.714844 464.066406 60.359375 462.910156 61.207031 C 462.179688 61.722656 461.484375 62.292969 460.847656 62.933594 C 461.324219 62.429688 461.691406 61.878906 462.066406 61.328125 C 463.816406 58.859375 464.6875 56.023438 464.671875 53.03125 C 464.671875 52.527344 464.738281 51.992188 464.671875 51.460938 C 464.597656 50.664062 464.390625 49.855469 464.183594 49.050781 C 464.117188 48.769531 464.109375 48.496094 464.023438 48.242188 C 463.6875 47.15625 463.253906 46.101562 462.703125 45.136719 C 461.488281 43.195312 459.835938 41.449219 457.859375 39.972656 C 457.011719 39.332031 456.097656 38.78125 455.191406 38.289062 C 454.941406 38.152344 454.695312 38.011719 454.445312 37.902344 C 453.5 37.4375 452.523438 37.046875 451.542969 36.773438 C 450.507812 36.566406 449.484375 36.492188 448.476562 36.472656 C 447.636719 36.445312 446.835938 36.511719 446.039062 36.632812 C 445.679688 36.679688 445.300781 36.652344 444.953125 36.71875 C 444.589844 36.792969 444.25 36.925781 443.898438 37.023438 C 442.082031 37.507812 440.378906 38.269531 438.894531 39.375 C 437.367188 40.503906 436.027344 41.933594 435.035156 43.660156 C 436.675781 40.613281 437.269531 37.1875 436.71875 33.890625 C 436.582031 33.085938 436.441406 32.277344 436.152344 31.480469 C 436.015625 31.125 435.789062 30.777344 435.613281 30.414062 C 433.980469 26.914062 430.941406 23.78125 426.847656 21.839844 C 424.0625 20.765625 421.269531 20.417969 418.632812 20.644531 C 412.402344 21.113281 407.148438 24.863281 405.480469 30.945312 L 405.421875 30.875 C 406.566406 27.097656 406.058594 23.230469 404.195312 19.886719 C 404.019531 19.566406 403.910156 19.222656 403.703125 18.921875 L 403.6875 18.894531 C 403.671875 18.894531 403.671875 18.894531 403.671875 18.875 C 403.550781 18.6875 403.363281 18.53125 403.226562 18.34375 C 400.855469 15.050781 397.105469 12.171875 392.480469 11.621094 C 387.503906 10.949219 382.855469 11.800781 379.410156 14.519531 C 376.117188 17.171875 374.007812 20.992188 373.648438 25.210938 C 373.917969 20.972656 372.175781 16.871094 369.113281 13.917969 C 366.023438 10.96875 361.632812 9.175781 356.652344 9.613281 C 354.136719 9.753906 351.8125 10.28125 349.824219 11.207031 C 347.757812 12.332031 346.039062 13.808594 344.644531 15.464844 C 344.628906 15.464844 344.628906 15.464844 344.628906 15.464844 C 344.496094 15.652344 344.402344 15.832031 344.28125 16.015625 C 342.964844 17.722656 342.105469 19.679688 341.695312 21.75 C 341.324219 23.507812 341.226562 25.347656 341.5625 27.210938 L 341.515625 27.210938 C 341.085938 24.90625 340.101562 22.765625 338.722656 20.925781 C 337.601562 19.429688 336.222656 18.085938 334.582031 17.121094 C 333.121094 16.273438 331.429688 15.761719 329.660156 15.417969 C 327.039062 14.914062 324.1875 14.914062 321.285156 15.652344 C 318.273438 16.566406 315.8125 18.324219 313.871094 20.371094 C 312.730469 21.59375 311.71875 22.90625 311.007812 24.285156 C 309.164062 27.761719 309.003906 31.773438 310.402344 35.617188 C 310.511719 35.875 310.554688 36.148438 310.65625 36.425781 C 310.519531 36.101562 310.304688 35.824219 310.140625 35.503906 C 308.902344 33.105469 307.128906 31.175781 304.910156 29.839844 C 304.757812 29.742188 304.640625 29.632812 304.503906 29.558594 C 304.289062 29.449219 304.035156 29.378906 303.800781 29.261719 C 303.101562 28.917969 302.390625 28.570312 301.609375 28.34375 C 297.59375 27.191406 292.539062 27.261719 288.359375 30 C 285.664062 31.683594 283.535156 33.824219 282.085938 36.238281 C 281.671875 36.925781 281.300781 37.628906 281.019531 38.335938 C 280.734375 39.09375 280.429688 39.832031 280.265625 40.613281 C 279.8125 42.714844 279.800781 44.832031 280.214844 46.863281 C 280.613281 48.859375 281.453125 50.753906 282.667969 52.476562 C 280.089844 49.070312 276.285156 47.117188 272.082031 46.722656 C 270.609375 46.582031 269.15625 46.792969 267.710938 47.136719 C 264.871094 47.804688 262.097656 49.300781 259.578125 51.460938 C 255.796875 54.714844 254.214844 59.503906 254.214844 63.769531 C 254.214844 65.335938 254.554688 66.851562 255.046875 68.304688 C 255.871094 70.71875 257.265625 72.914062 259.300781 74.640625 C 255.925781 71.875 251.746094 70.746094 247.640625 71.527344 C 243.792969 72.285156 239.75 74.5 237.074219 78.207031 C 236.886719 78.460938 236.644531 78.667969 236.472656 78.925781 C 235.410156 80.671875 234.722656 82.515625 234.265625 84.359375 C 233.574219 87.007812 233.421875 89.675781 233.960938 92.070312 C 235.011719 96.199219 237.753906 99.609375 241.519531 101.609375 C 237.660156 99.746094 233.453125 99.652344 229.496094 101.265625 C 227.511719 102.09375 225.527344 103.316406 223.996094 105.019531 C 223.429688 105.640625 222.949219 106.378906 222.480469 107.117188 C 222.121094 107.640625 221.804688 108.191406 221.507812 108.773438 C 221.128906 109.535156 220.730469 110.273438 220.410156 111.078125 C 220.050781 112.136719 219.789062 113.199219 219.613281 114.253906 C 219.371094 115.542969 219.242188 116.8125 219.242188 118.027344 C 219.308594 118.933594 219.515625 119.78125 219.722656 120.609375 C 220.039062 121.96875 220.464844 123.277344 221.085938 124.433594 C 223.058594 128.238281 226.410156 130.925781 230.640625 131.921875 L 230.640625 131.992188 C 229.144531 131.617188 227.621094 131.597656 226.097656 131.714844 C 223.402344 131.921875 220.785156 132.769531 218.578125 134.386719 C 216.953125 135.65625 215.515625 137.332031 214.417969 139.3125 C 213.285156 141.292969 212.484375 143.597656 212.125 146.085938 C 211.132812 156.035156 218.054688 163.957031 226.582031 164.007812 C 218.054688 164.007812 211.132812 172 212.125 181.949219 C 212.484375 184.433594 213.285156 186.71875 214.402344 188.699219 C 215.515625 190.703125 216.9375 192.382812 218.578125 193.652344 C 220.839844 195.304688 223.554688 196.160156 226.324219 196.320312 C 227.765625 196.386719 229.214844 196.347656 230.640625 195.972656 L 230.640625 196.042969 C 230.054688 196.179688 229.523438 196.4375 228.960938 196.644531 C 226.988281 197.40625 225.25 198.507812 223.800781 199.984375 C 223.472656 200.3125 223.121094 200.585938 222.832031 200.929688 C 222.550781 201.277344 222.34375 201.691406 222.082031 202.054688 C 221.746094 202.535156 221.382812 203 221.09375 203.554688 C 221.085938 203.574219 221.085938 203.574219 221.085938 203.574219 C 220.464844 204.75 220.039062 206.0625 219.714844 207.425781 C 219.515625 208.253906 219.308594 209.109375 219.242188 209.976562 C 219.242188 211.082031 219.324219 212.210938 219.507812 213.367188 C 219.703125 214.542969 219.996094 215.738281 220.410156 216.914062 C 220.75 217.765625 221.164062 218.550781 221.578125 219.359375 C 221.886719 219.929688 222.21875 220.507812 222.574219 221.035156 C 223.027344 221.726562 223.472656 222.394531 223.996094 222.992188 C 224.636719 223.734375 225.394531 224.304688 226.167969 224.855469 C 227.222656 225.617188 228.335938 226.265625 229.453125 226.726562 C 229.453125 226.726562 229.46875 226.726562 229.46875 226.75 C 229.484375 226.75 229.484375 226.75 229.496094 226.75 C 232.5625 228.019531 235.796875 228.226562 238.898438 227.386719 C 239.824219 227.160156 240.730469 226.835938 241.613281 226.421875 C 241.085938 226.679688 240.621094 227.046875 240.140625 227.367188 C 237.117188 229.347656 234.871094 232.367188 233.960938 235.964844 C 233.398438 238.472656 233.589844 241.234375 234.355469 244.003906 C 234.835938 245.726562 235.476562 247.453125 236.472656 249.089844 C 236.472656 249.089844 236.484375 249.089844 236.484375 249.109375 C 236.484375 249.109375 236.484375 249.109375 236.5 249.109375 C 239.148438 253.238281 243.523438 255.699219 247.640625 256.480469 C 250.726562 257.082031 253.839844 256.597656 256.644531 255.128906 C 257.542969 254.644531 258.40625 254.066406 259.230469 253.394531 C 258.589844 253.976562 258.03125 254.597656 257.492188 255.238281 C 256.335938 256.664062 255.511719 258.261719 254.957031 259.957031 C 254.515625 261.347656 254.214844 262.773438 254.214844 264.273438 C 254.214844 268.527344 255.796875 273.300781 259.578125 276.503906 C 262.414062 278.988281 265.558594 280.6875 268.808594 281.152344 C 269.886719 281.3125 270.976562 281.359375 272.082031 281.222656 C 272.519531 281.199219 272.933594 281.085938 273.347656 281.015625 C 273.816406 280.945312 274.328125 280.917969 274.777344 280.808594 C 274.777344 280.808594 274.777344 280.808594 274.777344 280.78125 C 273.363281 277.347656 272.148438 274.058594 271.085938 270.835938 C 270.246094 268.34375 269.488281 265.882812 268.875 263.535156 C 267.480469 258.695312 266.550781 254.113281 265.882812 249.847656 C 265.546875 247.617188 265.351562 245.472656 265.15625 243.382812 C 264.9375 240.773438 264.9375 238.03125 264.992188 235.824219 C 264.949219 235.804688 264.964844 235.773438 264.949219 235.753906 C 264.949219 235.738281 264.949219 235.707031 264.949219 235.707031 C 265.285156 208.253906 279.691406 196.367188 279.691406 196.367188 C 376.679688 193.738281 391.929688 127.910156 391.929688 127.910156 C 391.929688 127.910156 395.796875 179.832031 461.160156 192.980469 C 461.28125 193.1875 461.421875 193.304688 461.621094 193.441406 C 461.621094 193.511719 461.691406 193.578125 461.757812 193.652344 C 466.398438 198.695312 472.164062 207.328125 474.695312 220.898438 C 474.695312 220.898438 474.628906 220.898438 474.695312 220.945312 C 474.890625 221.886719 475.023438 222.808594 475.15625 223.734375 C 475.550781 226.195312 475.828125 228.660156 475.949219 231.3125 C 476.019531 231.980469 476.019531 232.644531 476.019531 233.3125 C 475.882812 232.777344 475.828125 232.253906 475.621094 231.726562 C 475.828125 232.433594 475.949219 233.175781 476.019531 233.914062 L 476.019531 234.375 C 475.882812 234.101562 475.757812 233.839844 475.621094 233.496094 L 476.089844 235.566406 C 476.089844 236.378906 476.144531 237.085938 476.089844 237.894531 C 476.019531 242.203125 475.6875 246.855469 474.957031 251.828125 C 474.230469 257.359375 473.027344 263.34375 471.371094 269.664062 C 472.234375 269.839844 473.097656 269.839844 474.035156 269.773438 C 478.472656 269.703125 482.519531 267.257812 485.773438 263.464844 C 489.089844 259.820312 490.089844 254.824219 489.488281 250.65625 C 489.019531 247.136719 487.433594 244.070312 484.773438 241.882812 C 485.4375 242.128906 486.109375 242.339844 486.757812 242.40625 C 487.433594 242.546875 488.09375 242.613281 488.765625 242.613281 C 489.019531 242.664062 489.296875 242.753906 489.558594 242.664062 C 491.410156 242.871094 493.273438 242.613281 495.058594 242.019531 C 499.046875 240.75 503.027344 237.753906 505.140625 233.242188 C 507.148438 228.660156 507.339844 223.800781 505.878906 219.878906 C 504.554688 216.496094 502.160156 213.898438 498.976562 212.234375 L 498.941406 212.210938 C 499.289062 212.265625 499.632812 212.265625 499.992188 212.285156 C 500.351562 212.304688 500.703125 212.375 501.039062 212.375 C 501.316406 212.375 501.597656 212.351562 501.878906 212.332031 C 502.085938 212.304688 502.28125 212.304688 502.488281 212.285156 C 502.660156 212.265625 502.84375 212.265625 503.027344 212.234375 C 503.421875 212.191406 503.824219 212.125 504.15625 211.984375 C 504.417969 211.984375 504.679688 211.917969 504.949219 211.847656 C 505.476562 211.710938 506.003906 211.59375 506.53125 211.316406 C 507.464844 211.039062 508.332031 210.648438 509.128906 210.183594 C 510.988281 209.128906 512.777344 207.609375 514.101562 205.8125 C 515.292969 203.878906 516.300781 201.691406 516.824219 199.226562 C 517.359375 196.828125 517.433594 194.4375 517.023438 192.171875 C 516.617188 189.984375 515.695312 187.863281 514.4375 186.070312 "/>
</g>
<path style=" stroke:none;fill-rule:nonzero;fill:rgb(54.899597%,12.159729%,57.649231%);fill-opacity:1;" d="M 281.464844 100.480469 C 279.5625 100.480469 277.765625 100.097656 276.160156 99.21875 C 274.546875 98.339844 273.101562 96.964844 272.15625 95.128906 C 270.148438 91.519531 270.046875 85.835938 272.949219 80.898438 C 275.789062 75.9375 280.710938 73.21875 284.824219 73.121094 C 289.035156 72.976562 292.289062 75.246094 294.136719 78.539062 C 296.007812 81.867188 296.597656 85.472656 297.042969 88.328125 C 297.445312 91.25 297.621094 93.316406 296.800781 94.722656 C 295.984375 96.125 294.121094 96.972656 291.421875 98.089844 C 290.042969 98.621094 288.550781 99.195312 286.878906 99.65625 C 285.203125 100.117188 283.367188 100.480469 281.464844 100.480469 "/>
<path style=" stroke:none;fill-rule:nonzero;fill:rgb(54.899597%,12.159729%,57.649231%);fill-opacity:1;" d="M 294.136719 78.539062 C 292.191406 75.261719 291.875 71.34375 294.105469 67.757812 C 296.226562 64.183594 301.109375 61.300781 306.792969 61.320312 C 312.46875 61.300781 317.359375 64.183594 319.472656 67.757812 C 321.707031 71.34375 321.386719 75.261719 319.449219 78.539062 C 317.515625 81.789062 314.648438 84.144531 312.414062 85.957031 C 310.113281 87.710938 308.457031 88.933594 306.792969 88.917969 C 305.121094 88.933594 303.46875 87.710938 301.164062 85.957031 C 298.933594 84.144531 296.066406 81.789062 294.136719 78.539062 "/>
<path style=" stroke:none;fill-rule:nonzero;fill:rgb(54.899597%,12.159729%,57.649231%);fill-opacity:1;" d="M 319.449219 78.539062 C 321.292969 75.246094 324.546875 72.976562 328.765625 73.121094 C 332.875 73.21875 337.792969 75.9375 340.640625 80.898438 C 343.535156 85.835938 343.441406 91.519531 341.425781 95.128906 C 340.484375 96.964844 339.035156 98.339844 337.421875 99.21875 C 335.8125 100.097656 334.015625 100.480469 332.113281 100.480469 C 330.210938 100.480469 328.375 100.117188 326.703125 99.65625 C 325.027344 99.195312 323.539062 98.621094 322.160156 98.089844 C 319.46875 96.972656 317.597656 96.125 316.777344 94.722656 C 315.957031 93.316406 316.136719 91.25 316.535156 88.328125 C 316.984375 85.472656 317.570312 81.867188 319.449219 78.539062 "/>
<path style=" stroke:none;fill-rule:nonzero;fill:rgb(54.899597%,12.159729%,57.649231%);fill-opacity:1;" d="M 332.113281 100.480469 C 334.015625 100.480469 335.8125 100.859375 337.421875 101.742188 C 339.035156 102.617188 340.484375 104 341.425781 105.835938 C 343.441406 109.445312 343.535156 115.121094 340.640625 120.066406 C 337.792969 125.023438 332.875 127.738281 328.765625 127.84375 C 324.546875 127.980469 321.292969 125.710938 319.449219 122.425781 C 317.570312 119.089844 316.984375 115.488281 316.535156 112.632812 C 316.136719 109.710938 315.957031 107.640625 316.777344 106.238281 C 317.597656 104.839844 319.46875 103.992188 322.160156 102.875 C 323.539062 102.339844 325.027344 101.769531 326.703125 101.300781 C 328.375 100.84375 330.210938 100.480469 332.113281 100.480469 "/>
<path style=" stroke:none;fill-rule:nonzero;fill:rgb(54.899597%,12.159729%,57.649231%);fill-opacity:1;" d="M 319.449219 122.425781 C 321.386719 125.707031 321.707031 129.617188 319.472656 133.199219 C 317.359375 136.773438 312.46875 139.667969 306.792969 139.636719 C 301.109375 139.667969 296.226562 136.773438 294.105469 133.199219 C 291.875 129.617188 292.191406 125.707031 294.136719 122.425781 C 296.066406 119.167969 298.933594 116.824219 301.164062 115.003906 C 303.46875 113.246094 305.121094 112.03125 306.792969 112.039062 C 308.457031 112.03125 310.113281 113.246094 312.414062 115.003906 C 314.648438 116.824219 317.515625 119.167969 319.449219 122.425781 "/>
<path style=" stroke:none;fill-rule:nonzero;fill:rgb(54.899597%,12.159729%,57.649231%);fill-opacity:1;" d="M 294.136719 122.425781 C 292.289062 125.710938 289.035156 127.980469 284.824219 127.84375 C 280.710938 127.738281 275.789062 125.023438 272.949219 120.066406 C 270.046875 115.121094 270.148438 109.445312 272.15625 105.835938 C 273.101562 104 274.546875 102.617188 276.160156 101.742188 C 277.765625 100.859375 279.5625 100.480469 281.464844 100.480469 C 283.367188 100.480469 285.203125 100.84375 286.878906 101.300781 C 288.550781 101.769531 290.042969 102.339844 291.421875 102.875 C 294.121094 103.992188 295.984375 104.839844 296.800781 106.238281 C 297.621094 107.640625 297.445312 109.710938 297.042969 112.632812 C 296.597656 115.488281 296.007812 119.089844 294.136719 122.425781 "/>
<path style=" stroke:none;fill-rule:nonzero;fill:rgb(45.489502%,78.819275%,20.779419%);fill-opacity:1;" d="M 281.464844 100.480469 C 281.464844 86.472656 292.800781 75.121094 306.792969 75.121094 C 320.785156 75.121094 332.113281 86.472656 332.113281 100.480469 C 332.113281 114.488281 320.785156 125.835938 306.792969 125.835938 C 292.800781 125.835938 281.464844 114.488281 281.464844 100.480469 "/>
<path style=" stroke:none;fill-rule:nonzero;fill:rgb(97.648621%,80.778503%,3.138733%);fill-opacity:1;" d="M 284.984375 100.480469 C 284.984375 88.414062 294.742188 78.644531 306.792969 78.644531 C 318.839844 78.644531 328.605469 88.414062 328.605469 100.480469 C 328.605469 112.542969 318.839844 122.324219 306.792969 122.324219 C 294.742188 122.324219 284.984375 112.542969 284.984375 100.480469 "/>
<path style=" stroke:none;fill-rule:nonzero;fill:rgb(35.289001%,76.858521%,80.778503%);fill-opacity:1;" d="M 292.929688 100.480469 C 292.929688 92.8125 299.132812 86.601562 306.792969 86.601562 C 314.449219 86.601562 320.65625 92.8125 320.65625 100.480469 C 320.65625 108.144531 314.449219 114.363281 306.792969 114.363281 C 299.132812 114.363281 292.929688 108.144531 292.929688 100.480469 "/>
<path style=" stroke:none;fill-rule:nonzero;fill:rgb(93.328857%,9.01947%,49.01886%);fill-opacity:1;" d="M 339.667969 117.648438 C 338.601562 117.648438 337.585938 117.433594 336.691406 116.945312 C 335.78125 116.449219 334.964844 115.675781 334.441406 114.648438 C 333.3125 112.617188 333.257812 109.421875 334.886719 106.65625 C 336.484375 103.867188 339.242188 102.339844 341.558594 102.289062 C 343.914062 102.203125 345.75 103.480469 346.78125 105.328125 C 347.835938 107.199219 348.160156 109.222656 348.414062 110.824219 C 348.640625 112.464844 348.738281 113.625 348.28125 114.417969 C 347.816406 115.207031 346.769531 115.683594 345.257812 116.3125 C 344.476562 116.605469 343.652344 116.933594 342.707031 117.1875 C 341.765625 117.453125 340.738281 117.648438 339.667969 117.648438 "/>
<path style=" stroke:none;fill-rule:nonzero;fill:rgb(93.328857%,9.01947%,49.01886%);fill-opacity:1;" d="M 346.78125 105.328125 C 345.691406 103.488281 345.511719 101.292969 346.769531 99.277344 C 347.953125 97.269531 350.695312 95.648438 353.890625 95.660156 C 357.078125 95.648438 359.824219 97.269531 361.007812 99.277344 C 362.261719 101.292969 362.085938 103.488281 360.992188 105.328125 C 359.914062 107.152344 358.304688 108.476562 357.050781 109.5 C 355.757812 110.480469 354.816406 111.171875 353.890625 111.152344 C 352.957031 111.171875 352.019531 110.480469 350.726562 109.5 C 349.46875 108.476562 347.871094 107.152344 346.78125 105.328125 "/>
<path style=" stroke:none;fill-rule:nonzero;fill:rgb(93.328857%,9.01947%,49.01886%);fill-opacity:1;" d="M 360.992188 105.328125 C 362.027344 103.480469 363.863281 102.203125 366.226562 102.289062 C 368.535156 102.339844 371.296875 103.867188 372.890625 106.65625 C 374.515625 109.421875 374.460938 112.617188 373.332031 114.648438 C 372.808594 115.675781 371.992188 116.449219 371.085938 116.945312 C 370.1875 117.433594 369.183594 117.648438 368.109375 117.648438 C 367.046875 117.648438 366.011719 117.453125 365.078125 117.1875 C 364.128906 116.933594 363.296875 116.605469 362.519531 116.3125 C 361.007812 115.683594 359.960938 115.207031 359.492188 114.417969 C 359.035156 113.625 359.140625 112.464844 359.367188 110.824219 C 359.617188 109.222656 359.9375 107.199219 360.992188 105.328125 "/>
<path style=" stroke:none;fill-rule:nonzero;fill:rgb(93.328857%,9.01947%,49.01886%);fill-opacity:1;" d="M 368.109375 117.648438 C 369.183594 117.648438 370.1875 117.863281 371.085938 118.359375 C 371.992188 118.851562 372.808594 119.625 373.332031 120.660156 C 374.460938 122.679688 374.515625 125.875 372.890625 128.648438 C 371.296875 131.433594 368.535156 132.953125 366.226562 133.011719 C 363.863281 133.09375 362.027344 131.816406 360.992188 129.976562 C 359.9375 128.097656 359.617188 126.074219 359.367188 124.472656 C 359.140625 122.832031 359.035156 121.671875 359.492188 120.886719 C 359.960938 120.097656 361.007812 119.625 362.519531 118.992188 C 363.296875 118.699219 364.128906 118.375 365.078125 118.113281 C 366.011719 117.855469 367.046875 117.648438 368.109375 117.648438 "/>
<path style=" stroke:none;fill-rule:nonzero;fill:rgb(93.328857%,9.01947%,49.01886%);fill-opacity:1;" d="M 360.992188 129.976562 C 362.085938 131.8125 362.261719 134.011719 361.007812 136.019531 C 359.824219 138.027344 357.078125 139.652344 353.890625 139.636719 C 350.695312 139.652344 347.953125 138.027344 346.769531 136.019531 C 345.511719 134.011719 345.691406 131.8125 346.78125 129.976562 C 347.871094 128.144531 349.46875 126.828125 350.726562 125.808594 C 352.019531 124.820312 352.957031 124.136719 353.890625 124.144531 C 354.816406 124.136719 355.757812 124.820312 357.050781 125.808594 C 358.304688 126.828125 359.914062 128.144531 360.992188 129.976562 "/>
<path style=" stroke:none;fill-rule:nonzero;fill:rgb(93.328857%,9.01947%,49.01886%);fill-opacity:1;" d="M 346.78125 129.976562 C 345.75 131.816406 343.914062 133.09375 341.558594 133.011719 C 339.242188 132.953125 336.484375 131.433594 334.886719 128.648438 C 333.257812 125.875 333.3125 122.679688 334.441406 120.660156 C 334.964844 119.625 335.78125 118.851562 336.691406 118.359375 C 337.585938 117.863281 338.601562 117.648438 339.667969 117.648438 C 340.738281 117.648438 341.765625 117.855469 342.707031 118.113281 C 343.652344 118.375 344.476562 118.699219 345.257812 118.992188 C 346.769531 119.625 347.816406 120.097656 348.28125 120.886719 C 348.738281 121.671875 348.640625 122.832031 348.414062 124.472656 C 348.160156 126.074219 347.835938 128.097656 346.78125 129.976562 "/>
<path style=" stroke:none;fill-rule:nonzero;fill:rgb(97.648621%,80.778503%,3.138733%);fill-opacity:1;" d="M 339.667969 117.648438 C 339.667969 109.789062 346.039062 103.410156 353.890625 103.410156 C 361.738281 103.410156 368.109375 109.789062 368.109375 117.648438 C 368.109375 125.515625 361.738281 131.890625 353.890625 131.890625 C 346.039062 131.890625 339.667969 125.515625 339.667969 117.648438 "/>
<path style=" stroke:none;fill-rule:nonzero;fill:rgb(54.899597%,12.159729%,57.649231%);fill-opacity:1;" d="M 341.640625 117.648438 C 341.640625 110.871094 347.128906 105.382812 353.890625 105.382812 C 360.652344 105.382812 366.136719 110.871094 366.136719 117.648438 C 366.136719 124.425781 360.652344 129.914062 353.890625 129.914062 C 347.128906 129.914062 341.640625 124.425781 341.640625 117.648438 "/>
<path style=" stroke:none;fill-rule:nonzero;fill:rgb(45.489502%,78.819275%,20.779419%);fill-opacity:1;" d="M 346.105469 117.648438 C 346.105469 113.34375 349.585938 109.859375 353.890625 109.859375 C 358.1875 109.859375 361.671875 113.34375 361.671875 117.648438 C 361.671875 121.953125 358.1875 125.445312 353.890625 125.445312 C 349.585938 125.445312 346.105469 121.953125 346.105469 117.648438 "/>
<path style=" stroke:none;fill-rule:nonzero;fill:rgb(35.289001%,76.858521%,80.778503%);fill-opacity:1;" d="M 370.339844 78.847656 C 384.539062 94.769531 377.753906 101.390625 362.070312 87.40625 C 361.503906 108.429688 352.035156 108.84375 350.171875 87.59375 C 334.265625 101.808594 327.660156 95.011719 341.625 79.304688 C 320.625 78.738281 320.203125 69.261719 341.445312 67.386719 C 327.246094 51.46875 334.027344 44.855469 349.71875 58.835938 C 350.28125 37.804688 359.746094 37.402344 361.613281 58.652344 C 377.523438 44.441406 384.132812 51.230469 370.148438 66.941406 C 391.15625 67.511719 391.570312 76.992188 370.339844 78.847656 "/>
<path style=" stroke:none;fill-rule:nonzero;fill:rgb(97.648621%,80.778503%,3.138733%);fill-opacity:1;" d="M 371.4375 73.128906 C 390.480469 82.6875 386.613281 91.34375 366.882812 84.132812 C 374.105469 103.886719 365.449219 107.757812 355.894531 88.683594 C 346.335938 107.757812 337.691406 103.886719 344.90625 84.132812 C 325.167969 91.34375 321.292969 82.6875 340.351562 73.128906 C 321.292969 63.5625 325.167969 54.894531 344.90625 62.121094 C 337.691406 42.359375 346.335938 38.476562 355.894531 57.550781 C 365.449219 38.476562 374.105469 42.359375 366.882812 62.121094 C 386.613281 54.894531 390.480469 63.5625 371.4375 73.128906 "/>
<path style=" stroke:none;fill-rule:nonzero;fill:rgb(96.469116%,52.938843%,7.058716%);fill-opacity:1;" d="M 367.445312 73.128906 C 367.445312 79.511719 362.277344 84.703125 355.894531 84.703125 C 349.511719 84.703125 344.34375 79.511719 344.34375 73.128906 C 344.34375 66.730469 349.511719 61.546875 355.894531 61.546875 C 362.277344 61.546875 367.445312 66.730469 367.445312 73.128906 "/>
<path style=" stroke:none;fill-rule:nonzero;fill:rgb(93.328857%,9.01947%,49.01886%);fill-opacity:1;" d="M 361.671875 73.128906 C 361.671875 76.316406 359.085938 78.910156 355.894531 78.910156 C 352.707031 78.910156 350.117188 76.316406 350.117188 73.128906 C 350.117188 69.921875 352.707031 67.335938 355.894531 67.335938 C 359.085938 67.335938 361.671875 69.921875 361.671875 73.128906 "/>
<path style=" stroke:none;fill-rule:nonzero;fill:rgb(54.899597%,12.159729%,57.649231%);fill-opacity:1;" d="M 355.984375 204.277344 L 355.890625 195.097656 L 375.144531 194.890625 L 375.242188 204.070312 L 355.984375 204.277344 "/>
<path style=" stroke:none;fill-rule:nonzero;fill:rgb(54.899597%,12.159729%,57.649231%);fill-opacity:1;" d="M 284.582031 189.757812 C 257.734375 189.757812 271.039062 215.007812 280.710938 226.078125 C 289.203125 235.78125 298.996094 244.394531 309.128906 252.339844 C 320.453125 242.9375 331.464844 232.625 340.261719 220.757812 C 349.03125 208.90625 354.992188 189.074219 332.308594 189.074219 C 316.90625 189.074219 312.890625 207.121094 308.621094 218.363281 C 304.101562 207.363281 299.691406 189.757812 284.582031 189.757812 Z M 309.371094 269.703125 C 289.542969 255.066406 265.40625 237.027344 256.265625 213.199219 C 244 181.242188 288.136719 165.222656 308.195312 187.183594 C 326.710938 165.675781 370.949219 178.023438 361.449219 209.847656 C 354.007812 234.789062 329.007812 254.328125 309.371094 269.703125 "/>
<path style=" stroke:none;fill-rule:nonzero;fill:rgb(35.289001%,76.858521%,80.778503%);fill-opacity:1;" d="M 348.433594 187.683594 C 370.523438 202.667969 339.613281 233.40625 328.246094 244.371094 C 324.230469 248.253906 311.878906 263.09375 306.859375 259.207031 C 300.367188 254.257812 294.15625 249.027344 288.152344 243.441406 C 277.496094 233.554688 253.992188 212.285156 262.328125 195.320312 C 271.996094 175.464844 301.066406 181.820312 308.347656 199.769531 C 314.699219 183.164062 333.464844 178.074219 348.007812 187.402344 L 348.433594 187.683594 "/>
<path style=" stroke:none;fill-rule:nonzero;fill:rgb(54.899597%,12.159729%,57.649231%);fill-opacity:1;" d="M 403.984375 189.757812 C 377.136719 189.757812 390.425781 215.015625 400.105469 226.078125 C 408.597656 235.78125 418.390625 244.394531 428.515625 252.339844 C 438.425781 244.113281 447.964844 235.222656 456.183594 225.277344 C 465.589844 213.878906 478.023438 189.074219 451.703125 189.074219 C 436.296875 189.074219 432.277344 207.121094 428.019531 218.363281 C 423.496094 207.363281 419.085938 189.757812 403.984375 189.757812 Z M 428.761719 269.710938 C 408.941406 255.046875 384.816406 237.039062 375.664062 213.199219 C 363.402344 181.242188 407.53125 165.222656 427.589844 187.183594 C 447 164.640625 491.601562 179.410156 480.25 211.703125 C 471.78125 235.796875 448.167969 254.472656 428.761719 269.710938 "/>
<path style=" stroke:none;fill-rule:nonzero;fill:rgb(35.289001%,76.858521%,80.778503%);fill-opacity:1;" d="M 467.394531 187.410156 C 452.886719 178.058594 434.070312 183.132812 427.773438 199.742188 C 420.160156 181.171875 384.777344 174.988281 380.460938 199.144531 C 376.910156 219.039062 402.894531 239.808594 415.945312 250.890625 C 419.710938 254.101562 426.640625 262.71875 430.984375 259.167969 C 438.839844 252.746094 446.394531 245.925781 453.421875 238.601562 C 464.046875 227.507812 487.949219 200.667969 467.394531 187.410156 C 445.644531 173.378906 495.511719 205.554688 467.394531 187.410156 "/>
<path style=" stroke:none;fill-rule:nonzero;fill:rgb(35.289001%,76.858521%,80.778503%);fill-opacity:1;" d="M 387.035156 206.515625 C 386.332031 203.621094 386.414062 200.875 387.613281 198.4375 C 390.460938 192.585938 395.195312 190.6875 399.246094 190.253906 "/>
<path style=" stroke:none;fill-rule:nonzero;fill:rgb(100%,100%,100%);fill-opacity:1;" d="M 387.035156 208.28125 C 386.234375 208.28125 385.515625 207.742188 385.320312 206.933594 C 384.476562 203.457031 384.710938 200.335938 386.027344 197.65625 C 388.636719 192.304688 393.140625 189.128906 399.0625 188.492188 C 400.050781 188.347656 400.898438 189.09375 401.007812 190.066406 C 401.109375 191.035156 400.410156 191.902344 399.433594 192.015625 C 394.722656 192.515625 391.28125 194.941406 389.199219 199.210938 C 388.257812 201.128906 388.101562 203.441406 388.75 206.09375 C 388.976562 207.046875 388.398438 207.996094 387.453125 208.230469 C 387.308594 208.265625 387.171875 208.28125 387.035156 208.28125 "/>
<path style=" stroke:none;fill-rule:nonzero;fill:rgb(35.289001%,76.858521%,80.778503%);fill-opacity:1;" d="M 395.925781 221.960938 C 393.636719 219.191406 391.542969 216.308594 389.921875 213.449219 "/>
<path style=" stroke:none;fill-rule:nonzero;fill:rgb(100%,100%,100%);fill-opacity:1;" d="M 395.925781 223.726562 C 395.421875 223.726562 394.914062 223.503906 394.570312 223.082031 C 392.011719 220 389.9375 217.046875 388.386719 214.316406 C 387.910156 213.46875 388.207031 212.394531 389.054688 211.910156 C 389.886719 211.441406 390.972656 211.730469 391.460938 212.582031 C 392.898438 215.128906 394.863281 217.902344 397.28125 220.835938 C 397.90625 221.585938 397.800781 222.699219 397.050781 223.320312 C 396.726562 223.59375 396.324219 223.726562 395.925781 223.726562 "/>
</g>
</svg>
