<?xml version="1.0" encoding="UTF-8"?>
<svg xmlns="http://www.w3.org/2000/svg" xmlns:xlink="http://www.w3.org/1999/xlink" width="750pt" height="299.999988pt" viewBox="0 0 750 299.999988" version="1.2">
<defs>
<clipPath id="clip1">
  <path d="M 258 50 L 495.09375 50 L 495.09375 259 L 258 259 Z M 258 50 "/>
</clipPath>
<clipPath id="clip2">
  <path d="M 254.53125 216 L 277 216 L 277 225 L 254.53125 225 Z M 254.53125 216 "/>
</clipPath>
<clipPath id="clip3">
  <path d="M 378 263 L 392 263 L 392 284.648438 L 378 284.648438 Z M 378 263 "/>
</clipPath>
</defs>
<g id="surface1">
<g clip-path="url(#clip1)" clip-rule="nonzero">
<path style=" stroke:none;fill-rule:nonzero;fill:rgb(100%,100%,100%);fill-opacity:1;" d="M 495.078125 109.929688 C 495.078125 77.019531 468.445312 50.34375 435.605469 50.34375 C 405.886719 50.34375 381.261719 72.191406 376.835938 100.722656 C 372.414062 72.191406 347.789062 50.34375 318.070312 50.34375 C 285.222656 50.34375 258.589844 77.019531 258.589844 109.929688 C 258.589844 122.90625 262.738281 134.894531 269.785156 144.691406 L 269.734375 144.691406 L 376.746094 258.1875 L 481.246094 148.113281 C 489.875 137.777344 495.078125 124.464844 495.078125 109.929688 "/>
</g>
<path style=" stroke:none;fill-rule:nonzero;fill:rgb(94.898987%,60.389709%,36.468506%);fill-opacity:1;" d="M 396.761719 185.101562 L 356.910156 185.101562 L 356.910156 131.890625 L 396.761719 131.890625 L 396.761719 185.101562 "/>
<path style=" stroke:none;fill-rule:nonzero;fill:rgb(39.99939%,79.998779%,80.778503%);fill-opacity:1;" d="M 399.34375 151.039062 L 354.335938 151.039062 L 354.335938 144.773438 L 399.34375 144.773438 L 399.34375 151.039062 "/>
<path style=" stroke:none;fill-rule:nonzero;fill:rgb(50.19989%,79.998779%,15.689087%);fill-opacity:1;" d="M 399.34375 162.652344 L 354.335938 162.652344 L 354.335938 157.964844 L 399.34375 157.964844 L 399.34375 162.652344 "/>
<path style=" stroke:none;fill-rule:nonzero;fill:rgb(94.898987%,93.728638%,11.369324%);fill-opacity:1;" d="M 399.34375 168.640625 L 354.335938 168.640625 L 354.335938 163.414062 L 399.34375 163.414062 L 399.34375 168.640625 "/>
<path style=" stroke:none;fill-rule:nonzero;fill:rgb(50.19989%,15.289307%,58.81958%);fill-opacity:1;" d="M 399.472656 155.609375 L 354.519531 157.207031 L 354.199219 152.921875 L 399.148438 151.324219 L 399.472656 155.609375 "/>
<path style=" stroke:none;fill-rule:nonzero;fill:rgb(94.898987%,60.389709%,36.468506%);fill-opacity:1;" d="M 342.828125 81.40625 L 342.828125 106.789062 C 342.828125 125.613281 358.054688 140.859375 376.839844 140.859375 C 395.617188 140.859375 410.847656 125.613281 410.847656 106.789062 L 410.847656 81.40625 L 342.828125 81.40625 "/>
<path style=" stroke:none;fill-rule:nonzero;fill:rgb(94.898987%,60.389709%,36.468506%);fill-opacity:1;" d="M 409.097656 85.441406 C 406.953125 90.664062 400.996094 93.152344 395.785156 91.011719 C 390.570312 88.867188 388.082031 82.898438 390.222656 77.679688 L 412.59375 23.085938 C 414.734375 17.863281 420.695312 15.367188 425.914062 17.515625 C 431.121094 19.65625 433.609375 25.628906 431.46875 30.847656 L 409.097656 85.441406 "/>
<path style=" stroke:none;fill-rule:nonzero;fill:rgb(94.898987%,60.389709%,36.468506%);fill-opacity:1;" d="M 382.890625 85.441406 C 385.035156 90.664062 390.992188 93.152344 396.199219 91.011719 C 401.417969 88.867188 403.902344 82.898438 401.765625 77.679688 L 379.390625 23.085938 C 377.25 17.863281 371.289062 15.367188 366.078125 17.515625 C 360.863281 19.65625 358.375 25.628906 360.511719 30.847656 L 382.890625 85.441406 "/>
<path style=" stroke:none;fill-rule:nonzero;fill:rgb(95.289612%,65.879822%,43.528748%);fill-opacity:1;" d="M 406.941406 122.429688 C 411.175781 114.96875 413.472656 106.257812 413.472656 98.613281 C 413.472656 93.578125 409.433594 89.480469 404.402344 89.457031 L 380.082031 89.457031 C 375.050781 89.445312 370.964844 93.515625 370.949219 98.554688 C 370.925781 103.597656 374.992188 107.6875 380.019531 107.707031 L 389.71875 107.707031 C 389.71875 107.707031 384.28125 110.804688 379.882812 118.460938 L 379.828125 118.460938 C 376.851562 123.640625 374.351562 130.882812 374.347656 140.738281 L 374.402344 140.746094 L 374.402344 140.777344 L 374.484375 140.753906 C 375.242188 140.804688 376.007812 140.859375 376.78125 140.859375 C 383.816406 140.859375 390.335938 138.707031 395.746094 135.035156 L 395.945312 134.984375 C 396.734375 134.425781 397.492188 133.824219 398.230469 133.195312 C 401.828125 130.253906 404.785156 126.589844 406.941406 122.429688 "/>
<path style=" stroke:none;fill-rule:nonzero;fill:rgb(95.289612%,65.879822%,43.528748%);fill-opacity:1;" d="M 364.058594 84.703125 C 366.027344 89.34375 363.855469 94.699219 359.21875 96.664062 C 354.589844 98.625 349.246094 96.453125 347.289062 91.8125 L 340.347656 75.777344 C 338.390625 71.136719 340.550781 65.78125 345.183594 63.820312 C 349.816406 61.855469 355.164062 64.023438 357.121094 68.664062 L 364.058594 84.703125 "/>
<path style=" stroke:none;fill-rule:nonzero;fill:rgb(95.289612%,65.879822%,43.528748%);fill-opacity:1;" d="M 380.414062 76.78125 C 382.382812 81.417969 380.207031 86.777344 375.574219 88.734375 C 370.949219 90.699219 365.601562 88.53125 363.644531 83.890625 L 352.53125 58.363281 C 350.570312 53.71875 352.746094 48.363281 357.371094 46.398438 C 362.007812 44.4375 367.351562 46.609375 369.308594 51.253906 L 380.414062 76.78125 "/>
<path style=" stroke:none;fill-rule:nonzero;fill:rgb(98.81897%,82.348633%,66.268921%);fill-opacity:1;" d="M 357.484375 79.792969 L 347.5 84.664062 L 350.15625 89.914062 C 351.382812 92.816406 354.71875 94.171875 357.617188 92.949219 C 360.523438 91.714844 361.878906 88.367188 360.648438 85.464844 L 357.484375 79.792969 "/>
<path style=" stroke:none;fill-rule:nonzero;fill:rgb(98.81897%,82.348633%,66.268921%);fill-opacity:1;" d="M 374.128906 70.847656 L 364.152344 75.726562 L 366.800781 80.972656 C 368.027344 83.875 371.367188 85.234375 374.265625 84.011719 C 377.160156 82.777344 378.519531 79.425781 377.292969 76.519531 L 374.128906 70.847656 "/>
<path style=" stroke:none;fill-rule:nonzero;fill:rgb(98.81897%,82.348633%,66.268921%);fill-opacity:1;" d="M 372.339844 93.65625 C 372.335938 93.714844 372.3125 93.769531 372.3125 93.832031 C 372.09375 96.976562 374.46875 99.703125 377.609375 99.921875 L 385.796875 99.648438 L 385.796875 89.457031 L 380.011719 89.457031 C 376.785156 89.453125 373.96875 91.128906 372.339844 93.65625 "/>
<path style=" stroke:none;fill-rule:nonzero;fill:rgb(92.939758%,7.058716%,48.629761%);fill-opacity:1;" d="M 311.414062 177.921875 L 311.414062 150.050781 L 434.652344 150.050781 L 434.652344 177.921875 L 444.851562 177.921875 L 444.851562 139.839844 L 301.214844 139.839844 L 301.214844 177.921875 L 311.414062 177.921875 "/>
<path style=" stroke:none;fill-rule:nonzero;fill:rgb(55.288696%,9.799194%,56.079102%);fill-opacity:1;" d="M 462.542969 249.519531 L 283.523438 249.519531 L 283.523438 167.179688 L 462.542969 167.179688 L 462.542969 249.519531 "/>
<path style=" stroke:none;fill-rule:nonzero;fill:rgb(100%,100%,100%);fill-opacity:1;" d="M 316.152344 240.515625 C 303.015625 240.515625 292.328125 229.804688 292.328125 216.648438 C 292.328125 203.488281 303.015625 192.785156 316.152344 192.785156 C 329.285156 192.785156 339.964844 203.488281 339.964844 216.648438 C 339.964844 229.804688 329.285156 240.515625 316.152344 240.515625 "/>
<path style=" stroke:none;fill-rule:nonzero;fill:rgb(92.939758%,7.058716%,48.629761%);fill-opacity:1;" d="M 316.152344 228.113281 C 309.839844 228.113281 304.707031 222.96875 304.707031 216.648438 C 304.707031 210.328125 309.839844 205.183594 316.152344 205.183594 C 322.453125 205.183594 327.59375 210.328125 327.59375 216.648438 C 327.59375 222.96875 322.453125 228.113281 316.152344 228.113281 "/>
<path style=" stroke:none;fill-rule:nonzero;fill:rgb(92.939758%,7.058716%,48.629761%);fill-opacity:1;" d="M 316.152344 189.910156 C 301.4375 189.910156 289.464844 201.90625 289.464844 216.648438 C 289.464844 231.390625 301.4375 243.382812 316.152344 243.382812 C 330.859375 243.382812 342.835938 231.390625 342.835938 216.648438 C 342.835938 201.90625 330.859375 189.910156 316.152344 189.910156 Z M 316.152344 193.738281 C 328.777344 193.738281 339.011719 203.996094 339.011719 216.648438 C 339.011719 229.296875 328.777344 239.558594 316.152344 239.558594 C 303.523438 239.558594 293.285156 229.296875 293.285156 216.648438 C 293.285156 203.996094 303.523438 193.738281 316.152344 193.738281 "/>
<path style=" stroke:none;fill-rule:nonzero;fill:rgb(100%,100%,100%);fill-opacity:1;" d="M 429.917969 240.515625 C 416.78125 240.515625 406.101562 229.804688 406.101562 216.648438 C 406.101562 203.488281 416.78125 192.785156 429.917969 192.785156 C 443.046875 192.785156 453.734375 203.488281 453.734375 216.648438 C 453.734375 229.804688 443.046875 240.515625 429.917969 240.515625 "/>
<path style=" stroke:none;fill-rule:nonzero;fill:rgb(92.939758%,7.058716%,48.629761%);fill-opacity:1;" d="M 429.917969 228.113281 C 423.605469 228.113281 418.476562 222.96875 418.476562 216.648438 C 418.476562 210.328125 423.605469 205.183594 429.917969 205.183594 C 436.230469 205.183594 441.359375 210.328125 441.359375 216.648438 C 441.359375 222.96875 436.230469 228.113281 429.917969 228.113281 "/>
<path style=" stroke:none;fill-rule:nonzero;fill:rgb(92.939758%,7.058716%,48.629761%);fill-opacity:1;" d="M 429.917969 189.910156 C 415.199219 189.910156 403.226562 201.90625 403.226562 216.648438 C 403.226562 231.390625 415.199219 243.382812 429.917969 243.382812 C 444.636719 243.382812 456.609375 231.390625 456.609375 216.648438 C 456.609375 201.90625 444.636719 189.910156 429.917969 189.910156 Z M 429.917969 193.738281 C 442.542969 193.738281 452.78125 203.996094 452.78125 216.648438 C 452.78125 229.296875 442.542969 239.558594 429.917969 239.558594 C 417.292969 239.558594 407.050781 229.296875 407.050781 216.648438 C 407.050781 203.996094 417.292969 193.738281 429.917969 193.738281 "/>
<path style=" stroke:none;fill-rule:nonzero;fill:rgb(27.839661%,76.858521%,95.289612%);fill-opacity:1;" d="M 396.832031 234.933594 L 349.234375 234.933594 L 349.234375 201.425781 L 396.832031 201.425781 L 396.832031 234.933594 "/>
<path style=" stroke:none;fill-rule:nonzero;fill:rgb(92.939758%,7.058716%,48.629761%);fill-opacity:1;" d="M 393.101562 231.027344 L 352.960938 231.027344 L 352.960938 214.144531 L 393.101562 214.144531 L 393.101562 231.027344 "/>
<path style=" stroke:none;fill-rule:nonzero;fill:rgb(100%,100%,100%);fill-opacity:1;" d="M 396.832031 209.488281 L 349.234375 209.488281 L 349.234375 201.425781 L 396.832031 201.425781 L 396.832031 209.488281 "/>
<path style=" stroke:none;fill-rule:nonzero;fill:rgb(100%,100%,100%);fill-opacity:1;" d="M 457.605469 182.285156 L 288.460938 182.285156 L 288.460938 172.921875 L 457.605469 172.921875 L 457.605469 182.285156 "/>
<path style=" stroke:none;fill-rule:nonzero;fill:rgb(50.19989%,79.998779%,15.689087%);fill-opacity:1;" d="M 352.480469 177.921875 C 352.480469 179.277344 351.394531 180.375 350.042969 180.375 L 292.902344 180.375 C 291.5625 180.375 290.464844 179.277344 290.464844 177.921875 C 290.464844 176.574219 291.5625 175.476562 292.902344 175.476562 L 350.042969 175.476562 C 351.394531 175.476562 352.480469 176.574219 352.480469 177.921875 "/>
<path style=" stroke:none;fill-rule:nonzero;fill:rgb(27.839661%,76.858521%,95.289612%);fill-opacity:1;" d="M 388.191406 177.921875 C 388.191406 179.277344 387.097656 180.375 385.75 180.375 L 360.3125 180.375 C 358.964844 180.375 357.871094 179.277344 357.871094 177.921875 C 357.871094 176.574219 358.964844 175.476562 360.3125 175.476562 L 385.75 175.476562 C 387.097656 175.476562 388.191406 176.574219 388.191406 177.921875 "/>
<path style=" stroke:none;fill-rule:nonzero;fill:rgb(92.939758%,7.058716%,48.629761%);fill-opacity:1;" d="M 452.355469 177.921875 C 452.355469 179.277344 451.257812 180.375 449.90625 180.375 L 392.90625 180.375 C 391.554688 180.375 390.460938 179.277344 390.460938 177.921875 C 390.460938 176.574219 391.554688 175.476562 392.90625 175.476562 L 449.90625 175.476562 C 451.257812 175.476562 452.355469 176.574219 452.355469 177.921875 "/>
<path style=" stroke:none;fill-rule:nonzero;fill:rgb(92.939758%,7.058716%,48.629761%);fill-opacity:1;" d="M 450.035156 233.640625 C 448.800781 236.589844 445.425781 237.96875 442.492188 236.734375 C 439.558594 235.5 438.179688 232.117188 439.410156 229.175781 C 440.640625 226.238281 444.019531 224.859375 446.949219 226.089844 C 449.890625 227.328125 451.269531 230.707031 450.035156 233.640625 "/>
<path style=" stroke:none;fill-rule:nonzero;fill:rgb(92.939758%,7.058716%,48.629761%);fill-opacity:1;" d="M 436.847656 265.121094 C 435.609375 268.058594 432.234375 269.441406 429.296875 268.214844 C 426.367188 266.972656 424.984375 263.589844 426.21875 260.652344 C 427.449219 257.710938 430.832031 256.328125 433.761719 257.5625 C 436.699219 258.796875 438.078125 262.179688 436.847656 265.121094 "/>
<path style=" stroke:none;fill-rule:nonzero;fill:rgb(92.939758%,7.058716%,48.629761%);fill-opacity:1;" d="M 451.601562 259.082031 C 448.667969 257.847656 447.289062 254.460938 448.523438 251.523438 C 449.753906 248.578125 453.132812 247.203125 456.066406 248.4375 C 459 249.671875 460.378906 253.058594 459.144531 255.992188 C 457.917969 258.929688 454.539062 260.316406 451.601562 259.082031 "/>
<path style=" stroke:none;fill-rule:nonzero;fill:rgb(92.939758%,7.058716%,48.629761%);fill-opacity:1;" d="M 420.1875 245.867188 C 417.253906 244.632812 415.875 241.246094 417.109375 238.308594 C 418.34375 235.363281 421.71875 233.980469 424.652344 235.21875 C 427.585938 236.449219 428.964844 239.835938 427.738281 242.78125 C 426.503906 245.714844 423.125 247.101562 420.1875 245.867188 "/>
<path style=" stroke:none;fill-rule:nonzero;fill:rgb(92.939758%,7.058716%,48.629761%);fill-opacity:1;" d="M 456.074219 246.042969 C 453.132812 247.246094 449.761719 245.832031 448.566406 242.878906 C 447.359375 239.933594 448.773438 236.554688 451.714844 235.347656 C 454.667969 234.144531 458.023438 235.566406 459.234375 238.511719 C 460.433594 241.464844 459.019531 244.839844 456.074219 246.042969 "/>
<path style=" stroke:none;fill-rule:nonzero;fill:rgb(92.939758%,7.058716%,48.629761%);fill-opacity:1;" d="M 424.542969 258.953125 C 421.59375 260.15625 418.226562 258.738281 417.023438 255.785156 C 415.820312 252.832031 417.234375 249.460938 420.179688 248.261719 C 423.125 247.050781 426.488281 248.46875 427.691406 251.417969 C 428.894531 254.371094 427.484375 257.738281 424.542969 258.953125 "/>
<path style=" stroke:none;fill-rule:nonzero;fill:rgb(92.939758%,7.058716%,48.629761%);fill-opacity:1;" d="M 439.234375 265.125 C 438.027344 262.179688 439.441406 258.804688 442.390625 257.601562 C 445.335938 256.394531 448.699219 257.8125 449.902344 260.765625 C 451.101562 263.714844 449.699219 267.089844 446.75 268.292969 C 443.800781 269.5 440.441406 268.082031 439.234375 265.125 "/>
<path style=" stroke:none;fill-rule:nonzero;fill:rgb(92.939758%,7.058716%,48.629761%);fill-opacity:1;" d="M 426.351562 233.53125 C 425.144531 230.582031 426.558594 227.214844 429.507812 226.003906 C 432.453125 224.796875 435.816406 226.214844 437.019531 229.167969 C 438.21875 232.117188 436.8125 235.492188 433.867188 236.695312 C 430.921875 237.902344 427.554688 236.488281 426.351562 233.53125 "/>
<path style=" stroke:none;fill-rule:nonzero;fill:rgb(55.288696%,9.799194%,56.079102%);fill-opacity:1;" d="M 443.890625 230.078125 C 443.890625 233.269531 441.304688 235.859375 438.128906 235.859375 C 434.941406 235.859375 432.371094 233.269531 432.371094 230.078125 C 432.371094 226.894531 434.941406 224.308594 438.128906 224.308594 C 441.304688 224.308594 443.890625 226.894531 443.890625 230.078125 "/>
<path style=" stroke:none;fill-rule:nonzero;fill:rgb(55.288696%,9.799194%,56.079102%);fill-opacity:1;" d="M 443.890625 264.21875 C 443.890625 267.40625 441.304688 269.996094 438.128906 269.996094 C 434.941406 269.996094 432.371094 267.40625 432.371094 264.21875 C 432.371094 261.027344 434.941406 258.445312 438.128906 258.445312 C 441.304688 258.445312 443.890625 261.027344 443.890625 264.21875 "/>
<path style=" stroke:none;fill-rule:nonzero;fill:rgb(55.288696%,9.799194%,56.079102%);fill-opacity:1;" d="M 455.160156 252.925781 C 451.980469 252.925781 449.398438 250.335938 449.398438 247.148438 C 449.398438 243.960938 451.980469 241.378906 455.160156 241.378906 C 458.34375 241.378906 460.921875 243.960938 460.921875 247.148438 C 460.921875 250.335938 458.34375 252.925781 455.160156 252.925781 "/>
<path style=" stroke:none;fill-rule:nonzero;fill:rgb(55.288696%,9.799194%,56.079102%);fill-opacity:1;" d="M 421.089844 252.925781 C 417.914062 252.925781 415.332031 250.335938 415.332031 247.148438 C 415.332031 243.960938 417.914062 241.378906 421.089844 241.378906 C 424.277344 241.378906 426.855469 243.960938 426.855469 247.148438 C 426.855469 250.335938 424.277344 252.925781 421.089844 252.925781 "/>
<path style=" stroke:none;fill-rule:nonzero;fill:rgb(55.288696%,9.799194%,56.079102%);fill-opacity:1;" d="M 454.242188 239.167969 C 451.996094 241.417969 448.351562 241.417969 446.097656 239.167969 C 443.851562 236.914062 443.851562 233.253906 446.097656 230.996094 C 448.351562 228.742188 451.996094 228.742188 454.242188 230.996094 C 456.496094 233.253906 456.496094 236.914062 454.242188 239.167969 "/>
<path style=" stroke:none;fill-rule:nonzero;fill:rgb(55.288696%,9.799194%,56.079102%);fill-opacity:1;" d="M 430.15625 263.308594 C 427.910156 265.554688 424.257812 265.554688 422.011719 263.308594 C 419.757812 261.042969 419.757812 257.390625 422.011719 255.136719 C 424.257812 252.878906 427.910156 252.878906 430.15625 255.136719 C 432.40625 257.390625 432.40625 261.042969 430.15625 263.308594 "/>
<path style=" stroke:none;fill-rule:nonzero;fill:rgb(55.288696%,9.799194%,56.079102%);fill-opacity:1;" d="M 446.097656 263.308594 C 443.851562 261.042969 443.851562 257.390625 446.097656 255.136719 C 448.351562 252.878906 451.996094 252.878906 454.242188 255.136719 C 456.496094 257.390625 456.496094 261.042969 454.242188 263.308594 C 451.996094 265.554688 448.351562 265.554688 446.097656 263.308594 "/>
<path style=" stroke:none;fill-rule:nonzero;fill:rgb(55.288696%,9.799194%,56.079102%);fill-opacity:1;" d="M 422.011719 239.167969 C 419.757812 236.914062 419.757812 233.253906 422.011719 230.996094 C 424.257812 228.742188 427.910156 228.742188 430.15625 230.996094 C 432.40625 233.253906 432.40625 236.914062 430.15625 239.167969 C 427.910156 241.417969 424.257812 241.417969 422.011719 239.167969 "/>
<path style=" stroke:none;fill-rule:nonzero;fill:rgb(98.039246%,71.759033%,14.509583%);fill-opacity:1;" d="M 455.160156 247.148438 C 455.160156 256.578125 447.535156 264.21875 438.128906 264.21875 C 428.722656 264.21875 421.089844 256.578125 421.089844 247.148438 C 421.089844 237.722656 428.722656 230.078125 438.128906 230.078125 C 447.535156 230.078125 455.160156 237.722656 455.160156 247.148438 "/>
<path style=" stroke:none;fill-rule:nonzero;fill:rgb(96.078491%,46.669006%,16.468811%);fill-opacity:1;" d="M 451.488281 247.148438 C 451.488281 254.542969 445.507812 260.542969 438.128906 260.542969 C 430.746094 260.542969 424.761719 254.542969 424.761719 247.148438 C 424.761719 239.753906 430.746094 233.761719 438.128906 233.761719 C 445.507812 233.761719 451.488281 239.753906 451.488281 247.148438 "/>
<path style=" stroke:none;fill-rule:nonzero;fill:rgb(92.939758%,7.058716%,48.629761%);fill-opacity:1;" d="M 447.382812 244.507812 C 447.382812 241.9375 445.292969 239.847656 442.726562 239.847656 C 440.398438 239.847656 438.472656 241.554688 438.128906 243.792969 C 437.785156 241.554688 435.855469 239.847656 433.527344 239.847656 C 430.960938 239.847656 428.871094 241.9375 428.871094 244.507812 C 428.871094 245.53125 429.203125 246.46875 429.75 247.230469 L 438.125 256.109375 L 446.300781 247.496094 C 446.972656 246.691406 447.382812 245.648438 447.382812 244.507812 "/>
<path style=" stroke:none;fill-rule:nonzero;fill:rgb(92.939758%,7.058716%,48.629761%);fill-opacity:1;" d="M 286.804688 209.992188 C 284.53125 215.578125 281.007812 219.417969 278.945312 218.570312 C 276.878906 217.726562 277.046875 212.515625 279.324219 206.933594 C 281.605469 201.347656 285.128906 197.5 287.191406 198.355469 C 289.257812 199.195312 289.085938 204.410156 286.804688 209.992188 "/>
<path style=" stroke:none;fill-rule:nonzero;fill:rgb(92.939758%,7.058716%,48.629761%);fill-opacity:1;" d="M 277.136719 233.703125 C 274.851562 239.292969 271.335938 243.128906 269.269531 242.28125 C 267.203125 241.441406 267.371094 236.222656 269.65625 230.644531 C 271.925781 225.054688 275.453125 221.21875 277.515625 222.058594 C 279.585938 222.910156 279.410156 228.121094 277.136719 233.703125 "/>
<path style=" stroke:none;fill-rule:nonzero;fill:rgb(92.939758%,7.058716%,48.629761%);fill-opacity:1;" d="M 288.53125 228.914062 C 282.957031 226.628906 279.128906 223.097656 279.972656 221.03125 C 280.816406 218.957031 286.023438 219.136719 291.589844 221.414062 C 297.164062 223.695312 300.996094 227.226562 300.15625 229.292969 C 299.3125 231.367188 294.105469 231.191406 288.53125 228.914062 "/>
<path style=" stroke:none;fill-rule:nonzero;fill:rgb(92.939758%,7.058716%,48.629761%);fill-opacity:1;" d="M 264.867188 219.226562 C 259.292969 216.9375 255.460938 213.410156 256.304688 211.335938 C 257.148438 209.261719 262.351562 209.445312 267.921875 211.722656 C 273.503906 214 277.332031 217.53125 276.492188 219.601562 C 275.644531 221.671875 270.4375 221.503906 264.867188 219.226562 "/>
<path style=" stroke:none;fill-rule:nonzero;fill:rgb(92.939758%,7.058716%,48.629761%);fill-opacity:1;" d="M 291.578125 219.09375 C 286.027344 221.425781 280.832031 221.648438 279.960938 219.582031 C 279.105469 217.523438 282.902344 213.960938 288.453125 211.625 C 294.007812 209.285156 299.207031 209.070312 300.070312 211.128906 C 300.933594 213.195312 297.132812 216.757812 291.578125 219.09375 "/>
<path style=" stroke:none;fill-rule:nonzero;fill:rgb(92.939758%,7.058716%,48.629761%);fill-opacity:1;" d="M 268.003906 229.003906 C 262.449219 231.339844 257.253906 231.5625 256.386719 229.5 C 255.527344 227.441406 259.328125 223.878906 264.878906 221.546875 C 270.429688 219.203125 275.628906 218.984375 276.5 221.046875 C 277.355469 223.105469 273.558594 226.671875 268.003906 229.003906 "/>
<path style=" stroke:none;fill-rule:nonzero;fill:rgb(92.939758%,7.058716%,48.629761%);fill-opacity:1;" d="M 279.453125 233.695312 C 277.121094 228.132812 276.898438 222.914062 278.957031 222.058594 C 281.015625 221.191406 284.574219 225 286.902344 230.558594 C 289.234375 236.121094 289.457031 241.335938 287.394531 242.199219 C 285.335938 243.066406 281.777344 239.257812 279.453125 233.695312 "/>
<path style=" stroke:none;fill-rule:nonzero;fill:rgb(92.939758%,7.058716%,48.629761%);fill-opacity:1;" d="M 269.558594 210.078125 C 267.21875 204.511719 267.003906 199.304688 269.066406 198.433594 C 271.125 197.566406 274.679688 201.378906 277.011719 206.9375 C 279.339844 212.503906 279.5625 217.710938 277.5 218.578125 C 275.441406 219.441406 271.886719 215.636719 269.558594 210.078125 "/>
<path style=" stroke:none;fill-rule:nonzero;fill:rgb(36.079407%,78.42865%,77.648926%);fill-opacity:1;" d="M 282.273438 207.515625 C 282.273438 213.546875 280.460938 218.429688 278.230469 218.429688 C 276 218.429688 274.1875 213.546875 274.1875 207.515625 C 274.1875 201.472656 276 196.582031 278.230469 196.582031 C 280.460938 196.582031 282.273438 201.472656 282.273438 207.515625 "/>
<path style=" stroke:none;fill-rule:nonzero;fill:rgb(36.079407%,78.42865%,77.648926%);fill-opacity:1;" d="M 282.273438 233.121094 C 282.273438 239.15625 280.460938 244.046875 278.230469 244.046875 C 276 244.046875 274.1875 239.15625 274.1875 233.121094 C 274.1875 227.089844 276 222.199219 278.230469 222.199219 C 280.460938 222.199219 282.273438 227.089844 282.273438 233.121094 "/>
<path style=" stroke:none;fill-rule:nonzero;fill:rgb(36.079407%,78.42865%,77.648926%);fill-opacity:1;" d="M 291.015625 224.363281 C 284.992188 224.363281 280.113281 222.554688 280.113281 220.320312 C 280.113281 218.082031 284.992188 216.269531 291.015625 216.269531 C 297.03125 216.269531 301.917969 218.082031 301.917969 220.320312 C 301.917969 222.554688 297.03125 224.363281 291.015625 224.363281 "/>
<g clip-path="url(#clip2)" clip-rule="nonzero">
<path style=" stroke:none;fill-rule:nonzero;fill:rgb(36.079407%,78.42865%,77.648926%);fill-opacity:1;" d="M 265.449219 224.363281 C 259.421875 224.363281 254.542969 222.554688 254.542969 220.320312 C 254.542969 218.082031 259.421875 216.269531 265.449219 216.269531 C 271.464844 216.269531 276.347656 218.082031 276.347656 220.320312 C 276.347656 222.554688 271.464844 224.363281 265.449219 224.363281 "/>
</g>
<path style=" stroke:none;fill-rule:nonzero;fill:rgb(98.039246%,71.759033%,14.509583%);fill-opacity:1;" d="M 290.128906 214.125 C 285.867188 218.386719 281.136719 220.566406 279.5625 218.984375 C 277.984375 217.402344 280.152344 212.664062 284.410156 208.394531 C 288.667969 204.128906 293.398438 201.953125 294.980469 203.53125 C 296.558594 205.121094 294.382812 209.859375 290.128906 214.125 "/>
<path style=" stroke:none;fill-rule:nonzero;fill:rgb(98.039246%,71.759033%,14.509583%);fill-opacity:1;" d="M 272.050781 232.234375 C 267.789062 236.507812 263.0625 238.675781 261.480469 237.097656 C 259.898438 235.515625 262.074219 230.777344 266.332031 226.511719 C 270.589844 222.242188 275.324219 220.070312 276.898438 221.648438 C 278.472656 223.234375 276.304688 227.972656 272.050781 232.234375 "/>
<path style=" stroke:none;fill-rule:nonzero;fill:rgb(98.039246%,71.759033%,14.509583%);fill-opacity:1;" d="M 284.410156 232.234375 C 280.152344 227.972656 277.984375 223.234375 279.5625 221.648438 C 281.136719 220.070312 285.867188 222.242188 290.128906 226.511719 C 294.382812 230.777344 296.558594 235.515625 294.980469 237.097656 C 293.398438 238.675781 288.667969 236.507812 284.410156 232.234375 "/>
<path style=" stroke:none;fill-rule:nonzero;fill:rgb(98.039246%,71.759033%,14.509583%);fill-opacity:1;" d="M 266.332031 214.125 C 262.074219 209.859375 259.898438 205.121094 261.480469 203.53125 C 263.0625 201.953125 267.789062 204.128906 272.050781 208.394531 C 276.304688 212.664062 278.472656 217.402344 276.898438 218.984375 C 275.324219 220.566406 270.589844 218.386719 266.332031 214.125 "/>
<path style=" stroke:none;fill-rule:nonzero;fill:rgb(55.288696%,9.799194%,56.079102%);fill-opacity:1;" d="M 285.914062 220.320312 C 285.914062 224.566406 282.472656 228.015625 278.230469 228.015625 C 273.988281 228.015625 270.542969 224.566406 270.542969 220.320312 C 270.542969 216.0625 273.988281 212.613281 278.230469 212.613281 C 282.472656 212.613281 285.914062 216.0625 285.914062 220.320312 "/>
<path style=" stroke:none;fill-rule:nonzero;fill:rgb(76.469421%,24.708557%,65.489197%);fill-opacity:1;" d="M 282.921875 220.320312 C 282.921875 222.914062 280.824219 225.023438 278.230469 225.023438 C 275.632812 225.023438 273.527344 222.914062 273.527344 220.320312 C 273.527344 217.71875 275.632812 215.613281 278.230469 215.613281 C 280.824219 215.613281 282.921875 217.71875 282.921875 220.320312 "/>
<path style=" stroke:none;fill-rule:nonzero;fill:rgb(92.939758%,7.058716%,48.629761%);fill-opacity:1;" d="M 476.15625 209.179688 C 473.882812 214.761719 470.355469 218.601562 468.292969 217.757812 C 466.226562 216.910156 466.394531 211.699219 468.675781 206.117188 C 470.953125 200.53125 474.476562 196.6875 476.539062 197.539062 C 478.605469 198.382812 478.433594 203.59375 476.15625 209.179688 "/>
<path style=" stroke:none;fill-rule:nonzero;fill:rgb(92.939758%,7.058716%,48.629761%);fill-opacity:1;" d="M 466.480469 232.886719 C 464.203125 238.476562 460.6875 242.3125 458.617188 241.464844 C 456.550781 240.625 456.71875 235.410156 459 229.828125 C 461.277344 224.242188 464.804688 220.402344 466.863281 221.242188 C 468.933594 222.097656 468.761719 227.304688 466.480469 232.886719 "/>
<path style=" stroke:none;fill-rule:nonzero;fill:rgb(92.939758%,7.058716%,48.629761%);fill-opacity:1;" d="M 477.882812 228.097656 C 472.308594 225.8125 468.476562 222.285156 469.320312 220.21875 C 470.164062 218.140625 475.371094 218.320312 480.9375 220.597656 C 486.511719 222.878906 490.347656 226.410156 489.507812 228.480469 C 488.664062 230.550781 483.453125 230.378906 477.882812 228.097656 "/>
<path style=" stroke:none;fill-rule:nonzero;fill:rgb(92.939758%,7.058716%,48.629761%);fill-opacity:1;" d="M 454.214844 218.410156 C 448.644531 216.125 444.808594 212.59375 445.652344 210.523438 C 446.496094 208.449219 451.699219 208.628906 457.273438 210.90625 C 462.851562 213.1875 466.679688 216.714844 465.835938 218.789062 C 464.992188 220.859375 459.785156 220.6875 454.214844 218.410156 "/>
<path style=" stroke:none;fill-rule:nonzero;fill:rgb(92.939758%,7.058716%,48.629761%);fill-opacity:1;" d="M 480.925781 218.277344 C 475.378906 220.609375 470.175781 220.832031 469.3125 218.769531 C 468.449219 216.707031 472.25 213.144531 477.800781 210.808594 C 483.359375 208.472656 488.558594 208.253906 489.417969 210.316406 C 490.277344 212.378906 486.480469 215.945312 480.925781 218.277344 "/>
<path style=" stroke:none;fill-rule:nonzero;fill:rgb(92.939758%,7.058716%,48.629761%);fill-opacity:1;" d="M 457.351562 228.1875 C 451.800781 230.523438 446.597656 230.746094 445.734375 228.683594 C 444.871094 226.628906 448.675781 223.0625 454.222656 220.730469 C 459.777344 218.390625 464.980469 218.171875 465.84375 220.234375 C 466.707031 222.292969 462.90625 225.859375 457.351562 228.1875 "/>
<path style=" stroke:none;fill-rule:nonzero;fill:rgb(92.939758%,7.058716%,48.629761%);fill-opacity:1;" d="M 468.796875 232.878906 C 466.46875 227.320312 466.246094 222.101562 468.304688 221.242188 C 470.363281 220.375 473.925781 224.1875 476.253906 229.746094 C 478.585938 235.304688 478.804688 240.519531 476.742188 241.386719 C 474.683594 242.25 471.128906 238.441406 468.796875 232.878906 "/>
<path style=" stroke:none;fill-rule:nonzero;fill:rgb(92.939758%,7.058716%,48.629761%);fill-opacity:1;" d="M 458.90625 209.261719 C 456.570312 203.699219 456.355469 198.488281 458.410156 197.617188 C 460.472656 196.75 464.027344 200.566406 466.359375 206.121094 C 468.6875 211.6875 468.910156 216.898438 466.851562 217.765625 C 464.792969 218.625 461.234375 214.820312 458.90625 209.261719 "/>
<path style=" stroke:none;fill-rule:nonzero;fill:rgb(36.079407%,78.42865%,77.648926%);fill-opacity:1;" d="M 471.621094 206.699219 C 471.621094 212.730469 469.808594 217.613281 467.578125 217.613281 C 465.34375 217.613281 463.535156 212.730469 463.535156 206.699219 C 463.535156 200.65625 465.34375 195.769531 467.578125 195.769531 C 469.808594 195.769531 471.621094 200.65625 471.621094 206.699219 "/>
<path style=" stroke:none;fill-rule:nonzero;fill:rgb(36.079407%,78.42865%,77.648926%);fill-opacity:1;" d="M 471.621094 232.308594 C 471.621094 238.339844 469.808594 243.234375 467.578125 243.234375 C 465.34375 243.234375 463.535156 238.339844 463.535156 232.308594 C 463.535156 226.277344 465.34375 221.386719 467.578125 221.386719 C 469.808594 221.386719 471.621094 226.277344 471.621094 232.308594 "/>
<path style=" stroke:none;fill-rule:nonzero;fill:rgb(36.079407%,78.42865%,77.648926%);fill-opacity:1;" d="M 480.359375 223.546875 C 474.339844 223.546875 469.460938 221.742188 469.460938 219.503906 C 469.460938 217.269531 474.339844 215.453125 480.359375 215.453125 C 486.378906 215.453125 491.265625 217.269531 491.265625 219.503906 C 491.265625 221.742188 486.378906 223.546875 480.359375 223.546875 "/>
<path style=" stroke:none;fill-rule:nonzero;fill:rgb(36.079407%,78.42865%,77.648926%);fill-opacity:1;" d="M 454.796875 223.546875 C 448.769531 223.546875 443.890625 221.742188 443.890625 219.503906 C 443.890625 217.269531 448.769531 215.453125 454.796875 215.453125 C 460.816406 215.453125 465.695312 217.269531 465.695312 219.503906 C 465.695312 221.742188 460.816406 223.546875 454.796875 223.546875 "/>
<path style=" stroke:none;fill-rule:nonzero;fill:rgb(98.039246%,71.759033%,14.509583%);fill-opacity:1;" d="M 479.472656 213.308594 C 475.21875 217.570312 470.484375 219.75 468.910156 218.171875 C 467.332031 216.585938 469.5 211.847656 473.761719 207.578125 C 478.015625 203.316406 482.746094 201.136719 484.332031 202.71875 C 485.902344 204.304688 483.730469 209.042969 479.472656 213.308594 "/>
<path style=" stroke:none;fill-rule:nonzero;fill:rgb(98.039246%,71.759033%,14.509583%);fill-opacity:1;" d="M 461.398438 231.417969 C 457.136719 235.691406 452.410156 237.863281 450.828125 236.28125 C 449.246094 234.703125 451.425781 229.964844 455.679688 225.695312 C 459.9375 221.425781 464.671875 219.253906 466.246094 220.832031 C 467.820312 222.417969 465.652344 227.15625 461.398438 231.417969 "/>
<path style=" stroke:none;fill-rule:nonzero;fill:rgb(98.039246%,71.759033%,14.509583%);fill-opacity:1;" d="M 473.761719 231.417969 C 469.5 227.15625 467.332031 222.417969 468.910156 220.832031 C 470.484375 219.253906 475.21875 221.425781 479.472656 225.695312 C 483.730469 229.964844 485.902344 234.703125 484.332031 236.28125 C 482.746094 237.863281 478.015625 235.691406 473.761719 231.417969 "/>
<path style=" stroke:none;fill-rule:nonzero;fill:rgb(98.039246%,71.759033%,14.509583%);fill-opacity:1;" d="M 455.679688 213.308594 C 451.425781 209.042969 449.246094 204.304688 450.828125 202.71875 C 452.410156 201.136719 457.136719 203.316406 461.398438 207.578125 C 465.652344 211.847656 467.820312 216.585938 466.246094 218.171875 C 464.671875 219.75 459.9375 217.570312 455.679688 213.308594 "/>
<path style=" stroke:none;fill-rule:nonzero;fill:rgb(55.288696%,9.799194%,56.079102%);fill-opacity:1;" d="M 475.261719 219.503906 C 475.261719 223.753906 471.820312 227.199219 467.578125 227.199219 C 463.335938 227.199219 459.890625 223.753906 459.890625 219.503906 C 459.890625 215.246094 463.335938 211.800781 467.578125 211.800781 C 471.820312 211.800781 475.261719 215.246094 475.261719 219.503906 "/>
<path style=" stroke:none;fill-rule:nonzero;fill:rgb(76.469421%,24.708557%,65.489197%);fill-opacity:1;" d="M 472.269531 219.503906 C 472.269531 222.101562 470.171875 224.210938 467.578125 224.210938 C 464.980469 224.210938 462.875 222.101562 462.875 219.503906 C 462.875 216.90625 464.980469 214.796875 467.578125 214.796875 C 470.171875 214.796875 472.269531 216.90625 472.269531 219.503906 "/>
<path style=" stroke:none;fill-rule:nonzero;fill:rgb(55.288696%,9.799194%,56.079102%);fill-opacity:1;" d="M 313.207031 245.085938 C 308.503906 247.476562 303.453125 246.984375 301.929688 243.972656 C 300.402344 240.964844 302.984375 236.585938 307.691406 234.191406 C 312.398438 231.792969 317.449219 232.296875 318.976562 235.304688 C 320.5 238.308594 317.917969 242.6875 313.207031 245.085938 "/>
<path style=" stroke:none;fill-rule:nonzero;fill:rgb(55.288696%,9.799194%,56.079102%);fill-opacity:1;" d="M 290.636719 256.566406 C 285.925781 258.960938 280.871094 258.464844 279.347656 255.464844 C 277.828125 252.449219 280.40625 248.074219 285.113281 245.679688 C 289.820312 243.285156 294.871094 243.78125 296.398438 246.789062 C 297.921875 249.792969 295.339844 254.179688 290.636719 256.566406 "/>
<path style=" stroke:none;fill-rule:nonzero;fill:rgb(55.288696%,9.799194%,56.079102%);fill-opacity:1;" d="M 299.464844 259.460938 C 297.066406 254.742188 297.566406 249.679688 300.570312 248.148438 C 303.570312 246.628906 307.9375 249.210938 310.332031 253.921875 C 312.71875 258.644531 312.222656 263.707031 309.222656 265.230469 C 306.21875 266.75 301.851562 264.171875 299.464844 259.460938 "/>
<path style=" stroke:none;fill-rule:nonzero;fill:rgb(55.288696%,9.799194%,56.079102%);fill-opacity:1;" d="M 287.992188 236.832031 C 285.601562 232.117188 286.101562 227.058594 289.101562 225.527344 C 292.105469 224 296.472656 226.589844 298.863281 231.304688 C 301.253906 236.023438 300.753906 241.082031 297.757812 242.609375 C 294.757812 244.132812 290.382812 241.546875 287.992188 236.832031 "/>
<path style=" stroke:none;fill-rule:nonzero;fill:rgb(36.079407%,78.42865%,77.648926%);fill-opacity:1;" d="M 309.222656 235.546875 C 307.421875 240.515625 303.386719 243.609375 300.222656 242.457031 C 297.0625 241.300781 295.960938 236.34375 297.769531 231.371094 C 299.574219 226.402344 303.601562 223.3125 306.765625 224.457031 C 309.929688 225.613281 311.027344 230.582031 309.222656 235.546875 "/>
<path style=" stroke:none;fill-rule:nonzero;fill:rgb(36.079407%,78.42865%,77.648926%);fill-opacity:1;" d="M 300.558594 259.386719 C 298.753906 264.355469 294.726562 267.457031 291.558594 266.296875 C 288.398438 265.144531 287.296875 260.179688 289.101562 255.207031 C 290.910156 250.242188 294.9375 247.148438 298.097656 248.300781 C 301.261719 249.460938 302.367188 254.421875 300.558594 259.386719 "/>
<path style=" stroke:none;fill-rule:nonzero;fill:rgb(36.079407%,78.42865%,77.648926%);fill-opacity:1;" d="M 308.972656 255.464844 C 304.015625 253.648438 300.929688 249.609375 302.082031 246.449219 C 303.230469 243.273438 308.1875 242.175781 313.148438 243.984375 C 318.105469 245.785156 321.191406 249.828125 320.039062 252.996094 C 318.890625 256.160156 313.9375 257.269531 308.972656 255.464844 "/>
<path style=" stroke:none;fill-rule:nonzero;fill:rgb(36.079407%,78.42865%,77.648926%);fill-opacity:1;" d="M 285.179688 246.78125 C 280.21875 244.964844 277.132812 240.929688 278.28125 237.761719 C 279.433594 234.59375 284.386719 233.496094 289.351562 235.300781 C 294.308594 237.109375 297.402344 241.148438 296.242188 244.316406 C 295.097656 247.484375 290.136719 248.585938 285.179688 246.78125 "/>
<path style=" stroke:none;fill-rule:nonzero;fill:rgb(98.039246%,71.759033%,14.509583%);fill-opacity:1;" d="M 307.0625 248.265625 C 305.46875 252.636719 300.644531 254.886719 296.285156 253.296875 C 291.917969 251.703125 289.671875 246.871094 291.257812 242.496094 C 292.847656 238.121094 297.679688 235.867188 302.039062 237.460938 C 306.402344 239.054688 308.65625 243.886719 307.0625 248.265625 "/>
<path style=" stroke:none;fill-rule:nonzero;fill:rgb(96.078491%,46.669006%,16.468811%);fill-opacity:1;" d="M 304.886719 247.46875 C 303.738281 250.636719 300.238281 252.273438 297.074219 251.117188 C 293.914062 249.964844 292.285156 246.457031 293.4375 243.292969 C 294.585938 240.125 298.085938 238.488281 301.246094 239.644531 C 304.410156 240.792969 306.039062 244.300781 304.886719 247.46875 "/>
<path style=" stroke:none;fill-rule:nonzero;fill:rgb(98.039246%,71.759033%,14.509583%);fill-opacity:1;" d="M 369.078125 246.015625 C 369.078125 249.644531 366.132812 252.59375 362.5 252.59375 C 358.878906 252.59375 355.9375 249.644531 355.9375 246.015625 C 355.9375 242.382812 358.878906 239.433594 362.5 239.433594 C 366.132812 239.433594 369.078125 242.382812 369.078125 246.015625 "/>
<path style=" stroke:none;fill-rule:nonzero;fill:rgb(92.939758%,7.058716%,48.629761%);fill-opacity:1;" d="M 366.578125 246.015625 C 366.578125 248.269531 364.757812 250.101562 362.5 250.101562 C 360.25 250.101562 358.429688 248.269531 358.429688 246.015625 C 358.429688 243.753906 360.25 241.933594 362.5 241.933594 C 364.757812 241.933594 366.578125 243.753906 366.578125 246.015625 "/>
<path style=" stroke:none;fill-rule:nonzero;fill:rgb(98.039246%,71.759033%,14.509583%);fill-opacity:1;" d="M 369.078125 276.644531 C 369.078125 280.273438 366.132812 283.21875 362.5 283.21875 C 358.878906 283.21875 355.9375 280.273438 355.9375 276.644531 C 355.9375 273.007812 358.878906 270.058594 362.5 270.058594 C 366.132812 270.058594 369.078125 273.007812 369.078125 276.644531 "/>
<path style=" stroke:none;fill-rule:nonzero;fill:rgb(92.939758%,7.058716%,48.629761%);fill-opacity:1;" d="M 366.578125 276.644531 C 366.578125 278.898438 364.757812 280.730469 362.5 280.730469 C 360.25 280.730469 358.429688 278.898438 358.429688 276.644531 C 358.429688 274.386719 360.25 272.558594 362.5 272.558594 C 364.757812 272.558594 366.578125 274.386719 366.578125 276.644531 "/>
<path style=" stroke:none;fill-rule:nonzero;fill:rgb(98.039246%,71.759033%,14.509583%);fill-opacity:1;" d="M 377.792969 267.910156 C 374.164062 267.910156 371.222656 264.960938 371.222656 261.328125 C 371.222656 257.691406 374.164062 254.75 377.792969 254.75 C 381.417969 254.75 384.355469 257.691406 384.355469 261.328125 C 384.355469 264.960938 381.417969 267.910156 377.792969 267.910156 "/>
<path style=" stroke:none;fill-rule:nonzero;fill:rgb(92.939758%,7.058716%,48.629761%);fill-opacity:1;" d="M 377.792969 265.410156 C 375.539062 265.410156 373.714844 263.589844 373.714844 261.328125 C 373.714844 259.070312 375.539062 257.242188 377.792969 257.242188 C 380.042969 257.242188 381.859375 259.070312 381.859375 261.328125 C 381.859375 263.589844 380.042969 265.410156 377.792969 265.410156 "/>
<path style=" stroke:none;fill-rule:nonzero;fill:rgb(98.039246%,71.759033%,14.509583%);fill-opacity:1;" d="M 347.222656 267.910156 C 343.597656 267.910156 340.648438 264.960938 340.648438 261.328125 C 340.648438 257.691406 343.597656 254.75 347.222656 254.75 C 350.847656 254.75 353.792969 257.691406 353.792969 261.328125 C 353.792969 264.960938 350.847656 267.910156 347.222656 267.910156 "/>
<path style=" stroke:none;fill-rule:nonzero;fill:rgb(92.939758%,7.058716%,48.629761%);fill-opacity:1;" d="M 347.222656 265.410156 C 344.96875 265.410156 343.144531 263.589844 343.144531 261.328125 C 343.144531 259.070312 344.96875 257.242188 347.222656 257.242188 C 349.476562 257.242188 351.300781 259.070312 351.300781 261.328125 C 351.300781 263.589844 349.476562 265.410156 347.222656 265.410156 "/>
<path style=" stroke:none;fill-rule:nonzero;fill:rgb(98.039246%,71.759033%,14.509583%);fill-opacity:1;" d="M 377.976562 255.207031 C 375.40625 257.765625 371.246094 257.75 368.6875 255.175781 C 366.132812 252.59375 366.148438 248.425781 368.722656 245.867188 C 371.292969 243.304688 375.449219 243.324219 378.011719 245.90625 C 380.570312 248.472656 380.550781 252.652344 377.976562 255.207031 "/>
<path style=" stroke:none;fill-rule:nonzero;fill:rgb(92.939758%,7.058716%,48.629761%);fill-opacity:1;" d="M 376.222656 253.433594 C 374.621094 255.027344 372.042969 255.015625 370.457031 253.417969 C 368.871094 251.8125 368.878906 249.226562 370.472656 247.636719 C 372.070312 246.046875 374.652344 246.054688 376.242188 247.65625 C 377.832031 249.261719 377.816406 251.84375 376.222656 253.433594 "/>
<path style=" stroke:none;fill-rule:nonzero;fill:rgb(98.039246%,71.759033%,14.509583%);fill-opacity:1;" d="M 356.289062 276.785156 C 353.710938 279.347656 349.558594 279.335938 347 276.753906 C 344.445312 274.175781 344.457031 270.011719 347.035156 267.449219 C 349.605469 264.882812 353.769531 264.902344 356.320312 267.480469 C 358.878906 270.058594 358.863281 274.226562 356.289062 276.785156 "/>
<path style=" stroke:none;fill-rule:nonzero;fill:rgb(92.939758%,7.058716%,48.629761%);fill-opacity:1;" d="M 354.535156 275.015625 C 352.9375 276.605469 350.355469 276.597656 348.765625 274.992188 C 347.183594 273.394531 347.1875 270.808594 348.792969 269.21875 C 350.390625 267.632812 352.972656 267.640625 354.550781 269.242188 C 356.136719 270.839844 356.132812 273.429688 354.535156 275.015625 "/>
<path style=" stroke:none;fill-rule:nonzero;fill:rgb(98.039246%,71.759033%,14.509583%);fill-opacity:1;" d="M 368.617188 276.832031 C 366.058594 274.257812 366.074219 270.085938 368.644531 267.523438 C 371.222656 264.960938 375.378906 264.980469 377.9375 267.554688 C 380.492188 270.128906 380.476562 274.296875 377.90625 276.863281 C 375.328125 279.417969 371.171875 279.410156 368.617188 276.832031 "/>
<path style=" stroke:none;fill-rule:nonzero;fill:rgb(92.939758%,7.058716%,48.629761%);fill-opacity:1;" d="M 370.382812 275.070312 C 368.792969 273.46875 368.804688 270.882812 370.40625 269.292969 C 372 267.707031 374.582031 267.714844 376.167969 269.3125 C 377.753906 270.917969 377.75 273.496094 376.144531 275.09375 C 374.550781 276.679688 371.96875 276.671875 370.382812 275.070312 "/>
<path style=" stroke:none;fill-rule:nonzero;fill:rgb(98.039246%,71.759033%,14.509583%);fill-opacity:1;" d="M 347.078125 255.097656 C 344.519531 252.515625 344.53125 248.347656 347.109375 245.792969 C 349.679688 243.226562 353.84375 243.246094 356.394531 245.828125 C 358.953125 248.398438 358.9375 252.570312 356.363281 255.136719 C 353.792969 257.691406 349.628906 257.679688 347.078125 255.097656 "/>
<path style=" stroke:none;fill-rule:nonzero;fill:rgb(92.939758%,7.058716%,48.629761%);fill-opacity:1;" d="M 348.839844 253.339844 C 347.257812 251.734375 347.265625 249.15625 348.863281 247.5625 C 350.460938 245.976562 353.042969 245.988281 354.628906 247.585938 C 356.214844 249.183594 356.199219 251.769531 354.601562 253.359375 C 353.007812 254.949219 350.425781 254.9375 348.839844 253.339844 "/>
<path style=" stroke:none;fill-rule:nonzero;fill:rgb(55.288696%,9.799194%,56.079102%);fill-opacity:1;" d="M 377.621094 261.328125 C 377.621094 269.691406 370.859375 276.480469 362.5 276.480469 C 354.15625 276.480469 347.382812 269.691406 347.382812 261.328125 C 347.382812 252.960938 354.15625 246.179688 362.5 246.179688 C 370.859375 246.179688 377.621094 252.960938 377.621094 261.328125 "/>
<path style=" stroke:none;fill-rule:nonzero;fill:rgb(92.939758%,7.058716%,48.629761%);fill-opacity:1;" d="M 373.941406 261.328125 C 373.941406 267.65625 368.820312 272.789062 362.5 272.789062 C 356.1875 272.789062 351.0625 267.65625 351.0625 261.328125 C 351.0625 254.996094 356.1875 249.867188 362.5 249.867188 C 368.820312 249.867188 373.941406 254.996094 373.941406 261.328125 "/>
<path style=" stroke:none;fill-rule:nonzero;fill:rgb(98.039246%,71.759033%,14.509583%);fill-opacity:1;" d="M 405.585938 243.617188 C 407.097656 246.855469 405.703125 250.707031 402.472656 252.222656 C 399.242188 253.730469 395.394531 252.335938 393.890625 249.09375 C 392.375 245.863281 393.769531 242.007812 397.003906 240.496094 C 400.234375 238.984375 404.078125 240.378906 405.585938 243.617188 "/>
<path style=" stroke:none;fill-rule:nonzero;fill:rgb(92.939758%,7.058716%,48.629761%);fill-opacity:1;" d="M 403.367188 244.65625 C 404.304688 246.664062 403.445312 249.054688 401.433594 249.992188 C 399.429688 250.9375 397.046875 250.066406 396.101562 248.058594 C 395.164062 246.042969 396.03125 243.65625 398.039062 242.714844 C 400.046875 241.773438 402.429688 242.648438 403.367188 244.65625 "/>
<path style=" stroke:none;fill-rule:nonzero;fill:rgb(98.039246%,71.759033%,14.509583%);fill-opacity:1;" d="M 418.316406 270.894531 C 419.824219 274.136719 418.433594 277.988281 415.199219 279.5 C 411.972656 281.011719 408.125 279.613281 406.617188 276.382812 C 405.101562 273.144531 406.503906 269.289062 409.730469 267.78125 C 412.957031 266.265625 416.8125 267.660156 418.316406 270.894531 "/>
<path style=" stroke:none;fill-rule:nonzero;fill:rgb(92.939758%,7.058716%,48.629761%);fill-opacity:1;" d="M 416.097656 271.9375 C 417.03125 273.945312 416.171875 276.335938 414.167969 277.277344 C 412.160156 278.210938 409.773438 277.347656 408.835938 275.332031 C 407.898438 273.324219 408.765625 270.9375 410.761719 270 C 412.777344 269.0625 415.160156 269.929688 416.097656 271.9375 "/>
<path style=" stroke:none;fill-rule:nonzero;fill:rgb(98.039246%,71.759033%,14.509583%);fill-opacity:1;" d="M 422.457031 259.484375 C 419.21875 260.996094 415.375 259.597656 413.863281 256.359375 C 412.355469 253.125 413.753906 249.273438 416.980469 247.765625 C 420.214844 246.246094 424.054688 247.644531 425.566406 250.882812 C 427.078125 254.121094 425.683594 257.96875 422.457031 259.484375 "/>
<path style=" stroke:none;fill-rule:nonzero;fill:rgb(92.939758%,7.058716%,48.629761%);fill-opacity:1;" d="M 421.414062 257.261719 C 419.40625 258.195312 417.023438 257.328125 416.085938 255.324219 C 415.144531 253.308594 416.015625 250.921875 418.015625 249.984375 C 420.027344 249.046875 422.414062 249.910156 423.34375 251.917969 C 424.289062 253.933594 423.417969 256.320312 421.414062 257.261719 "/>
<path style=" stroke:none;fill-rule:nonzero;fill:rgb(98.039246%,71.759033%,14.509583%);fill-opacity:1;" d="M 395.222656 272.238281 C 391.992188 273.753906 388.148438 272.355469 386.636719 269.113281 C 385.128906 265.878906 386.519531 262.023438 389.75 260.515625 C 392.980469 259 396.828125 260.398438 398.335938 263.636719 C 399.84375 266.871094 398.449219 270.726562 395.222656 272.238281 "/>
<path style=" stroke:none;fill-rule:nonzero;fill:rgb(92.939758%,7.058716%,48.629761%);fill-opacity:1;" d="M 394.1875 270.011719 C 392.179688 270.953125 389.792969 270.082031 388.855469 268.074219 C 387.921875 266.0625 388.78125 263.671875 390.792969 262.738281 C 392.792969 261.800781 395.179688 262.664062 396.117188 264.679688 C 397.054688 266.675781 396.191406 269.070312 394.1875 270.011719 "/>
<path style=" stroke:none;fill-rule:nonzero;fill:rgb(98.039246%,71.759033%,14.509583%);fill-opacity:1;" d="M 417.339844 248.089844 C 416.113281 251.445312 412.402344 253.160156 409.050781 251.9375 C 405.703125 250.707031 403.984375 246.984375 405.210938 243.632812 C 406.4375 240.28125 410.15625 238.550781 413.503906 239.789062 C 416.847656 241.011719 418.574219 244.730469 417.339844 248.089844 "/>
<path style=" stroke:none;fill-rule:nonzero;fill:rgb(92.939758%,7.058716%,48.629761%);fill-opacity:1;" d="M 415.039062 247.242188 C 414.28125 249.328125 411.972656 250.394531 409.894531 249.632812 C 407.816406 248.867188 406.75 246.5625 407.519531 244.476562 C 408.277344 242.394531 410.582031 241.328125 412.660156 242.089844 C 414.738281 242.855469 415.800781 245.164062 415.039062 247.242188 "/>
<path style=" stroke:none;fill-rule:nonzero;fill:rgb(98.039246%,71.759033%,14.509583%);fill-opacity:1;" d="M 406.996094 276.367188 C 405.761719 279.71875 402.054688 281.4375 398.703125 280.207031 C 395.351562 278.980469 393.632812 275.265625 394.859375 271.902344 C 396.09375 268.550781 399.804688 266.832031 403.152344 268.054688 C 406.503906 269.289062 408.214844 273.007812 406.996094 276.367188 "/>
<path style=" stroke:none;fill-rule:nonzero;fill:rgb(92.939758%,7.058716%,48.629761%);fill-opacity:1;" d="M 404.691406 275.515625 C 403.929688 277.59375 401.621094 278.664062 399.546875 277.902344 C 397.46875 277.140625 396.398438 274.835938 397.164062 272.746094 C 397.925781 270.671875 400.226562 269.601562 402.304688 270.363281 C 404.382812 271.132812 405.445312 273.433594 404.691406 275.515625 "/>
<path style=" stroke:none;fill-rule:nonzero;fill:rgb(98.039246%,71.759033%,14.509583%);fill-opacity:1;" d="M 417.988281 271.261719 C 414.636719 270.027344 412.921875 266.3125 414.148438 262.957031 C 415.375 259.597656 419.085938 257.882812 422.433594 259.105469 C 425.785156 260.335938 427.507812 264.054688 426.273438 267.414062 C 425.046875 270.761719 421.335938 272.484375 417.988281 271.261719 "/>
<path style=" stroke:none;fill-rule:nonzero;fill:rgb(92.939758%,7.058716%,48.629761%);fill-opacity:1;" d="M 418.828125 268.953125 C 416.757812 268.1875 415.6875 265.886719 416.453125 263.804688 C 417.210938 261.71875 419.515625 260.652344 421.585938 261.410156 C 423.667969 262.179688 424.738281 264.484375 423.972656 266.566406 C 423.210938 268.652344 420.90625 269.710938 418.828125 268.953125 "/>
<path style=" stroke:none;fill-rule:nonzero;fill:rgb(98.039246%,71.759033%,14.509583%);fill-opacity:1;" d="M 389.765625 260.890625 C 386.417969 259.652344 384.699219 255.9375 385.925781 252.578125 C 387.152344 249.226562 390.867188 247.507812 394.214844 248.730469 C 397.5625 249.964844 399.28125 253.6875 398.054688 257.042969 C 396.828125 260.398438 393.117188 262.121094 389.765625 260.890625 "/>
<path style=" stroke:none;fill-rule:nonzero;fill:rgb(92.939758%,7.058716%,48.629761%);fill-opacity:1;" d="M 390.613281 258.578125 C 388.535156 257.820312 387.46875 255.511719 388.230469 253.429688 C 388.992188 251.351562 391.292969 250.277344 393.371094 251.042969 C 395.453125 251.796875 396.519531 254.117188 395.753906 256.199219 C 394.992188 258.277344 392.691406 259.347656 390.613281 258.578125 "/>
<path style=" stroke:none;fill-rule:nonzero;fill:rgb(55.288696%,9.799194%,56.079102%);fill-opacity:1;" d="M 419.570312 253.6875 C 423.050781 261.140625 419.839844 270.011719 412.398438 273.492188 C 404.960938 276.976562 396.109375 273.757812 392.636719 266.3125 C 389.152344 258.855469 392.363281 249.988281 399.804688 246.5 C 407.246094 243.019531 416.089844 246.234375 419.570312 253.6875 "/>
<path style=" stroke:none;fill-rule:nonzero;fill:rgb(92.939758%,7.058716%,48.629761%);fill-opacity:1;" d="M 416.289062 255.222656 C 418.921875 260.863281 416.492188 267.574219 410.863281 270.207031 C 405.234375 272.84375 398.542969 270.410156 395.910156 264.769531 C 393.28125 259.128906 395.707031 252.421875 401.339844 249.789062 C 406.964844 247.152344 413.664062 249.585938 416.289062 255.222656 "/>
<path style=" stroke:none;fill-rule:nonzero;fill:rgb(92.939758%,7.058716%,48.629761%);fill-opacity:1;" d="M 338.203125 236.53125 C 336.96875 239.472656 333.589844 240.859375 330.660156 239.625 C 327.726562 238.390625 326.34375 235.003906 327.574219 232.0625 C 328.808594 229.128906 332.1875 227.746094 335.121094 228.980469 C 338.054688 230.207031 339.4375 233.59375 338.203125 236.53125 "/>
<path style=" stroke:none;fill-rule:nonzero;fill:rgb(92.939758%,7.058716%,48.629761%);fill-opacity:1;" d="M 325.007812 268.007812 C 323.78125 270.945312 320.402344 272.324219 317.464844 271.097656 C 314.535156 269.855469 313.152344 266.476562 314.386719 263.535156 C 315.617188 260.597656 318.996094 259.210938 321.929688 260.449219 C 324.867188 261.683594 326.246094 265.070312 325.007812 268.007812 "/>
<path style=" stroke:none;fill-rule:nonzero;fill:rgb(92.939758%,7.058716%,48.629761%);fill-opacity:1;" d="M 339.769531 261.964844 C 336.835938 260.730469 335.457031 257.351562 336.6875 254.40625 C 337.917969 251.472656 341.292969 250.089844 344.230469 251.320312 C 347.164062 252.554688 348.546875 255.9375 347.3125 258.882812 C 346.085938 261.816406 342.703125 263.203125 339.769531 261.964844 "/>
<path style=" stroke:none;fill-rule:nonzero;fill:rgb(92.939758%,7.058716%,48.629761%);fill-opacity:1;" d="M 308.355469 248.75 C 305.421875 247.515625 304.042969 244.136719 305.277344 241.199219 C 306.503906 238.253906 309.886719 236.871094 312.816406 238.105469 C 315.753906 239.339844 317.132812 242.722656 315.90625 245.660156 C 314.671875 248.605469 311.292969 249.988281 308.355469 248.75 "/>
<path style=" stroke:none;fill-rule:nonzero;fill:rgb(92.939758%,7.058716%,48.629761%);fill-opacity:1;" d="M 344.238281 248.929688 C 341.292969 250.132812 337.929688 248.722656 336.726562 245.769531 C 335.523438 242.816406 336.9375 239.445312 339.882812 238.234375 C 342.828125 237.027344 346.195312 238.449219 347.394531 241.398438 C 348.601562 244.355469 347.183594 247.722656 344.238281 248.929688 "/>
<path style=" stroke:none;fill-rule:nonzero;fill:rgb(92.939758%,7.058716%,48.629761%);fill-opacity:1;" d="M 312.703125 261.835938 C 309.761719 263.042969 306.394531 261.628906 305.183594 258.671875 C 303.988281 255.722656 305.398438 252.351562 308.347656 251.148438 C 311.292969 249.933594 314.65625 251.351562 315.859375 254.304688 C 317.066406 257.261719 315.648438 260.628906 312.703125 261.835938 "/>
<path style=" stroke:none;fill-rule:nonzero;fill:rgb(92.939758%,7.058716%,48.629761%);fill-opacity:1;" d="M 327.398438 268.015625 C 326.199219 265.070312 327.609375 261.695312 330.554688 260.492188 C 333.503906 259.285156 336.867188 260.699219 338.074219 263.65625 C 339.277344 266.605469 337.863281 269.980469 334.914062 271.183594 C 331.96875 272.382812 328.605469 270.972656 327.398438 268.015625 "/>
<path style=" stroke:none;fill-rule:nonzero;fill:rgb(92.939758%,7.058716%,48.629761%);fill-opacity:1;" d="M 314.519531 236.421875 C 313.316406 233.472656 314.726562 230.101562 317.671875 228.890625 C 320.621094 227.6875 323.980469 229.105469 325.1875 232.058594 C 326.386719 235.003906 324.980469 238.378906 322.027344 239.582031 C 319.082031 240.792969 315.722656 239.371094 314.519531 236.421875 "/>
<path style=" stroke:none;fill-rule:nonzero;fill:rgb(55.288696%,9.799194%,56.079102%);fill-opacity:1;" d="M 332.058594 232.96875 C 332.058594 236.160156 329.480469 238.746094 326.292969 238.746094 C 323.105469 238.746094 320.53125 236.160156 320.53125 232.96875 C 320.53125 229.785156 323.105469 227.199219 326.292969 227.199219 C 329.480469 227.199219 332.058594 229.785156 332.058594 232.96875 "/>
<path style=" stroke:none;fill-rule:nonzero;fill:rgb(55.288696%,9.799194%,56.079102%);fill-opacity:1;" d="M 332.058594 267.105469 C 332.058594 270.292969 329.480469 272.878906 326.292969 272.878906 C 323.105469 272.878906 320.53125 270.292969 320.53125 267.105469 C 320.53125 263.914062 323.105469 261.328125 326.292969 261.328125 C 329.480469 261.328125 332.058594 263.914062 332.058594 267.105469 "/>
<path style=" stroke:none;fill-rule:nonzero;fill:rgb(55.288696%,9.799194%,56.079102%);fill-opacity:1;" d="M 343.328125 255.8125 C 340.144531 255.8125 337.566406 253.226562 337.566406 250.039062 C 337.566406 246.847656 340.144531 244.265625 343.328125 244.265625 C 346.507812 244.265625 349.09375 246.847656 349.09375 250.039062 C 349.09375 253.226562 346.507812 255.8125 343.328125 255.8125 "/>
<path style=" stroke:none;fill-rule:nonzero;fill:rgb(55.288696%,9.799194%,56.079102%);fill-opacity:1;" d="M 309.257812 255.8125 C 306.078125 255.8125 303.496094 253.226562 303.496094 250.039062 C 303.496094 246.847656 306.078125 244.265625 309.257812 244.265625 C 312.441406 244.265625 315.023438 246.847656 315.023438 250.039062 C 315.023438 253.226562 312.441406 255.8125 309.257812 255.8125 "/>
<path style=" stroke:none;fill-rule:nonzero;fill:rgb(55.288696%,9.799194%,56.079102%);fill-opacity:1;" d="M 342.414062 242.050781 C 340.164062 244.308594 336.507812 244.308594 334.265625 242.050781 C 332.007812 239.792969 332.007812 236.144531 334.265625 233.886719 C 336.507812 231.628906 340.164062 231.628906 342.414062 233.886719 C 344.664062 236.144531 344.664062 239.792969 342.414062 242.050781 "/>
<path style=" stroke:none;fill-rule:nonzero;fill:rgb(55.288696%,9.799194%,56.079102%);fill-opacity:1;" d="M 318.324219 266.1875 C 316.070312 268.445312 312.421875 268.445312 310.175781 266.1875 C 307.925781 263.929688 307.925781 260.28125 310.175781 258.023438 C 312.421875 255.769531 316.070312 255.769531 318.324219 258.023438 C 320.570312 260.28125 320.570312 263.929688 318.324219 266.1875 "/>
<path style=" stroke:none;fill-rule:nonzero;fill:rgb(55.288696%,9.799194%,56.079102%);fill-opacity:1;" d="M 334.265625 266.1875 C 332.007812 263.929688 332.007812 260.28125 334.265625 258.023438 C 336.507812 255.769531 340.164062 255.769531 342.414062 258.023438 C 344.664062 260.28125 344.664062 263.929688 342.414062 266.1875 C 340.164062 268.445312 336.507812 268.445312 334.265625 266.1875 "/>
<path style=" stroke:none;fill-rule:nonzero;fill:rgb(55.288696%,9.799194%,56.079102%);fill-opacity:1;" d="M 310.175781 242.050781 C 307.925781 239.792969 307.925781 236.144531 310.175781 233.886719 C 312.421875 231.628906 316.070312 231.628906 318.324219 233.886719 C 320.570312 236.144531 320.570312 239.792969 318.324219 242.050781 C 316.070312 244.308594 312.421875 244.308594 310.175781 242.050781 "/>
<path style=" stroke:none;fill-rule:nonzero;fill:rgb(98.039246%,71.759033%,14.509583%);fill-opacity:1;" d="M 343.328125 250.039062 C 343.328125 259.46875 335.703125 267.105469 326.292969 267.105469 C 316.886719 267.105469 309.257812 259.46875 309.257812 250.039062 C 309.257812 240.613281 316.886719 232.96875 326.292969 232.96875 C 335.703125 232.96875 343.328125 240.613281 343.328125 250.039062 "/>
<path style=" stroke:none;fill-rule:nonzero;fill:rgb(96.078491%,46.669006%,16.468811%);fill-opacity:1;" d="M 339.65625 250.039062 C 339.65625 257.429688 333.675781 263.421875 326.296875 263.421875 C 318.914062 263.421875 312.929688 257.429688 312.929688 250.039062 C 312.929688 242.644531 318.914062 236.644531 326.296875 236.644531 C 333.675781 236.644531 339.65625 242.644531 339.65625 250.039062 "/>
<path style=" stroke:none;fill-rule:nonzero;fill:rgb(92.939758%,7.058716%,48.629761%);fill-opacity:1;" d="M 335.546875 247.398438 C 335.546875 244.820312 333.460938 242.734375 330.894531 242.734375 C 328.570312 242.734375 326.636719 244.4375 326.296875 246.679688 C 325.945312 244.4375 324.019531 242.734375 321.695312 242.734375 C 319.125 242.734375 317.042969 244.820312 317.042969 247.398438 C 317.042969 248.414062 317.367188 249.355469 317.917969 250.117188 L 317.910156 250.117188 L 326.285156 259 L 334.464844 250.386719 C 335.144531 249.582031 335.546875 248.539062 335.546875 247.398438 "/>
<path style=" stroke:none;fill-rule:nonzero;fill:rgb(55.288696%,9.799194%,56.079102%);fill-opacity:1;" d="M 399.714844 254.351562 C 395.722656 258.632812 390.28125 260.039062 387.550781 257.484375 C 384.828125 254.933594 385.859375 249.386719 389.855469 245.101562 C 393.84375 240.832031 399.292969 239.429688 402.015625 241.984375 C 404.742188 244.535156 403.714844 250.070312 399.714844 254.351562 "/>
<path style=" stroke:none;fill-rule:nonzero;fill:rgb(55.288696%,9.799194%,56.079102%);fill-opacity:1;" d="M 380.554688 274.886719 C 376.558594 279.167969 371.117188 280.566406 368.390625 278.015625 C 365.667969 275.464844 366.695312 269.929688 370.691406 265.644531 C 374.6875 261.367188 380.132812 259.964844 382.859375 262.515625 C 385.578125 265.066406 384.550781 270.601562 380.554688 274.886719 "/>
<path style=" stroke:none;fill-rule:nonzero;fill:rgb(55.288696%,9.799194%,56.079102%);fill-opacity:1;" d="M 390.839844 274.542969 C 386.570312 270.539062 385.171875 265.078125 387.714844 262.351562 C 390.265625 259.621094 395.792969 260.652344 400.0625 264.652344 C 404.335938 268.652344 405.734375 274.113281 403.1875 276.84375 C 400.640625 279.574219 395.113281 278.542969 390.839844 274.542969 "/>
<path style=" stroke:none;fill-rule:nonzero;fill:rgb(55.288696%,9.799194%,56.079102%);fill-opacity:1;" d="M 370.34375 255.34375 C 366.074219 251.335938 364.675781 245.882812 367.222656 243.15625 C 369.765625 240.425781 375.296875 241.457031 379.566406 245.453125 C 383.839844 249.453125 385.238281 254.914062 382.691406 257.644531 C 380.144531 260.378906 374.621094 259.339844 370.34375 255.34375 "/>
<path style=" stroke:none;fill-rule:nonzero;fill:rgb(36.079407%,78.42865%,77.648926%);fill-opacity:1;" d="M 391.957031 245.941406 C 391.957031 251.796875 388.933594 256.546875 385.207031 256.546875 C 381.472656 256.546875 378.449219 251.796875 378.449219 245.941406 C 378.449219 240.085938 381.472656 235.332031 385.207031 235.332031 C 388.933594 235.332031 391.957031 240.085938 391.957031 245.941406 "/>
<g clip-path="url(#clip3)" clip-rule="nonzero">
<path style=" stroke:none;fill-rule:nonzero;fill:rgb(36.079407%,78.42865%,77.648926%);fill-opacity:1;" d="M 391.957031 274.054688 C 391.957031 279.910156 388.933594 284.664062 385.207031 284.664062 C 381.472656 284.664062 378.449219 279.910156 378.449219 274.054688 C 378.449219 268.191406 381.472656 263.445312 385.207031 263.445312 C 388.933594 263.445312 391.957031 268.191406 391.957031 274.054688 "/>
</g>
<path style=" stroke:none;fill-rule:nonzero;fill:rgb(36.079407%,78.42865%,77.648926%);fill-opacity:1;" d="M 399.234375 266.761719 C 393.386719 266.761719 388.644531 263.734375 388.644531 260 C 388.644531 256.261719 393.386719 253.234375 399.234375 253.234375 C 405.082031 253.234375 409.824219 256.261719 409.824219 260 C 409.824219 263.734375 405.082031 266.761719 399.234375 266.761719 "/>
<path style=" stroke:none;fill-rule:nonzero;fill:rgb(36.079407%,78.42865%,77.648926%);fill-opacity:1;" d="M 371.171875 266.761719 C 365.328125 266.761719 360.582031 263.734375 360.582031 260 C 360.582031 256.261719 365.328125 253.234375 371.171875 253.234375 C 377.027344 253.234375 381.765625 256.261719 381.765625 260 C 381.765625 263.734375 377.027344 266.761719 371.171875 266.761719 "/>
<path style=" stroke:none;fill-rule:nonzero;fill:rgb(98.039246%,71.759033%,14.509583%);fill-opacity:1;" d="M 394.523438 260 C 394.523438 265.152344 390.347656 269.339844 385.207031 269.339844 C 380.058594 269.339844 375.886719 265.152344 375.886719 260 C 375.886719 254.84375 380.058594 250.664062 385.207031 250.664062 C 390.347656 250.664062 394.523438 254.84375 394.523438 260 "/>
<path style=" stroke:none;fill-rule:nonzero;fill:rgb(96.078491%,46.669006%,16.468811%);fill-opacity:1;" d="M 391.957031 260 C 391.957031 263.734375 388.933594 266.761719 385.207031 266.761719 C 381.472656 266.761719 378.449219 263.734375 378.449219 260 C 378.449219 256.261719 381.472656 253.234375 385.207031 253.234375 C 388.933594 253.234375 391.957031 256.261719 391.957031 260 "/>
</g>
</svg>
