<?xml version="1.0" encoding="UTF-8"?>
<svg xmlns="http://www.w3.org/2000/svg" xmlns:xlink="http://www.w3.org/1999/xlink" width="1125pt" height="749.999995pt" viewBox="0 0 1125 749.999995" version="1.2">
<defs>
<clipPath id="clip1">
  <path d="M 1078 40.898438 L 1124.871094 40.898438 L 1124.871094 162.90625 L 1078 162.90625 Z M 1078 40.898438 "/>
</clipPath>
<clipPath id="clip2">
  <path d="M 1078 0 L 1124.871094 0 L 1124.871094 0.421875 L 1078 0.421875 Z M 1078 0 "/>
</clipPath>
<clipPath id="clip3">
  <path d="M 749.945312 0 L 1124.871094 0 L 1124.871094 203.382812 L 749.945312 203.382812 Z M 749.945312 0 "/>
</clipPath>
<clipPath id="clip4">
  <path d="M 1078 365.675781 L 1124.871094 365.675781 L 1124.871094 487.683594 L 1078 487.683594 Z M 1078 365.675781 "/>
</clipPath>
<clipPath id="clip5">
  <path d="M 1078 203.191406 L 1124.871094 203.191406 L 1124.871094 325.199219 L 1078 325.199219 Z M 1078 203.191406 "/>
</clipPath>
<clipPath id="clip6">
  <path d="M 749.945312 203.191406 L 1124.871094 203.191406 L 1124.871094 528.160156 L 749.945312 528.160156 Z M 749.945312 203.191406 "/>
</clipPath>
<clipPath id="clip7">
  <path d="M 1078 690.453125 L 1124.871094 690.453125 L 1124.871094 750 L 1078 750 Z M 1078 690.453125 "/>
</clipPath>
<clipPath id="clip8">
  <path d="M 1078 528 L 1124.871094 528 L 1124.871094 649.976562 L 1078 649.976562 Z M 1078 528 "/>
</clipPath>
<clipPath id="clip9">
  <path d="M 749.945312 528 L 1124.871094 528 L 1124.871094 750 L 749.945312 750 Z M 749.945312 528 "/>
</clipPath>
<clipPath id="clip10">
  <path d="M 0.121094 528 L 375.128906 528 L 375.128906 750 L 0.121094 750 Z M 0.121094 528 "/>
</clipPath>
</defs>
<g id="surface1">
<g clip-path="url(#clip1)" clip-rule="nonzero">
<path style=" stroke:none;fill-rule:nonzero;fill:rgb(100%,94.119263%,64.709473%);fill-opacity:1;" d="M 1078.003906 122.167969 L 1101.4375 162.765625 L 1124.871094 122.167969 L 1124.871094 40.984375 L 1078.003906 122.167969 "/>
</g>
<path style=" stroke:none;fill-rule:nonzero;fill:rgb(37.649536%,29.798889%,31.759644%);fill-opacity:1;" d="M 843.683594 122.167969 L 796.820312 203.363281 L 890.550781 203.363281 L 843.683594 122.167969 "/>
<path style=" stroke:none;fill-rule:nonzero;fill:rgb(75.689697%,40.388489%,34.509277%);fill-opacity:1;" d="M 796.820312 40.984375 L 820.25 81.578125 L 843.683594 40.984375 L 867.113281 81.578125 L 890.546875 40.984375 L 843.683594 -40.203125 L 796.820312 40.984375 "/>
<path style=" stroke:none;fill-rule:nonzero;fill:rgb(75.689697%,40.388489%,34.509277%);fill-opacity:1;" d="M 1078.007812 203.359375 L 1031.144531 122.167969 L 984.277344 203.359375 L 1078.007812 203.359375 "/>
<path style=" stroke:none;fill-rule:nonzero;fill:rgb(96.469116%,81.17981%,47.839355%);fill-opacity:1;" d="M 890.546875 122.171875 L 913.980469 162.765625 L 937.414062 122.171875 L 960.84375 162.765625 L 984.277344 122.171875 L 937.414062 40.984375 L 890.546875 122.171875 "/>
<path style=" stroke:none;fill-rule:nonzero;fill:rgb(37.649536%,29.798889%,31.759644%);fill-opacity:1;" d="M 984.277344 40.980469 L 1007.707031 81.578125 L 1031.144531 40.980469 L 1054.574219 81.578125 L 1078.007812 40.980469 L 1031.144531 -40.207031 L 984.277344 40.980469 "/>
<path style=" stroke:none;fill-rule:nonzero;fill:rgb(100%,94.119263%,64.709473%);fill-opacity:1;" d="M 749.957031 40.984375 L 749.957031 122.171875 L 773.386719 162.765625 L 796.820312 122.171875 L 749.957031 40.984375 "/>
<path style=" stroke:none;fill-rule:nonzero;fill:rgb(96.469116%,81.17981%,47.839355%);fill-opacity:1;" d="M 749.957031 -121.390625 L 749.957031 -40.203125 L 773.386719 0.390625 L 796.820312 -40.203125 L 749.957031 -121.390625 "/>
<path style=" stroke:none;fill-rule:nonzero;fill:rgb(100%,94.119263%,64.709473%);fill-opacity:1;" d="M 913.980469 0.390625 L 937.414062 -40.203125 L 960.84375 0.390625 L 984.277344 -40.203125 L 937.414062 -121.390625 L 890.546875 -40.203125 L 913.980469 0.390625 "/>
<g clip-path="url(#clip2)" clip-rule="nonzero">
<path style=" stroke:none;fill-rule:nonzero;fill:rgb(96.469116%,81.17981%,47.839355%);fill-opacity:1;" d="M 1078.003906 -40.207031 L 1101.4375 0.390625 L 1124.871094 -40.207031 L 1124.871094 -121.390625 L 1078.003906 -40.207031 "/>
</g>
<g clip-path="url(#clip3)" clip-rule="nonzero">
<path style=" stroke:none;fill-rule:nonzero;fill:rgb(0%,0%,0%);fill-opacity:1;" d="M 1054.570312 81.582031 L 1031.144531 40.984375 L 1007.710938 81.582031 L 984.277344 40.984375 L 1031.144531 -40.207031 L 1078.003906 40.984375 Z M 960.84375 162.765625 L 937.410156 122.167969 L 913.976562 162.765625 L 890.550781 122.167969 L 937.410156 40.984375 L 984.277344 122.167969 Z M 867.117188 81.582031 L 843.683594 40.984375 L 820.25 81.582031 L 796.816406 40.984375 L 843.683594 -40.207031 L 890.550781 40.984375 Z M 1078.003906 -40.207031 L 1124.871094 -121.390625 L 1078.003906 -121.390625 L 1054.570312 -80.792969 L 1031.144531 -121.390625 L 1007.710938 -80.792969 L 984.277344 -121.390625 L 937.410156 -121.390625 L 984.277344 -40.207031 L 960.84375 0.390625 L 937.410156 -40.207031 L 913.976562 0.390625 L 890.550781 -40.207031 L 937.410156 -121.390625 L 890.550781 -121.390625 L 867.117188 -80.792969 L 843.683594 -121.390625 L 820.25 -80.792969 L 796.816406 -121.390625 L 749.957031 -121.390625 L 796.816406 -40.207031 L 773.382812 0.390625 L 749.957031 -40.207031 L 749.957031 40.984375 L 796.816406 122.167969 L 773.382812 162.765625 L 749.957031 122.167969 L 749.957031 203.359375 L 796.816406 203.359375 L 843.683594 122.167969 L 890.550781 203.359375 L 984.277344 203.359375 L 1031.144531 122.167969 L 1078.003906 203.359375 L 1124.871094 203.359375 L 1124.871094 122.167969 L 1101.4375 162.765625 L 1078.003906 122.167969 L 1124.871094 40.984375 L 1124.871094 -40.207031 L 1101.4375 0.390625 L 1078.003906 -40.207031 "/>
</g>
<g clip-path="url(#clip4)" clip-rule="nonzero">
<path style=" stroke:none;fill-rule:nonzero;fill:rgb(100%,94.119263%,64.709473%);fill-opacity:1;" d="M 1078.003906 446.921875 L 1101.4375 487.515625 L 1124.871094 446.921875 L 1124.871094 365.734375 L 1078.003906 446.921875 "/>
</g>
<path style=" stroke:none;fill-rule:nonzero;fill:rgb(37.649536%,29.798889%,31.759644%);fill-opacity:1;" d="M 843.683594 446.921875 L 796.820312 528.109375 L 890.550781 528.109375 L 843.683594 446.921875 "/>
<path style=" stroke:none;fill-rule:nonzero;fill:rgb(75.689697%,40.388489%,34.509277%);fill-opacity:1;" d="M 796.820312 365.734375 L 820.25 406.328125 L 843.683594 365.734375 L 867.113281 406.328125 L 890.550781 365.734375 L 843.683594 284.546875 L 796.820312 365.734375 "/>
<path style=" stroke:none;fill-rule:nonzero;fill:rgb(75.689697%,40.388489%,34.509277%);fill-opacity:1;" d="M 1078.007812 528.109375 L 1031.144531 446.921875 L 984.277344 528.109375 L 1078.007812 528.109375 "/>
<path style=" stroke:none;fill-rule:nonzero;fill:rgb(96.469116%,81.17981%,47.839355%);fill-opacity:1;" d="M 890.546875 446.921875 L 913.980469 487.515625 L 937.414062 446.921875 L 960.84375 487.515625 L 984.277344 446.921875 L 937.414062 365.734375 L 890.546875 446.921875 "/>
<path style=" stroke:none;fill-rule:nonzero;fill:rgb(37.649536%,29.798889%,31.759644%);fill-opacity:1;" d="M 984.277344 365.734375 L 1007.707031 406.328125 L 1031.144531 365.734375 L 1054.574219 406.328125 L 1078.007812 365.734375 L 1031.144531 284.546875 L 984.277344 365.734375 "/>
<path style=" stroke:none;fill-rule:nonzero;fill:rgb(100%,94.119263%,64.709473%);fill-opacity:1;" d="M 749.957031 365.734375 L 749.957031 446.921875 L 773.386719 487.515625 L 796.820312 446.921875 L 749.957031 365.734375 "/>
<path style=" stroke:none;fill-rule:nonzero;fill:rgb(37.649536%,29.798889%,31.759644%);fill-opacity:1;" d="M 796.820312 203.363281 L 820.25 243.953125 L 843.683594 203.363281 L 867.113281 243.953125 L 890.550781 203.363281 L 796.820312 203.363281 "/>
<path style=" stroke:none;fill-rule:nonzero;fill:rgb(96.469116%,81.17981%,47.839355%);fill-opacity:1;" d="M 749.957031 203.355469 L 749.957031 284.546875 L 773.386719 325.136719 L 796.820312 284.546875 L 749.957031 203.355469 "/>
<path style=" stroke:none;fill-rule:nonzero;fill:rgb(100%,94.119263%,64.709473%);fill-opacity:1;" d="M 913.980469 325.140625 L 937.414062 284.546875 L 960.84375 325.140625 L 984.277344 284.546875 L 937.414062 203.359375 L 890.546875 284.546875 L 913.980469 325.140625 "/>
<path style=" stroke:none;fill-rule:nonzero;fill:rgb(75.689697%,40.388489%,34.509277%);fill-opacity:1;" d="M 1054.574219 243.953125 L 1078.007812 203.359375 L 1031.144531 203.359375 L 1054.574219 243.953125 "/>
<path style=" stroke:none;fill-rule:nonzero;fill:rgb(75.689697%,40.388489%,34.509277%);fill-opacity:1;" d="M 1007.707031 243.953125 L 1031.144531 203.363281 L 984.28125 203.363281 L 1007.707031 243.953125 "/>
<g clip-path="url(#clip5)" clip-rule="nonzero">
<path style=" stroke:none;fill-rule:nonzero;fill:rgb(96.469116%,81.17981%,47.839355%);fill-opacity:1;" d="M 1078.003906 284.546875 L 1101.4375 325.140625 L 1124.871094 284.546875 L 1124.871094 203.359375 L 1078.003906 284.546875 "/>
</g>
<g clip-path="url(#clip6)" clip-rule="nonzero">
<path style=" stroke:none;fill-rule:nonzero;fill:rgb(0%,0%,0%);fill-opacity:1;" d="M 1054.570312 406.328125 L 1031.144531 365.734375 L 1007.710938 406.328125 L 984.277344 365.734375 L 1031.144531 284.546875 L 1078.003906 365.734375 Z M 960.84375 487.515625 L 937.410156 446.921875 L 913.976562 487.515625 L 890.550781 446.921875 L 937.410156 365.734375 L 984.277344 446.921875 Z M 867.117188 406.328125 L 843.683594 365.734375 L 820.25 406.328125 L 796.816406 365.734375 L 843.683594 284.546875 L 890.550781 365.734375 Z M 1078.003906 284.546875 L 1124.871094 203.359375 L 1078.003906 203.359375 L 1054.570312 243.953125 L 1031.144531 203.359375 L 1007.710938 243.953125 L 984.277344 203.359375 L 937.410156 203.359375 L 984.277344 284.546875 L 960.84375 325.140625 L 937.410156 284.546875 L 913.976562 325.140625 L 890.550781 284.546875 L 937.410156 203.359375 L 890.550781 203.359375 L 867.117188 243.953125 L 843.683594 203.359375 L 820.25 243.953125 L 796.816406 203.359375 L 749.957031 203.359375 L 796.816406 284.546875 L 773.382812 325.140625 L 749.957031 284.546875 L 749.957031 365.734375 L 796.816406 446.921875 L 773.382812 487.515625 L 749.957031 446.921875 L 749.957031 528.109375 L 796.816406 528.109375 L 843.683594 446.921875 L 890.550781 528.109375 L 984.277344 528.109375 L 1031.144531 446.921875 L 1078.003906 528.109375 L 1124.871094 528.109375 L 1124.871094 446.921875 L 1101.4375 487.515625 L 1078.003906 446.921875 L 1124.871094 365.734375 L 1124.871094 284.546875 L 1101.4375 325.140625 L 1078.003906 284.546875 "/>
</g>
<g clip-path="url(#clip7)" clip-rule="nonzero">
<path style=" stroke:none;fill-rule:nonzero;fill:rgb(100%,94.119263%,64.709473%);fill-opacity:1;" d="M 1078.003906 771.671875 L 1101.4375 812.265625 L 1124.871094 771.671875 L 1124.871094 690.484375 L 1078.003906 771.671875 "/>
</g>
<path style=" stroke:none;fill-rule:nonzero;fill:rgb(75.689697%,40.388489%,34.509277%);fill-opacity:1;" d="M 796.820312 690.484375 L 820.25 731.078125 L 843.683594 690.484375 L 867.113281 731.078125 L 890.550781 690.484375 L 843.683594 609.296875 L 796.820312 690.484375 "/>
<path style=" stroke:none;fill-rule:nonzero;fill:rgb(96.469116%,81.17981%,47.839355%);fill-opacity:1;" d="M 890.546875 771.671875 L 913.980469 812.265625 L 937.414062 771.671875 L 960.84375 812.265625 L 984.277344 771.671875 L 937.414062 690.484375 L 890.546875 771.671875 "/>
<path style=" stroke:none;fill-rule:nonzero;fill:rgb(37.649536%,29.798889%,31.759644%);fill-opacity:1;" d="M 984.277344 690.484375 L 1007.707031 731.078125 L 1031.144531 690.484375 L 1054.574219 731.078125 L 1078.007812 690.484375 L 1031.144531 609.296875 L 984.277344 690.484375 "/>
<path style=" stroke:none;fill-rule:nonzero;fill:rgb(100%,94.119263%,64.709473%);fill-opacity:1;" d="M 749.957031 690.484375 L 749.957031 771.671875 L 773.386719 812.265625 L 796.820312 771.671875 L 749.957031 690.484375 "/>
<path style=" stroke:none;fill-rule:nonzero;fill:rgb(37.649536%,29.798889%,31.759644%);fill-opacity:1;" d="M 796.820312 528.109375 L 820.25 568.703125 L 843.683594 528.109375 L 867.113281 568.703125 L 890.550781 528.109375 L 796.820312 528.109375 "/>
<path style=" stroke:none;fill-rule:nonzero;fill:rgb(96.469116%,81.17981%,47.839355%);fill-opacity:1;" d="M 749.957031 528.109375 L 749.957031 609.296875 L 773.386719 649.890625 L 796.820312 609.296875 L 749.957031 528.109375 "/>
<path style=" stroke:none;fill-rule:nonzero;fill:rgb(100%,94.119263%,64.709473%);fill-opacity:1;" d="M 913.980469 649.890625 L 937.414062 609.296875 L 960.84375 649.890625 L 984.277344 609.296875 L 937.414062 528.109375 L 890.546875 609.296875 L 913.980469 649.890625 "/>
<path style=" stroke:none;fill-rule:nonzero;fill:rgb(75.689697%,40.388489%,34.509277%);fill-opacity:1;" d="M 1054.574219 568.703125 L 1078.007812 528.109375 L 1031.144531 528.109375 L 1054.574219 568.703125 "/>
<path style=" stroke:none;fill-rule:nonzero;fill:rgb(75.689697%,40.388489%,34.509277%);fill-opacity:1;" d="M 1007.707031 568.703125 L 1031.144531 528.109375 L 984.28125 528.109375 L 1007.707031 568.703125 "/>
<g clip-path="url(#clip8)" clip-rule="nonzero">
<path style=" stroke:none;fill-rule:nonzero;fill:rgb(96.469116%,81.17981%,47.839355%);fill-opacity:1;" d="M 1078.003906 609.296875 L 1101.4375 649.890625 L 1124.871094 609.296875 L 1124.871094 528.109375 L 1078.003906 609.296875 "/>
</g>
<g clip-path="url(#clip9)" clip-rule="nonzero">
<path style=" stroke:none;fill-rule:nonzero;fill:rgb(0%,0%,0%);fill-opacity:1;" d="M 1054.570312 731.078125 L 1031.144531 690.484375 L 1007.710938 731.078125 L 984.277344 690.484375 L 1031.144531 609.296875 L 1078.003906 690.484375 Z M 960.84375 812.265625 L 937.410156 771.671875 L 913.976562 812.265625 L 890.550781 771.671875 L 937.410156 690.484375 L 984.277344 771.671875 Z M 867.117188 731.078125 L 843.683594 690.484375 L 820.25 731.078125 L 796.816406 690.484375 L 843.683594 609.296875 L 890.550781 690.484375 Z M 1078.003906 609.296875 L 1124.871094 528.109375 L 1078.003906 528.109375 L 1054.570312 568.703125 L 1031.144531 528.109375 L 1007.710938 568.703125 L 984.277344 528.109375 L 937.410156 528.109375 L 984.277344 609.296875 L 960.84375 649.890625 L 937.410156 609.296875 L 913.976562 649.890625 L 890.550781 609.296875 L 937.410156 528.109375 L 890.550781 528.109375 L 867.117188 568.703125 L 843.683594 528.109375 L 820.25 568.703125 L 796.816406 528.109375 L 749.957031 528.109375 L 796.816406 609.296875 L 773.382812 649.890625 L 749.957031 609.296875 L 749.957031 690.484375 L 796.816406 771.671875 L 773.382812 812.265625 L 749.957031 771.671875 L 749.957031 852.859375 L 796.816406 852.859375 L 843.683594 771.671875 L 890.550781 852.859375 L 984.277344 852.859375 L 1031.144531 771.671875 L 1078.003906 852.859375 L 1124.871094 852.859375 L 1124.871094 771.671875 L 1101.4375 812.265625 L 1078.003906 771.671875 L 1124.871094 690.484375 L 1124.871094 609.296875 L 1101.4375 649.890625 L 1078.003906 609.296875 "/>
</g>
<path style=" stroke:none;fill-rule:nonzero;fill:rgb(100%,94.119263%,64.709473%);fill-opacity:1;" d="M 703.089844 122.171875 L 726.519531 162.765625 L 749.957031 122.171875 L 749.957031 40.984375 L 703.089844 122.171875 "/>
<path style=" stroke:none;fill-rule:nonzero;fill:rgb(37.649536%,29.798889%,31.759644%);fill-opacity:1;" d="M 468.765625 122.171875 L 421.902344 203.359375 L 515.632812 203.359375 L 468.765625 122.171875 "/>
<path style=" stroke:none;fill-rule:nonzero;fill:rgb(75.689697%,40.388489%,34.509277%);fill-opacity:1;" d="M 421.902344 40.984375 L 445.332031 81.578125 L 468.765625 40.984375 L 492.199219 81.578125 L 515.632812 40.984375 L 468.765625 -40.203125 L 421.902344 40.984375 "/>
<path style=" stroke:none;fill-rule:nonzero;fill:rgb(75.689697%,40.388489%,34.509277%);fill-opacity:1;" d="M 703.089844 203.359375 L 656.222656 122.171875 L 609.363281 203.359375 L 703.089844 203.359375 "/>
<path style=" stroke:none;fill-rule:nonzero;fill:rgb(96.469116%,81.17981%,47.839355%);fill-opacity:1;" d="M 515.632812 122.171875 L 539.0625 162.765625 L 562.5 122.171875 L 585.929688 162.765625 L 609.359375 122.171875 L 562.5 40.984375 L 515.632812 122.171875 "/>
<path style=" stroke:none;fill-rule:nonzero;fill:rgb(37.649536%,29.798889%,31.759644%);fill-opacity:1;" d="M 609.363281 40.984375 L 632.792969 81.578125 L 656.226562 40.984375 L 679.65625 81.578125 L 703.089844 40.984375 L 656.226562 -40.203125 L 609.363281 40.984375 "/>
<path style=" stroke:none;fill-rule:nonzero;fill:rgb(100%,94.119263%,64.709473%);fill-opacity:1;" d="M 375.039062 40.984375 L 375.039062 122.171875 L 398.46875 162.765625 L 421.902344 122.171875 L 375.039062 40.984375 "/>
<path style=" stroke:none;fill-rule:nonzero;fill:rgb(96.469116%,81.17981%,47.839355%);fill-opacity:1;" d="M 375.039062 -121.390625 L 375.039062 -40.203125 L 398.46875 0.390625 L 421.902344 -40.203125 L 375.039062 -121.390625 "/>
<path style=" stroke:none;fill-rule:nonzero;fill:rgb(100%,94.119263%,64.709473%);fill-opacity:1;" d="M 539.0625 0.390625 L 562.496094 -40.203125 L 585.929688 0.390625 L 609.363281 -40.203125 L 562.496094 -121.390625 L 515.632812 -40.203125 L 539.0625 0.390625 "/>
<path style=" stroke:none;fill-rule:nonzero;fill:rgb(96.469116%,81.17981%,47.839355%);fill-opacity:1;" d="M 703.085938 -40.203125 L 726.519531 0.390625 L 749.957031 -40.203125 L 749.957031 -121.390625 L 703.085938 -40.203125 "/>
<path style=" stroke:none;fill-rule:nonzero;fill:rgb(0%,0%,0%);fill-opacity:1;" d="M 679.65625 81.578125 L 656.226562 40.980469 L 632.792969 81.578125 L 609.363281 40.980469 L 656.226562 -40.203125 L 703.085938 40.980469 Z M 585.929688 162.761719 L 562.496094 122.171875 L 539.0625 162.761719 L 515.632812 122.171875 L 562.496094 40.980469 L 609.363281 122.171875 Z M 492.199219 81.578125 L 468.765625 40.980469 L 445.332031 81.578125 L 421.902344 40.980469 L 468.765625 -40.203125 L 515.632812 40.980469 Z M 703.085938 -40.203125 L 749.957031 -121.390625 L 703.085938 -121.390625 L 679.65625 -80.800781 L 656.226562 -121.390625 L 632.792969 -80.800781 L 609.363281 -121.390625 L 562.496094 -121.390625 L 609.363281 -40.203125 L 585.929688 0.390625 L 562.496094 -40.203125 L 539.0625 0.390625 L 515.632812 -40.203125 L 562.496094 -121.390625 L 515.632812 -121.390625 L 492.199219 -80.800781 L 468.765625 -121.390625 L 445.332031 -80.800781 L 421.902344 -121.390625 L 375.039062 -121.390625 L 421.902344 -40.203125 L 398.46875 0.390625 L 375.039062 -40.203125 L 375.039062 40.980469 L 421.902344 122.171875 L 398.46875 162.761719 L 375.039062 122.171875 L 375.039062 203.359375 L 421.902344 203.359375 L 468.765625 122.171875 L 515.632812 203.359375 L 609.363281 203.359375 L 656.226562 122.171875 L 703.085938 203.359375 L 749.957031 203.359375 L 749.957031 122.171875 L 726.519531 162.761719 L 703.085938 122.171875 L 749.957031 40.980469 L 749.957031 -40.203125 L 726.519531 0.390625 L 703.085938 -40.203125 "/>
<path style=" stroke:none;fill-rule:nonzero;fill:rgb(100%,94.119263%,64.709473%);fill-opacity:1;" d="M 703.09375 446.921875 L 726.519531 487.515625 L 749.953125 446.921875 L 749.953125 365.734375 L 703.09375 446.921875 "/>
<path style=" stroke:none;fill-rule:nonzero;fill:rgb(37.649536%,29.798889%,31.759644%);fill-opacity:1;" d="M 468.765625 446.921875 L 421.902344 528.109375 L 515.632812 528.109375 L 468.765625 446.921875 "/>
<path style=" stroke:none;fill-rule:nonzero;fill:rgb(75.689697%,40.388489%,34.509277%);fill-opacity:1;" d="M 421.902344 365.730469 L 445.335938 406.324219 L 468.765625 365.730469 L 492.199219 406.324219 L 515.632812 365.730469 L 468.765625 284.546875 L 421.902344 365.730469 "/>
<path style=" stroke:none;fill-rule:nonzero;fill:rgb(75.689697%,40.388489%,34.509277%);fill-opacity:1;" d="M 703.089844 528.109375 L 656.222656 446.921875 L 609.359375 528.109375 L 703.089844 528.109375 "/>
<path style=" stroke:none;fill-rule:nonzero;fill:rgb(96.469116%,81.17981%,47.839355%);fill-opacity:1;" d="M 515.628906 446.921875 L 539.0625 487.515625 L 562.496094 446.921875 L 585.929688 487.515625 L 609.359375 446.921875 L 562.496094 365.734375 L 515.628906 446.921875 "/>
<path style=" stroke:none;fill-rule:nonzero;fill:rgb(37.649536%,29.798889%,31.759644%);fill-opacity:1;" d="M 609.359375 365.734375 L 632.792969 406.328125 L 656.222656 365.734375 L 679.652344 406.328125 L 703.089844 365.734375 L 656.222656 284.550781 L 609.359375 365.734375 "/>
<path style=" stroke:none;fill-rule:nonzero;fill:rgb(100%,94.119263%,64.709473%);fill-opacity:1;" d="M 375.039062 365.734375 L 375.039062 446.921875 L 398.46875 487.515625 L 421.902344 446.921875 L 375.039062 365.734375 "/>
<path style=" stroke:none;fill-rule:nonzero;fill:rgb(37.649536%,29.798889%,31.759644%);fill-opacity:1;" d="M 421.90625 203.359375 L 445.335938 243.953125 L 468.765625 203.359375 L 492.199219 243.953125 L 515.632812 203.359375 L 421.90625 203.359375 "/>
<path style=" stroke:none;fill-rule:nonzero;fill:rgb(96.469116%,81.17981%,47.839355%);fill-opacity:1;" d="M 375.039062 203.359375 L 375.039062 284.546875 L 398.46875 325.136719 L 421.90625 284.546875 L 375.039062 203.359375 "/>
<path style=" stroke:none;fill-rule:nonzero;fill:rgb(100%,94.119263%,64.709473%);fill-opacity:1;" d="M 539.0625 325.136719 L 562.496094 284.546875 L 585.929688 325.136719 L 609.363281 284.546875 L 562.496094 203.359375 L 515.632812 284.546875 L 539.0625 325.136719 "/>
<path style=" stroke:none;fill-rule:nonzero;fill:rgb(75.689697%,40.388489%,34.509277%);fill-opacity:1;" d="M 679.652344 243.953125 L 703.089844 203.359375 L 656.222656 203.359375 L 679.652344 243.953125 "/>
<path style=" stroke:none;fill-rule:nonzero;fill:rgb(75.689697%,40.388489%,34.509277%);fill-opacity:1;" d="M 632.792969 243.953125 L 656.226562 203.359375 L 609.359375 203.359375 L 632.792969 243.953125 "/>
<path style=" stroke:none;fill-rule:nonzero;fill:rgb(96.469116%,81.17981%,47.839355%);fill-opacity:1;" d="M 703.09375 284.546875 L 726.519531 325.136719 L 749.953125 284.546875 L 749.953125 203.359375 L 703.09375 284.546875 "/>
<path style=" stroke:none;fill-rule:nonzero;fill:rgb(0%,0%,0%);fill-opacity:1;" d="M 679.660156 406.328125 L 656.226562 365.734375 L 632.792969 406.328125 L 609.363281 365.734375 L 656.226562 284.546875 L 703.09375 365.734375 Z M 585.929688 487.515625 L 562.496094 446.921875 L 539.0625 487.515625 L 515.632812 446.921875 L 562.496094 365.734375 L 609.363281 446.921875 Z M 492.199219 406.328125 L 468.765625 365.734375 L 445.332031 406.328125 L 421.902344 365.734375 L 468.765625 284.546875 L 515.632812 365.734375 Z M 703.09375 284.546875 L 749.953125 203.359375 L 703.09375 203.359375 L 679.660156 243.957031 L 656.226562 203.359375 L 632.792969 243.957031 L 609.363281 203.359375 L 562.496094 203.359375 L 609.363281 284.546875 L 585.929688 325.136719 L 562.496094 284.546875 L 539.0625 325.136719 L 515.632812 284.546875 L 562.496094 203.359375 L 515.632812 203.359375 L 492.199219 243.957031 L 468.765625 203.359375 L 445.332031 243.957031 L 421.902344 203.359375 L 375.039062 203.359375 L 421.902344 284.546875 L 398.46875 325.136719 L 375.039062 284.546875 L 375.039062 365.734375 L 421.902344 446.921875 L 398.46875 487.515625 L 375.039062 446.921875 L 375.039062 528.109375 L 421.902344 528.109375 L 468.765625 446.921875 L 515.632812 528.109375 L 609.363281 528.109375 L 656.226562 446.921875 L 703.09375 528.109375 L 749.953125 528.109375 L 749.953125 446.921875 L 726.519531 487.515625 L 703.09375 446.921875 L 749.953125 365.734375 L 749.953125 284.546875 L 726.519531 325.136719 L 703.09375 284.546875 "/>
<path style=" stroke:none;fill-rule:nonzero;fill:rgb(100%,94.119263%,64.709473%);fill-opacity:1;" d="M 703.09375 771.671875 L 726.519531 812.265625 L 749.953125 771.671875 L 749.953125 690.484375 L 703.09375 771.671875 "/>
<path style=" stroke:none;fill-rule:nonzero;fill:rgb(75.689697%,40.388489%,34.509277%);fill-opacity:1;" d="M 421.902344 690.484375 L 445.332031 731.078125 L 468.765625 690.484375 L 492.199219 731.078125 L 515.632812 690.484375 L 468.765625 609.296875 L 421.902344 690.484375 "/>
<path style=" stroke:none;fill-rule:nonzero;fill:rgb(96.469116%,81.17981%,47.839355%);fill-opacity:1;" d="M 515.628906 771.671875 L 539.0625 812.265625 L 562.496094 771.671875 L 585.929688 812.265625 L 609.359375 771.671875 L 562.496094 690.484375 L 515.628906 771.671875 "/>
<path style=" stroke:none;fill-rule:nonzero;fill:rgb(37.649536%,29.798889%,31.759644%);fill-opacity:1;" d="M 609.359375 690.484375 L 632.792969 731.078125 L 656.222656 690.484375 L 679.652344 731.078125 L 703.089844 690.484375 L 656.222656 609.296875 L 609.359375 690.484375 "/>
<path style=" stroke:none;fill-rule:nonzero;fill:rgb(100%,94.119263%,64.709473%);fill-opacity:1;" d="M 375.039062 690.484375 L 375.039062 771.671875 L 398.46875 812.265625 L 421.902344 771.671875 L 375.039062 690.484375 "/>
<path style=" stroke:none;fill-rule:nonzero;fill:rgb(37.649536%,29.798889%,31.759644%);fill-opacity:1;" d="M 421.902344 528.109375 L 445.332031 568.703125 L 468.765625 528.109375 L 492.199219 568.703125 L 515.632812 528.109375 L 421.902344 528.109375 "/>
<path style=" stroke:none;fill-rule:nonzero;fill:rgb(96.469116%,81.17981%,47.839355%);fill-opacity:1;" d="M 375.039062 528.109375 L 375.039062 609.296875 L 398.46875 649.890625 L 421.902344 609.296875 L 375.039062 528.109375 "/>
<path style=" stroke:none;fill-rule:nonzero;fill:rgb(100%,94.119263%,64.709473%);fill-opacity:1;" d="M 539.0625 649.890625 L 562.496094 609.296875 L 585.929688 649.890625 L 609.359375 609.296875 L 562.496094 528.109375 L 515.628906 609.296875 L 539.0625 649.890625 "/>
<path style=" stroke:none;fill-rule:nonzero;fill:rgb(75.689697%,40.388489%,34.509277%);fill-opacity:1;" d="M 679.652344 568.703125 L 703.089844 528.109375 L 656.222656 528.109375 L 679.652344 568.703125 "/>
<path style=" stroke:none;fill-rule:nonzero;fill:rgb(75.689697%,40.388489%,34.509277%);fill-opacity:1;" d="M 632.792969 568.703125 L 656.226562 528.109375 L 609.359375 528.109375 L 632.792969 568.703125 "/>
<path style=" stroke:none;fill-rule:nonzero;fill:rgb(96.469116%,81.17981%,47.839355%);fill-opacity:1;" d="M 703.09375 609.296875 L 726.519531 649.890625 L 749.953125 609.296875 L 749.953125 528.109375 L 703.09375 609.296875 "/>
<path style=" stroke:none;fill-rule:nonzero;fill:rgb(0%,0%,0%);fill-opacity:1;" d="M 679.660156 731.078125 L 656.226562 690.484375 L 632.792969 731.078125 L 609.363281 690.484375 L 656.226562 609.296875 L 703.09375 690.484375 Z M 585.929688 812.265625 L 562.496094 771.671875 L 539.0625 812.265625 L 515.632812 771.671875 L 562.496094 690.484375 L 609.363281 771.671875 Z M 492.199219 731.078125 L 468.765625 690.484375 L 445.332031 731.078125 L 421.902344 690.484375 L 468.765625 609.296875 L 515.632812 690.484375 Z M 703.09375 609.296875 L 749.953125 528.109375 L 703.09375 528.109375 L 679.660156 568.703125 L 656.226562 528.109375 L 632.792969 568.703125 L 609.363281 528.109375 L 562.496094 528.109375 L 609.363281 609.296875 L 585.929688 649.890625 L 562.496094 609.296875 L 539.0625 649.890625 L 515.632812 609.296875 L 562.496094 528.109375 L 515.632812 528.109375 L 492.199219 568.703125 L 468.765625 528.109375 L 445.332031 568.703125 L 421.902344 528.109375 L 375.039062 528.109375 L 421.902344 609.296875 L 398.46875 649.890625 L 375.039062 609.296875 L 375.039062 690.484375 L 421.902344 771.671875 L 398.46875 812.265625 L 375.039062 771.671875 L 375.039062 852.859375 L 421.902344 852.859375 L 468.765625 771.671875 L 515.632812 852.859375 L 609.363281 852.859375 L 656.226562 771.671875 L 703.09375 852.859375 L 749.953125 852.859375 L 749.953125 771.671875 L 726.519531 812.265625 L 703.09375 771.671875 L 749.953125 690.484375 L 749.953125 609.296875 L 726.519531 649.890625 L 703.09375 609.296875 "/>
<path style=" stroke:none;fill-rule:nonzero;fill:rgb(100%,94.119263%,64.709473%);fill-opacity:1;" d="M 328.171875 122.171875 L 351.605469 162.765625 L 375.039062 122.171875 L 375.039062 40.984375 L 328.171875 122.171875 "/>
<path style=" stroke:none;fill-rule:nonzero;fill:rgb(37.649536%,29.798889%,31.759644%);fill-opacity:1;" d="M 93.847656 122.171875 L 46.984375 203.359375 L 140.714844 203.359375 L 93.847656 122.171875 "/>
<path style=" stroke:none;fill-rule:nonzero;fill:rgb(75.689697%,40.388489%,34.509277%);fill-opacity:1;" d="M 46.984375 40.984375 L 70.417969 81.578125 L 93.847656 40.984375 L 117.28125 81.578125 L 140.714844 40.984375 L 93.847656 -40.203125 L 46.984375 40.984375 "/>
<path style=" stroke:none;fill-rule:nonzero;fill:rgb(75.689697%,40.388489%,34.509277%);fill-opacity:1;" d="M 328.171875 203.359375 L 281.308594 122.171875 L 234.441406 203.359375 L 328.171875 203.359375 "/>
<path style=" stroke:none;fill-rule:nonzero;fill:rgb(96.469116%,81.17981%,47.839355%);fill-opacity:1;" d="M 140.714844 122.171875 L 164.144531 162.765625 L 187.578125 122.171875 L 211.011719 162.765625 L 234.441406 122.171875 L 187.578125 40.984375 L 140.714844 122.171875 "/>
<path style=" stroke:none;fill-rule:nonzero;fill:rgb(37.649536%,29.798889%,31.759644%);fill-opacity:1;" d="M 234.441406 40.984375 L 257.875 81.578125 L 281.308594 40.984375 L 304.738281 81.578125 L 328.171875 40.984375 L 281.308594 -40.203125 L 234.441406 40.984375 "/>
<path style=" stroke:none;fill-rule:nonzero;fill:rgb(100%,94.119263%,64.709473%);fill-opacity:1;" d="M 0.121094 40.984375 L 0.121094 122.171875 L 23.550781 162.765625 L 46.984375 122.171875 L 0.121094 40.984375 "/>
<path style=" stroke:none;fill-rule:nonzero;fill:rgb(96.469116%,81.17981%,47.839355%);fill-opacity:1;" d="M 0.121094 -121.390625 L 0.121094 -40.203125 L 23.550781 0.390625 L 46.984375 -40.203125 L 0.121094 -121.390625 "/>
<path style=" stroke:none;fill-rule:nonzero;fill:rgb(100%,94.119263%,64.709473%);fill-opacity:1;" d="M 164.144531 0.390625 L 187.578125 -40.203125 L 211.007812 0.390625 L 234.441406 -40.203125 L 187.578125 -121.390625 L 140.714844 -40.203125 L 164.144531 0.390625 "/>
<path style=" stroke:none;fill-rule:nonzero;fill:rgb(96.469116%,81.17981%,47.839355%);fill-opacity:1;" d="M 328.171875 -40.203125 L 351.605469 0.390625 L 375.039062 -40.203125 L 375.039062 -121.390625 L 328.171875 -40.203125 "/>
<path style=" stroke:none;fill-rule:nonzero;fill:rgb(0%,0%,0%);fill-opacity:1;" d="M 304.738281 81.578125 L 281.308594 40.980469 L 257.875 81.578125 L 234.441406 40.980469 L 281.308594 -40.203125 L 328.171875 40.980469 Z M 211.007812 162.761719 L 187.578125 122.171875 L 164.144531 162.761719 L 140.714844 122.171875 L 187.578125 40.980469 L 234.441406 122.171875 Z M 117.28125 81.578125 L 93.847656 40.980469 L 70.417969 81.578125 L 46.984375 40.980469 L 93.847656 -40.203125 L 140.714844 40.980469 Z M 328.171875 -40.203125 L 375.039062 -121.390625 L 328.171875 -121.390625 L 304.738281 -80.800781 L 281.308594 -121.390625 L 257.875 -80.800781 L 234.441406 -121.390625 L 187.578125 -121.390625 L 234.441406 -40.203125 L 211.007812 0.390625 L 187.578125 -40.203125 L 164.144531 0.390625 L 140.714844 -40.203125 L 187.578125 -121.390625 L 140.714844 -121.390625 L 117.28125 -80.800781 L 93.847656 -121.390625 L 70.417969 -80.800781 L 46.984375 -121.390625 L 0.121094 -121.390625 L 46.984375 -40.203125 L 23.550781 0.390625 L 0.121094 -40.203125 L 0.121094 40.980469 L 46.984375 122.171875 L 23.550781 162.761719 L 0.121094 122.171875 L 0.121094 203.359375 L 46.984375 203.359375 L 93.847656 122.171875 L 140.714844 203.359375 L 234.441406 203.359375 L 281.308594 122.171875 L 328.171875 203.359375 L 375.039062 203.359375 L 375.039062 122.171875 L 351.605469 162.761719 L 328.171875 122.171875 L 375.039062 40.980469 L 375.039062 -40.203125 L 351.605469 0.390625 L 328.171875 -40.203125 "/>
<path style=" stroke:none;fill-rule:nonzero;fill:rgb(100%,94.119263%,64.709473%);fill-opacity:1;" d="M 328.175781 446.921875 L 351.605469 487.515625 L 375.039062 446.921875 L 375.039062 365.734375 L 328.175781 446.921875 "/>
<path style=" stroke:none;fill-rule:nonzero;fill:rgb(37.649536%,29.798889%,31.759644%);fill-opacity:1;" d="M 93.847656 446.921875 L 46.984375 528.109375 L 140.714844 528.109375 L 93.847656 446.921875 "/>
<path style=" stroke:none;fill-rule:nonzero;fill:rgb(75.689697%,40.388489%,34.509277%);fill-opacity:1;" d="M 46.984375 365.730469 L 70.417969 406.324219 L 93.847656 365.730469 L 117.28125 406.324219 L 140.714844 365.730469 L 93.847656 284.546875 L 46.984375 365.730469 "/>
<path style=" stroke:none;fill-rule:nonzero;fill:rgb(75.689697%,40.388489%,34.509277%);fill-opacity:1;" d="M 328.171875 528.109375 L 281.308594 446.921875 L 234.441406 528.109375 L 328.171875 528.109375 "/>
<path style=" stroke:none;fill-rule:nonzero;fill:rgb(96.469116%,81.17981%,47.839355%);fill-opacity:1;" d="M 140.714844 446.921875 L 164.148438 487.515625 L 187.578125 446.921875 L 211.011719 487.515625 L 234.445312 446.921875 L 187.578125 365.734375 L 140.714844 446.921875 "/>
<path style=" stroke:none;fill-rule:nonzero;fill:rgb(37.649536%,29.798889%,31.759644%);fill-opacity:1;" d="M 234.441406 365.730469 L 257.875 406.324219 L 281.308594 365.730469 L 304.738281 406.324219 L 328.171875 365.730469 L 281.308594 284.546875 L 234.441406 365.730469 "/>
<path style=" stroke:none;fill-rule:nonzero;fill:rgb(100%,94.119263%,64.709473%);fill-opacity:1;" d="M 0.121094 365.734375 L 0.121094 446.921875 L 23.550781 487.515625 L 46.984375 446.921875 L 0.121094 365.734375 "/>
<path style=" stroke:none;fill-rule:nonzero;fill:rgb(37.649536%,29.798889%,31.759644%);fill-opacity:1;" d="M 46.984375 203.359375 L 70.417969 243.953125 L 93.847656 203.359375 L 117.28125 243.953125 L 140.714844 203.359375 L 46.984375 203.359375 "/>
<path style=" stroke:none;fill-rule:nonzero;fill:rgb(96.469116%,81.17981%,47.839355%);fill-opacity:1;" d="M 0.121094 203.359375 L 0.121094 284.546875 L 23.550781 325.136719 L 46.984375 284.546875 L 0.121094 203.359375 "/>
<path style=" stroke:none;fill-rule:nonzero;fill:rgb(100%,94.119263%,64.709473%);fill-opacity:1;" d="M 164.148438 325.136719 L 187.578125 284.546875 L 211.011719 325.136719 L 234.445312 284.546875 L 187.578125 203.359375 L 140.714844 284.546875 L 164.148438 325.136719 "/>
<path style=" stroke:none;fill-rule:nonzero;fill:rgb(75.689697%,40.388489%,34.509277%);fill-opacity:1;" d="M 304.742188 243.953125 L 328.175781 203.359375 L 281.308594 203.359375 L 304.742188 243.953125 "/>
<path style=" stroke:none;fill-rule:nonzero;fill:rgb(75.689697%,40.388489%,34.509277%);fill-opacity:1;" d="M 257.875 243.953125 L 281.308594 203.359375 L 234.445312 203.359375 L 257.875 243.953125 "/>
<path style=" stroke:none;fill-rule:nonzero;fill:rgb(96.469116%,81.17981%,47.839355%);fill-opacity:1;" d="M 328.175781 284.546875 L 351.605469 325.136719 L 375.039062 284.546875 L 375.039062 203.359375 L 328.175781 284.546875 "/>
<path style=" stroke:none;fill-rule:nonzero;fill:rgb(0%,0%,0%);fill-opacity:1;" d="M 304.742188 406.324219 L 281.308594 365.734375 L 257.875 406.324219 L 234.445312 365.734375 L 281.308594 284.546875 L 328.175781 365.734375 Z M 211.011719 487.515625 L 187.578125 446.921875 L 164.148438 487.515625 L 140.714844 446.921875 L 187.578125 365.734375 L 234.445312 446.921875 Z M 117.28125 406.324219 L 93.847656 365.734375 L 70.417969 406.324219 L 46.984375 365.734375 L 93.847656 284.546875 L 140.714844 365.734375 Z M 328.175781 284.546875 L 375.039062 203.359375 L 328.175781 203.359375 L 304.742188 243.953125 L 281.308594 203.359375 L 257.875 243.953125 L 234.445312 203.359375 L 187.578125 203.359375 L 234.445312 284.546875 L 211.011719 325.136719 L 187.578125 284.546875 L 164.148438 325.136719 L 140.714844 284.546875 L 187.578125 203.359375 L 140.714844 203.359375 L 117.28125 243.953125 L 93.847656 203.359375 L 70.417969 243.953125 L 46.984375 203.359375 L 0.121094 203.359375 L 46.984375 284.546875 L 23.550781 325.136719 L 0.121094 284.546875 L 0.121094 365.734375 L 46.984375 446.921875 L 23.550781 487.515625 L 0.121094 446.921875 L 0.121094 528.109375 L 46.984375 528.109375 L 93.847656 446.921875 L 140.714844 528.109375 L 234.445312 528.109375 L 281.308594 446.921875 L 328.175781 528.109375 L 375.039062 528.109375 L 375.039062 446.921875 L 351.605469 487.515625 L 328.175781 446.921875 L 375.039062 365.734375 L 375.039062 284.546875 L 351.605469 325.136719 L 328.175781 284.546875 "/>
<path style=" stroke:none;fill-rule:nonzero;fill:rgb(100%,94.119263%,64.709473%);fill-opacity:1;" d="M 328.171875 771.671875 L 351.605469 812.265625 L 375.039062 771.671875 L 375.039062 690.484375 L 328.171875 771.671875 "/>
<path style=" stroke:none;fill-rule:nonzero;fill:rgb(75.689697%,40.388489%,34.509277%);fill-opacity:1;" d="M 46.984375 690.484375 L 70.417969 731.078125 L 93.847656 690.484375 L 117.28125 731.078125 L 140.714844 690.484375 L 93.847656 609.296875 L 46.984375 690.484375 "/>
<path style=" stroke:none;fill-rule:nonzero;fill:rgb(96.469116%,81.17981%,47.839355%);fill-opacity:1;" d="M 140.714844 771.671875 L 164.144531 812.265625 L 187.578125 771.671875 L 211.011719 812.265625 L 234.441406 771.671875 L 187.578125 690.484375 L 140.714844 771.671875 "/>
<path style=" stroke:none;fill-rule:nonzero;fill:rgb(37.649536%,29.798889%,31.759644%);fill-opacity:1;" d="M 234.441406 690.484375 L 257.875 731.078125 L 281.304688 690.484375 L 304.738281 731.078125 L 328.171875 690.484375 L 281.304688 609.296875 L 234.441406 690.484375 "/>
<path style=" stroke:none;fill-rule:nonzero;fill:rgb(100%,94.119263%,64.709473%);fill-opacity:1;" d="M 0.121094 690.484375 L 0.121094 771.671875 L 23.550781 812.265625 L 46.984375 771.671875 L 0.121094 690.484375 "/>
<path style=" stroke:none;fill-rule:nonzero;fill:rgb(37.649536%,29.798889%,31.759644%);fill-opacity:1;" d="M 46.984375 528.109375 L 70.417969 568.703125 L 93.847656 528.109375 L 117.28125 568.703125 L 140.714844 528.109375 L 46.984375 528.109375 "/>
<path style=" stroke:none;fill-rule:nonzero;fill:rgb(96.469116%,81.17981%,47.839355%);fill-opacity:1;" d="M 0.121094 528.109375 L 0.121094 609.296875 L 23.550781 649.890625 L 46.984375 609.296875 L 0.121094 528.109375 "/>
<path style=" stroke:none;fill-rule:nonzero;fill:rgb(100%,94.119263%,64.709473%);fill-opacity:1;" d="M 164.144531 649.890625 L 187.578125 609.296875 L 211.007812 649.890625 L 234.441406 609.296875 L 187.578125 528.109375 L 140.714844 609.296875 L 164.144531 649.890625 "/>
<path style=" stroke:none;fill-rule:nonzero;fill:rgb(75.689697%,40.388489%,34.509277%);fill-opacity:1;" d="M 304.738281 568.703125 L 328.171875 528.113281 L 281.304688 528.113281 L 304.738281 568.703125 "/>
<path style=" stroke:none;fill-rule:nonzero;fill:rgb(75.689697%,40.388489%,34.509277%);fill-opacity:1;" d="M 257.875 568.703125 L 281.308594 528.109375 L 234.441406 528.109375 L 257.875 568.703125 "/>
<path style=" stroke:none;fill-rule:nonzero;fill:rgb(96.469116%,81.17981%,47.839355%);fill-opacity:1;" d="M 328.171875 609.296875 L 351.605469 649.890625 L 375.039062 609.296875 L 375.039062 528.109375 L 328.171875 609.296875 "/>
<g clip-path="url(#clip10)" clip-rule="nonzero">
<path style=" stroke:none;fill-rule:nonzero;fill:rgb(0%,0%,0%);fill-opacity:1;" d="M 304.738281 731.078125 L 281.308594 690.484375 L 257.875 731.078125 L 234.441406 690.484375 L 281.308594 609.296875 L 328.171875 690.484375 Z M 211.011719 812.265625 L 187.578125 771.671875 L 164.144531 812.265625 L 140.714844 771.671875 L 187.578125 690.484375 L 234.441406 771.671875 Z M 117.28125 731.078125 L 93.847656 690.484375 L 70.417969 731.078125 L 46.984375 690.484375 L 93.847656 609.296875 L 140.714844 690.484375 Z M 328.171875 609.296875 L 375.039062 528.109375 L 328.171875 528.109375 L 304.738281 568.703125 L 281.308594 528.109375 L 257.875 568.703125 L 234.441406 528.109375 L 187.578125 528.109375 L 234.441406 609.296875 L 211.011719 649.890625 L 187.578125 609.296875 L 164.144531 649.890625 L 140.714844 609.296875 L 187.578125 528.109375 L 140.714844 528.109375 L 117.28125 568.703125 L 93.847656 528.109375 L 70.417969 568.703125 L 46.984375 528.109375 L 0.121094 528.109375 L 46.984375 609.296875 L 23.550781 649.890625 L 0.121094 609.296875 L 0.121094 690.484375 L 46.984375 771.671875 L 23.550781 812.265625 L 0.121094 771.671875 L 0.121094 852.859375 L 46.984375 852.859375 L 93.847656 771.671875 L 140.714844 852.859375 L 234.441406 852.859375 L 281.308594 771.671875 L 328.171875 852.859375 L 375.039062 852.859375 L 375.039062 771.671875 L 351.605469 812.265625 L 328.171875 771.671875 L 375.039062 690.484375 L 375.039062 609.296875 L 351.605469 649.890625 L 328.171875 609.296875 "/>
</g>
</g>
</svg>
