<?xml version="1.0" encoding="UTF-8"?>
<svg xmlns="http://www.w3.org/2000/svg" xmlns:xlink="http://www.w3.org/1999/xlink" width="224.87999pt" height="225pt" viewBox="0 0 224.87999 225" version="1.2">
<defs>
<clipPath id="clip1">
  <path d="M 153 15.027344 L 187 15.027344 L 187 51 L 153 51 Z M 153 15.027344 "/>
</clipPath>
<clipPath id="clip2">
  <path d="M 182 30 L 187.933594 30 L 187.933594 35 L 182 35 Z M 182 30 "/>
</clipPath>
<clipPath id="clip3">
  <path d="M 110 15.027344 L 178 15.027344 L 178 120 L 110 120 Z M 110 15.027344 "/>
</clipPath>
<clipPath id="clip4">
  <path d="M 153 15.027344 L 187 15.027344 L 187 51 L 153 51 Z M 153 15.027344 "/>
</clipPath>
<clipPath id="clip5">
  <path d="M 182 30 L 187.933594 30 L 187.933594 35 L 182 35 Z M 182 30 "/>
</clipPath>
<clipPath id="clip6">
  <path d="M 110 15.027344 L 178 15.027344 L 178 120 L 110 120 Z M 110 15.027344 "/>
</clipPath>
</defs>
<g id="surface1">
<path style=" stroke:none;fill-rule:nonzero;fill:rgb(100%,61.569214%,90.19928%);fill-opacity:1;" d="M 97.15625 120.0625 C 99.917969 115.742188 104.644531 113.429688 109.460938 113.542969 C 110.578125 113.585938 111.742188 113.746094 112.867188 114.066406 C 113.226562 114.148438 113.546875 114.222656 113.871094 114.429688 C 114.707031 114.667969 115.511719 115.023438 116.273438 115.464844 C 116.429688 115.542969 116.59375 115.664062 116.753906 115.742188 C 116.914062 115.824219 117.03125 115.949219 117.15625 116.0625 C 117.917969 116.542969 118.558594 117.105469 119.160156 117.703125 C 119.4375 117.984375 119.675781 118.222656 119.921875 118.542969 C 120.679688 119.425781 121.285156 120.382812 121.761719 121.382812 C 123.96875 125.664062 123.851562 130.941406 121.082031 135.257812 C 116.875 141.855469 108.09375 143.777344 101.523438 139.617188 C 94.910156 135.417969 92.945312 126.664062 97.15625 120.0625 Z M 149.738281 105.867188 C 147.089844 102.273438 143.164062 98.472656 138.597656 95.03125 C 137.796875 94.390625 136.953125 93.792969 136.070312 93.195312 C 135.792969 92.957031 135.472656 92.75 135.191406 92.554688 C 134.46875 92.074219 133.785156 91.59375 133.0625 91.15625 C 132.785156 90.953125 132.464844 90.753906 132.144531 90.59375 C 131.425781 90.117188 130.699219 89.675781 129.9375 89.234375 C 129.617188 89.074219 129.335938 88.875 129.015625 88.714844 C 128.136719 88.195312 127.214844 87.675781 126.292969 87.234375 C 121.242188 84.59375 116.191406 82.636719 111.78125 81.753906 C 101.921875 79.878906 93.984375 81.519531 88.539062 90.035156 C 85.96875 94.03125 84.648438 98.511719 84.367188 103.230469 C 83.925781 111.027344 75.832031 116.949219 64.730469 122.105469 C 56.753906 125.820312 49.820312 131.660156 44.886719 139.417969 C 37.636719 150.730469 37.277344 161.96875 41.644531 172.523438 C 43.050781 176.003906 44.96875 179.402344 47.339844 182.71875 C 54.710938 193.078125 72.746094 204.511719 85.25 206.792969 C 101.484375 209.753906 116.070312 205.753906 125.652344 190.71875 C 130.621094 182.960938 132.984375 174.203125 132.984375 165.449219 C 132.984375 164.886719 132.984375 164.328125 133.023438 163.769531 C 133.023438 161.089844 133.1875 158.527344 133.425781 156.132812 C 134.386719 148.332031 136.792969 142.375 141.800781 139.699219 C 145.972656 137.457031 149.460938 134.339844 152.023438 130.339844 C 157.429688 121.824219 155.59375 113.949219 149.738281 105.867188 "/>
<path style=" stroke:none;fill-rule:nonzero;fill:rgb(90.979004%,35.688782%,70.979309%);fill-opacity:1;" d="M 121.082031 135.257812 C 116.875 141.855469 108.09375 143.777344 101.523438 139.617188 C 94.910156 135.417969 92.945312 126.664062 97.15625 120.0625 C 99.917969 115.742188 104.644531 113.429688 109.460938 113.542969 C 110.578125 113.585938 111.742188 113.746094 112.867188 114.066406 C 113.226562 114.148438 113.546875 114.222656 113.871094 114.429688 C 114.707031 114.667969 115.511719 115.023438 116.273438 115.464844 C 116.429688 115.542969 116.59375 115.664062 116.753906 115.742188 C 116.914062 115.824219 117.03125 115.949219 117.15625 116.0625 C 117.917969 116.542969 118.558594 117.105469 119.160156 117.703125 C 119.4375 117.984375 119.675781 118.222656 119.921875 118.542969 C 120.679688 119.425781 121.285156 120.382812 121.761719 121.382812 C 123.96875 125.664062 123.851562 130.941406 121.082031 135.257812 Z M 124.570312 116.984375 C 123.96875 116.105469 123.246094 115.265625 122.488281 114.542969 C 122.246094 114.222656 121.964844 113.984375 121.679688 113.746094 C 121.039062 113.1875 120.359375 112.664062 119.636719 112.1875 C 119.519531 112.066406 119.355469 111.949219 119.199219 111.867188 C 119.035156 111.789062 118.878906 111.667969 118.714844 111.585938 C 117.992188 111.148438 117.195312 110.746094 116.429688 110.429688 C 116.109375 110.269531 115.75 110.148438 115.433594 110.027344 C 114.390625 109.667969 113.304688 109.386719 112.265625 109.1875 C 105.007812 107.988281 97.4375 111.066406 93.265625 117.625 C 87.695312 126.339844 90.257812 137.9375 99.039062 143.496094 C 107.773438 149.050781 119.398438 146.496094 124.96875 137.738281 C 129.136719 131.179688 128.734375 123.019531 124.570312 116.984375 "/>
<path style=" stroke:none;fill-rule:nonzero;fill:rgb(100%,100%,100%);fill-opacity:1;" d="M 121.082031 135.257812 C 116.875 141.855469 108.09375 143.777344 101.523438 139.617188 C 94.910156 135.417969 92.945312 126.664062 97.15625 120.0625 C 99.917969 115.742188 104.644531 113.429688 109.460938 113.542969 C 110.179688 113.585938 110.902344 113.628906 111.582031 113.789062 C 112.019531 113.867188 112.46875 113.949219 112.867188 114.066406 C 113.226562 114.148438 113.546875 114.222656 113.871094 114.429688 C 113.910156 114.429688 113.988281 114.46875 114.027344 114.46875 C 114.265625 114.542969 114.550781 114.625 114.789062 114.746094 C 115.308594 114.945312 115.792969 115.183594 116.273438 115.464844 C 116.394531 115.503906 116.476562 115.582031 116.59375 115.664062 C 116.632812 115.707031 116.710938 115.707031 116.753906 115.742188 C 116.914062 115.824219 117.03125 115.949219 117.15625 116.0625 C 117.195312 116.105469 117.234375 116.105469 117.273438 116.144531 C 117.835938 116.503906 118.355469 116.949219 118.796875 117.382812 C 118.917969 117.464844 119.035156 117.582031 119.160156 117.703125 C 119.238281 117.785156 119.355469 117.902344 119.4375 117.984375 C 119.597656 118.144531 119.757812 118.34375 119.921875 118.542969 C 120.320312 119.023438 120.679688 119.503906 121 119.984375 C 121.285156 120.464844 121.523438 120.902344 121.761719 121.382812 C 123.96875 125.664062 123.851562 130.941406 121.082031 135.257812 "/>
<path style=" stroke:none;fill-rule:nonzero;fill:rgb(90.979004%,35.688782%,70.979309%);fill-opacity:1;" d="M 184.941406 32.386719 C 184.570312 32.972656 183.792969 33.148438 183.207031 32.773438 L 165.332031 21.425781 C 164.746094 21.054688 164.570312 20.277344 164.945312 19.6875 C 165.316406 19.113281 166.09375 18.9375 166.675781 19.308594 L 184.558594 30.664062 C 185.140625 31.03125 185.3125 31.804688 184.941406 32.386719 "/>
<path style=" stroke:none;fill-rule:nonzero;fill:rgb(90.979004%,35.688782%,70.979309%);fill-opacity:1;" d="M 179.601562 39.347656 C 179.230469 39.925781 178.453125 40.101562 177.871094 39.730469 L 159.992188 28.382812 C 159.410156 28.007812 159.230469 27.238281 159.605469 26.652344 C 159.980469 26.074219 160.757812 25.898438 161.335938 26.265625 L 179.21875 37.628906 C 179.804688 37.988281 179.976562 38.765625 179.601562 39.347656 "/>
<path style=" stroke:none;fill-rule:nonzero;fill:rgb(90.979004%,35.688782%,70.979309%);fill-opacity:1;" d="M 175.601562 46.253906 C 175.234375 46.847656 174.453125 47.019531 173.871094 46.644531 L 155.992188 35.296875 C 155.40625 34.921875 155.238281 34.148438 155.609375 33.5625 C 155.980469 32.984375 156.757812 32.808594 157.34375 33.183594 L 175.214844 44.53125 C 175.804688 44.902344 175.976562 45.679688 175.601562 46.253906 "/>
<path style=" stroke:none;fill-rule:nonzero;fill:rgb(31.369019%,45.098877%,72.158813%);fill-opacity:1;" d="M 172.65625 40.429688 L 171.519531 42.167969 L 170.167969 44.304688 L 166.542969 49.972656 L 166.496094 50.015625 L 126.785156 112.386719 L 118.574219 125.246094 C 118.222656 124.722656 117.832031 124.195312 117.390625 123.675781 C 117.21875 123.457031 117.046875 123.242188 116.867188 123.066406 C 116.78125 122.976562 116.652344 122.847656 116.5625 122.757812 C 116.429688 122.628906 116.304688 122.5 116.171875 122.410156 C 115.691406 121.933594 115.121094 121.453125 114.511719 121.058594 C 114.46875 121.019531 114.425781 121.019531 114.378906 120.972656 C 114.246094 120.84375 114.117188 120.710938 113.941406 120.621094 C 113.898438 120.578125 113.8125 120.578125 113.769531 120.535156 C 113.636719 120.449219 113.546875 120.363281 113.417969 120.320312 C 112.890625 120.011719 112.367188 119.753906 111.800781 119.53125 C 111.539062 119.402344 111.230469 119.316406 110.972656 119.230469 C 110.929688 119.230469 110.839844 119.1875 110.796875 119.1875 C 110.449219 118.964844 110.097656 118.878906 109.703125 118.792969 C 109.265625 118.664062 108.789062 118.574219 108.304688 118.488281 L 116.429688 105.804688 L 156.148438 43.519531 L 159.859375 37.722656 L 161.214844 35.628906 L 162.347656 33.886719 L 164.53125 35.285156 L 165.277344 35.761719 L 167.070312 36.894531 L 167.851562 37.417969 L 169.691406 38.554688 L 170.433594 39.027344 L 172.65625 40.429688 "/>
<g clip-path="url(#clip1)" clip-rule="nonzero">
<path style=" stroke:none;fill-rule:nonzero;fill:rgb(31.369019%,45.098877%,72.158813%);fill-opacity:1;" d="M 171.011719 50.269531 C 161.453125 50.191406 158.027344 48.015625 153.910156 39.410156 C 163.09375 31.632812 166.179688 26.792969 169.351562 15.191406 C 178.910156 15.277344 182.339844 17.457031 186.460938 26.058594 C 177.269531 33.835938 174.1875 38.679688 171.011719 50.269531 "/>
</g>
<g clip-path="url(#clip2)" clip-rule="nonzero">
<path style=" stroke:none;fill-rule:nonzero;fill:rgb(90.979004%,35.688782%,70.979309%);fill-opacity:1;" d="M 187.140625 34.007812 C 186.320312 35.09375 184.777344 35.316406 183.6875 34.5 C 182.597656 33.683594 182.371094 32.144531 183.195312 31.058594 C 184.007812 29.960938 185.554688 29.742188 186.644531 30.5625 C 187.734375 31.375 187.957031 32.917969 187.140625 34.007812 "/>
</g>
<path style=" stroke:none;fill-rule:nonzero;fill:rgb(90.979004%,35.688782%,70.979309%);fill-opacity:1;" d="M 181.824219 40.710938 C 181 41.800781 179.460938 42.027344 178.367188 41.207031 C 177.277344 40.386719 177.058594 38.851562 177.871094 37.761719 C 178.691406 36.675781 180.234375 36.453125 181.328125 37.269531 C 182.417969 38.085938 182.636719 39.628906 181.824219 40.710938 "/>
<path style=" stroke:none;fill-rule:nonzero;fill:rgb(90.979004%,35.688782%,70.979309%);fill-opacity:1;" d="M 178.511719 48.335938 C 177.699219 49.425781 176.15625 49.636719 175.058594 48.832031 C 173.972656 48.011719 173.75 46.472656 174.566406 45.386719 C 175.386719 44.292969 176.933594 44.074219 178.019531 44.882812 C 179.117188 45.703125 179.332031 47.246094 178.511719 48.335938 "/>
<path style=" stroke:none;fill-rule:nonzero;fill:rgb(90.979004%,35.688782%,70.979309%);fill-opacity:1;" d="M 162.027344 18.066406 C 161.386719 19.261719 161.839844 20.753906 163.039062 21.394531 C 164.246094 22.035156 165.738281 21.582031 166.378906 20.382812 C 167.019531 19.175781 166.566406 17.6875 165.367188 17.054688 C 164.164062 16.414062 162.671875 16.863281 162.027344 18.066406 "/>
<path style=" stroke:none;fill-rule:nonzero;fill:rgb(90.979004%,35.688782%,70.979309%);fill-opacity:1;" d="M 158.191406 25.710938 C 157.550781 26.910156 158.003906 28.398438 159.207031 29.042969 C 160.410156 29.675781 161.902344 29.226562 162.542969 28.035156 C 163.1875 26.832031 162.730469 25.339844 161.53125 24.699219 C 160.328125 24.058594 158.835938 24.511719 158.191406 25.710938 "/>
<path style=" stroke:none;fill-rule:nonzero;fill:rgb(90.979004%,35.688782%,70.979309%);fill-opacity:1;" d="M 152.671875 31.925781 C 152.03125 33.125 152.484375 34.613281 153.683594 35.253906 C 154.886719 35.898438 156.382812 35.441406 157.019531 34.242188 C 157.667969 33.046875 157.210938 31.550781 156.007812 30.90625 C 154.808594 30.269531 153.3125 30.726562 152.671875 31.925781 "/>
<g clip-path="url(#clip3)" clip-rule="nonzero">
<path style=" stroke:none;fill-rule:nonzero;fill:rgb(100%,100%,100%);fill-opacity:1;" d="M 177.859375 16.015625 L 177.683594 16.320312 L 177.683594 16.363281 L 173.140625 23.425781 L 171.828125 25.519531 L 171.828125 25.558594 L 168.464844 30.792969 L 167.109375 32.882812 L 165.277344 35.761719 L 164.140625 37.507812 L 162.785156 39.59375 L 162.785156 39.644531 L 158.460938 46.441406 L 119.488281 107.503906 L 111.800781 119.53125 C 111.539062 119.402344 111.230469 119.316406 110.972656 119.230469 L 118.75 107.070312 L 157.847656 45.785156 L 162.042969 39.164062 L 162.042969 39.117188 L 163.398438 37.027344 L 164.53125 35.285156 L 166.371094 32.449219 L 167.726562 30.3125 L 171.085938 25.078125 L 171.085938 25.039062 L 172.398438 22.949219 L 176.851562 16.058594 L 177.117188 15.539062 L 177.859375 16.015625 "/>
</g>
<path style=" stroke:none;fill-rule:nonzero;fill:rgb(100%,100%,100%);fill-opacity:1;" d="M 180.476562 17.679688 L 180.441406 17.757812 L 180.390625 17.757812 L 175.761719 25.039062 L 175.71875 25.078125 L 174.40625 27.175781 L 171.085938 32.449219 L 169.734375 34.539062 L 169.734375 34.585938 L 167.851562 37.417969 L 166.761719 39.164062 L 165.410156 41.25 L 165.410156 41.296875 L 160.90625 48.316406 L 160.90625 48.359375 L 122.15625 109.117188 L 114.511719 121.058594 C 114.46875 121.019531 114.425781 121.019531 114.378906 120.972656 C 114.246094 120.84375 114.117188 120.710938 113.941406 120.621094 C 113.898438 120.578125 113.8125 120.578125 113.769531 120.535156 L 121.371094 108.636719 L 160.121094 47.839844 L 164.621094 40.773438 L 165.976562 38.636719 L 167.070312 36.894531 L 168.902344 34.0625 L 170.257812 31.925781 L 173.621094 26.695312 L 174.976562 24.605469 L 179.648438 17.234375 L 179.695312 17.148438 L 180.476562 17.679688 "/>
<path style=" stroke:none;fill-rule:nonzero;fill:rgb(100%,100%,100%);fill-opacity:1;" d="M 183.058594 19.285156 L 182.707031 19.808594 L 182.660156 19.855469 L 178.292969 26.695312 L 176.984375 28.789062 L 176.984375 28.828125 L 173.621094 34.0625 L 172.265625 36.152344 L 170.433594 39.027344 L 169.335938 40.773438 L 169.292969 40.816406 L 167.984375 42.910156 L 163.789062 49.492188 L 124.648438 110.816406 L 116.867188 123.066406 C 116.78125 122.976562 116.652344 122.847656 116.5625 122.757812 C 116.429688 122.628906 116.304688 122.5 116.171875 122.410156 L 123.90625 110.296875 L 162.917969 49.226562 L 162.917969 49.1875 L 167.238281 42.429688 L 168.554688 40.292969 L 169.691406 38.554688 L 171.519531 35.71875 L 171.519531 35.675781 L 172.835938 33.582031 L 176.242188 28.347656 L 176.242188 28.304688 L 177.554688 26.257812 L 177.554688 26.21875 L 182.050781 19.15625 L 182.316406 18.804688 L 183.058594 19.285156 "/>
<path style=" stroke:none;fill-rule:nonzero;fill:rgb(31.369019%,45.098877%,72.158813%);fill-opacity:1;" d="M 133.425781 156.132812 C 133.1875 158.527344 133.023438 161.089844 133.023438 163.769531 C 132.984375 164.328125 132.984375 164.886719 132.984375 165.449219 C 132.984375 174.203125 130.621094 182.960938 125.652344 190.71875 C 116.070312 205.753906 101.484375 209.753906 85.25 206.792969 C 72.746094 204.511719 54.710938 193.078125 47.339844 182.71875 C 44.96875 179.402344 43.050781 176.003906 41.644531 172.523438 C 37.277344 161.96875 37.636719 150.730469 44.886719 139.417969 C 47.65625 144.015625 51.824219 147.253906 58.398438 147.457031 C 64.527344 147.652344 72.105469 144.015625 77.273438 148.933594 C 81.601562 153.050781 79.160156 161.046875 83.328125 165.25 C 94.664062 176.722656 96.753906 152.972656 104.890625 151.851562 C 110.019531 151.132812 117.195312 157.886719 122.964844 158.167969 C 126.574219 158.328125 130.058594 157.449219 133.425781 156.132812 "/>
<path style=" stroke:none;fill-rule:nonzero;fill:rgb(90.979004%,89.7995%,0%);fill-opacity:1;" d="M 47.339844 182.71875 C 44.96875 179.402344 43.050781 176.003906 41.644531 172.523438 C 49.941406 163.089844 62.601562 160.449219 74.265625 168.648438 C 81.601562 173.804688 90.980469 204.191406 102.566406 182.558594 C 105.8125 176.523438 101.28125 166.25 105.769531 161.410156 C 110.621094 156.171875 117.234375 161.328125 122.445312 162.726562 C 126.332031 163.808594 129.902344 164.167969 133.023438 163.769531 C 132.984375 164.328125 132.984375 164.886719 132.984375 165.449219 C 132.984375 174.203125 130.621094 182.960938 125.652344 190.71875 C 116.070312 205.753906 101.484375 209.753906 85.25 206.792969 C 72.746094 204.511719 54.710938 193.078125 47.339844 182.71875 "/>
<path style=" stroke:none;fill-rule:nonzero;fill:rgb(100%,100%,100%);fill-opacity:1;" d="M 50.546875 174.949219 C 49.828125 174.949219 49.132812 174.5625 48.773438 173.878906 C 48.140625 172.675781 47.578125 171.472656 47.101562 170.289062 C 43.144531 160.730469 44.035156 151.6875 49.832031 142.652344 C 53.988281 136.109375 59.980469 130.878906 67.15625 127.542969 C 68.148438 127.082031 69.347656 127.503906 69.816406 128.507812 C 70.285156 129.507812 69.851562 130.699219 68.84375 131.164062 C 62.367188 134.179688 56.960938 138.890625 53.210938 144.800781 C 48.167969 152.664062 47.386719 160.5 50.808594 168.777344 C 51.25 169.855469 51.75 170.9375 52.320312 172.019531 C 52.835938 172.996094 52.460938 174.203125 51.480469 174.71875 C 51.183594 174.875 50.867188 174.949219 50.546875 174.949219 "/>
<path style=" stroke:none;fill-rule:nonzero;fill:rgb(100%,61.569214%,90.19928%);fill-opacity:1;" d="M 97.15625 120.0625 C 99.917969 115.742188 104.644531 113.429688 109.460938 113.542969 C 110.578125 113.585938 111.742188 113.746094 112.867188 114.066406 C 113.226562 114.148438 113.546875 114.222656 113.871094 114.429688 C 114.707031 114.667969 115.511719 115.023438 116.273438 115.464844 C 116.429688 115.542969 116.59375 115.664062 116.753906 115.742188 C 116.914062 115.824219 117.03125 115.949219 117.15625 116.0625 C 117.917969 116.542969 118.558594 117.105469 119.160156 117.703125 C 119.4375 117.984375 119.675781 118.222656 119.921875 118.542969 C 120.679688 119.425781 121.285156 120.382812 121.761719 121.382812 C 123.96875 125.664062 123.851562 130.941406 121.082031 135.257812 C 116.875 141.855469 108.09375 143.777344 101.523438 139.617188 C 94.910156 135.417969 92.945312 126.664062 97.15625 120.0625 Z M 149.738281 105.867188 C 147.089844 102.273438 143.164062 98.472656 138.597656 95.03125 C 137.796875 94.390625 136.953125 93.792969 136.070312 93.195312 C 135.792969 92.957031 135.472656 92.75 135.191406 92.554688 C 134.46875 92.074219 133.785156 91.59375 133.0625 91.15625 C 132.785156 90.953125 132.464844 90.753906 132.144531 90.59375 C 131.425781 90.117188 130.699219 89.675781 129.9375 89.234375 C 129.617188 89.074219 129.335938 88.875 129.015625 88.714844 C 128.136719 88.195312 127.214844 87.675781 126.292969 87.234375 C 121.242188 84.59375 116.191406 82.636719 111.78125 81.753906 C 101.921875 79.878906 93.984375 81.519531 88.539062 90.035156 C 85.96875 94.03125 84.648438 98.511719 84.367188 103.230469 C 83.925781 111.027344 75.832031 116.949219 64.730469 122.105469 C 56.753906 125.820312 49.820312 131.660156 44.886719 139.417969 C 37.636719 150.730469 37.277344 161.96875 41.644531 172.523438 C 43.050781 176.003906 44.96875 179.402344 47.339844 182.71875 C 54.710938 193.078125 72.746094 204.511719 85.25 206.792969 C 101.484375 209.753906 116.070312 205.753906 125.652344 190.71875 C 130.621094 182.960938 132.984375 174.203125 132.984375 165.449219 C 132.984375 164.886719 132.984375 164.328125 133.023438 163.769531 C 133.023438 161.089844 133.1875 158.527344 133.425781 156.132812 C 134.386719 148.332031 136.792969 142.375 141.800781 139.699219 C 145.972656 137.457031 149.460938 134.339844 152.023438 130.339844 C 157.429688 121.824219 155.59375 113.949219 149.738281 105.867188 "/>
<path style=" stroke:none;fill-rule:nonzero;fill:rgb(90.979004%,35.688782%,70.979309%);fill-opacity:1;" d="M 121.082031 135.257812 C 116.875 141.855469 108.09375 143.777344 101.523438 139.617188 C 94.910156 135.417969 92.945312 126.664062 97.15625 120.0625 C 99.917969 115.742188 104.644531 113.429688 109.460938 113.542969 C 110.578125 113.585938 111.742188 113.746094 112.867188 114.066406 C 113.226562 114.148438 113.546875 114.222656 113.871094 114.429688 C 114.707031 114.667969 115.511719 115.023438 116.273438 115.464844 C 116.429688 115.542969 116.59375 115.664062 116.753906 115.742188 C 116.914062 115.824219 117.03125 115.949219 117.15625 116.0625 C 117.917969 116.542969 118.558594 117.105469 119.160156 117.703125 C 119.4375 117.984375 119.675781 118.222656 119.921875 118.542969 C 120.679688 119.425781 121.285156 120.382812 121.761719 121.382812 C 123.96875 125.664062 123.851562 130.941406 121.082031 135.257812 Z M 124.570312 116.984375 C 123.96875 116.105469 123.246094 115.265625 122.488281 114.542969 C 122.246094 114.222656 121.964844 113.984375 121.679688 113.746094 C 121.039062 113.1875 120.359375 112.664062 119.636719 112.1875 C 119.519531 112.066406 119.355469 111.949219 119.199219 111.867188 C 119.035156 111.789062 118.878906 111.667969 118.714844 111.585938 C 117.992188 111.148438 117.195312 110.746094 116.429688 110.429688 C 116.109375 110.269531 115.75 110.148438 115.433594 110.027344 C 114.390625 109.667969 113.304688 109.386719 112.265625 109.1875 C 105.007812 107.988281 97.4375 111.066406 93.265625 117.625 C 87.695312 126.339844 90.257812 137.9375 99.039062 143.496094 C 107.773438 149.050781 119.398438 146.496094 124.96875 137.738281 C 129.136719 131.179688 128.734375 123.019531 124.570312 116.984375 "/>
<path style=" stroke:none;fill-rule:nonzero;fill:rgb(100%,100%,100%);fill-opacity:1;" d="M 121.082031 135.257812 C 116.875 141.855469 108.09375 143.777344 101.523438 139.617188 C 94.910156 135.417969 92.945312 126.664062 97.15625 120.0625 C 99.917969 115.742188 104.644531 113.429688 109.460938 113.542969 C 110.179688 113.585938 110.902344 113.628906 111.582031 113.789062 C 112.019531 113.867188 112.46875 113.949219 112.867188 114.066406 C 113.226562 114.148438 113.546875 114.222656 113.871094 114.429688 C 113.910156 114.429688 113.988281 114.46875 114.027344 114.46875 C 114.265625 114.542969 114.550781 114.625 114.789062 114.746094 C 115.308594 114.945312 115.792969 115.183594 116.273438 115.464844 C 116.394531 115.503906 116.476562 115.582031 116.59375 115.664062 C 116.632812 115.707031 116.710938 115.707031 116.753906 115.742188 C 116.914062 115.824219 117.03125 115.949219 117.15625 116.0625 C 117.195312 116.105469 117.234375 116.105469 117.273438 116.144531 C 117.835938 116.503906 118.355469 116.949219 118.796875 117.382812 C 118.917969 117.464844 119.035156 117.582031 119.160156 117.703125 C 119.238281 117.785156 119.355469 117.902344 119.4375 117.984375 C 119.597656 118.144531 119.757812 118.34375 119.921875 118.542969 C 120.320312 119.023438 120.679688 119.503906 121 119.984375 C 121.285156 120.464844 121.523438 120.902344 121.761719 121.382812 C 123.96875 125.664062 123.851562 130.941406 121.082031 135.257812 "/>
<path style=" stroke:none;fill-rule:nonzero;fill:rgb(90.979004%,35.688782%,70.979309%);fill-opacity:1;" d="M 184.941406 32.386719 C 184.570312 32.972656 183.792969 33.148438 183.207031 32.773438 L 165.332031 21.425781 C 164.746094 21.054688 164.570312 20.277344 164.945312 19.6875 C 165.316406 19.113281 166.09375 18.9375 166.675781 19.308594 L 184.558594 30.664062 C 185.140625 31.03125 185.3125 31.804688 184.941406 32.386719 "/>
<path style=" stroke:none;fill-rule:nonzero;fill:rgb(90.979004%,35.688782%,70.979309%);fill-opacity:1;" d="M 179.601562 39.347656 C 179.230469 39.925781 178.453125 40.101562 177.871094 39.730469 L 159.992188 28.382812 C 159.410156 28.007812 159.230469 27.238281 159.605469 26.652344 C 159.980469 26.074219 160.757812 25.898438 161.335938 26.265625 L 179.21875 37.628906 C 179.804688 37.988281 179.976562 38.765625 179.601562 39.347656 "/>
<path style=" stroke:none;fill-rule:nonzero;fill:rgb(90.979004%,35.688782%,70.979309%);fill-opacity:1;" d="M 175.601562 46.253906 C 175.234375 46.847656 174.453125 47.019531 173.871094 46.644531 L 155.992188 35.296875 C 155.40625 34.921875 155.238281 34.148438 155.609375 33.5625 C 155.980469 32.984375 156.757812 32.808594 157.34375 33.183594 L 175.214844 44.53125 C 175.804688 44.902344 175.976562 45.679688 175.601562 46.253906 "/>
<path style=" stroke:none;fill-rule:nonzero;fill:rgb(31.369019%,45.098877%,72.158813%);fill-opacity:1;" d="M 172.65625 40.429688 L 171.519531 42.167969 L 170.167969 44.304688 L 166.542969 49.972656 L 166.496094 50.015625 L 126.785156 112.386719 L 118.574219 125.246094 C 118.222656 124.722656 117.832031 124.195312 117.390625 123.675781 C 117.21875 123.457031 117.046875 123.242188 116.867188 123.066406 C 116.78125 122.976562 116.652344 122.847656 116.5625 122.757812 C 116.429688 122.628906 116.304688 122.5 116.171875 122.410156 C 115.691406 121.933594 115.121094 121.453125 114.511719 121.058594 C 114.46875 121.019531 114.425781 121.019531 114.378906 120.972656 C 114.246094 120.84375 114.117188 120.710938 113.941406 120.621094 C 113.898438 120.578125 113.8125 120.578125 113.769531 120.535156 C 113.636719 120.449219 113.546875 120.363281 113.417969 120.320312 C 112.890625 120.011719 112.367188 119.753906 111.800781 119.53125 C 111.539062 119.402344 111.230469 119.316406 110.972656 119.230469 C 110.929688 119.230469 110.839844 119.1875 110.796875 119.1875 C 110.449219 118.964844 110.097656 118.878906 109.703125 118.792969 C 109.265625 118.664062 108.789062 118.574219 108.304688 118.488281 L 116.429688 105.804688 L 156.148438 43.519531 L 159.859375 37.722656 L 161.214844 35.628906 L 162.347656 33.886719 L 164.53125 35.285156 L 165.277344 35.761719 L 167.070312 36.894531 L 167.851562 37.417969 L 169.691406 38.554688 L 170.433594 39.027344 L 172.65625 40.429688 "/>
<g clip-path="url(#clip4)" clip-rule="nonzero">
<path style=" stroke:none;fill-rule:nonzero;fill:rgb(31.369019%,45.098877%,72.158813%);fill-opacity:1;" d="M 171.011719 50.269531 C 161.453125 50.191406 158.027344 48.015625 153.910156 39.410156 C 163.09375 31.632812 166.179688 26.792969 169.351562 15.191406 C 178.910156 15.277344 182.339844 17.457031 186.460938 26.058594 C 177.269531 33.835938 174.1875 38.679688 171.011719 50.269531 "/>
</g>
<g clip-path="url(#clip5)" clip-rule="nonzero">
<path style=" stroke:none;fill-rule:nonzero;fill:rgb(90.979004%,35.688782%,70.979309%);fill-opacity:1;" d="M 187.140625 34.007812 C 186.320312 35.09375 184.777344 35.316406 183.6875 34.5 C 182.597656 33.683594 182.371094 32.144531 183.195312 31.058594 C 184.007812 29.960938 185.554688 29.742188 186.644531 30.5625 C 187.734375 31.375 187.957031 32.917969 187.140625 34.007812 "/>
</g>
<path style=" stroke:none;fill-rule:nonzero;fill:rgb(90.979004%,35.688782%,70.979309%);fill-opacity:1;" d="M 181.824219 40.710938 C 181 41.800781 179.460938 42.027344 178.367188 41.207031 C 177.277344 40.386719 177.058594 38.851562 177.871094 37.761719 C 178.691406 36.675781 180.234375 36.453125 181.328125 37.269531 C 182.417969 38.085938 182.636719 39.628906 181.824219 40.710938 "/>
<path style=" stroke:none;fill-rule:nonzero;fill:rgb(90.979004%,35.688782%,70.979309%);fill-opacity:1;" d="M 178.511719 48.335938 C 177.699219 49.425781 176.15625 49.636719 175.058594 48.832031 C 173.972656 48.011719 173.75 46.472656 174.566406 45.386719 C 175.386719 44.292969 176.933594 44.074219 178.019531 44.882812 C 179.117188 45.703125 179.332031 47.246094 178.511719 48.335938 "/>
<path style=" stroke:none;fill-rule:nonzero;fill:rgb(90.979004%,35.688782%,70.979309%);fill-opacity:1;" d="M 162.027344 18.066406 C 161.386719 19.261719 161.839844 20.753906 163.039062 21.394531 C 164.246094 22.035156 165.738281 21.582031 166.378906 20.382812 C 167.019531 19.175781 166.566406 17.6875 165.367188 17.054688 C 164.164062 16.414062 162.671875 16.863281 162.027344 18.066406 "/>
<path style=" stroke:none;fill-rule:nonzero;fill:rgb(90.979004%,35.688782%,70.979309%);fill-opacity:1;" d="M 158.191406 25.710938 C 157.550781 26.910156 158.003906 28.398438 159.207031 29.042969 C 160.410156 29.675781 161.902344 29.226562 162.542969 28.035156 C 163.1875 26.832031 162.730469 25.339844 161.53125 24.699219 C 160.328125 24.058594 158.835938 24.511719 158.191406 25.710938 "/>
<path style=" stroke:none;fill-rule:nonzero;fill:rgb(90.979004%,35.688782%,70.979309%);fill-opacity:1;" d="M 152.671875 31.925781 C 152.03125 33.125 152.484375 34.613281 153.683594 35.253906 C 154.886719 35.898438 156.382812 35.441406 157.019531 34.242188 C 157.667969 33.046875 157.210938 31.550781 156.007812 30.90625 C 154.808594 30.269531 153.3125 30.726562 152.671875 31.925781 "/>
<g clip-path="url(#clip6)" clip-rule="nonzero">
<path style=" stroke:none;fill-rule:nonzero;fill:rgb(100%,100%,100%);fill-opacity:1;" d="M 177.859375 16.015625 L 177.683594 16.320312 L 177.683594 16.363281 L 173.140625 23.425781 L 171.828125 25.519531 L 171.828125 25.558594 L 168.464844 30.792969 L 167.109375 32.882812 L 165.277344 35.761719 L 164.140625 37.507812 L 162.785156 39.59375 L 162.785156 39.644531 L 158.460938 46.441406 L 119.488281 107.503906 L 111.800781 119.53125 C 111.539062 119.402344 111.230469 119.316406 110.972656 119.230469 L 118.75 107.070312 L 157.847656 45.785156 L 162.042969 39.164062 L 162.042969 39.117188 L 163.398438 37.027344 L 164.53125 35.285156 L 166.371094 32.449219 L 167.726562 30.3125 L 171.085938 25.078125 L 171.085938 25.039062 L 172.398438 22.949219 L 176.851562 16.058594 L 177.117188 15.539062 L 177.859375 16.015625 "/>
</g>
<path style=" stroke:none;fill-rule:nonzero;fill:rgb(100%,100%,100%);fill-opacity:1;" d="M 180.476562 17.679688 L 180.441406 17.757812 L 180.390625 17.757812 L 175.761719 25.039062 L 175.71875 25.078125 L 174.40625 27.175781 L 171.085938 32.449219 L 169.734375 34.539062 L 169.734375 34.585938 L 167.851562 37.417969 L 166.761719 39.164062 L 165.410156 41.25 L 165.410156 41.296875 L 160.90625 48.316406 L 160.90625 48.359375 L 122.15625 109.117188 L 114.511719 121.058594 C 114.46875 121.019531 114.425781 121.019531 114.378906 120.972656 C 114.246094 120.84375 114.117188 120.710938 113.941406 120.621094 C 113.898438 120.578125 113.8125 120.578125 113.769531 120.535156 L 121.371094 108.636719 L 160.121094 47.839844 L 164.621094 40.773438 L 165.976562 38.636719 L 167.070312 36.894531 L 168.902344 34.0625 L 170.257812 31.925781 L 173.621094 26.695312 L 174.976562 24.605469 L 179.648438 17.234375 L 179.695312 17.148438 L 180.476562 17.679688 "/>
<path style=" stroke:none;fill-rule:nonzero;fill:rgb(100%,100%,100%);fill-opacity:1;" d="M 183.058594 19.285156 L 182.707031 19.808594 L 182.660156 19.855469 L 178.292969 26.695312 L 176.984375 28.789062 L 176.984375 28.828125 L 173.621094 34.0625 L 172.265625 36.152344 L 170.433594 39.027344 L 169.335938 40.773438 L 169.292969 40.816406 L 167.984375 42.910156 L 163.789062 49.492188 L 124.648438 110.816406 L 116.867188 123.066406 C 116.78125 122.976562 116.652344 122.847656 116.5625 122.757812 C 116.429688 122.628906 116.304688 122.5 116.171875 122.410156 L 123.90625 110.296875 L 162.917969 49.226562 L 162.917969 49.1875 L 167.238281 42.429688 L 168.554688 40.292969 L 169.691406 38.554688 L 171.519531 35.71875 L 171.519531 35.675781 L 172.835938 33.582031 L 176.242188 28.347656 L 176.242188 28.304688 L 177.554688 26.257812 L 177.554688 26.21875 L 182.050781 19.15625 L 182.316406 18.804688 L 183.058594 19.285156 "/>
<path style=" stroke:none;fill-rule:nonzero;fill:rgb(31.369019%,45.098877%,72.158813%);fill-opacity:1;" d="M 133.425781 156.132812 C 133.1875 158.527344 133.023438 161.089844 133.023438 163.769531 C 132.984375 164.328125 132.984375 164.886719 132.984375 165.449219 C 132.984375 174.203125 130.621094 182.960938 125.652344 190.71875 C 116.070312 205.753906 101.484375 209.753906 85.25 206.792969 C 72.746094 204.511719 54.710938 193.078125 47.339844 182.71875 C 44.96875 179.402344 43.050781 176.003906 41.644531 172.523438 C 37.277344 161.96875 37.636719 150.730469 44.886719 139.417969 C 47.65625 144.015625 51.824219 147.253906 58.398438 147.457031 C 64.527344 147.652344 72.105469 144.015625 77.273438 148.933594 C 81.601562 153.050781 79.160156 161.046875 83.328125 165.25 C 94.664062 176.722656 96.753906 152.972656 104.890625 151.851562 C 110.019531 151.132812 117.195312 157.886719 122.964844 158.167969 C 126.574219 158.328125 130.058594 157.449219 133.425781 156.132812 "/>
<path style=" stroke:none;fill-rule:nonzero;fill:rgb(90.979004%,89.7995%,0%);fill-opacity:1;" d="M 47.339844 182.71875 C 44.96875 179.402344 43.050781 176.003906 41.644531 172.523438 C 49.941406 163.089844 62.601562 160.449219 74.265625 168.648438 C 81.601562 173.804688 90.980469 204.191406 102.566406 182.558594 C 105.8125 176.523438 101.28125 166.25 105.769531 161.410156 C 110.621094 156.171875 117.234375 161.328125 122.445312 162.726562 C 126.332031 163.808594 129.902344 164.167969 133.023438 163.769531 C 132.984375 164.328125 132.984375 164.886719 132.984375 165.449219 C 132.984375 174.203125 130.621094 182.960938 125.652344 190.71875 C 116.070312 205.753906 101.484375 209.753906 85.25 206.792969 C 72.746094 204.511719 54.710938 193.078125 47.339844 182.71875 "/>
<path style=" stroke:none;fill-rule:nonzero;fill:rgb(100%,100%,100%);fill-opacity:1;" d="M 50.546875 174.949219 C 49.828125 174.949219 49.132812 174.5625 48.773438 173.878906 C 48.140625 172.671875 47.578125 171.472656 47.101562 170.289062 C 43.144531 160.730469 44.035156 151.6875 49.832031 142.652344 C 53.988281 136.109375 59.980469 130.878906 67.15625 127.542969 C 68.148438 127.074219 69.347656 127.5 69.816406 128.507812 C 70.285156 129.507812 69.851562 130.695312 68.84375 131.164062 C 62.367188 134.179688 56.960938 138.894531 53.210938 144.800781 C 48.167969 152.660156 47.386719 160.5 50.808594 168.78125 C 51.25 169.855469 51.75 170.9375 52.320312 172.019531 C 52.835938 172.996094 52.460938 174.207031 51.480469 174.71875 C 51.183594 174.875 50.867188 174.949219 50.546875 174.949219 "/>
</g>
</svg>
