<?xml version="1.0" encoding="UTF-8"?>
<svg xmlns="http://www.w3.org/2000/svg" xmlns:xlink="http://www.w3.org/1999/xlink" width="750pt" height="299.999988pt" viewBox="0 0 750 299.999988" version="1.2">
<defs>
<clipPath id="clip1">
  <path d="M 225 91.3125 L 525 91.3125 L 525 209.0625 L 225 209.0625 Z M 225 91.3125 "/>
</clipPath>
<clipPath id="clip2">
  <path d="M 225 91.3125 L 525 91.3125 L 525 209.0625 L 225 209.0625 Z M 225 91.3125 "/>
</clipPath>
</defs>
<g id="surface1">
<g clip-path="url(#clip1)" clip-rule="nonzero">
<path style="fill:none;stroke-width:140;stroke-linecap:round;stroke-linejoin:round;stroke:rgb(1.568604%,2.349854%,2.349854%);stroke-opacity:1;stroke-miterlimit:10;" d="M 3886.57921 2534.487454 C 3871.586131 2534.638445 3857.20088 2529.404106 3844.081936 2519.841373 C 3772.206333 2679.186705 3612.803567 2790.768701 3426.555087 2792.530257 C 3293.542166 2793.687851 3173.496232 2738.274329 3088.299075 2649.089261 C 3004.773445 2739.784234 2885.689904 2797.311623 2752.676983 2798.519548 C 2527.324933 2800.532755 2338.290576 2640.986103 2295.337432 2427.938475 C 2247.977538 2454.764458 2196.464156 2471.876717 2142.316855 2472.380019 C 2092.120433 2472.883321 2043.848798 2458.992193 1998.920214 2436.242954 C 1957.587943 2647.227044 1772.555118 2807.276998 1549.229159 2809.290205 C 1416.216238 2810.498129 1296.119652 2755.084607 1210.973147 2665.949869 C 1127.396864 2756.594513 1008.414628 2814.172232 875.401708 2815.329826 C 669.196224 2817.141712 493.382115 2683.766751 432.092841 2497.897417 C 414.364538 2520.646656 392.634705 2534.286133 368.929432 2534.487454 C 308.653203 2534.990756 259.165913 2449.832101 258.152867 2344.189066 C 257.241126 2238.54603 305.2595 2152.481432 365.485076 2151.87747 C 388.278608 2151.676149 409.552571 2163.856052 427.280873 2184.743074 C 530.459594 1727.392781 1037.792958 1454.905219 1200.133557 1453.495974 C 1365.766554 1451.986068 1895.336275 1731.117214 1992.132807 2199.791796 C 2038.327698 2215.847122 2088.220206 2226.567449 2140.138806 2226.114477 C 2196.717418 2225.611175 2250.560805 2211.820708 2299.744181 2192.493921 C 2390.715699 1724.876273 2912.383663 1438.145271 3077.459485 1436.685696 C 3239.95204 1435.22612 3752.907809 1699.056893 3863.633721 2155.299922 C 3869.965258 2153.236385 3876.448751 2151.978131 3883.185506 2151.87747 C 3943.36043 2151.374168 3992.898373 2236.583153 3993.860766 2342.226189 C 3994.772507 2447.919555 3946.754134 2533.933822 3886.57921 2534.487454 Z M 3886.57921 2534.487454 " transform="matrix(0.0771189,0,0,-0.0776125,211.083718,315.37975)"/>
</g>
<path style="fill:none;stroke-width:140;stroke-linecap:round;stroke-linejoin:round;stroke:rgb(1.568604%,2.349854%,2.349854%);stroke-opacity:1;stroke-miterlimit:10;" d="M 2812.092123 2675.965574 C 2921.197161 2675.109961 3018.905434 2627.799597 3087.437986 2553.46193 C 3157.287498 2626.591673 3255.806208 2672.03982 3365.012551 2671.083547 C 3574.561086 2669.22133 3742.828003 2497.796757 3740.953868 2288.272242 C 3736.851032 1828.405441 3227.744838 1557.327123 3078.573835 1558.635708 C 2929.402833 1559.944292 2425.20991 1845.165389 2429.312746 2299.999173 C 2431.136229 2509.523688 2602.543587 2677.87812 2812.092123 2675.965574 Z M 2812.092123 2675.965574 " transform="matrix(0.0771189,0,0,-0.0776125,211.083718,315.37975)"/>
<path style="fill:none;stroke-width:140;stroke-linecap:round;stroke-linejoin:round;stroke:rgb(1.568604%,2.349854%,2.349854%);stroke-opacity:1;stroke-miterlimit:10;" d="M 935.120761 2675.965574 C 1044.225799 2675.109961 1141.934072 2627.799597 1210.466624 2553.46193 C 1280.316136 2626.591673 1378.834846 2672.03982 1487.990537 2671.083547 C 1697.589724 2669.22133 1865.856641 2497.796757 1863.982506 2288.272242 C 1859.87967 1828.405441 1350.722823 1557.327123 1201.551821 1558.635708 C 1052.431471 1559.944292 548.238548 1845.165389 552.290732 2299.999173 C 554.164867 2509.523688 725.521573 2677.87812 935.120761 2675.965574 Z M 935.120761 2675.965574 " transform="matrix(0.0771189,0,0,-0.0776125,211.083718,315.37975)"/>
<path style=" stroke:none;fill-rule:nonzero;fill:rgb(93.328857%,11.759949%,41.178894%);fill-opacity:1;" d="M 510.8125 118.671875 C 509.65625 118.660156 508.546875 119.066406 507.535156 119.808594 C 501.992188 107.441406 489.699219 98.78125 475.335938 98.644531 C 465.078125 98.554688 455.820312 102.855469 449.25 109.777344 C 442.808594 102.738281 433.625 98.273438 423.367188 98.179688 C 405.988281 98.023438 391.410156 110.40625 388.097656 126.941406 C 384.445312 124.859375 380.472656 123.53125 376.296875 123.492188 C 372.425781 123.453125 368.703125 124.53125 365.238281 126.296875 C 362.050781 109.921875 347.78125 97.5 330.558594 97.34375 C 320.300781 97.25 311.039062 101.550781 304.472656 108.46875 C 298.027344 101.433594 288.851562 96.964844 278.59375 96.875 C 262.691406 96.734375 249.132812 107.085938 244.40625 121.511719 C 243.039062 119.746094 241.363281 118.6875 239.535156 118.671875 C 234.886719 118.632812 231.070312 125.242188 230.992188 133.441406 C 230.921875 141.640625 234.625 148.320312 239.269531 148.367188 C 241.027344 148.382812 242.667969 147.4375 244.035156 145.816406 C 251.992188 181.3125 291.117188 202.460938 303.636719 202.570312 C 316.410156 202.6875 357.25 181.023438 364.714844 144.648438 C 368.277344 143.402344 372.125 142.570312 376.128906 142.605469 C 380.492188 142.644531 384.644531 143.714844 388.4375 145.214844 C 395.453125 181.507812 435.683594 203.761719 448.414062 203.875 C 460.945312 203.988281 500.503906 183.511719 509.042969 148.101562 C 509.53125 148.261719 510.03125 148.359375 510.550781 148.367188 C 515.191406 148.40625 519.011719 141.792969 519.085938 133.59375 C 519.15625 125.390625 515.453125 118.714844 510.8125 118.671875 "/>
<g clip-path="url(#clip2)" clip-rule="nonzero">
<path style="fill:none;stroke-width:10;stroke-linecap:butt;stroke-linejoin:miter;stroke:rgb(1.568604%,2.349854%,2.349854%);stroke-opacity:1;stroke-miterlimit:10;" d="M 3886.57921 2534.487454 C 3871.586131 2534.638445 3857.20088 2529.404106 3844.081936 2519.841373 C 3772.206333 2679.186705 3612.803567 2790.768701 3426.555087 2792.530257 C 3293.542166 2793.687851 3173.496232 2738.274329 3088.299075 2649.089261 C 3004.773445 2739.784234 2885.689904 2797.311623 2752.676983 2798.519548 C 2527.324933 2800.532755 2338.290576 2640.986103 2295.337432 2427.938475 C 2247.977538 2454.764458 2196.464156 2471.876717 2142.316855 2472.380019 C 2092.120433 2472.883321 2043.848798 2458.992193 1998.920214 2436.242954 C 1957.587943 2647.227044 1772.555118 2807.276998 1549.229159 2809.290205 C 1416.216238 2810.498129 1296.119652 2755.084607 1210.973147 2665.949869 C 1127.396864 2756.594513 1008.414628 2814.172232 875.401708 2815.329826 C 669.196224 2817.141712 493.382115 2683.766751 432.092841 2497.897417 C 414.364538 2520.646656 392.634705 2534.286133 368.929432 2534.487454 C 308.653203 2534.990756 259.165913 2449.832101 258.152867 2344.189066 C 257.241126 2238.54603 305.2595 2152.481432 365.485076 2151.87747 C 388.278608 2151.676149 409.552571 2163.856052 427.280873 2184.743074 C 530.459594 1727.392781 1037.792958 1454.905219 1200.133557 1453.495974 C 1365.766554 1451.986068 1895.336275 1731.117214 1992.132807 2199.791796 C 2038.327698 2215.847122 2088.220206 2226.567449 2140.138806 2226.114477 C 2196.717418 2225.611175 2250.560805 2211.820708 2299.744181 2192.493921 C 2390.715699 1724.876273 2912.383663 1438.145271 3077.459485 1436.685696 C 3239.95204 1435.22612 3752.907809 1699.056893 3863.633721 2155.299922 C 3869.965258 2153.236385 3876.448751 2151.978131 3883.185506 2151.87747 C 3943.36043 2151.374168 3992.898373 2236.583153 3993.860766 2342.226189 C 3994.772507 2447.919555 3946.754134 2533.933822 3886.57921 2534.487454 Z M 3886.57921 2534.487454 " transform="matrix(0.0771189,0,0,-0.0776125,211.083718,315.37975)"/>
</g>
<path style=" stroke:none;fill-rule:nonzero;fill:rgb(25.878906%,75.689697%,81.568909%);fill-opacity:1;" d="M 427.949219 107.691406 C 436.363281 107.757812 443.898438 111.429688 449.183594 117.199219 C 454.570312 111.523438 462.167969 107.996094 470.589844 108.070312 C 486.75 108.214844 499.726562 121.519531 499.582031 137.78125 C 499.265625 173.472656 460.003906 194.511719 448.5 194.410156 C 436.996094 194.308594 398.113281 172.171875 398.429688 136.871094 C 398.570312 120.609375 411.789062 107.542969 427.949219 107.691406 "/>
<path style="fill:none;stroke-width:10;stroke-linecap:butt;stroke-linejoin:miter;stroke:rgb(1.568604%,2.349854%,2.349854%);stroke-opacity:1;stroke-miterlimit:10;" d="M 2812.092123 2675.965574 C 2921.197161 2675.109961 3018.905434 2627.799597 3087.437986 2553.46193 C 3157.287498 2626.591673 3255.806208 2672.03982 3365.012551 2671.083547 C 3574.561086 2669.22133 3742.828003 2497.796757 3740.953868 2288.272242 C 3736.851032 1828.405441 3227.744838 1557.327123 3078.573835 1558.635708 C 2929.402833 1559.944292 2425.20991 1845.165389 2429.312746 2299.999173 C 2431.136229 2509.523688 2602.543587 2677.87812 2812.092123 2675.965574 Z M 2812.092123 2675.965574 " transform="matrix(0.0771189,0,0,-0.0776125,211.083718,315.37975)"/>
<path style=" stroke:none;fill-rule:nonzero;fill:rgb(25.878906%,75.689697%,81.568909%);fill-opacity:1;" d="M 283.199219 107.691406 C 291.613281 107.757812 299.148438 111.429688 304.433594 117.199219 C 309.820312 111.523438 317.417969 107.996094 325.835938 108.070312 C 342 108.214844 354.976562 121.519531 354.832031 137.78125 C 354.515625 173.472656 315.25 194.511719 303.746094 194.410156 C 292.246094 194.308594 253.363281 172.171875 253.675781 136.871094 C 253.820312 120.609375 267.035156 107.542969 283.199219 107.691406 "/>
<path style="fill:none;stroke-width:10;stroke-linecap:butt;stroke-linejoin:miter;stroke:rgb(1.568604%,2.349854%,2.349854%);stroke-opacity:1;stroke-miterlimit:10;" d="M 935.120761 2675.965574 C 1044.225799 2675.109961 1141.934072 2627.799597 1210.466624 2553.46193 C 1280.316136 2626.591673 1378.834846 2672.03982 1487.990537 2671.083547 C 1697.589724 2669.22133 1865.856641 2497.796757 1863.982506 2288.272242 C 1859.87967 1828.405441 1350.722823 1557.327123 1201.551821 1558.635708 C 1052.431471 1559.944292 548.238548 1845.165389 552.290732 2299.999173 C 554.164867 2509.523688 725.521573 2677.87812 935.120761 2675.965574 Z M 935.120761 2675.965574 " transform="matrix(0.0771189,0,0,-0.0776125,211.083718,315.37975)"/>
</g>
</svg>
