<?xml version="1.0" encoding="UTF-8"?>
<svg xmlns="http://www.w3.org/2000/svg" xmlns:xlink="http://www.w3.org/1999/xlink" width="224.87999pt" height="225pt" viewBox="0 0 224.87999 225" version="1.2">
<defs>
<clipPath id="clip1">
  <path d="M 47 8 L 178 8 L 178 216.839844 L 47 216.839844 Z M 47 8 "/>
</clipPath>
<clipPath id="clip2">
  <path d="M 44.417969 188 L 62 188 L 62 216 L 44.417969 216 Z M 44.417969 188 "/>
</clipPath>
<clipPath id="clip3">
  <path d="M 162 188 L 179.730469 188 L 179.730469 216 L 162 216 Z M 162 188 "/>
</clipPath>
<clipPath id="clip4">
  <path d="M 44.417969 213 L 62 213 L 62 216.839844 L 44.417969 216.839844 Z M 44.417969 213 "/>
</clipPath>
<clipPath id="clip5">
  <path d="M 162 213 L 179.730469 213 L 179.730469 216.839844 L 162 216.839844 Z M 162 213 "/>
</clipPath>
</defs>
<g id="surface1">
<path style=" stroke:none;fill-rule:nonzero;fill:rgb(91.369629%,77.249146%,55.688477%);fill-opacity:1;" d="M 48.402344 215.140625 L 176.085938 215.140625 L 176.085938 77.871094 C 176.160156 76.636719 176.191406 75.472656 176.191406 74.320312 C 176.191406 38.765625 147.503906 9.835938 112.246094 9.835938 C 76.984375 9.835938 48.296875 38.765625 48.296875 74.320312 C 48.296875 75.472656 48.332031 76.636719 48.402344 77.871094 L 48.402344 215.140625 "/>
<g clip-path="url(#clip1)" clip-rule="nonzero">
<path style=" stroke:none;fill-rule:nonzero;fill:rgb(69.40918%,66.668701%,67.83905%);fill-opacity:1;" d="M 48.402344 215.140625 L 48.402344 216.160156 L 177.097656 216.160156 L 177.097656 77.871094 L 176.085938 77.871094 L 177.097656 77.929688 C 177.167969 76.675781 177.203125 75.492188 177.203125 74.320312 C 177.199219 38.199219 148.0625 8.820312 112.246094 8.820312 C 76.425781 8.820312 47.289062 38.199219 47.289062 74.320312 C 47.289062 75.492188 47.320312 76.675781 47.394531 77.929688 L 48.402344 77.871094 L 47.394531 77.871094 L 47.394531 216.160156 L 48.402344 216.160156 L 48.402344 215.140625 L 49.410156 215.140625 L 49.410156 77.847656 L 49.40625 77.8125 C 49.339844 76.59375 49.304688 75.449219 49.304688 74.320312 C 49.304688 56.820312 56.363281 40.960938 67.761719 29.464844 C 79.160156 17.96875 94.890625 10.855469 112.246094 10.855469 C 129.597656 10.855469 145.328125 17.96875 156.726562 29.464844 C 168.128906 40.960938 175.183594 56.820312 175.183594 74.320312 C 175.183594 75.449219 175.148438 76.597656 175.082031 77.8125 L 175.078125 77.847656 L 175.078125 214.125 L 48.402344 214.125 L 48.402344 215.140625 L 49.410156 215.140625 L 48.402344 215.140625 "/>
</g>
<path style=" stroke:none;fill-rule:nonzero;fill:rgb(21.569824%,55.288696%,56.858826%);fill-opacity:1;" d="M 112.246094 12.917969 C 79.03125 12.917969 52.011719 40.164062 52.011719 73.652344 C 52.011719 74.773438 52.046875 75.910156 52.117188 77.125 L 52.117188 214.40625 L 172.371094 214.40625 L 172.371094 77.125 C 172.445312 75.910156 172.476562 74.773438 172.476562 73.652344 C 172.476562 40.164062 145.457031 12.917969 112.246094 12.917969 Z M 112.246094 20.378906 C 141.378906 20.378906 165.078125 44.277344 165.078125 73.652344 C 165.078125 74.617188 165.050781 75.605469 164.988281 76.6875 L 164.976562 76.90625 L 164.976562 206.949219 L 59.515625 206.949219 L 59.515625 76.90625 L 59.503906 76.6875 C 59.441406 75.605469 59.410156 74.617188 59.410156 73.652344 C 59.410156 44.277344 83.109375 20.378906 112.246094 20.378906 "/>
<path style=" stroke:none;fill-rule:nonzero;fill:rgb(43.528748%,11.369324%,12.548828%);fill-opacity:1;" d="M 46.613281 79.492188 L 60.199219 79.492188 L 60.199219 98.492188 L 46.613281 98.492188 L 46.613281 79.492188 "/>
<path style=" stroke:none;fill-rule:nonzero;fill:rgb(43.528748%,11.369324%,12.548828%);fill-opacity:1;" d="M 164.285156 79.492188 L 177.867188 79.492188 L 177.867188 98.492188 L 164.285156 98.492188 L 164.285156 79.492188 "/>
<path style=" stroke:none;fill-rule:nonzero;fill:rgb(48.239136%,20.779419%,18.429565%);fill-opacity:1;" d="M 61.542969 213.785156 L 61.542969 77.472656 L 61.539062 77.425781 C 61.46875 76.332031 61.4375 75.316406 61.4375 74.320312 C 61.4375 46.070312 84.226562 23.085938 112.246094 23.085938 C 140.261719 23.085938 163.054688 46.070312 163.054688 74.320312 C 163.054688 75.316406 163.019531 76.332031 162.953125 77.425781 L 162.949219 77.515625 L 162.949219 213.785156 L 61.542969 213.785156 "/>
<path style=" stroke:none;fill-rule:nonzero;fill:rgb(69.40918%,66.668701%,67.83905%);fill-opacity:1;" d="M 112.246094 21.730469 C 83.488281 21.730469 60.09375 45.320312 60.09375 74.320312 C 60.09375 75.335938 60.125 76.386719 60.199219 77.515625 L 60.199219 215.140625 L 164.292969 215.140625 L 164.292969 77.515625 C 164.367188 76.386719 164.398438 75.335938 164.398438 74.320312 C 164.398438 45.320312 141.003906 21.730469 112.246094 21.730469 Z M 112.246094 24.445312 C 139.519531 24.445312 161.710938 46.816406 161.710938 74.320312 C 161.710938 75.285156 161.679688 76.273438 161.609375 77.34375 L 161.605469 77.425781 L 161.605469 212.429688 L 62.886719 212.429688 L 62.886719 77.425781 L 62.878906 77.34375 C 62.8125 76.273438 62.78125 75.285156 62.78125 74.320312 C 62.78125 46.816406 84.972656 24.445312 112.246094 24.445312 "/>
<path style=" stroke:none;fill-rule:nonzero;fill:rgb(19.219971%,20.779419%,32.548523%);fill-opacity:1;" d="M 154.890625 74.320312 C 154.890625 50.570312 135.796875 31.316406 112.246094 31.316406 C 88.695312 31.316406 69.597656 50.570312 69.597656 74.320312 C 69.597656 98.070312 88.695312 117.320312 112.246094 117.320312 C 135.796875 117.320312 154.890625 98.070312 154.890625 74.320312 "/>
<path style=" stroke:none;fill-rule:nonzero;fill:rgb(25.099182%,74.899292%,73.728943%);fill-opacity:1;" d="M 145.648438 74.453125 C 145.648438 55.851562 130.695312 40.769531 112.246094 40.769531 C 93.796875 40.769531 78.839844 55.851562 78.839844 74.453125 C 78.839844 93.058594 93.796875 108.140625 112.246094 108.140625 C 130.695312 108.140625 145.648438 93.058594 145.648438 74.453125 "/>
<path style=" stroke:none;fill-rule:nonzero;fill:rgb(69.40918%,66.668701%,67.83905%);fill-opacity:1;" d="M 112.246094 28.710938 L 110.363281 28.710938 L 101.957031 5.855469 C 101.957031 5.855469 105.542969 4.015625 112.246094 4.015625 L 112.246094 28.710938 "/>
<path style=" stroke:none;fill-rule:nonzero;fill:rgb(69.40918%,66.668701%,67.83905%);fill-opacity:1;" d="M 112.246094 28.710938 L 114.125 28.710938 L 122.53125 5.855469 C 122.53125 5.855469 118.949219 4.015625 112.246094 4.015625 L 112.246094 28.710938 "/>
<path style=" stroke:none;fill-rule:nonzero;fill:rgb(43.528748%,11.369324%,12.548828%);fill-opacity:1;" d="M 112.246094 25.597656 L 110.65625 25.597656 L 103.558594 6.300781 C 103.558594 6.300781 106.585938 4.746094 112.246094 4.746094 L 112.246094 25.597656 "/>
<path style=" stroke:none;fill-rule:nonzero;fill:rgb(43.528748%,11.369324%,12.548828%);fill-opacity:1;" d="M 112.246094 25.597656 L 113.832031 25.597656 L 120.929688 6.300781 C 120.929688 6.300781 117.90625 4.746094 112.246094 4.746094 L 112.246094 25.597656 "/>
<path style=" stroke:none;fill-rule:nonzero;fill:rgb(13.328552%,13.328552%,18.03894%);fill-opacity:1;" d="M 93.351562 70.523438 L 130.933594 70.523438 C 131.304688 70.523438 131.605469 70.21875 131.605469 69.847656 C 131.605469 69.46875 131.304688 69.167969 130.933594 69.167969 L 93.351562 69.167969 C 92.980469 69.167969 92.679688 69.46875 92.679688 69.847656 C 92.679688 70.21875 92.980469 70.523438 93.351562 70.523438 "/>
<path style=" stroke:none;fill-rule:nonzero;fill:rgb(13.328552%,13.328552%,18.03894%);fill-opacity:1;" d="M 93.351562 71.527344 L 130.933594 71.527344 C 131.304688 71.527344 131.605469 71.226562 131.605469 70.851562 C 131.605469 70.476562 131.304688 70.171875 130.933594 70.171875 L 93.351562 70.171875 C 92.980469 70.171875 92.679688 70.476562 92.679688 70.851562 C 92.679688 71.226562 92.980469 71.527344 93.351562 71.527344 "/>
<path style=" stroke:none;fill-rule:nonzero;fill:rgb(13.328552%,13.328552%,18.03894%);fill-opacity:1;" d="M 93.351562 72.53125 L 130.933594 72.53125 C 131.304688 72.53125 131.605469 72.230469 131.605469 71.855469 C 131.605469 71.480469 131.304688 71.175781 130.933594 71.175781 L 93.351562 71.175781 C 92.980469 71.175781 92.679688 71.480469 92.679688 71.855469 C 92.679688 72.230469 92.980469 72.53125 93.351562 72.53125 "/>
<path style=" stroke:none;fill-rule:nonzero;fill:rgb(13.328552%,13.328552%,18.03894%);fill-opacity:1;" d="M 93.351562 73.539062 L 130.933594 73.539062 C 131.304688 73.539062 131.605469 73.234375 131.605469 72.859375 C 131.605469 72.484375 131.304688 72.183594 130.933594 72.183594 L 93.351562 72.183594 C 92.980469 72.183594 92.679688 72.484375 92.679688 72.859375 C 92.679688 73.234375 92.980469 73.539062 93.351562 73.539062 "/>
<path style=" stroke:none;fill-rule:nonzero;fill:rgb(13.328552%,13.328552%,18.03894%);fill-opacity:1;" d="M 93.351562 74.542969 L 130.933594 74.542969 C 131.304688 74.542969 131.605469 74.242188 131.605469 73.863281 C 131.605469 73.492188 131.304688 73.1875 130.933594 73.1875 L 93.351562 73.1875 C 92.980469 73.1875 92.679688 73.492188 92.679688 73.863281 C 92.679688 74.242188 92.980469 74.542969 93.351562 74.542969 "/>
<path style=" stroke:none;fill-rule:nonzero;fill:rgb(21.569824%,8.239746%,9.799194%);fill-opacity:1;" d="M 46.246094 142.324219 L 60.199219 142.324219 L 60.199219 215.140625 L 46.246094 215.140625 L 46.246094 142.324219 "/>
<path style=" stroke:none;fill-rule:nonzero;fill:rgb(59.21936%,55.688477%,57.249451%);fill-opacity:1;" d="M 45.78125 82.570312 L 61.027344 82.570312 L 61.027344 77.515625 L 45.78125 77.515625 L 45.78125 82.570312 "/>
<path style=" stroke:none;fill-rule:nonzero;fill:rgb(59.21936%,55.688477%,57.249451%);fill-opacity:1;" d="M 45.78125 88.445312 L 61.027344 88.445312 L 61.027344 83.386719 L 45.78125 83.386719 L 45.78125 88.445312 "/>
<path style=" stroke:none;fill-rule:nonzero;fill:rgb(59.21936%,55.688477%,57.249451%);fill-opacity:1;" d="M 45.78125 94.316406 L 61.027344 94.316406 L 61.027344 89.261719 L 45.78125 89.261719 L 45.78125 94.316406 "/>
<path style=" stroke:none;fill-rule:nonzero;fill:rgb(59.21936%,55.688477%,57.249451%);fill-opacity:1;" d="M 45.78125 100.191406 L 61.027344 100.191406 L 61.027344 95.132812 L 45.78125 95.132812 L 45.78125 100.191406 "/>
<path style=" stroke:none;fill-rule:nonzero;fill:rgb(59.21936%,55.688477%,57.249451%);fill-opacity:1;" d="M 163.453125 82.570312 L 178.695312 82.570312 L 178.695312 77.515625 L 163.453125 77.515625 L 163.453125 82.570312 "/>
<path style=" stroke:none;fill-rule:nonzero;fill:rgb(59.21936%,55.688477%,57.249451%);fill-opacity:1;" d="M 163.453125 88.445312 L 178.695312 88.445312 L 178.695312 83.386719 L 163.453125 83.386719 L 163.453125 88.445312 "/>
<path style=" stroke:none;fill-rule:nonzero;fill:rgb(59.21936%,55.688477%,57.249451%);fill-opacity:1;" d="M 163.453125 94.316406 L 178.695312 94.316406 L 178.695312 89.261719 L 163.453125 89.261719 L 163.453125 94.316406 "/>
<path style=" stroke:none;fill-rule:nonzero;fill:rgb(59.21936%,55.688477%,57.249451%);fill-opacity:1;" d="M 163.453125 100.191406 L 178.695312 100.191406 L 178.695312 95.132812 L 163.453125 95.132812 L 163.453125 100.191406 "/>
<path style=" stroke:none;fill-rule:nonzero;fill:rgb(13.328552%,13.328552%,18.03894%);fill-opacity:1;" d="M 140.542969 164.015625 C 140.542969 148.257812 127.875 135.484375 112.246094 135.484375 C 96.617188 135.484375 83.945312 148.257812 83.945312 164.015625 C 83.945312 179.777344 96.617188 192.550781 112.246094 192.550781 C 127.875 192.550781 140.542969 179.777344 140.542969 164.015625 "/>
<path style=" stroke:none;fill-rule:nonzero;fill:rgb(13.328552%,13.328552%,18.03894%);fill-opacity:1;" d="M 84.035156 117.949219 L 84.035156 166.695312 L 140.453125 166.695312 L 140.453125 117.949219 L 84.035156 117.949219 "/>
<path style=" stroke:none;fill-rule:nonzero;fill:rgb(13.328552%,13.328552%,18.03894%);fill-opacity:1;" d="M 84.035156 117.949219 L 84.035156 166.695312 L 140.453125 166.695312 L 140.453125 117.949219 L 84.035156 117.949219 "/>
<path style=" stroke:none;fill-rule:nonzero;fill:rgb(13.328552%,13.328552%,18.03894%);fill-opacity:1;" d="M 84.984375 117.949219 L 84.035156 119.867188 L 84.035156 123.867188 L 86.960938 117.949219 L 84.984375 117.949219 "/>
<path style=" stroke:none;fill-rule:nonzero;fill:rgb(84.309387%,82.749939%,83.529663%);fill-opacity:1;" d="M 128.214844 159.753906 L 121.21875 145.585938 L 128.214844 131.421875 L 135.210938 145.585938 Z M 120.230469 175.921875 L 113.234375 161.753906 L 120.230469 147.585938 L 127.226562 161.753906 Z M 112.246094 192.089844 L 105.246094 177.921875 L 112.246094 163.753906 L 119.242188 177.921875 Z M 97.261719 161.753906 L 104.257812 147.585938 L 111.257812 161.753906 L 104.257812 175.921875 Z M 89.28125 145.585938 L 96.277344 131.421875 L 103.273438 145.585938 L 96.277344 159.753906 Z M 112.246094 131.421875 L 119.242188 145.585938 L 112.246094 159.753906 L 105.246094 145.585938 Z M 129.203125 129.421875 L 134.867188 117.949219 L 132.890625 117.949219 L 128.214844 127.421875 L 123.539062 117.949219 L 121.5625 117.949219 L 127.226562 129.421875 L 120.230469 143.585938 L 113.234375 129.421875 L 118.898438 117.949219 L 116.925781 117.949219 L 112.246094 127.421875 L 107.566406 117.949219 L 105.589844 117.949219 L 111.257812 129.421875 L 104.257812 143.585938 L 97.261719 129.421875 L 102.929688 117.949219 L 100.953125 117.949219 L 96.277344 127.421875 L 91.597656 117.949219 L 89.625 117.949219 L 95.289062 129.421875 L 88.292969 143.585938 L 84.035156 134.976562 L 84.035156 138.976562 L 87.304688 145.585938 L 84.035156 152.203125 L 84.035156 156.203125 L 88.292969 147.585938 L 95.289062 161.753906 L 88.292969 175.921875 L 84.183594 167.601562 C 85 174.171875 88.027344 180.050781 92.5 184.445312 L 89.28125 177.921875 L 96.277344 163.753906 L 103.273438 177.921875 L 97.972656 188.652344 C 98.484375 188.953125 98.996094 189.242188 99.527344 189.507812 L 104.257812 179.921875 L 110.46875 192.488281 C 111.054688 192.523438 111.648438 192.550781 112.246094 192.550781 C 112.84375 192.550781 113.433594 192.523438 114.023438 192.488281 L 120.230469 179.921875 L 124.964844 189.507812 C 125.496094 189.242188 126.007812 188.953125 126.515625 188.652344 L 121.21875 177.921875 L 128.214844 163.753906 L 135.210938 177.921875 L 131.992188 184.445312 C 136.460938 180.046875 139.492188 174.171875 140.308594 167.601562 L 136.199219 175.921875 L 129.203125 161.753906 L 136.199219 147.585938 L 140.453125 156.203125 L 140.453125 152.203125 L 137.1875 145.585938 L 140.453125 138.976562 L 140.453125 134.976562 L 136.199219 143.585938 L 129.203125 129.421875 "/>
<path style=" stroke:none;fill-rule:nonzero;fill:rgb(13.328552%,13.328552%,18.03894%);fill-opacity:1;" d="M 137.53125 117.949219 L 140.453125 123.867188 L 140.453125 119.867188 L 139.507812 117.949219 L 137.53125 117.949219 "/>
<path style=" stroke:none;fill-rule:nonzero;fill:rgb(32.939148%,33.329773%,36.468506%);fill-opacity:1;" d="M 124.5 178.734375 C 124.5 171.851562 118.96875 166.269531 112.140625 166.269531 C 105.316406 166.269531 99.78125 171.851562 99.78125 178.734375 C 99.78125 185.613281 105.316406 191.195312 112.140625 191.195312 C 118.96875 191.195312 124.5 185.613281 124.5 178.734375 "/>
<path style=" stroke:none;fill-rule:nonzero;fill:rgb(75.289917%,14.898682%,59.609985%);fill-opacity:1;" d="M 147.925781 107.722656 L 76.546875 107.722656 L 76.546875 164.054688 C 76.574219 183.933594 92.585938 200.101562 112.246094 200.101562 L 112.296875 200.101562 C 132 200.078125 148.03125 183.886719 148.03125 164.015625 L 147.941406 115.257812 Z M 140.453125 115.273438 L 140.542969 164.015625 C 140.542969 179.761719 127.847656 192.53125 112.28125 192.550781 L 112.246094 192.550781 C 96.683594 192.550781 84.058594 179.800781 84.035156 164.054688 L 84.039062 164.015625 L 84.035156 115.273438 L 140.453125 115.273438 "/>
<g clip-path="url(#clip2)" clip-rule="nonzero">
<path style=" stroke:none;fill-rule:nonzero;fill:rgb(21.569824%,8.239746%,9.799194%);fill-opacity:1;" d="M 44.425781 188.796875 L 61.691406 188.796875 L 61.691406 215.140625 L 44.425781 215.140625 L 44.425781 188.796875 "/>
</g>
<path style=" stroke:none;fill-rule:nonzero;fill:rgb(21.569824%,8.239746%,9.799194%);fill-opacity:1;" d="M 45.574219 162.453125 L 60.550781 162.453125 L 60.550781 188.796875 L 45.574219 188.796875 L 45.574219 162.453125 "/>
<path style=" stroke:none;fill-rule:nonzero;fill:rgb(21.569824%,8.239746%,9.799194%);fill-opacity:1;" d="M 164.296875 142.324219 L 178.246094 142.324219 L 178.246094 215.140625 L 164.296875 215.140625 L 164.296875 142.324219 "/>
<g clip-path="url(#clip3)" clip-rule="nonzero">
<path style=" stroke:none;fill-rule:nonzero;fill:rgb(21.569824%,8.239746%,9.799194%);fill-opacity:1;" d="M 162.480469 188.796875 L 179.746094 188.796875 L 179.746094 215.140625 L 162.480469 215.140625 L 162.480469 188.796875 "/>
</g>
<path style=" stroke:none;fill-rule:nonzero;fill:rgb(21.569824%,8.239746%,9.799194%);fill-opacity:1;" d="M 163.621094 162.453125 L 178.601562 162.453125 L 178.601562 188.796875 L 163.621094 188.796875 L 163.621094 162.453125 "/>
<path style=" stroke:none;fill-rule:nonzero;fill:rgb(40.388489%,15.689087%,11.759949%);fill-opacity:1;" d="M 69.070312 84.667969 L 69.070312 112.917969 C 69.070312 115.695312 71.304688 117.949219 74.0625 117.949219 L 150.222656 117.949219 C 152.980469 117.949219 155.210938 115.695312 155.210938 112.917969 L 155.210938 84.667969 L 69.070312 84.667969 "/>
<path style=" stroke:none;fill-rule:nonzero;fill:rgb(76.858521%,45.098877%,16.859436%);fill-opacity:1;" d="M 70.59375 84.667969 L 70.59375 105.171875 C 70.59375 107.855469 72.75 110.03125 75.410156 110.03125 L 148.875 110.03125 C 151.535156 110.03125 153.691406 107.855469 153.691406 105.171875 L 153.691406 84.667969 L 70.59375 84.667969 "/>
<path style=" stroke:none;fill-rule:nonzero;fill:rgb(26.669312%,33.329773%,41.958618%);fill-opacity:1;" d="M 158.949219 87.863281 L 65.335938 87.863281 L 65.335938 74.320312 L 158.949219 74.320312 L 158.949219 87.863281 "/>
<path style=" stroke:none;fill-rule:nonzero;fill:rgb(84.309387%,82.749939%,83.529663%);fill-opacity:1;" d="M 104.113281 106.78125 C 104.113281 105.980469 103.472656 105.335938 102.683594 105.335938 C 101.890625 105.335938 101.25 105.980469 101.25 106.78125 C 101.25 107.578125 101.890625 108.226562 102.683594 108.226562 C 103.472656 108.226562 104.113281 107.578125 104.113281 106.78125 "/>
<path style=" stroke:none;fill-rule:nonzero;fill:rgb(74.899292%,16.468811%,20.779419%);fill-opacity:1;" d="M 103.769531 106.578125 C 103.769531 105.972656 103.28125 105.484375 102.683594 105.484375 C 102.082031 105.484375 101.597656 105.972656 101.597656 106.578125 C 101.597656 107.183594 102.082031 107.675781 102.683594 107.675781 C 103.28125 107.675781 103.769531 107.183594 103.769531 106.578125 "/>
<path style=" stroke:none;fill-rule:nonzero;fill:rgb(84.309387%,82.749939%,83.529663%);fill-opacity:1;" d="M 123.242188 106.78125 C 123.242188 107.578125 122.601562 108.226562 121.808594 108.226562 L 106.242188 108.226562 C 105.449219 108.226562 104.808594 107.578125 104.808594 106.78125 C 104.808594 105.980469 105.449219 105.335938 106.242188 105.335938 L 121.808594 105.335938 C 122.601562 105.335938 123.242188 105.980469 123.242188 106.78125 "/>
<path style=" stroke:none;fill-rule:nonzero;fill:rgb(84.309387%,82.749939%,83.529663%);fill-opacity:1;" d="M 104.113281 102.660156 C 104.113281 101.863281 103.472656 101.214844 102.683594 101.214844 C 101.890625 101.214844 101.25 101.863281 101.25 102.660156 C 101.25 103.457031 101.890625 104.105469 102.683594 104.105469 C 103.472656 104.105469 104.113281 103.457031 104.113281 102.660156 "/>
<path style=" stroke:none;fill-rule:nonzero;fill:rgb(74.899292%,16.468811%,20.779419%);fill-opacity:1;" d="M 103.769531 102.457031 C 103.769531 101.851562 103.28125 101.363281 102.683594 101.363281 C 102.082031 101.363281 101.597656 101.851562 101.597656 102.457031 C 101.597656 103.0625 102.082031 103.550781 102.683594 103.550781 C 103.28125 103.550781 103.769531 103.0625 103.769531 102.457031 "/>
<path style=" stroke:none;fill-rule:nonzero;fill:rgb(84.309387%,82.749939%,83.529663%);fill-opacity:1;" d="M 123.242188 102.660156 C 123.242188 103.457031 122.601562 104.105469 121.808594 104.105469 L 106.242188 104.105469 C 105.449219 104.105469 104.808594 103.457031 104.808594 102.660156 C 104.808594 101.863281 105.449219 101.214844 106.242188 101.214844 L 121.808594 101.214844 C 122.601562 101.214844 123.242188 101.863281 123.242188 102.660156 "/>
<path style=" stroke:none;fill-rule:nonzero;fill:rgb(84.309387%,82.749939%,83.529663%);fill-opacity:1;" d="M 104.113281 98.539062 C 104.113281 97.742188 103.472656 97.089844 102.683594 97.089844 C 101.890625 97.089844 101.25 97.742188 101.25 98.539062 C 101.25 99.335938 101.890625 99.984375 102.683594 99.984375 C 103.472656 99.984375 104.113281 99.335938 104.113281 98.539062 "/>
<path style=" stroke:none;fill-rule:nonzero;fill:rgb(74.899292%,16.468811%,20.779419%);fill-opacity:1;" d="M 103.769531 98.335938 C 103.769531 97.730469 103.28125 97.238281 102.683594 97.238281 C 102.082031 97.238281 101.597656 97.730469 101.597656 98.335938 C 101.597656 98.941406 102.082031 99.429688 102.683594 99.429688 C 103.28125 99.429688 103.769531 98.941406 103.769531 98.335938 "/>
<path style=" stroke:none;fill-rule:nonzero;fill:rgb(84.309387%,82.749939%,83.529663%);fill-opacity:1;" d="M 123.242188 98.539062 C 123.242188 99.335938 122.601562 99.984375 121.808594 99.984375 L 106.242188 99.984375 C 105.449219 99.984375 104.808594 99.335938 104.808594 98.539062 C 104.808594 97.742188 105.449219 97.089844 106.242188 97.089844 L 121.808594 97.089844 C 122.601562 97.089844 123.242188 97.742188 123.242188 98.539062 "/>
<path style=" stroke:none;fill-rule:nonzero;fill:rgb(84.309387%,82.749939%,83.529663%);fill-opacity:1;" d="M 104.113281 94.417969 C 104.113281 93.617188 103.472656 92.972656 102.683594 92.972656 C 101.890625 92.972656 101.25 93.617188 101.25 94.417969 C 101.25 95.214844 101.890625 95.863281 102.683594 95.863281 C 103.472656 95.863281 104.113281 95.214844 104.113281 94.417969 "/>
<path style=" stroke:none;fill-rule:nonzero;fill:rgb(74.899292%,16.468811%,20.779419%);fill-opacity:1;" d="M 103.769531 94.214844 C 103.769531 93.609375 103.28125 93.117188 102.683594 93.117188 C 102.082031 93.117188 101.597656 93.609375 101.597656 94.214844 C 101.597656 94.820312 102.082031 95.3125 102.683594 95.3125 C 103.28125 95.3125 103.769531 94.820312 103.769531 94.214844 "/>
<path style=" stroke:none;fill-rule:nonzero;fill:rgb(84.309387%,82.749939%,83.529663%);fill-opacity:1;" d="M 123.242188 94.417969 C 123.242188 95.214844 122.601562 95.863281 121.808594 95.863281 L 106.242188 95.863281 C 105.449219 95.863281 104.808594 95.214844 104.808594 94.417969 C 104.808594 93.617188 105.449219 92.972656 106.242188 92.972656 L 121.808594 92.972656 C 122.601562 92.972656 123.242188 93.617188 123.242188 94.417969 "/>
<path style=" stroke:none;fill-rule:nonzero;fill:rgb(84.309387%,82.749939%,83.529663%);fill-opacity:1;" d="M 104.113281 90.296875 C 104.113281 89.496094 103.472656 88.851562 102.683594 88.851562 C 101.890625 88.851562 101.25 89.496094 101.25 90.296875 C 101.25 91.09375 101.890625 91.742188 102.683594 91.742188 C 103.472656 91.742188 104.113281 91.09375 104.113281 90.296875 "/>
<path style=" stroke:none;fill-rule:nonzero;fill:rgb(74.899292%,16.468811%,20.779419%);fill-opacity:1;" d="M 103.769531 90.09375 C 103.769531 89.488281 103.28125 89 102.683594 89 C 102.082031 89 101.597656 89.488281 101.597656 90.09375 C 101.597656 90.699219 102.082031 91.1875 102.683594 91.1875 C 103.28125 91.1875 103.769531 90.699219 103.769531 90.09375 "/>
<path style=" stroke:none;fill-rule:nonzero;fill:rgb(84.309387%,82.749939%,83.529663%);fill-opacity:1;" d="M 123.242188 90.296875 C 123.242188 91.09375 122.601562 91.742188 121.808594 91.742188 L 106.242188 91.742188 C 105.449219 91.742188 104.808594 91.09375 104.808594 90.296875 C 104.808594 89.496094 105.449219 88.851562 106.242188 88.851562 L 121.808594 88.851562 C 122.601562 88.851562 123.242188 89.496094 123.242188 90.296875 "/>
<path style=" stroke:none;fill-rule:nonzero;fill:rgb(84.309387%,82.749939%,83.529663%);fill-opacity:1;" d="M 126.914062 106.78125 C 126.914062 105.980469 126.273438 105.335938 125.480469 105.335938 C 124.6875 105.335938 124.042969 105.980469 124.042969 106.78125 C 124.042969 107.578125 124.6875 108.226562 125.480469 108.226562 C 126.273438 108.226562 126.914062 107.578125 126.914062 106.78125 "/>
<path style=" stroke:none;fill-rule:nonzero;fill:rgb(84.309387%,82.749939%,83.529663%);fill-opacity:1;" d="M 81.316406 106.78125 C 81.316406 105.980469 80.675781 105.335938 79.882812 105.335938 C 79.09375 105.335938 78.449219 105.980469 78.449219 106.78125 C 78.449219 107.578125 79.09375 108.226562 79.882812 108.226562 C 80.675781 108.226562 81.316406 107.578125 81.316406 106.78125 "/>
<path style=" stroke:none;fill-rule:nonzero;fill:rgb(74.899292%,16.468811%,20.779419%);fill-opacity:1;" d="M 80.96875 106.578125 C 80.96875 105.972656 80.484375 105.484375 79.882812 105.484375 C 79.285156 105.484375 78.796875 105.972656 78.796875 106.578125 C 78.796875 107.183594 79.285156 107.675781 79.882812 107.675781 C 80.484375 107.675781 80.96875 107.183594 80.96875 106.578125 "/>
<path style=" stroke:none;fill-rule:nonzero;fill:rgb(84.309387%,82.749939%,83.529663%);fill-opacity:1;" d="M 100.445312 106.78125 C 100.445312 107.578125 99.804688 108.226562 99.011719 108.226562 L 83.441406 108.226562 C 82.652344 108.226562 82.007812 107.578125 82.007812 106.78125 C 82.007812 105.980469 82.652344 105.335938 83.441406 105.335938 L 99.011719 105.335938 C 99.804688 105.335938 100.445312 105.980469 100.445312 106.78125 "/>
<path style=" stroke:none;fill-rule:nonzero;fill:rgb(84.309387%,82.749939%,83.529663%);fill-opacity:1;" d="M 81.316406 102.660156 C 81.316406 101.863281 80.675781 101.214844 79.882812 101.214844 C 79.09375 101.214844 78.449219 101.863281 78.449219 102.660156 C 78.449219 103.457031 79.09375 104.105469 79.882812 104.105469 C 80.675781 104.105469 81.316406 103.457031 81.316406 102.660156 "/>
<path style=" stroke:none;fill-rule:nonzero;fill:rgb(74.899292%,16.468811%,20.779419%);fill-opacity:1;" d="M 80.96875 102.457031 C 80.96875 101.851562 80.484375 101.363281 79.882812 101.363281 C 79.285156 101.363281 78.796875 101.851562 78.796875 102.457031 C 78.796875 103.0625 79.285156 103.550781 79.882812 103.550781 C 80.484375 103.550781 80.96875 103.0625 80.96875 102.457031 "/>
<path style=" stroke:none;fill-rule:nonzero;fill:rgb(84.309387%,82.749939%,83.529663%);fill-opacity:1;" d="M 100.445312 102.660156 C 100.445312 103.457031 99.804688 104.105469 99.011719 104.105469 L 83.441406 104.105469 C 82.652344 104.105469 82.007812 103.457031 82.007812 102.660156 C 82.007812 101.863281 82.652344 101.214844 83.441406 101.214844 L 99.011719 101.214844 C 99.804688 101.214844 100.445312 101.863281 100.445312 102.660156 "/>
<path style=" stroke:none;fill-rule:nonzero;fill:rgb(84.309387%,82.749939%,83.529663%);fill-opacity:1;" d="M 81.316406 98.539062 C 81.316406 97.742188 80.675781 97.089844 79.882812 97.089844 C 79.09375 97.089844 78.449219 97.742188 78.449219 98.539062 C 78.449219 99.335938 79.09375 99.984375 79.882812 99.984375 C 80.675781 99.984375 81.316406 99.335938 81.316406 98.539062 "/>
<path style=" stroke:none;fill-rule:nonzero;fill:rgb(74.899292%,16.468811%,20.779419%);fill-opacity:1;" d="M 80.96875 98.335938 C 80.96875 97.730469 80.484375 97.238281 79.882812 97.238281 C 79.285156 97.238281 78.796875 97.730469 78.796875 98.335938 C 78.796875 98.941406 79.285156 99.429688 79.882812 99.429688 C 80.484375 99.429688 80.96875 98.941406 80.96875 98.335938 "/>
<path style=" stroke:none;fill-rule:nonzero;fill:rgb(84.309387%,82.749939%,83.529663%);fill-opacity:1;" d="M 100.445312 98.539062 C 100.445312 99.335938 99.804688 99.984375 99.011719 99.984375 L 83.441406 99.984375 C 82.652344 99.984375 82.007812 99.335938 82.007812 98.539062 C 82.007812 97.742188 82.652344 97.089844 83.441406 97.089844 L 99.011719 97.089844 C 99.804688 97.089844 100.445312 97.742188 100.445312 98.539062 "/>
<path style=" stroke:none;fill-rule:nonzero;fill:rgb(84.309387%,82.749939%,83.529663%);fill-opacity:1;" d="M 81.316406 94.417969 C 81.316406 93.617188 80.675781 92.972656 79.882812 92.972656 C 79.09375 92.972656 78.449219 93.617188 78.449219 94.417969 C 78.449219 95.214844 79.09375 95.863281 79.882812 95.863281 C 80.675781 95.863281 81.316406 95.214844 81.316406 94.417969 "/>
<path style=" stroke:none;fill-rule:nonzero;fill:rgb(74.899292%,16.468811%,20.779419%);fill-opacity:1;" d="M 80.96875 94.214844 C 80.96875 93.609375 80.484375 93.117188 79.882812 93.117188 C 79.285156 93.117188 78.796875 93.609375 78.796875 94.214844 C 78.796875 94.820312 79.285156 95.3125 79.882812 95.3125 C 80.484375 95.3125 80.96875 94.820312 80.96875 94.214844 "/>
<path style=" stroke:none;fill-rule:nonzero;fill:rgb(84.309387%,82.749939%,83.529663%);fill-opacity:1;" d="M 100.445312 94.417969 C 100.445312 95.214844 99.804688 95.863281 99.011719 95.863281 L 83.441406 95.863281 C 82.652344 95.863281 82.007812 95.214844 82.007812 94.417969 C 82.007812 93.617188 82.652344 92.972656 83.441406 92.972656 L 99.011719 92.972656 C 99.804688 92.972656 100.445312 93.617188 100.445312 94.417969 "/>
<path style=" stroke:none;fill-rule:nonzero;fill:rgb(84.309387%,82.749939%,83.529663%);fill-opacity:1;" d="M 81.316406 90.296875 C 81.316406 89.496094 80.675781 88.851562 79.882812 88.851562 C 79.09375 88.851562 78.449219 89.496094 78.449219 90.296875 C 78.449219 91.09375 79.09375 91.742188 79.882812 91.742188 C 80.675781 91.742188 81.316406 91.09375 81.316406 90.296875 "/>
<path style=" stroke:none;fill-rule:nonzero;fill:rgb(74.899292%,16.468811%,20.779419%);fill-opacity:1;" d="M 80.96875 90.09375 C 80.96875 89.488281 80.484375 89 79.882812 89 C 79.285156 89 78.796875 89.488281 78.796875 90.09375 C 78.796875 90.699219 79.285156 91.1875 79.882812 91.1875 C 80.484375 91.1875 80.96875 90.699219 80.96875 90.09375 "/>
<path style=" stroke:none;fill-rule:nonzero;fill:rgb(84.309387%,82.749939%,83.529663%);fill-opacity:1;" d="M 100.445312 90.296875 C 100.445312 91.09375 99.804688 91.742188 99.011719 91.742188 L 83.441406 91.742188 C 82.652344 91.742188 82.007812 91.09375 82.007812 90.296875 C 82.007812 89.496094 82.652344 88.851562 83.441406 88.851562 L 99.011719 88.851562 C 99.804688 88.851562 100.445312 89.496094 100.445312 90.296875 "/>
<path style=" stroke:none;fill-rule:nonzero;fill:rgb(74.899292%,16.468811%,20.779419%);fill-opacity:1;" d="M 126.566406 106.578125 C 126.566406 105.972656 126.082031 105.484375 125.480469 105.484375 C 124.878906 105.484375 124.390625 105.972656 124.390625 106.578125 C 124.390625 107.183594 124.878906 107.675781 125.480469 107.675781 C 126.082031 107.675781 126.566406 107.183594 126.566406 106.578125 "/>
<path style=" stroke:none;fill-rule:nonzero;fill:rgb(84.309387%,82.749939%,83.529663%);fill-opacity:1;" d="M 146.042969 106.78125 C 146.042969 107.578125 145.398438 108.226562 144.605469 108.226562 L 129.039062 108.226562 C 128.246094 108.226562 127.605469 107.578125 127.605469 106.78125 C 127.605469 105.980469 128.246094 105.335938 129.039062 105.335938 L 144.605469 105.335938 C 145.398438 105.335938 146.042969 105.980469 146.042969 106.78125 "/>
<path style=" stroke:none;fill-rule:nonzero;fill:rgb(84.309387%,82.749939%,83.529663%);fill-opacity:1;" d="M 126.914062 102.660156 C 126.914062 101.863281 126.273438 101.214844 125.480469 101.214844 C 124.6875 101.214844 124.042969 101.863281 124.042969 102.660156 C 124.042969 103.457031 124.6875 104.105469 125.480469 104.105469 C 126.273438 104.105469 126.914062 103.457031 126.914062 102.660156 "/>
<path style=" stroke:none;fill-rule:nonzero;fill:rgb(74.899292%,16.468811%,20.779419%);fill-opacity:1;" d="M 126.566406 102.457031 C 126.566406 101.851562 126.082031 101.363281 125.480469 101.363281 C 124.878906 101.363281 124.390625 101.851562 124.390625 102.457031 C 124.390625 103.0625 124.878906 103.550781 125.480469 103.550781 C 126.082031 103.550781 126.566406 103.0625 126.566406 102.457031 "/>
<path style=" stroke:none;fill-rule:nonzero;fill:rgb(84.309387%,82.749939%,83.529663%);fill-opacity:1;" d="M 146.042969 102.660156 C 146.042969 103.457031 145.398438 104.105469 144.605469 104.105469 L 129.039062 104.105469 C 128.246094 104.105469 127.605469 103.457031 127.605469 102.660156 C 127.605469 101.863281 128.246094 101.214844 129.039062 101.214844 L 144.605469 101.214844 C 145.398438 101.214844 146.042969 101.863281 146.042969 102.660156 "/>
<path style=" stroke:none;fill-rule:nonzero;fill:rgb(84.309387%,82.749939%,83.529663%);fill-opacity:1;" d="M 126.914062 98.539062 C 126.914062 97.742188 126.273438 97.089844 125.480469 97.089844 C 124.6875 97.089844 124.042969 97.742188 124.042969 98.539062 C 124.042969 99.335938 124.6875 99.984375 125.480469 99.984375 C 126.273438 99.984375 126.914062 99.335938 126.914062 98.539062 "/>
<path style=" stroke:none;fill-rule:nonzero;fill:rgb(74.899292%,16.468811%,20.779419%);fill-opacity:1;" d="M 126.566406 98.335938 C 126.566406 97.730469 126.082031 97.238281 125.480469 97.238281 C 124.878906 97.238281 124.390625 97.730469 124.390625 98.335938 C 124.390625 98.941406 124.878906 99.429688 125.480469 99.429688 C 126.082031 99.429688 126.566406 98.941406 126.566406 98.335938 "/>
<path style=" stroke:none;fill-rule:nonzero;fill:rgb(84.309387%,82.749939%,83.529663%);fill-opacity:1;" d="M 146.042969 98.539062 C 146.042969 99.335938 145.398438 99.984375 144.605469 99.984375 L 129.039062 99.984375 C 128.246094 99.984375 127.605469 99.335938 127.605469 98.539062 C 127.605469 97.742188 128.246094 97.089844 129.039062 97.089844 L 144.605469 97.089844 C 145.398438 97.089844 146.042969 97.742188 146.042969 98.539062 "/>
<path style=" stroke:none;fill-rule:nonzero;fill:rgb(84.309387%,82.749939%,83.529663%);fill-opacity:1;" d="M 126.914062 94.417969 C 126.914062 93.617188 126.273438 92.972656 125.480469 92.972656 C 124.6875 92.972656 124.042969 93.617188 124.042969 94.417969 C 124.042969 95.214844 124.6875 95.863281 125.480469 95.863281 C 126.273438 95.863281 126.914062 95.214844 126.914062 94.417969 "/>
<path style=" stroke:none;fill-rule:nonzero;fill:rgb(74.899292%,16.468811%,20.779419%);fill-opacity:1;" d="M 126.566406 94.214844 C 126.566406 93.609375 126.082031 93.117188 125.480469 93.117188 C 124.878906 93.117188 124.390625 93.609375 124.390625 94.214844 C 124.390625 94.820312 124.878906 95.3125 125.480469 95.3125 C 126.082031 95.3125 126.566406 94.820312 126.566406 94.214844 "/>
<path style=" stroke:none;fill-rule:nonzero;fill:rgb(84.309387%,82.749939%,83.529663%);fill-opacity:1;" d="M 146.042969 94.417969 C 146.042969 95.214844 145.398438 95.863281 144.605469 95.863281 L 129.039062 95.863281 C 128.246094 95.863281 127.605469 95.214844 127.605469 94.417969 C 127.605469 93.617188 128.246094 92.972656 129.039062 92.972656 L 144.605469 92.972656 C 145.398438 92.972656 146.042969 93.617188 146.042969 94.417969 "/>
<path style=" stroke:none;fill-rule:nonzero;fill:rgb(84.309387%,82.749939%,83.529663%);fill-opacity:1;" d="M 126.914062 90.296875 C 126.914062 89.496094 126.273438 88.851562 125.480469 88.851562 C 124.6875 88.851562 124.042969 89.496094 124.042969 90.296875 C 124.042969 91.09375 124.6875 91.742188 125.480469 91.742188 C 126.273438 91.742188 126.914062 91.09375 126.914062 90.296875 "/>
<path style=" stroke:none;fill-rule:nonzero;fill:rgb(74.899292%,16.468811%,20.779419%);fill-opacity:1;" d="M 126.566406 90.09375 C 126.566406 89.488281 126.082031 89 125.480469 89 C 124.878906 89 124.390625 89.488281 124.390625 90.09375 C 124.390625 90.699219 124.878906 91.1875 125.480469 91.1875 C 126.082031 91.1875 126.566406 90.699219 126.566406 90.09375 "/>
<path style=" stroke:none;fill-rule:nonzero;fill:rgb(84.309387%,82.749939%,83.529663%);fill-opacity:1;" d="M 146.042969 90.296875 C 146.042969 91.09375 145.398438 91.742188 144.605469 91.742188 L 129.039062 91.742188 C 128.246094 91.742188 127.605469 91.09375 127.605469 90.296875 C 127.605469 89.496094 128.246094 88.851562 129.039062 88.851562 L 144.605469 88.851562 C 145.398438 88.851562 146.042969 89.496094 146.042969 90.296875 "/>
<path style=" stroke:none;fill-rule:nonzero;fill:rgb(69.40918%,66.668701%,67.83905%);fill-opacity:1;" d="M 113.042969 200.621094 C 113.042969 201.042969 112.707031 201.382812 112.289062 201.382812 C 111.871094 201.382812 111.535156 201.042969 111.535156 200.621094 L 111.535156 192.652344 C 111.535156 192.230469 111.871094 191.890625 112.289062 191.890625 C 112.707031 191.890625 113.042969 192.230469 113.042969 192.652344 L 113.042969 200.621094 "/>
<path style=" stroke:none;fill-rule:nonzero;fill:rgb(69.40918%,66.668701%,67.83905%);fill-opacity:1;" d="M 148.300781 166.695312 C 148.71875 166.695312 149.054688 167.039062 149.054688 167.457031 C 149.054688 167.875 148.71875 168.214844 148.300781 168.214844 L 140.394531 168.214844 C 139.980469 168.214844 139.640625 167.875 139.640625 167.457031 C 139.640625 167.039062 139.980469 166.695312 140.394531 166.695312 L 148.300781 166.695312 "/>
<path style=" stroke:none;fill-rule:nonzero;fill:rgb(69.40918%,66.668701%,67.83905%);fill-opacity:1;" d="M 84.339844 166.695312 C 84.753906 166.695312 85.09375 167.039062 85.09375 167.457031 C 85.09375 167.875 84.753906 168.214844 84.339844 168.214844 L 76.433594 168.214844 C 76.015625 168.214844 75.675781 167.875 75.675781 167.457031 C 75.675781 167.039062 76.015625 166.695312 76.433594 166.695312 L 84.339844 166.695312 "/>
<g clip-path="url(#clip4)" clip-rule="nonzero">
<path style=" stroke:none;fill-rule:nonzero;fill:rgb(21.569824%,8.239746%,9.799194%);fill-opacity:1;" d="M 61.691406 215.144531 C 61.691406 214.0625 57.828125 213.1875 53.058594 213.1875 C 48.292969 213.1875 44.425781 214.0625 44.425781 215.144531 C 44.425781 216.222656 48.292969 217.097656 53.058594 217.097656 C 57.828125 217.097656 61.691406 216.222656 61.691406 215.144531 "/>
</g>
<g clip-path="url(#clip5)" clip-rule="nonzero">
<path style=" stroke:none;fill-rule:nonzero;fill:rgb(21.569824%,8.239746%,9.799194%);fill-opacity:1;" d="M 179.746094 215.203125 C 179.746094 214.125 175.878906 213.25 171.113281 213.25 C 166.347656 213.25 162.480469 214.125 162.480469 215.203125 C 162.480469 216.285156 166.347656 217.160156 171.113281 217.160156 C 175.878906 217.160156 179.746094 216.285156 179.746094 215.203125 "/>
</g>
<path style=" stroke:none;fill-rule:nonzero;fill:rgb(21.569824%,8.239746%,9.799194%);fill-opacity:1;" d="M 55.136719 208.816406 L 55.148438 208.96875 L 55.167969 209.148438 C 55.183594 209.242188 55.144531 209.351562 55.1875 209.1875 C 55.328125 209.105469 55.472656 209.023438 55.613281 208.945312 C 55.480469 208.921875 55.375 208.929688 55.277344 209.035156 C 55.074219 209.253906 55.210938 209.632812 55.519531 209.632812 C 55.804688 209.632812 56.007812 209.238281 55.769531 209.035156 L 55.753906 209 L 55.652344 208.832031 C 55.613281 208.769531 55.574219 208.707031 55.535156 208.644531 C 55.410156 208.40625 55.105469 208.582031 55.136719 208.816406 "/>
</g>
</svg>
