<?xml version="1.0" encoding="UTF-8"?>
<svg xmlns="http://www.w3.org/2000/svg" xmlns:xlink="http://www.w3.org/1999/xlink" width="224.87999pt" height="225pt" viewBox="0 0 224.87999 225" version="1.2">
<defs>
<clipPath id="clip1">
  <path d="M 94 16.652344 L 180.292969 16.652344 L 180.292969 107 L 94 107 Z M 94 16.652344 "/>
</clipPath>
<clipPath id="clip2">
  <path d="M 116 109 L 180.292969 109 L 180.292969 198 L 116 198 Z M 116 109 "/>
</clipPath>
</defs>
<g id="surface1">
<path style=" stroke:none;fill-rule:nonzero;fill:rgb(6.269836%,59.609985%,67.83905%);fill-opacity:1;" d="M 65.160156 104.175781 C 56.808594 104.175781 50.011719 97.371094 50.011719 89.015625 L 50.011719 36.132812 C 50.011719 27.777344 56.808594 20.976562 65.160156 20.976562 L 67.253906 20.976562 C 75.597656 20.976562 82.394531 27.777344 82.394531 36.132812 L 78.910156 72.382812 C 78.933594 74.808594 81.046875 77.128906 83.796875 77.511719 L 92.394531 74.09375 L 93.296875 74.09375 C 101.648438 74.09375 108.441406 80.839844 108.441406 89.136719 C 108.441406 97.429688 101.648438 104.175781 93.296875 104.175781 L 65.160156 104.175781 "/>
<path style=" stroke:none;fill-rule:nonzero;fill:rgb(6.269836%,59.609985%,67.83905%);fill-opacity:1;" d="M 65.160156 23.355469 C 58.117188 23.355469 52.390625 29.089844 52.390625 36.132812 L 52.390625 89.015625 C 52.390625 96.0625 58.117188 101.796875 65.160156 101.796875 L 93.296875 101.796875 C 100.335938 101.796875 106.0625 96.117188 106.0625 89.136719 C 106.0625 82.152344 100.335938 76.46875 93.296875 76.46875 L 92.847656 76.46875 L 84.09375 79.957031 L 83.476562 79.863281 C 79.621094 79.34375 76.570312 76.0625 76.53125 72.402344 L 80.027344 35.902344 C 80.019531 29.089844 74.289062 23.355469 67.253906 23.355469 Z M 93.296875 106.554688 L 65.160156 106.554688 C 55.496094 106.554688 47.636719 98.683594 47.636719 89.015625 L 47.636719 36.132812 C 47.636719 26.46875 55.496094 18.597656 65.160156 18.597656 L 67.253906 18.597656 C 76.914062 18.597656 84.769531 26.46875 84.769531 36.132812 L 81.277344 72.605469 C 81.292969 73.421875 82.199219 74.621094 83.582031 75.039062 L 92.394531 71.714844 L 93.296875 71.714844 C 102.957031 71.714844 110.816406 79.53125 110.816406 89.136719 C 110.816406 98.738281 102.957031 106.554688 93.296875 106.554688 "/>
<path style=" stroke:none;fill-rule:nonzero;fill:rgb(6.269836%,59.609985%,67.83905%);fill-opacity:1;" d="M 136.949219 104.5 C 113.628906 104.5 97.339844 87.160156 97.339844 62.324219 C 97.339844 36.914062 114.070312 19.164062 138.019531 19.164062 C 161.511719 19.164062 177.925781 36.429688 177.925781 61.15625 C 177.925781 87.082031 161.496094 104.5 137.054688 104.5 L 136.949219 104.5 "/>
<g clip-path="url(#clip1)" clip-rule="nonzero">
<path style=" stroke:none;fill-rule:nonzero;fill:rgb(6.269836%,59.609985%,67.83905%);fill-opacity:1;" d="M 138.019531 21.542969 C 115.46875 21.542969 99.71875 38.316406 99.71875 62.324219 C 99.71875 85.753906 115.027344 102.121094 136.949219 102.121094 L 137.054688 102.121094 C 160.078125 102.121094 175.550781 85.664062 175.550781 61.15625 C 175.550781 37.835938 160.113281 21.542969 138.019531 21.542969 Z M 137.054688 106.878906 L 136.949219 106.878906 C 112.226562 106.878906 94.964844 88.5625 94.964844 62.324219 C 94.964844 35.511719 112.667969 16.785156 138.019531 16.785156 C 162.914062 16.785156 180.304688 35.027344 180.304688 61.15625 C 180.304688 88.507812 162.921875 106.878906 137.054688 106.878906 "/>
</g>
<path style=" stroke:none;fill-rule:nonzero;fill:rgb(100%,61.569214%,90.19928%);fill-opacity:1;" d="M 138.019531 23.921875 C 116.863281 23.921875 102.09375 39.714844 102.09375 62.324219 C 102.09375 84.359375 116.429688 99.742188 136.949219 99.742188 L 137.054688 99.742188 C 158.996094 99.742188 173.171875 84.59375 173.171875 61.15625 C 173.171875 39.230469 158.71875 23.921875 138.019531 23.921875 "/>
<path style=" stroke:none;fill-rule:nonzero;fill:rgb(6.269836%,59.609985%,67.83905%);fill-opacity:1;" d="M 83.769531 195.539062 C 75.996094 195.539062 68.050781 189.738281 65.683594 182.332031 L 48.433594 128.457031 C 47.128906 124.390625 47.675781 120.28125 49.921875 117.195312 C 52.171875 114.109375 55.90625 112.34375 60.179688 112.34375 L 64.234375 112.34375 C 72.0625 112.34375 79.898438 118.242188 82.0625 125.78125 L 85.652344 138.273438 L 89.402344 125.707031 C 91.640625 118.207031 99.515625 112.34375 107.324219 112.34375 L 110.941406 112.34375 C 115.226562 112.34375 118.953125 114.117188 121.179688 117.210938 C 123.398438 120.308594 123.882812 124.40625 122.519531 128.476562 L 104.363281 182.453125 C 101.898438 189.785156 93.898438 195.539062 86.15625 195.539062 L 83.769531 195.539062 "/>
<path style=" stroke:none;fill-rule:nonzero;fill:rgb(6.269836%,59.609985%,67.83905%);fill-opacity:1;" d="M 60.179688 114.722656 C 56.679688 114.722656 53.636719 116.136719 51.835938 118.597656 C 50.042969 121.0625 49.628906 124.398438 50.699219 127.734375 L 67.949219 181.609375 C 69.984375 187.972656 77.082031 193.160156 83.769531 193.160156 L 86.15625 193.160156 C 92.824219 193.160156 99.984375 188.019531 102.109375 181.691406 L 120.269531 127.714844 C 121.386719 124.390625 121.015625 121.0625 119.246094 118.597656 C 117.480469 116.136719 114.449219 114.722656 110.941406 114.722656 L 107.324219 114.722656 C 100.617188 114.722656 93.601562 119.957031 91.683594 126.386719 L 85.613281 146.730469 L 79.777344 126.441406 C 77.921875 119.972656 70.953125 114.722656 64.234375 114.722656 Z M 86.15625 197.917969 L 83.769531 197.917969 C 75.023438 197.917969 66.082031 191.394531 63.417969 183.058594 L 46.171875 129.183594 C 44.632812 124.378906 45.300781 119.5 47.996094 115.792969 C 50.703125 112.082031 55.144531 109.964844 60.179688 109.964844 L 64.234375 109.964844 C 73.074219 109.964844 81.902344 116.617188 84.34375 125.125 L 85.695312 129.824219 L 87.125 125.019531 C 89.652344 116.582031 98.519531 109.964844 107.324219 109.964844 L 110.941406 109.964844 C 115.996094 109.964844 120.429688 112.101562 123.109375 115.820312 C 125.777344 119.546875 126.382812 124.433594 124.769531 129.230469 L 106.613281 183.207031 C 103.839844 191.460938 94.855469 197.917969 86.15625 197.917969 "/>
<path style=" stroke:none;fill-rule:nonzero;fill:rgb(6.269836%,59.609985%,67.83905%);fill-opacity:1;" d="M 133.761719 195.539062 C 125.414062 195.539062 118.625 188.746094 118.625 180.382812 L 118.625 127.5 C 118.625 119.136719 125.414062 112.34375 133.761719 112.34375 L 161.417969 112.34375 C 169.765625 112.34375 176.558594 119.023438 176.558594 127.242188 C 176.558594 133.039062 173.171875 138.085938 168.234375 140.539062 C 172.367188 143.199219 175.101562 147.777344 175.101562 152.976562 C 175.101562 158.785156 171.683594 163.828125 166.707031 166.261719 C 173.160156 167.964844 177.925781 173.773438 177.925781 180.648438 C 177.925781 188.867188 171.128906 195.539062 162.777344 195.539062 L 133.761719 195.539062 "/>
<g clip-path="url(#clip2)" clip-rule="nonzero">
<path style=" stroke:none;fill-rule:nonzero;fill:rgb(6.269836%,59.609985%,67.83905%);fill-opacity:1;" d="M 133.761719 114.722656 C 126.726562 114.722656 121.003906 120.457031 121.003906 127.5 L 121.003906 180.382812 C 121.003906 187.425781 126.726562 193.160156 133.761719 193.160156 L 162.777344 193.160156 C 169.820312 193.160156 175.550781 187.546875 175.550781 180.648438 C 175.550781 175 171.664062 170.027344 166.097656 168.558594 L 159.921875 166.933594 L 165.660156 164.125 C 170.019531 161.988281 172.726562 157.722656 172.726562 152.976562 C 172.726562 148.761719 170.570312 144.863281 166.957031 142.546875 L 163.429688 140.28125 L 167.179688 138.410156 C 171.5 136.257812 174.183594 131.980469 174.183594 127.242188 C 174.183594 120.335938 168.457031 114.722656 161.417969 114.722656 Z M 162.777344 197.917969 L 133.761719 197.917969 C 124.105469 197.917969 116.25 190.054688 116.25 180.382812 L 116.25 127.5 C 116.25 117.824219 124.105469 109.964844 133.761719 109.964844 L 161.417969 109.964844 C 171.078125 109.964844 178.9375 117.714844 178.9375 127.242188 C 178.9375 132.59375 176.46875 137.53125 172.324219 140.761719 C 175.597656 143.96875 177.480469 148.328125 177.480469 152.976562 C 177.480469 157.957031 175.339844 162.554688 171.691406 165.769531 C 176.921875 168.828125 180.304688 174.441406 180.304688 180.648438 C 180.304688 190.175781 172.445312 197.917969 162.777344 197.917969 "/>
</g>
<path style=" stroke:none;fill-rule:nonzero;fill:rgb(100%,61.569214%,90.19928%);fill-opacity:1;" d="M 146.25 166.78125 C 146.25 164.730469 150.898438 163.058594 156.636719 163.058594 L 159.960938 163.058594 C 165.699219 163.058594 170.347656 158.542969 170.347656 152.976562 C 170.347656 147.398438 165.699219 142.882812 159.960938 142.882812 L 156.636719 142.882812 C 150.898438 142.882812 146.25 141.648438 146.25 140.132812 C 146.25 138.605469 150.898438 137.378906 156.636719 137.378906 L 161.417969 137.378906 C 167.15625 137.378906 171.808594 132.84375 171.808594 127.242188 C 171.808594 121.648438 167.15625 117.101562 161.417969 117.101562 L 133.761719 117.101562 C 128.03125 117.101562 123.378906 121.757812 123.378906 127.5 L 123.378906 180.382812 C 123.378906 186.132812 128.03125 190.777344 133.761719 190.777344 L 162.777344 190.777344 C 168.519531 190.777344 173.171875 186.246094 173.171875 180.648438 C 173.171875 175.054688 168.519531 170.511719 162.777344 170.511719 L 156.636719 170.511719 C 150.898438 170.511719 146.25 168.847656 146.25 166.78125 "/>
<path style=" stroke:none;fill-rule:nonzero;fill:rgb(100%,61.569214%,90.19928%);fill-opacity:1;" d="M 74.179688 71.917969 L 77.644531 36.132812 C 77.644531 30.390625 72.992188 25.734375 67.253906 25.734375 L 65.160156 25.734375 C 59.417969 25.734375 54.765625 30.390625 54.765625 36.132812 L 54.765625 89.015625 C 54.765625 94.761719 59.417969 99.414062 65.160156 99.414062 L 93.296875 99.414062 C 99.035156 99.414062 103.6875 94.816406 103.6875 89.136719 C 103.6875 83.460938 99.035156 78.847656 93.296875 78.847656 L 84.566406 82.316406 C 78.828125 82.316406 74.179688 77.660156 74.179688 71.917969 "/>
<path style=" stroke:none;fill-rule:nonzero;fill:rgb(100%,61.569214%,90.19928%);fill-opacity:1;" d="M 93.957031 127.066406 L 87.710938 148.011719 C 87.339844 149.257812 86.976562 150.5 86.621094 151.726562 C 86.035156 153.792969 85.113281 153.746094 84.519531 151.617188 C 84.167969 150.351562 83.804688 149.070312 83.4375 147.769531 L 77.492188 127.09375 C 75.90625 121.570312 69.972656 117.101562 64.234375 117.101562 L 60.179688 117.101562 C 54.441406 117.101562 51.210938 121.535156 52.960938 127 L 70.207031 180.882812 C 71.960938 186.347656 78.03125 190.777344 83.769531 190.777344 L 86.15625 190.777344 C 91.890625 190.777344 98.03125 186.375 99.859375 180.929688 L 118.015625 126.953125 C 119.84375 121.515625 116.679688 117.101562 110.941406 117.101562 L 107.324219 117.101562 C 101.585938 117.101562 95.601562 121.5625 93.957031 127.066406 "/>
<path style=" stroke:none;fill-rule:nonzero;fill:rgb(100%,100%,100%);fill-opacity:1;" d="M 153.046875 49.984375 C 147.925781 44.816406 142.144531 48.441406 138.433594 53.441406 C 134.699219 48.441406 128.933594 44.816406 123.800781 49.984375 C 116.492188 57.34375 130.945312 70.179688 138.558594 77.6875 C 145.859375 70.347656 160.652344 57.632812 153.046875 49.984375 "/>
</g>
</svg>
