<?xml version="1.0" encoding="UTF-8"?>
<svg xmlns="http://www.w3.org/2000/svg" xmlns:xlink="http://www.w3.org/1999/xlink" width="750pt" height="299.999988pt" viewBox="0 0 750 299.999988" version="1.2">
<defs>
<clipPath id="clip1">
  <path d="M 234.648438 90 L 514.949219 90 L 514.949219 210 L 234.648438 210 Z M 234.648438 90 "/>
</clipPath>
<clipPath id="clip2">
  <path d="M 234.648438 90 L 514.949219 90 L 514.949219 210 L 234.648438 210 Z M 234.648438 90 "/>
</clipPath>
</defs>
<g id="surface1">
<g clip-path="url(#clip1)" clip-rule="nonzero">
<path style="fill:none;stroke-width:140;stroke-linecap:round;stroke-linejoin:round;stroke:rgb(1.568604%,2.349854%,2.349854%);stroke-opacity:1;stroke-miterlimit:10;" d="M 3820.873997 2335.822974 C 3797.617323 2335.822974 3775.442355 2331.232247 3755.106287 2322.968939 C 3668.353486 2646.53416 3373.155986 2884.819881 3022.304725 2884.819881 C 2648.034535 2884.819881 2337.206387 2613.696962 2275.062391 2257.186526 C 2234.119828 2305.524178 2176.356741 2349.487137 2112.265675 2349.487137 C 2060.992823 2349.487137 2013.722281 2321.294674 1975.916665 2285.270971 C 1902.685186 2627.847202 1598.455443 2884.819881 1233.974689 2884.819881 C 882.52849 2884.819881 587.006479 2645.724032 500.740445 2321.402691 C 479.430842 2330.692162 455.903742 2335.822974 431.13268 2335.822974 C 334.049589 2335.822974 255.40958 2257.078509 255.40958 2160.133162 C 255.40958 2063.079798 334.049589 1984.389341 431.13268 1984.389341 C 450.657469 1984.389341 469.425063 1987.683863 486.948697 1993.624803 C 549.633545 1637.654452 860.137181 1367.179635 1233.974689 1367.179635 C 1653.081583 1367.179635 1992.791275 1706.893413 1992.791275 2125.999758 C 1992.791275 2146.03693 1991.81774 2165.912077 1990.249266 2185.625197 C 2025.404703 2203.77207 2067.266716 2219.596575 2112.265675 2219.596575 C 2171.110468 2219.596575 2224.708988 2192.484283 2264.786186 2168.612504 C 2263.920822 2154.462264 2263.48814 2140.258016 2263.48814 2125.999758 C 2263.48814 1706.893413 2603.197831 1367.179635 3022.304725 1367.179635 C 3395.655466 1367.179635 3705.83459 1636.898333 3769.114377 1992.166572 C 3785.448134 1987.143777 3802.863596 1984.389341 3820.873997 1984.389341 C 3917.848918 1984.389341 3996.543011 2063.079798 3996.543011 2160.133162 C 3996.543011 2257.078509 3917.848918 2335.822974 3820.873997 2335.822974 Z M 3820.873997 2335.822974 " transform="matrix(0.0722239,0,0,-0.0723265,221.287701,303.766146)"/>
</g>
<path style="fill:none;stroke-width:140;stroke-linecap:round;stroke-linejoin:round;stroke:rgb(1.568604%,2.349854%,2.349854%);stroke-opacity:1;stroke-miterlimit:10;" d="M 1898.142022 2125.999758 C 1898.142022 1759.281706 1600.78111 1461.96464 1233.974689 1461.96464 C 867.330525 1461.96464 570.023698 1759.281706 570.023698 2125.999758 C 570.023698 2492.663802 867.330525 2789.980868 1233.974689 2789.980868 C 1600.78111 2789.980868 1898.142022 2492.663802 1898.142022 2125.999758 Z M 1898.142022 2125.999758 " transform="matrix(0.0722239,0,0,-0.0723265,221.287701,303.766146)"/>
<path style="fill:none;stroke-width:140;stroke-linecap:round;stroke-linejoin:round;stroke:rgb(1.568604%,2.349854%,2.349854%);stroke-opacity:1;stroke-miterlimit:10;" d="M 2365.925674 2125.999758 C 2365.925674 1763.494373 2659.771042 1469.579846 3022.304725 1469.579846 C 3384.784323 1469.579846 3678.683776 1763.494373 3678.683776 2125.999758 C 3678.683776 2488.451135 3384.784323 2782.365663 3022.304725 2782.365663 C 2659.771042 2782.365663 2365.925674 2488.451135 2365.925674 2125.999758 Z M 2365.925674 2125.999758 " transform="matrix(0.0722239,0,0,-0.0723265,221.287701,303.766146)"/>
<path style=" stroke:none;fill-rule:nonzero;fill:rgb(29.019165%,74.119568%,80.389404%);fill-opacity:1;" d="M 497.246094 134.824219 C 495.566406 134.824219 493.964844 135.15625 492.496094 135.753906 C 486.230469 112.351562 464.910156 95.117188 439.570312 95.117188 C 412.539062 95.117188 390.089844 114.726562 385.601562 140.511719 C 382.644531 137.015625 378.472656 133.835938 373.84375 133.835938 C 370.140625 133.835938 366.726562 135.875 363.996094 138.480469 C 358.707031 113.703125 336.734375 95.117188 310.410156 95.117188 C 285.027344 95.117188 263.683594 112.410156 257.453125 135.867188 C 255.914062 135.195312 254.214844 134.824219 252.425781 134.824219 C 245.414062 134.824219 239.734375 140.519531 239.734375 147.53125 C 239.734375 154.550781 245.414062 160.242188 252.425781 160.242188 C 253.835938 160.242188 255.191406 160.003906 256.457031 159.574219 C 260.984375 185.320312 283.410156 204.882812 310.410156 204.882812 C 340.679688 204.882812 365.214844 180.3125 365.214844 150 C 365.214844 148.550781 365.144531 147.113281 365.03125 145.6875 C 367.570312 144.375 370.59375 143.230469 373.84375 143.230469 C 378.09375 143.230469 381.964844 145.191406 384.859375 146.917969 C 384.796875 147.941406 384.765625 148.96875 384.765625 150 C 384.765625 180.3125 409.300781 204.882812 439.570312 204.882812 C 466.535156 204.882812 488.9375 185.375 493.507812 159.679688 C 494.6875 160.042969 495.945312 160.242188 497.246094 160.242188 C 504.25 160.242188 509.933594 154.550781 509.933594 147.53125 C 509.933594 140.519531 504.25 134.824219 497.246094 134.824219 "/>
<g clip-path="url(#clip2)" clip-rule="nonzero">
<path style="fill:none;stroke-width:10;stroke-linecap:butt;stroke-linejoin:miter;stroke:rgb(1.568604%,2.349854%,2.349854%);stroke-opacity:1;stroke-miterlimit:10;" d="M 3820.873997 2335.822974 C 3797.617323 2335.822974 3775.442355 2331.232247 3755.106287 2322.968939 C 3668.353486 2646.53416 3373.155986 2884.819881 3022.304725 2884.819881 C 2648.034535 2884.819881 2337.206387 2613.696962 2275.062391 2257.186526 C 2234.119828 2305.524178 2176.356741 2349.487137 2112.265675 2349.487137 C 2060.992823 2349.487137 2013.722281 2321.294674 1975.916665 2285.270971 C 1902.685186 2627.847202 1598.455443 2884.819881 1233.974689 2884.819881 C 882.52849 2884.819881 587.006479 2645.724032 500.740445 2321.402691 C 479.430842 2330.692162 455.903742 2335.822974 431.13268 2335.822974 C 334.049589 2335.822974 255.40958 2257.078509 255.40958 2160.133162 C 255.40958 2063.079798 334.049589 1984.389341 431.13268 1984.389341 C 450.657469 1984.389341 469.425063 1987.683863 486.948697 1993.624803 C 549.633545 1637.654452 860.137181 1367.179635 1233.974689 1367.179635 C 1653.081583 1367.179635 1992.791275 1706.893413 1992.791275 2125.999758 C 1992.791275 2146.03693 1991.81774 2165.912077 1990.249266 2185.625197 C 2025.404703 2203.77207 2067.266716 2219.596575 2112.265675 2219.596575 C 2171.110468 2219.596575 2224.708988 2192.484283 2264.786186 2168.612504 C 2263.920822 2154.462264 2263.48814 2140.258016 2263.48814 2125.999758 C 2263.48814 1706.893413 2603.197831 1367.179635 3022.304725 1367.179635 C 3395.655466 1367.179635 3705.83459 1636.898333 3769.114377 1992.166572 C 3785.448134 1987.143777 3802.863596 1984.389341 3820.873997 1984.389341 C 3917.848918 1984.389341 3996.543011 2063.079798 3996.543011 2160.133162 C 3996.543011 2257.078509 3917.848918 2335.822974 3820.873997 2335.822974 Z M 3820.873997 2335.822974 " transform="matrix(0.0722239,0,0,-0.0723265,221.287701,303.766146)"/>
</g>
<path style=" stroke:none;fill-rule:nonzero;fill:rgb(89.7995%,44.709778%,56.469727%);fill-opacity:1;" d="M 358.378906 150 C 358.378906 176.523438 336.902344 198.027344 310.410156 198.027344 C 283.929688 198.027344 262.457031 176.523438 262.457031 150 C 262.457031 123.480469 283.929688 101.976562 310.410156 101.976562 C 336.902344 101.976562 358.378906 123.480469 358.378906 150 "/>
<path style="fill:none;stroke-width:10;stroke-linecap:butt;stroke-linejoin:miter;stroke:rgb(1.568604%,2.349854%,2.349854%);stroke-opacity:1;stroke-miterlimit:10;" d="M 1898.142022 2125.999758 C 1898.142022 1759.281706 1600.78111 1461.96464 1233.974689 1461.96464 C 867.330525 1461.96464 570.023698 1759.281706 570.023698 2125.999758 C 570.023698 2492.663802 867.330525 2789.980868 1233.974689 2789.980868 C 1600.78111 2789.980868 1898.142022 2492.663802 1898.142022 2125.999758 Z M 1898.142022 2125.999758 " transform="matrix(0.0722239,0,0,-0.0723265,221.287701,303.766146)"/>
<path style=" stroke:none;fill-rule:nonzero;fill:rgb(89.7995%,44.709778%,56.469727%);fill-opacity:1;" d="M 392.164062 150 C 392.164062 176.21875 413.386719 197.476562 439.570312 197.476562 C 465.75 197.476562 486.976562 176.21875 486.976562 150 C 486.976562 123.785156 465.75 102.527344 439.570312 102.527344 C 413.386719 102.527344 392.164062 123.785156 392.164062 150 "/>
<path style="fill:none;stroke-width:10;stroke-linecap:butt;stroke-linejoin:miter;stroke:rgb(1.568604%,2.349854%,2.349854%);stroke-opacity:1;stroke-miterlimit:10;" d="M 2365.925674 2125.999758 C 2365.925674 1763.494373 2659.771042 1469.579846 3022.304725 1469.579846 C 3384.784323 1469.579846 3678.683776 1763.494373 3678.683776 2125.999758 C 3678.683776 2488.451135 3384.784323 2782.365663 3022.304725 2782.365663 C 2659.771042 2782.365663 2365.925674 2488.451135 2365.925674 2125.999758 Z M 2365.925674 2125.999758 " transform="matrix(0.0722239,0,0,-0.0723265,221.287701,303.766146)"/>
</g>
</svg>
