<?xml version="1.0" encoding="UTF-8"?>
<svg xmlns="http://www.w3.org/2000/svg" xmlns:xlink="http://www.w3.org/1999/xlink" width="224.87999pt" height="225pt" viewBox="0 0 224.87999 225" version="1.2">
<defs>
<clipPath id="clip1">
  <path d="M 20 3.667969 L 80 3.667969 L 80 65 L 20 65 Z M 20 3.667969 "/>
</clipPath>
<clipPath id="clip2">
  <path d="M 135 49 L 224.761719 49 L 224.761719 174 L 135 174 Z M 135 49 "/>
</clipPath>
<clipPath id="clip3">
  <path d="M 134 48 L 224.761719 48 L 224.761719 175 L 134 175 Z M 134 48 "/>
</clipPath>
<clipPath id="clip4">
  <path d="M 145 160 L 205 160 L 205 221.050781 L 145 221.050781 Z M 145 160 "/>
</clipPath>
</defs>
<g id="surface1">
<path style=" stroke:none;fill-rule:nonzero;fill:rgb(100%,61.569214%,90.19928%);fill-opacity:1;" d="M 13.804688 69.566406 L 21.59375 62.707031 L 30.113281 20.9375 L 31.660156 34.6875 L 51.578125 13.855469 L 13.804688 13.855469 L 13.804688 69.566406 "/>
<path style=" stroke:none;fill-rule:nonzero;fill:rgb(90.979004%,89.7995%,0%);fill-opacity:1;" d="M 13.804688 137.675781 L 40.28125 89.433594 L 65.574219 98.703125 L 65.574219 82.246094 L 50.632812 83.871094 L 79.515625 51.113281 L 89.480469 100.289062 L 5.691406 175.421875 L 0.246094 144.363281 L 13.804688 137.675781 "/>
<path style=" stroke:none;fill-rule:nonzero;fill:rgb(57.249451%,70.588684%,90.19928%);fill-opacity:1;" d="M 13.804688 137.675781 L 0.324219 144.523438 L 0.421875 144.332031 L 6.179688 175.335938 L 5.363281 175.054688 L 89.148438 99.921875 L 88.996094 100.386719 L 79.035156 51.210938 L 79.886719 51.4375 L 51.003906 84.195312 L 50.578125 83.382812 L 65.523438 81.757812 L 66.070312 81.699219 L 66.070312 99.410156 L 65.40625 99.167969 L 40.109375 89.894531 L 40.710938 89.671875 C 38.503906 93.703125 36.308594 97.746094 34.039062 101.742188 L 27.289062 113.742188 Z M 13.804688 137.675781 L 26.796875 113.367188 L 33.28125 101.246094 C 35.421875 97.199219 37.640625 93.203125 39.847656 89.195312 L 40.050781 88.824219 L 40.449219 88.96875 L 65.746094 98.242188 L 65.082031 98.703125 L 65.082031 82.25 L 65.628906 82.738281 L 50.6875 84.359375 L 49.421875 84.496094 L 50.261719 83.546875 L 79.148438 50.789062 L 79.804688 50.042969 L 80 51.015625 L 89.960938 100.191406 L 90.019531 100.46875 L 89.808594 100.65625 L 6.023438 175.789062 L 5.351562 176.394531 L 5.203125 175.507812 L 0.0703125 144.394531 L 0.0507812 144.261719 L 0.167969 144.207031 L 13.804688 137.675781 "/>
<path style=" stroke:none;fill-rule:nonzero;fill:rgb(57.649231%,96.078491%,42.349243%);fill-opacity:1;" d="M 33.714844 16.214844 L 17.652344 17.28125 L 19.4375 47.457031 L 13.804688 55.054688 C 13.769531 55.097656 13.742188 55.140625 13.707031 55.179688 C 13.742188 55.136719 13.773438 55.09375 13.804688 55.046875 L 13.804688 13.855469 L 35.039062 13.855469 L 33.714844 16.214844 "/>
<path style=" stroke:none;fill-rule:nonzero;fill:rgb(57.249451%,70.588684%,90.19928%);fill-opacity:1;" d="M 35.617188 13.855469 L 34.15625 16.457031 L 34.019531 16.699219 L 33.746094 16.71875 L 18.1875 17.753906 L 19.050781 32.339844 L 19.273438 36.113281 C 19.347656 37.371094 19.457031 38.625 19.492188 39.886719 L 19.726562 47.441406 L 19.734375 47.558594 L 19.671875 47.632812 L 16.636719 51.46875 C 15.664062 52.679688 14.722656 53.863281 13.804688 55.054688 C 13.769531 55.097656 13.742188 55.140625 13.707031 55.179688 C 13.742188 55.136719 13.773438 55.09375 13.804688 55.046875 C 14.734375 53.753906 15.632812 52.453125 16.507812 51.175781 L 19.136719 47.378906 L 18.492188 39.945312 C 18.378906 38.6875 18.339844 37.429688 18.265625 36.171875 L 18.042969 32.402344 L 17.148438 17.3125 L 17.117188 16.8125 L 17.621094 16.777344 L 33.40625 15.726562 L 34.457031 13.855469 L 35.617188 13.855469 "/>
<path style=" stroke:none;fill-rule:nonzero;fill:rgb(57.649231%,96.078491%,42.349243%);fill-opacity:1;" d="M 12.664062 171.742188 L 44.40625 144.238281 L 30.59375 120.378906 L 2.675781 162.367188 L 12.664062 171.742188 "/>
<path style=" stroke:none;fill-rule:nonzero;fill:rgb(57.249451%,70.588684%,90.19928%);fill-opacity:1;" d="M 12.664062 171.742188 L 2.394531 162.664062 L 2.148438 162.445312 L 2.335938 162.140625 L 4.007812 159.46875 C 4.570312 158.582031 5.179688 157.722656 5.753906 156.847656 L 9.246094 151.597656 L 16.222656 141.101562 L 30.183594 120.105469 L 30.621094 119.445312 L 31.019531 120.132812 L 44.835938 143.992188 L 45.039062 144.34375 L 44.730469 144.609375 L 28.703125 158.453125 C 27.363281 159.589844 26.039062 160.800781 24.683594 161.886719 L 20.648438 165.1875 Z M 12.664062 171.742188 L 20.546875 164.546875 L 24.449219 160.972656 C 25.738281 159.765625 27.0625 158.683594 28.367188 157.527344 L 44.082031 143.867188 L 43.980469 144.484375 L 30.167969 120.625 L 31.003906 120.652344 L 17.046875 141.644531 L 10.066406 152.140625 L 6.578125 157.390625 C 5.988281 158.261719 5.433594 159.15625 4.832031 160.015625 L 3.015625 162.59375 L 2.957031 162.070312 L 12.664062 171.742188 "/>
<path style=" stroke:none;fill-rule:nonzero;fill:rgb(57.649231%,96.078491%,42.349243%);fill-opacity:1;" d="M 46.703125 142.890625 L 31.960938 117.761719 L 38.417969 108.46875 L 53.660156 136.664062 L 46.703125 142.890625 "/>
<path style=" stroke:none;fill-rule:nonzero;fill:rgb(57.249451%,70.588684%,90.19928%);fill-opacity:1;" d="M 46.703125 142.890625 C 47.878906 141.765625 49.011719 140.640625 50.117188 139.550781 L 53.359375 136.328125 L 53.261719 136.878906 C 52.546875 135.746094 51.972656 134.539062 51.320312 133.371094 L 49.417969 129.847656 L 45.605469 122.800781 L 37.984375 108.703125 L 38.824219 108.75 L 32.367188 118.042969 L 32.386719 117.511719 C 34.8125 121.644531 37.21875 125.773438 39.609375 129.917969 C 40.210938 130.953125 40.804688 132 41.410156 133.019531 C 41.710938 133.53125 41.992188 134.082031 42.28125 134.628906 L 43.152344 136.261719 Z M 46.703125 142.890625 L 42.886719 136.953125 L 41.914062 135.449219 C 41.589844 134.945312 41.253906 134.449219 40.941406 133.914062 C 40.320312 132.839844 39.683594 131.792969 39.054688 130.734375 C 36.535156 126.5 34.023438 122.253906 31.535156 118.011719 L 31.378906 117.738281 L 31.558594 117.480469 L 38.015625 108.1875 L 38.472656 107.527344 L 38.851562 108.234375 L 46.472656 122.332031 L 50.285156 129.382812 L 52.191406 132.90625 C 52.808594 134.089844 53.503906 135.230469 54.058594 136.449219 L 54.214844 136.796875 L 53.960938 137 L 50.25 140.003906 C 49.035156 140.988281 47.851562 141.9375 46.703125 142.890625 "/>
<path style=" stroke:none;fill-rule:nonzero;fill:rgb(57.649231%,96.078491%,42.349243%);fill-opacity:1;" d="M 56.277344 134.507812 L 40.472656 105.503906 L 60.941406 111.125 Z M 56.277344 134.507812 "/>
<path style=" stroke:none;fill-rule:nonzero;fill:rgb(57.249451%,70.588684%,90.19928%);fill-opacity:1;" d="M 56.277344 134.507812 C 56.648438 132.441406 56.996094 130.402344 57.316406 128.378906 C 57.648438 126.367188 57.882812 124.316406 58.269531 122.460938 C 58.960938 118.644531 59.695312 114.851562 60.457031 111.03125 L 60.8125 111.601562 L 40.34375 105.980469 L 40.90625 105.269531 C 43.507812 110.035156 46.066406 114.78125 48.59375 119.5625 L 50.492188 123.160156 L 51.441406 124.949219 C 51.757812 125.550781 52.066406 126.199219 52.378906 126.828125 C 53.636719 129.363281 54.9375 131.921875 56.277344 134.507812 Z M 56.277344 134.507812 C 54.988281 132.257812 53.652344 129.984375 52.273438 127.683594 C 51.929688 127.105469 51.582031 126.546875 51.238281 125.9375 L 50.210938 124.101562 L 48.15625 120.445312 C 45.417969 115.5625 42.710938 110.640625 40.042969 105.738281 L 39.488281 104.722656 L 40.605469 105.027344 L 61.074219 110.652344 L 61.515625 110.773438 L 61.425781 111.222656 C 60.632812 115.191406 59.8125 119.195312 58.949219 123.171875 C 58.558594 125.210938 58.015625 127.058594 57.570312 128.945312 C 57.113281 130.820312 56.683594 132.675781 56.277344 134.507812 "/>
<path style=" stroke:none;fill-rule:nonzero;fill:rgb(100%,61.569214%,90.19928%);fill-opacity:1;" d="M 81.433594 94.203125 L 78.882812 36.835938 L 97.074219 46.535156 L 97.074219 29.171875 L 122.78125 27.433594 L 120.925781 9.546875 L 168.847656 6.109375 L 161.65625 14.085938 L 81.433594 94.203125 "/>
<path style=" stroke:none;fill-rule:nonzero;fill:rgb(57.249451%,70.588684%,90.19928%);fill-opacity:1;" d="M 81.433594 94.203125 C 88.808594 86.746094 96.132812 79.320312 103.417969 71.878906 L 108.871094 66.304688 L 114.316406 60.824219 L 125.207031 49.878906 L 147.011719 28.023438 L 157.933594 17.105469 L 160.667969 14.375 C 160.894531 14.148438 161.125 13.921875 161.347656 13.691406 L 161.996094 12.972656 L 163.292969 11.53125 L 168.484375 5.78125 L 168.886719 6.601562 L 120.960938 10.039062 L 121.417969 9.496094 L 123.273438 27.382812 L 123.324219 27.890625 L 122.816406 27.925781 L 97.109375 29.664062 L 97.570312 29.171875 L 97.570312 47.355469 L 96.84375 46.96875 L 78.648438 37.269531 L 79.375 36.8125 L 79.996094 51.027344 C 80.210938 55.75 80.3125 60.519531 80.464844 65.300781 L 80.914062 79.699219 Z M 81.433594 94.203125 L 80.675781 80.023438 L 79.851562 65.738281 C 79.578125 60.957031 79.253906 56.164062 79.042969 51.328125 L 78.390625 36.855469 L 78.351562 35.992188 L 79.113281 36.402344 L 97.308594 46.101562 L 96.582031 46.535156 L 96.582031 28.710938 L 97.042969 28.679688 L 122.75 26.941406 L 122.292969 27.484375 L 120.4375 9.597656 L 120.382812 9.09375 L 120.890625 9.054688 L 168.8125 5.617188 L 170.035156 5.53125 L 169.214844 6.441406 L 164.015625 12.207031 L 162.714844 13.648438 L 162.0625 14.367188 C 161.839844 14.601562 161.605469 14.828125 161.378906 15.058594 L 158.621094 17.8125 L 147.589844 28.820312 L 125.484375 50.824219 L 114.417969 61.804688 L 108.882812 67.285156 L 103.359375 72.671875 C 96.007812 79.851562 88.695312 87.042969 81.433594 94.203125 "/>
<path style=" stroke:none;fill-rule:nonzero;fill:rgb(90.979004%,89.7995%,0%);fill-opacity:1;" d="M 51.339844 14.085938 L 31.539062 34.8125 L 29.992188 21.058594 L 21.472656 62.832031 L 75.476562 13.855469 L 78.882812 4.21875 L 59.078125 5.761719 L 51.339844 14.085938 "/>
<g clip-path="url(#clip1)" clip-rule="nonzero">
<path style=" stroke:none;fill-rule:nonzero;fill:rgb(57.249451%,70.588684%,90.19928%);fill-opacity:1;" d="M 51.339844 14.085938 L 53.265625 11.996094 C 53.910156 11.304688 54.542969 10.597656 55.179688 9.898438 C 56.453125 8.496094 57.699219 7.066406 58.960938 5.652344 L 59 5.613281 L 59.066406 5.605469 L 64.007812 5.085938 L 68.949219 4.578125 C 70.59375 4.421875 72.242188 4.230469 73.890625 4.101562 L 78.84375 3.726562 L 79.597656 3.667969 L 79.347656 4.378906 L 75.941406 14.019531 L 75.902344 14.136719 L 75.808594 14.21875 L 21.804688 63.195312 L 20.6875 64.207031 L 20.988281 62.734375 L 29.507812 20.960938 L 30.132812 17.902344 L 30.480469 21.003906 L 32.03125 34.757812 L 31.179688 34.46875 C 32 33.601562 32.816406 32.730469 33.652344 31.875 L 36.179688 29.335938 L 38.714844 26.804688 L 41.265625 24.28125 C 42.96875 22.605469 44.648438 20.910156 46.34375 19.222656 L 48.855469 16.667969 Z M 51.339844 14.085938 L 48.878906 16.6875 L 46.4375 19.3125 C 44.832031 21.082031 43.210938 22.835938 41.617188 24.617188 L 39.214844 27.277344 L 36.796875 29.921875 L 34.375 32.5625 C 33.5625 33.441406 32.722656 34.292969 31.898438 35.152344 L 31.164062 35.917969 L 31.046875 34.867188 L 29.5 21.113281 L 30.472656 21.15625 L 21.957031 62.929688 L 21.140625 62.464844 L 75.144531 13.488281 L 75.011719 13.691406 L 78.417969 4.054688 L 78.917969 4.707031 L 73.96875 5.105469 C 72.320312 5.230469 70.664062 5.300781 69.011719 5.402344 L 64.050781 5.664062 L 59.089844 5.917969 L 59.195312 5.871094 C 57.875 7.230469 56.542969 8.578125 55.238281 9.953125 C 54.589844 10.640625 53.929688 11.320312 53.285156 12.011719 L 51.339844 14.085938 "/>
</g>
<path style=" stroke:none;fill-rule:nonzero;fill:rgb(57.249451%,70.588684%,90.19928%);fill-opacity:1;" d="M 32.464844 36.203125 L 52.890625 15.03125 L 58.613281 15.03125 L 44.378906 29.558594 L 32.464844 36.203125 "/>
<path style=" stroke:none;fill-rule:nonzero;fill:rgb(57.249451%,70.588684%,90.19928%);fill-opacity:1;" d="M 13.804688 58.839844 L 19.855469 51.113281 L 21.472656 62.832031 L 13.804688 69.5625 L 13.804688 58.839844 "/>
<path style=" stroke:none;fill-rule:nonzero;fill:rgb(57.249451%,70.588684%,90.19928%);fill-opacity:1;" d="M 50.664062 13.855469 L 40.597656 23.984375 L 40.28125 21.695312 L 48.777344 13.855469 L 50.664062 13.855469 "/>
<path style=" stroke:none;fill-rule:nonzero;fill:rgb(57.249451%,70.588684%,90.19928%);fill-opacity:1;" d="M 40.105469 24.441406 L 39.773438 22.050781 L 38.015625 23.921875 L 38.4375 26.0625 L 40.105469 24.441406 "/>
<path style=" stroke:none;fill-rule:nonzero;fill:rgb(90.979004%,89.7995%,0%);fill-opacity:1;" d="M 136.011719 13.46875 L 127.5 35.816406 L 105.066406 39.832031 L 100.425781 63.9375 L 90.523438 55.441406 L 94.226562 81.078125 L 113.722656 61.609375 L 116.050781 43.230469 L 137.625 37.738281 L 155.042969 9.546875 L 136.011719 13.46875 "/>
<path style=" stroke:none;fill-rule:nonzero;fill:rgb(57.249451%,70.588684%,90.19928%);fill-opacity:1;" d="M 136.011719 13.46875 L 154.972656 9.214844 L 155.734375 9.046875 L 155.328125 9.726562 L 151.089844 16.84375 C 149.691406 19.226562 148.191406 21.542969 146.753906 23.902344 L 138.046875 37.996094 L 137.941406 38.164062 L 137.746094 38.214844 L 116.171875 43.710938 L 116.542969 43.292969 L 114.210938 61.671875 L 114.191406 61.839844 L 114.070312 61.960938 L 94.574219 81.429688 L 93.878906 82.125 L 93.738281 81.148438 L 90.035156 55.507812 L 89.847656 54.210938 L 90.84375 55.066406 L 100.746094 63.5625 L 99.941406 63.84375 L 104.582031 39.742188 L 104.648438 39.40625 L 104.980469 39.347656 L 116.195312 37.339844 L 121.804688 36.324219 C 123.675781 36.003906 125.554688 35.710938 127.429688 35.402344 L 127.109375 35.667969 Z M 136.011719 13.46875 L 127.890625 35.964844 L 127.8125 36.179688 L 127.574219 36.226562 C 125.710938 36.589844 123.847656 36.964844 121.980469 37.316406 L 116.371094 38.308594 L 105.15625 40.316406 L 105.550781 39.925781 L 100.910156 64.03125 L 100.75 64.863281 L 100.105469 64.3125 L 90.203125 55.8125 L 91.011719 55.371094 L 94.714844 81.007812 L 93.878906 80.730469 L 113.371094 61.261719 L 113.230469 61.546875 L 115.5625 43.171875 L 115.605469 42.839844 L 115.929688 42.753906 L 137.503906 37.261719 L 137.203125 37.480469 L 145.914062 23.382812 C 147.375 21.042969 148.78125 18.664062 150.285156 16.347656 L 154.753906 9.371094 L 155.109375 9.878906 L 136.011719 13.46875 "/>
<path style=" stroke:none;fill-rule:nonzero;fill:rgb(57.249451%,70.588684%,90.19928%);fill-opacity:1;" d="M 101.953125 65.15625 L 106.421875 41.167969 L 127.773438 36.703125 L 127.25 37.921875 L 107.871094 42.09375 L 104.566406 61.738281 L 101.953125 65.15625 "/>
<path style=" stroke:none;fill-rule:nonzero;fill:rgb(57.249451%,70.588684%,90.19928%);fill-opacity:1;" d="M 96.625 78.683594 L 95.707031 73.09375 L 97.601562 71.585938 L 98.441406 76.867188 L 96.625 78.683594 "/>
<path style=" stroke:none;fill-rule:nonzero;fill:rgb(57.249451%,70.588684%,90.19928%);fill-opacity:1;" d="M 99.363281 75.941406 L 98.441406 70.351562 L 100.339844 68.84375 L 101.179688 74.125 L 99.363281 75.941406 "/>
<path style=" stroke:none;fill-rule:nonzero;fill:rgb(57.249451%,70.588684%,90.19928%);fill-opacity:1;" d="M 102.097656 73.390625 L 101.179688 67.800781 L 103.074219 66.292969 L 103.917969 71.574219 L 102.097656 73.390625 "/>
<path style=" stroke:none;fill-rule:nonzero;fill:rgb(57.649231%,96.078491%,42.349243%);fill-opacity:1;" d="M 119.222656 56.214844 L 119.785156 45.535156 L 133.46875 41.988281 L 119.222656 56.214844 "/>
<path style=" stroke:none;fill-rule:nonzero;fill:rgb(57.249451%,70.588684%,90.19928%);fill-opacity:1;" d="M 120.257812 45.921875 L 119.785156 54.960938 L 131.839844 42.921875 Z M 118.664062 57.472656 L 119.3125 45.148438 L 135.097656 41.058594 L 118.664062 57.472656 "/>
<path style=" stroke:none;fill-rule:nonzero;fill:rgb(64.709473%,97.24884%,95.289612%);fill-opacity:1;" d="M 60.238281 45.394531 L 47.8125 54.667969 L 58.382812 69.269531 L 81.820312 32.183594 L 52.347656 35.660156 L 12.160156 71.027344 L 12.160156 94.203125 L 52.691406 61.410156 "/>
<path style=" stroke:none;fill-rule:nonzero;fill:rgb(57.249451%,70.588684%,90.19928%);fill-opacity:1;" d="M 60.238281 45.394531 L 54.117188 50.15625 L 47.980469 54.894531 L 48.042969 54.5 L 53.445312 61.714844 L 56.144531 65.324219 C 57.035156 66.535156 57.902344 67.761719 58.78125 68.980469 L 57.964844 69.003906 L 81.402344 31.921875 L 81.878906 32.675781 L 52.40625 36.148438 L 52.671875 36.03125 L 12.484375 71.394531 L 12.652344 71.027344 L 12.652344 94.203125 L 11.847656 93.820312 L 21.984375 85.621094 L 27.042969 81.515625 C 28.730469 80.148438 30.453125 78.824219 32.160156 77.480469 L 42.417969 69.433594 L 52.691406 61.410156 L 42.699219 69.78125 L 32.691406 78.132812 C 31.019531 79.523438 29.367188 80.929688 27.675781 82.296875 L 22.601562 86.386719 L 12.46875 94.585938 L 11.667969 95.238281 L 11.667969 70.804688 L 11.832031 70.65625 L 52.019531 35.292969 L 52.136719 35.191406 L 52.289062 35.171875 L 81.761719 31.695312 L 82.789062 31.574219 L 82.238281 32.449219 L 58.796875 69.53125 L 58.410156 70.144531 L 57.980469 69.558594 C 57.097656 68.34375 56.203125 67.136719 55.332031 65.910156 L 52.746094 62.21875 L 47.582031 54.832031 L 47.421875 54.601562 L 47.644531 54.441406 L 53.933594 49.910156 L 60.238281 45.394531 "/>
<path style=" stroke:none;fill-rule:nonzero;fill:rgb(57.249451%,70.588684%,90.19928%);fill-opacity:1;" d="M 72.847656 41.710938 C 71.71875 43.6875 70.554688 45.644531 69.40625 47.609375 C 69.113281 48.097656 68.832031 48.59375 68.535156 49.078125 C 68.238281 49.5625 67.914062 50.03125 67.613281 50.511719 L 65.777344 53.386719 L 58.425781 64.886719 L 58.171875 65.285156 L 57.886719 64.910156 L 50.847656 55.636719 L 50.65625 55.382812 L 50.902344 55.183594 L 59.488281 48.230469 L 59.707031 48.054688 L 59.917969 48.242188 L 63.863281 51.796875 L 64.117188 52.027344 L 63.875 52.273438 L 62.367188 53.78125 C 61.878906 54.296875 61.351562 54.773438 60.828125 55.257812 L 57.699219 58.15625 L 57.59375 58.253906 L 57.507812 58.152344 L 55.597656 55.75 L 57.707031 57.980469 L 57.515625 57.972656 L 60.417969 54.847656 C 60.902344 54.324219 61.382812 53.800781 61.898438 53.3125 L 63.410156 51.808594 L 63.421875 52.285156 L 59.476562 48.730469 L 59.902344 48.742188 L 51.316406 55.695312 L 51.371094 55.242188 L 58.410156 64.511719 L 57.871094 64.535156 L 65.222656 53.035156 L 67.058594 50.160156 C 67.367188 49.683594 67.660156 49.191406 67.972656 48.71875 C 68.289062 48.246094 68.617188 47.78125 68.941406 47.3125 C 70.242188 45.445312 71.527344 43.566406 72.847656 41.710938 "/>
<path style=" stroke:none;fill-rule:nonzero;fill:rgb(57.249451%,70.588684%,90.19928%);fill-opacity:1;" d="M 14.75 76.855469 C 15.644531 75.589844 16.570312 74.34375 17.484375 73.09375 C 17.949219 72.472656 18.378906 71.824219 18.886719 71.242188 L 20.359375 69.445312 L 20.417969 69.367188 L 20.511719 69.339844 L 26.644531 67.363281 L 26.46875 67.5 L 31.828125 59.066406 L 31.917969 58.929688 L 32.082031 58.917969 L 36.398438 58.582031 L 36.164062 58.710938 L 43.238281 49.386719 L 43.292969 49.3125 L 43.371094 49.28125 C 43.96875 49.035156 44.550781 48.746094 45.164062 48.535156 L 46.984375 47.867188 C 48.199219 47.414062 49.414062 46.96875 50.632812 46.535156 C 49.476562 47.117188 48.3125 47.6875 47.152344 48.253906 L 45.40625 49.105469 C 44.832031 49.40625 44.222656 49.625 43.632812 49.886719 L 43.765625 49.78125 L 36.6875 59.109375 L 36.597656 59.226562 L 36.449219 59.238281 L 32.132812 59.570312 L 32.382812 59.421875 L 27.023438 67.851562 L 26.957031 67.953125 L 26.84375 67.988281 L 20.714844 69.964844 L 20.867188 69.859375 L 19.40625 71.660156 C 18.9375 72.277344 18.390625 72.832031 17.878906 73.414062 C 16.839844 74.5625 15.804688 75.71875 14.75 76.855469 "/>
<path style=" stroke:none;fill-rule:nonzero;fill:rgb(57.249451%,70.588684%,90.19928%);fill-opacity:1;" d="M 55.75 81.078125 L 78.417969 54.203125 L 58.070312 79.773438 L 68.710938 79.390625 L 55.75 81.078125 "/>
<path style=" stroke:none;fill-rule:nonzero;fill:rgb(57.249451%,70.588684%,90.19928%);fill-opacity:1;" d="M 66.425781 107.007812 L 80.46875 92.929688 L 79.074219 64.070312 L 79.480469 92.292969 L 66.425781 107.007812 "/>
<path style=" stroke:none;fill-rule:nonzero;fill:rgb(57.249451%,70.588684%,90.19928%);fill-opacity:1;" d="M 78.882812 13.855469 L 61.707031 30.175781 L 89.441406 26.351562 L 82.246094 36.007812 L 95.164062 43.230469 L 95.320312 26.660156 L 110.171875 25.65625 L 100.8125 17.273438 L 101.46875 24.691406 L 93.308594 25.269531 L 93.191406 39.445312 L 85.417969 36.355469 L 92.1875 24.304688 L 69.636719 27.820312 L 88.320312 13.855469 L 78.882812 13.855469 "/>
<path style=" stroke:none;fill-rule:nonzero;fill:rgb(57.249451%,70.588684%,90.19928%);fill-opacity:1;" d="M 96.238281 10.839844 L 109.554688 22.679688 L 108.742188 23.117188 L 111.46875 23.636719 L 111.0625 21.785156 L 110.433594 22.160156 L 100.15625 10.839844 L 96.238281 10.839844 "/>
<path style=" stroke:none;fill-rule:nonzero;fill:rgb(57.249451%,70.588684%,90.19928%);fill-opacity:1;" d="M 101.140625 10.839844 L 114.457031 22.679688 L 113.644531 23.117188 L 116.371094 23.636719 L 115.964844 21.785156 L 115.335938 22.160156 L 105.058594 10.839844 L 101.140625 10.839844 "/>
<path style=" stroke:none;fill-rule:nonzero;fill:rgb(57.249451%,70.588684%,90.19928%);fill-opacity:1;" d="M 106.1875 10.839844 L 119.503906 22.679688 L 118.691406 23.117188 L 121.417969 23.636719 L 121.011719 21.785156 L 120.382812 22.160156 L 110.105469 10.839844 L 106.1875 10.839844 "/>
<path style=" stroke:none;fill-rule:nonzero;fill:rgb(57.249451%,70.588684%,90.19928%);fill-opacity:1;" d="M 8.707031 128.332031 L 28.429688 105.207031 L 29.203125 106.574219 L 29.992188 101.910156 L 26.839844 102.671875 L 27.507812 103.726562 L 8.558594 121.660156 L 8.707031 128.332031 "/>
<path style=" stroke:none;fill-rule:nonzero;fill:rgb(57.249451%,70.588684%,90.19928%);fill-opacity:1;" d="M 8.523438 119.980469 L 28.25 96.855469 L 29.019531 98.222656 L 29.808594 93.558594 L 26.65625 94.316406 L 27.324219 95.375 L 8.375 113.308594 L 8.523438 119.980469 "/>
<path style=" stroke:none;fill-rule:nonzero;fill:rgb(57.249451%,70.588684%,90.19928%);fill-opacity:1;" d="M 8.332031 111.382812 L 28.058594 88.253906 L 28.832031 89.621094 L 29.621094 84.957031 L 26.46875 85.71875 L 27.136719 86.777344 L 8.1875 104.710938 L 8.332031 111.382812 "/>
<path style=" stroke:none;fill-rule:nonzero;fill:rgb(57.249451%,70.588684%,90.19928%);fill-opacity:1;" d="M 102.765625 27.636719 L 121.765625 26.449219 L 121.535156 24.246094 L 121.101562 25.941406 L 102.765625 27.636719 "/>
<path style=" stroke:none;fill-rule:nonzero;fill:rgb(57.249451%,70.588684%,90.19928%);fill-opacity:1;" d="M 98.183594 13.855469 L 100.773438 24.035156 L 93.578125 24.691406 L 93.578125 22.875 L 72.652344 26.777344 L 89.558594 13.855469 L 93.347656 13.855469 L 77.101562 24.960938 L 94.429688 20.316406 L 95.242188 23.636719 L 99.109375 23.183594 L 94.664062 13.855469 L 98.183594 13.855469 "/>
<path style=" stroke:none;fill-rule:nonzero;fill:rgb(57.249451%,70.588684%,90.19928%);fill-opacity:1;" d="M 62.945312 94.957031 L 38.617188 85.222656 L 34.980469 89.933594 L 32.890625 81.550781 L 52 65.519531 L 56.757812 72.359375 L 44.863281 86.1875 L 62.945312 85.542969 Z M 47.917969 85.085938 L 58.421875 72.320312 L 51.960938 63.707031 L 30.917969 80.703125 L 33.625 96.925781 L 39.195312 86.652344 L 63.566406 95.921875 L 63.566406 84.566406 L 47.917969 85.085938 "/>
<path style=" stroke:none;fill-rule:nonzero;fill:rgb(100%,61.569214%,90.19928%);fill-opacity:1;" d="M 211.066406 155.152344 L 203.273438 162.011719 L 194.757812 203.785156 L 193.210938 190.03125 L 173.292969 210.863281 L 211.066406 210.863281 L 211.066406 155.152344 "/>
<g clip-path="url(#clip2)" clip-rule="nonzero">
<path style=" stroke:none;fill-rule:nonzero;fill:rgb(90.979004%,89.7995%,0%);fill-opacity:1;" d="M 211.066406 87.042969 L 184.59375 135.285156 L 159.296875 126.015625 L 159.296875 142.472656 L 174.238281 140.847656 L 145.355469 173.605469 L 135.390625 124.429688 L 219.179688 49.296875 L 224.625 80.355469 L 211.066406 87.042969 "/>
</g>
<g clip-path="url(#clip3)" clip-rule="nonzero">
<path style=" stroke:none;fill-rule:nonzero;fill:rgb(57.249451%,70.588684%,90.19928%);fill-opacity:1;" d="M 211.066406 87.042969 L 224.546875 80.195312 L 224.449219 80.386719 L 218.691406 49.382812 L 219.511719 49.664062 L 135.722656 124.796875 L 135.875 124.332031 L 145.839844 173.507812 L 144.984375 173.28125 L 173.867188 140.523438 L 174.292969 141.339844 L 159.347656 142.960938 L 158.800781 143.019531 L 158.800781 125.308594 L 159.464844 125.554688 L 184.761719 134.824219 L 184.160156 135.050781 C 186.367188 131.015625 188.5625 126.972656 190.832031 122.980469 L 197.582031 110.976562 Z M 211.066406 87.042969 L 198.074219 111.355469 L 191.589844 123.472656 C 189.449219 127.519531 187.230469 131.515625 185.023438 135.523438 L 184.820312 135.894531 L 184.421875 135.75 L 159.128906 126.476562 L 159.789062 126.015625 L 159.789062 142.472656 L 159.242188 141.980469 L 174.183594 140.359375 L 175.449219 140.222656 L 174.609375 141.175781 L 145.726562 173.933594 L 145.070312 174.675781 L 144.871094 173.703125 L 134.910156 124.527344 L 134.855469 124.25 L 135.0625 124.0625 L 218.847656 48.929688 L 219.519531 48.324219 L 219.667969 49.210938 L 224.800781 80.324219 L 224.820312 80.457031 L 224.703125 80.515625 L 211.066406 87.042969 "/>
</g>
<path style=" stroke:none;fill-rule:nonzero;fill:rgb(57.649231%,96.078491%,42.349243%);fill-opacity:1;" d="M 191.15625 208.507812 L 207.21875 207.4375 L 205.433594 177.261719 L 211.066406 169.667969 L 211.066406 169.664062 C 211.101562 169.621094 211.128906 169.582031 211.164062 169.539062 C 211.128906 169.585938 211.097656 169.628906 211.066406 169.671875 L 211.066406 210.863281 L 189.832031 210.863281 L 191.15625 208.507812 "/>
<path style=" stroke:none;fill-rule:nonzero;fill:rgb(57.249451%,70.588684%,90.19928%);fill-opacity:1;" d="M 189.253906 210.863281 L 190.71875 208.261719 L 190.851562 208.019531 L 191.125 208 L 206.6875 206.96875 L 205.820312 192.378906 L 205.597656 188.605469 C 205.523438 187.347656 205.417969 186.09375 205.378906 184.832031 L 205.144531 177.277344 L 205.136719 177.164062 L 205.199219 177.085938 L 208.234375 173.253906 C 209.207031 172.039062 210.152344 170.855469 211.066406 169.664062 C 211.101562 169.621094 211.128906 169.582031 211.164062 169.539062 C 211.128906 169.585938 211.097656 169.628906 211.066406 169.671875 C 210.136719 170.964844 209.242188 172.265625 208.363281 173.542969 L 205.734375 177.339844 L 206.378906 184.773438 C 206.492188 186.03125 206.53125 187.289062 206.605469 188.546875 L 206.828125 192.320312 L 207.722656 207.40625 L 207.753906 207.90625 L 207.25 207.941406 L 191.464844 208.992188 L 190.414062 210.863281 L 189.253906 210.863281 "/>
<path style=" stroke:none;fill-rule:nonzero;fill:rgb(57.649231%,96.078491%,42.349243%);fill-opacity:1;" d="M 211.898438 52.882812 L 180.15625 80.386719 L 193.96875 104.246094 L 221.886719 62.257812 L 211.898438 52.882812 "/>
<path style=" stroke:none;fill-rule:nonzero;fill:rgb(57.249451%,70.588684%,90.19928%);fill-opacity:1;" d="M 211.898438 52.882812 L 222.167969 61.960938 L 222.417969 62.179688 L 222.226562 62.480469 L 220.554688 65.15625 C 219.992188 66.042969 219.382812 66.898438 218.808594 67.777344 L 215.316406 73.027344 L 208.339844 83.523438 L 194.378906 104.519531 L 193.941406 105.179688 L 193.542969 104.492188 L 179.726562 80.632812 L 179.523438 80.28125 L 179.832031 80.015625 L 195.859375 66.167969 C 197.203125 65.035156 198.523438 63.824219 199.878906 62.738281 L 203.914062 59.4375 Z M 211.898438 52.882812 L 204.015625 60.074219 L 200.113281 63.652344 C 198.824219 64.859375 197.5 65.941406 196.195312 67.097656 L 180.480469 80.757812 L 180.582031 80.140625 L 194.394531 104 L 193.558594 103.972656 L 207.515625 82.980469 L 214.496094 72.480469 L 217.988281 67.234375 C 218.570312 66.359375 219.128906 65.46875 219.730469 64.605469 L 221.546875 62.03125 L 221.609375 62.554688 L 211.898438 52.882812 "/>
<path style=" stroke:none;fill-rule:nonzero;fill:rgb(57.649231%,96.078491%,42.349243%);fill-opacity:1;" d="M 177.859375 81.734375 L 192.601562 106.863281 L 186.144531 116.15625 L 170.902344 87.960938 L 177.859375 81.734375 "/>
<path style=" stroke:none;fill-rule:nonzero;fill:rgb(57.249451%,70.588684%,90.19928%);fill-opacity:1;" d="M 177.859375 81.734375 C 176.683594 82.859375 175.550781 83.984375 174.449219 85.074219 L 171.203125 88.296875 L 171.300781 87.746094 C 172.015625 88.875 172.589844 90.085938 173.242188 91.25 L 175.144531 94.777344 L 178.957031 101.824219 L 186.578125 115.921875 L 185.738281 115.875 L 192.195312 106.582031 L 192.175781 107.109375 C 189.75 102.976562 187.34375 98.851562 184.953125 94.707031 C 184.351562 93.671875 183.761719 92.625 183.152344 91.605469 C 182.851562 91.09375 182.570312 90.539062 182.28125 89.996094 L 181.410156 88.363281 Z M 177.859375 81.734375 L 181.675781 87.671875 L 182.648438 89.175781 C 182.972656 89.679688 183.308594 90.175781 183.621094 90.710938 C 184.242188 91.785156 184.878906 92.828125 185.507812 93.890625 C 188.027344 98.125 190.539062 102.371094 193.027344 106.613281 L 193.183594 106.882812 L 193.003906 107.144531 L 186.546875 116.4375 L 186.089844 117.09375 L 185.710938 116.390625 L 178.089844 102.292969 L 174.277344 95.242188 L 172.371094 91.71875 C 171.753906 90.535156 171.058594 89.394531 170.503906 88.175781 L 170.347656 87.828125 L 170.597656 87.625 L 174.3125 84.621094 C 175.527344 83.636719 176.714844 82.6875 177.859375 81.734375 "/>
<path style=" stroke:none;fill-rule:nonzero;fill:rgb(57.649231%,96.078491%,42.349243%);fill-opacity:1;" d="M 168.285156 90.117188 L 184.089844 119.121094 L 163.621094 113.496094 L 168.285156 90.117188 "/>
<path style=" stroke:none;fill-rule:nonzero;fill:rgb(57.249451%,70.588684%,90.19928%);fill-opacity:1;" d="M 168.285156 90.117188 C 167.914062 92.183594 167.566406 94.222656 167.246094 96.242188 C 166.914062 98.253906 166.679688 100.304688 166.292969 102.164062 C 165.601562 105.980469 164.871094 109.769531 164.105469 113.59375 L 163.753906 113.023438 L 184.21875 118.644531 L 183.65625 119.355469 C 181.058594 114.585938 178.496094 109.839844 175.96875 105.058594 L 174.070312 101.464844 L 173.121094 99.675781 C 172.808594 99.074219 172.496094 98.421875 172.183594 97.792969 C 170.925781 95.257812 169.628906 92.699219 168.285156 90.117188 Z M 168.285156 90.117188 C 169.578125 92.367188 170.914062 94.640625 172.289062 96.941406 C 172.632812 97.519531 172.984375 98.078125 173.324219 98.683594 L 174.351562 100.519531 L 176.40625 104.175781 C 179.144531 109.0625 181.855469 113.984375 184.523438 118.882812 L 185.078125 119.902344 L 183.957031 119.59375 L 163.492188 113.972656 L 163.046875 113.851562 L 163.136719 113.402344 C 163.929688 109.429688 164.75 105.429688 165.613281 101.449219 C 166.003906 99.410156 166.546875 97.5625 166.992188 95.679688 C 167.449219 93.804688 167.878906 91.945312 168.285156 90.117188 "/>
<path style=" stroke:none;fill-rule:nonzero;fill:rgb(100%,61.569214%,90.19928%);fill-opacity:1;" d="M 143.4375 130.515625 L 145.992188 187.882812 L 127.796875 178.183594 L 127.796875 195.546875 L 102.089844 197.285156 L 103.945312 215.171875 L 56.023438 218.609375 L 63.214844 210.632812 L 143.4375 130.515625 "/>
<path style=" stroke:none;fill-rule:nonzero;fill:rgb(57.249451%,70.588684%,90.19928%);fill-opacity:1;" d="M 143.4375 130.515625 C 136.0625 137.972656 128.738281 145.398438 121.453125 152.839844 L 116 158.414062 L 110.554688 163.894531 L 99.664062 174.84375 L 77.859375 196.695312 L 66.9375 207.613281 L 64.203125 210.34375 C 63.976562 210.574219 63.746094 210.796875 63.523438 211.027344 L 62.875 211.746094 L 61.578125 213.1875 L 56.390625 218.9375 L 55.988281 218.117188 L 103.910156 214.679688 L 103.457031 215.222656 L 101.597656 197.335938 L 101.546875 196.828125 L 102.054688 196.792969 L 127.761719 195.058594 L 127.304688 195.546875 L 127.304688 177.363281 L 128.027344 177.75 L 146.222656 187.449219 L 145.5 187.90625 L 144.875 173.695312 C 144.660156 168.96875 144.558594 164.199219 144.410156 159.417969 L 143.957031 145.019531 Z M 143.4375 130.515625 L 144.195312 144.695312 L 145.019531 158.980469 C 145.296875 163.761719 145.617188 168.554688 145.832031 173.390625 L 146.484375 187.863281 L 146.523438 188.726562 L 145.757812 188.316406 L 127.5625 178.621094 L 128.289062 178.183594 L 128.289062 196.007812 L 127.828125 196.039062 L 102.125 197.777344 L 102.578125 197.234375 L 104.4375 215.121094 L 104.488281 215.625 L 103.980469 215.664062 L 56.058594 219.101562 L 54.835938 219.1875 L 55.65625 218.28125 L 60.859375 212.511719 L 62.808594 210.351562 C 63.03125 210.117188 63.265625 209.890625 63.492188 209.660156 L 66.25 206.90625 L 77.28125 195.898438 L 99.386719 173.898438 L 110.453125 162.917969 L 115.988281 157.433594 L 121.511719 152.046875 C 128.863281 144.867188 136.175781 137.675781 143.4375 130.515625 "/>
<path style=" stroke:none;fill-rule:nonzero;fill:rgb(90.979004%,89.7995%,0%);fill-opacity:1;" d="M 173.53125 210.632812 L 193.335938 189.910156 L 194.878906 203.660156 L 203.398438 161.886719 L 149.394531 210.863281 L 145.988281 220.503906 L 165.792969 218.957031 L 173.53125 210.632812 "/>
<g clip-path="url(#clip4)" clip-rule="nonzero">
<path style=" stroke:none;fill-rule:nonzero;fill:rgb(57.249451%,70.588684%,90.19928%);fill-opacity:1;" d="M 173.53125 210.632812 L 171.605469 212.722656 C 170.960938 213.414062 170.332031 214.125 169.691406 214.824219 C 168.417969 216.226562 167.171875 217.652344 165.910156 219.066406 L 165.871094 219.109375 L 165.808594 219.113281 L 160.867188 219.632812 L 155.925781 220.140625 C 154.277344 220.296875 152.632812 220.488281 150.980469 220.617188 L 146.03125 220.992188 L 145.273438 221.050781 L 145.527344 220.339844 L 148.929688 210.699219 L 148.972656 210.582031 L 149.0625 210.5 L 203.070312 161.523438 L 204.183594 160.511719 L 203.882812 161.984375 L 195.363281 203.757812 L 194.742188 206.816406 L 194.390625 203.714844 L 192.84375 189.964844 L 193.691406 190.25 C 192.871094 191.117188 192.058594 191.992188 191.21875 192.84375 L 188.691406 195.382812 L 186.160156 197.917969 L 183.609375 200.4375 C 181.90625 202.113281 180.222656 203.808594 178.53125 205.496094 L 176.019531 208.054688 Z M 173.53125 210.632812 L 175.996094 208.03125 L 178.433594 205.40625 C 180.039062 203.640625 181.660156 201.882812 183.257812 200.105469 L 185.660156 197.441406 L 188.074219 194.796875 L 190.496094 192.15625 C 191.3125 191.28125 192.148438 190.429688 192.976562 189.566406 L 193.710938 188.804688 L 193.828125 189.851562 L 195.371094 203.605469 L 194.398438 203.5625 L 202.917969 161.789062 L 203.730469 162.253906 L 149.726562 211.230469 L 149.859375 211.027344 L 146.457031 220.667969 L 145.953125 220.011719 L 150.902344 219.613281 C 152.554688 219.488281 154.207031 219.417969 155.859375 219.320312 L 160.820312 219.054688 L 165.78125 218.800781 L 165.679688 218.851562 C 166.996094 217.488281 168.328125 216.140625 169.632812 214.769531 C 170.285156 214.078125 170.945312 213.398438 171.589844 212.707031 L 173.53125 210.632812 "/>
</g>
<path style=" stroke:none;fill-rule:nonzero;fill:rgb(57.249451%,70.588684%,90.19928%);fill-opacity:1;" d="M 192.40625 188.519531 L 171.984375 209.6875 L 166.257812 209.6875 L 180.492188 195.160156 L 192.40625 188.519531 "/>
<path style=" stroke:none;fill-rule:nonzero;fill:rgb(57.249451%,70.588684%,90.19928%);fill-opacity:1;" d="M 211.066406 165.878906 L 205.015625 173.605469 L 203.398438 161.886719 L 211.066406 155.152344 L 211.066406 165.878906 "/>
<path style=" stroke:none;fill-rule:nonzero;fill:rgb(57.249451%,70.588684%,90.19928%);fill-opacity:1;" d="M 174.207031 210.863281 L 184.273438 200.734375 L 184.59375 203.023438 L 176.09375 210.863281 L 174.207031 210.863281 "/>
<path style=" stroke:none;fill-rule:nonzero;fill:rgb(57.249451%,70.588684%,90.19928%);fill-opacity:1;" d="M 184.765625 200.277344 L 185.101562 202.667969 L 186.855469 200.800781 L 186.433594 198.65625 L 184.765625 200.277344 "/>
<path style=" stroke:none;fill-rule:nonzero;fill:rgb(90.979004%,89.7995%,0%);fill-opacity:1;" d="M 88.859375 211.25 L 97.371094 188.902344 L 119.804688 184.886719 L 124.445312 160.78125 L 134.347656 169.28125 L 130.644531 143.640625 L 111.148438 163.109375 L 108.820312 181.488281 L 87.246094 186.980469 L 69.832031 215.171875 L 88.859375 211.25 "/>
<path style=" stroke:none;fill-rule:nonzero;fill:rgb(57.249451%,70.588684%,90.19928%);fill-opacity:1;" d="M 88.859375 211.25 L 69.898438 215.503906 L 69.136719 215.675781 L 69.542969 214.992188 L 73.78125 207.875 C 75.179688 205.496094 76.679688 203.175781 78.117188 200.820312 L 86.828125 186.722656 L 86.929688 186.554688 L 87.125 186.503906 L 108.699219 181.011719 L 108.332031 181.425781 L 110.660156 163.046875 L 110.683594 162.878906 L 110.800781 162.761719 L 130.296875 143.292969 L 130.992188 142.597656 L 131.132812 143.570312 L 134.835938 169.210938 L 135.023438 170.507812 L 134.027344 169.652344 L 124.125 161.15625 L 124.929688 160.875 L 120.289062 184.980469 L 120.226562 185.3125 L 119.890625 185.371094 L 108.675781 187.378906 L 103.070312 188.394531 C 101.195312 188.714844 99.320312 189.007812 97.445312 189.316406 L 97.761719 189.050781 Z M 88.859375 211.25 L 96.980469 188.753906 L 97.058594 188.539062 L 97.296875 188.492188 C 99.160156 188.132812 101.023438 187.753906 102.890625 187.40625 L 108.5 186.410156 L 119.71875 184.402344 L 119.320312 184.792969 L 123.960938 160.6875 L 124.121094 159.855469 L 124.765625 160.40625 L 134.667969 168.90625 L 133.859375 169.351562 L 130.15625 143.710938 L 130.992188 143.988281 L 111.5 163.457031 L 111.640625 163.171875 L 109.308594 181.546875 L 109.265625 181.882812 L 108.941406 181.964844 L 87.367188 187.460938 L 87.667969 187.242188 L 78.957031 201.335938 C 77.496094 203.675781 76.09375 206.054688 74.589844 208.371094 L 70.121094 215.351562 L 69.761719 214.839844 L 88.859375 211.25 "/>
<path style=" stroke:none;fill-rule:nonzero;fill:rgb(57.249451%,70.588684%,90.19928%);fill-opacity:1;" d="M 122.917969 159.566406 L 118.449219 183.554688 L 97.101562 188.015625 L 97.621094 186.796875 L 117 182.625 L 120.308594 162.984375 L 122.917969 159.566406 "/>
<path style=" stroke:none;fill-rule:nonzero;fill:rgb(57.249451%,70.588684%,90.19928%);fill-opacity:1;" d="M 128.246094 146.035156 L 129.164062 151.625 L 127.269531 153.132812 L 126.429688 147.851562 L 128.246094 146.035156 "/>
<path style=" stroke:none;fill-rule:nonzero;fill:rgb(57.249451%,70.588684%,90.19928%);fill-opacity:1;" d="M 125.507812 148.777344 L 126.429688 154.371094 L 124.53125 155.875 L 123.691406 150.59375 L 125.507812 148.777344 "/>
<path style=" stroke:none;fill-rule:nonzero;fill:rgb(57.249451%,70.588684%,90.19928%);fill-opacity:1;" d="M 122.773438 151.328125 L 123.691406 156.917969 L 121.796875 158.425781 L 120.957031 153.144531 L 122.773438 151.328125 "/>
<path style=" stroke:none;fill-rule:nonzero;fill:rgb(57.649231%,96.078491%,42.349243%);fill-opacity:1;" d="M 105.804688 168.351562 L 105.242188 179.035156 L 91.558594 182.578125 Z M 105.804688 168.351562 "/>
<path style=" stroke:none;fill-rule:nonzero;fill:rgb(57.249451%,70.588684%,90.19928%);fill-opacity:1;" d="M 105.242188 169.609375 L 93.1875 181.648438 L 104.769531 178.648438 Z M 89.929688 183.507812 L 106.363281 167.097656 L 105.714844 179.421875 L 89.929688 183.507812 "/>
<path style=" stroke:none;fill-rule:nonzero;fill:rgb(64.709473%,97.24884%,95.289612%);fill-opacity:1;" d="M 164.632812 179.324219 L 177.058594 170.054688 L 166.488281 155.449219 L 143.050781 192.535156 L 172.523438 189.058594 L 212.710938 153.691406 L 212.710938 130.515625 L 172.179688 163.308594 "/>
<path style=" stroke:none;fill-rule:nonzero;fill:rgb(57.249451%,70.588684%,90.19928%);fill-opacity:1;" d="M 164.632812 179.324219 L 170.753906 174.566406 L 176.890625 169.828125 L 176.828125 170.21875 L 171.425781 163.003906 L 168.726562 159.394531 C 167.835938 158.183594 166.96875 156.957031 166.089844 155.738281 L 166.90625 155.714844 L 143.46875 192.796875 L 142.992188 192.046875 L 172.46875 188.570312 L 172.199219 188.6875 L 212.386719 153.324219 L 212.21875 153.691406 L 212.21875 130.515625 L 213.023438 130.898438 L 202.890625 139.097656 L 197.828125 143.203125 C 196.140625 144.570312 194.417969 145.894531 192.710938 147.238281 L 182.453125 155.285156 L 172.179688 163.308594 L 182.171875 154.9375 L 192.179688 146.585938 C 193.851562 145.195312 195.503906 143.789062 197.195312 142.421875 L 202.269531 138.332031 L 212.402344 130.132812 L 213.207031 129.484375 L 213.207031 153.914062 L 213.039062 154.0625 L 172.851562 189.429688 L 172.734375 189.527344 L 172.582031 189.546875 L 143.109375 193.023438 L 142.082031 193.144531 L 142.632812 192.273438 L 166.074219 155.1875 L 166.460938 154.574219 L 166.890625 155.164062 C 167.773438 156.378906 168.667969 157.582031 169.539062 158.808594 L 172.125 162.5 L 177.289062 169.886719 L 177.449219 170.117188 L 177.230469 170.277344 L 170.9375 174.8125 L 164.632812 179.324219 "/>
<path style=" stroke:none;fill-rule:nonzero;fill:rgb(57.249451%,70.588684%,90.19928%);fill-opacity:1;" d="M 152.023438 183.011719 C 153.152344 181.03125 154.316406 179.074219 155.46875 177.113281 C 155.757812 176.621094 156.039062 176.128906 156.335938 175.640625 C 156.632812 175.160156 156.957031 174.691406 157.257812 174.207031 L 159.097656 171.332031 L 166.445312 159.832031 L 166.699219 159.433594 L 166.984375 159.8125 L 174.023438 169.082031 L 174.214844 169.335938 L 173.96875 169.535156 L 165.382812 176.488281 L 165.164062 176.664062 L 164.953125 176.476562 L 161.007812 172.921875 L 160.753906 172.691406 L 160.996094 172.449219 L 162.503906 170.9375 C 162.992188 170.421875 163.519531 169.945312 164.042969 169.460938 L 167.171875 166.5625 L 167.277344 166.464844 L 167.363281 166.566406 L 169.273438 168.972656 L 167.167969 166.738281 L 167.355469 166.746094 L 164.453125 169.871094 C 163.96875 170.394531 163.488281 170.917969 162.972656 171.40625 L 161.460938 172.910156 L 161.449219 172.4375 L 165.394531 175.988281 L 164.96875 175.976562 L 173.554688 169.027344 L 173.5 169.480469 L 166.460938 160.207031 L 167 160.1875 L 159.652344 171.6875 L 157.8125 174.5625 C 157.503906 175.039062 157.210938 175.527344 156.898438 176 C 156.582031 176.472656 156.253906 176.9375 155.929688 177.40625 C 154.628906 179.277344 153.34375 181.152344 152.023438 183.011719 "/>
<path style=" stroke:none;fill-rule:nonzero;fill:rgb(57.249451%,70.588684%,90.19928%);fill-opacity:1;" d="M 210.125 147.863281 C 209.226562 149.128906 208.304688 150.375 207.390625 151.625 C 206.921875 152.246094 206.492188 152.894531 205.984375 153.476562 L 204.515625 155.277344 L 204.453125 155.351562 L 204.359375 155.378906 L 198.230469 157.355469 L 198.40625 157.21875 L 193.042969 165.652344 L 192.957031 165.789062 L 192.792969 165.804688 L 188.472656 166.136719 L 188.707031 166.007812 L 181.632812 175.332031 L 181.578125 175.40625 L 181.5 175.4375 C 180.902344 175.683594 180.324219 175.972656 179.710938 176.183594 L 177.886719 176.855469 C 176.675781 177.304688 175.460938 177.753906 174.238281 178.183594 C 175.394531 177.601562 176.558594 177.035156 177.722656 176.464844 L 179.464844 175.613281 C 180.039062 175.316406 180.648438 175.097656 181.242188 174.832031 L 181.109375 174.9375 L 188.183594 165.609375 L 188.273438 165.492188 L 188.421875 165.480469 L 192.742188 165.148438 L 192.488281 165.300781 L 197.851562 156.867188 L 197.914062 156.765625 L 198.027344 156.730469 L 204.160156 154.757812 L 204.003906 154.859375 L 205.46875 153.058594 C 205.9375 152.441406 206.480469 151.886719 206.996094 151.304688 C 208.035156 150.15625 209.066406 149 210.125 147.863281 "/>
<path style=" stroke:none;fill-rule:nonzero;fill:rgb(57.249451%,70.588684%,90.19928%);fill-opacity:1;" d="M 169.121094 143.640625 L 146.453125 170.515625 L 166.800781 144.941406 L 156.160156 145.328125 L 169.121094 143.640625 "/>
<path style=" stroke:none;fill-rule:nonzero;fill:rgb(57.249451%,70.588684%,90.19928%);fill-opacity:1;" d="M 158.445312 117.710938 L 144.40625 131.789062 L 145.796875 160.648438 L 145.390625 132.425781 L 158.445312 117.710938 "/>
<path style=" stroke:none;fill-rule:nonzero;fill:rgb(57.249451%,70.588684%,90.19928%);fill-opacity:1;" d="M 145.988281 210.863281 L 163.164062 194.542969 L 135.429688 198.367188 L 142.625 188.710938 L 129.707031 181.488281 L 129.550781 198.058594 L 114.699219 199.0625 L 124.058594 207.445312 L 123.402344 200.027344 L 131.5625 199.449219 L 131.679688 185.273438 L 139.453125 188.363281 L 132.683594 200.414062 L 155.234375 196.902344 L 136.550781 210.863281 L 145.988281 210.863281 "/>
<path style=" stroke:none;fill-rule:nonzero;fill:rgb(57.249451%,70.588684%,90.19928%);fill-opacity:1;" d="M 128.632812 213.878906 L 115.316406 202.039062 L 116.128906 201.601562 L 113.402344 201.082031 L 113.808594 202.9375 L 114.4375 202.558594 L 124.71875 213.878906 L 128.632812 213.878906 "/>
<path style=" stroke:none;fill-rule:nonzero;fill:rgb(57.249451%,70.588684%,90.19928%);fill-opacity:1;" d="M 123.730469 213.878906 L 110.414062 202.039062 L 111.226562 201.601562 L 108.5 201.082031 L 108.90625 202.9375 L 109.535156 202.558594 L 119.8125 213.878906 L 123.730469 213.878906 "/>
<path style=" stroke:none;fill-rule:nonzero;fill:rgb(57.249451%,70.588684%,90.19928%);fill-opacity:1;" d="M 118.683594 213.878906 L 105.367188 202.039062 L 106.179688 201.601562 L 103.453125 201.082031 L 103.859375 202.9375 L 104.488281 202.558594 L 114.765625 213.878906 L 118.683594 213.878906 "/>
<path style=" stroke:none;fill-rule:nonzero;fill:rgb(57.249451%,70.588684%,90.19928%);fill-opacity:1;" d="M 216.167969 96.386719 L 196.441406 119.511719 L 195.667969 118.144531 L 194.878906 122.808594 L 198.03125 122.046875 L 197.363281 120.992188 L 216.3125 103.058594 L 216.167969 96.386719 "/>
<path style=" stroke:none;fill-rule:nonzero;fill:rgb(57.249451%,70.588684%,90.19928%);fill-opacity:1;" d="M 216.347656 104.738281 L 196.621094 127.863281 L 195.851562 126.496094 L 195.0625 131.160156 L 198.214844 130.402344 L 197.546875 129.34375 L 216.496094 111.410156 L 216.347656 104.738281 "/>
<path style=" stroke:none;fill-rule:nonzero;fill:rgb(57.249451%,70.588684%,90.19928%);fill-opacity:1;" d="M 216.539062 113.335938 L 196.8125 136.464844 L 196.039062 135.097656 L 195.25 139.761719 L 198.402344 139 L 197.734375 137.941406 L 216.683594 120.007812 L 216.539062 113.335938 "/>
<path style=" stroke:none;fill-rule:nonzero;fill:rgb(57.249451%,70.588684%,90.19928%);fill-opacity:1;" d="M 122.105469 197.082031 L 103.105469 198.269531 L 103.335938 200.472656 L 103.773438 198.777344 L 122.105469 197.082031 "/>
<path style=" stroke:none;fill-rule:nonzero;fill:rgb(57.249451%,70.588684%,90.19928%);fill-opacity:1;" d="M 126.691406 210.863281 L 124.097656 200.683594 L 131.292969 200.027344 L 131.292969 201.84375 L 152.21875 197.941406 L 135.316406 210.863281 L 131.523438 210.863281 L 147.769531 199.757812 L 130.441406 204.402344 L 129.628906 201.082031 L 125.761719 201.535156 L 130.210938 210.863281 L 126.691406 210.863281 "/>
<path style=" stroke:none;fill-rule:nonzero;fill:rgb(57.249451%,70.588684%,90.19928%);fill-opacity:1;" d="M 161.925781 129.761719 L 186.253906 139.496094 L 189.890625 134.785156 L 191.980469 143.167969 L 172.871094 159.199219 L 168.113281 152.359375 L 180.007812 138.53125 L 161.925781 139.179688 Z M 176.953125 139.632812 L 166.453125 152.398438 L 172.910156 161.011719 L 193.953125 144.015625 L 191.246094 127.792969 L 185.675781 138.066406 L 161.308594 128.796875 L 161.308594 140.152344 L 176.953125 139.632812 "/>
</g>
</svg>
