<?xml version="1.0" encoding="UTF-8"?>
<svg xmlns="http://www.w3.org/2000/svg" xmlns:xlink="http://www.w3.org/1999/xlink" width="224.87999pt" height="225pt" viewBox="0 0 224.87999 225" version="1.2">
<defs>
<clipPath id="clip1">
  <path d="M 40 32 L 117 32 L 117 109 L 40 109 Z M 40 32 "/>
</clipPath>
<clipPath id="clip2">
  <path d="M 14.570312 57.53125 L 130.375 6.171875 L 207.871094 180.90625 L 92.066406 232.265625 Z M 14.570312 57.53125 "/>
</clipPath>
<clipPath id="clip3">
  <path d="M 14.570312 57.53125 L 130.375 6.171875 L 207.871094 180.90625 L 92.066406 232.265625 Z M 14.570312 57.53125 "/>
</clipPath>
<clipPath id="clip4">
  <path d="M 14.570312 57.53125 L 130.3125 6.203125 L 207.734375 180.777344 L 91.996094 232.105469 Z M 14.570312 57.53125 "/>
</clipPath>
<clipPath id="clip5">
  <path d="M 54 46 L 104 46 L 104 96 L 54 96 Z M 54 46 "/>
</clipPath>
<clipPath id="clip6">
  <path d="M 14.570312 57.53125 L 130.375 6.171875 L 207.871094 180.90625 L 92.066406 232.265625 Z M 14.570312 57.53125 "/>
</clipPath>
<clipPath id="clip7">
  <path d="M 14.570312 57.53125 L 130.375 6.171875 L 207.871094 180.90625 L 92.066406 232.265625 Z M 14.570312 57.53125 "/>
</clipPath>
<clipPath id="clip8">
  <path d="M 14.570312 57.53125 L 130.3125 6.203125 L 207.734375 180.777344 L 91.996094 232.105469 Z M 14.570312 57.53125 "/>
</clipPath>
<clipPath id="clip9">
  <path d="M 56 54 L 196 54 L 196 204 L 56 204 Z M 56 54 "/>
</clipPath>
<clipPath id="clip10">
  <path d="M 14.570312 57.53125 L 130.375 6.171875 L 207.871094 180.90625 L 92.066406 232.265625 Z M 14.570312 57.53125 "/>
</clipPath>
<clipPath id="clip11">
  <path d="M 14.570312 57.53125 L 130.375 6.171875 L 207.871094 180.90625 L 92.066406 232.265625 Z M 14.570312 57.53125 "/>
</clipPath>
<clipPath id="clip12">
  <path d="M 14.570312 57.53125 L 130.3125 6.203125 L 207.734375 180.777344 L 91.996094 232.105469 Z M 14.570312 57.53125 "/>
</clipPath>
<clipPath id="clip13">
  <path d="M 62 60 L 189 60 L 189 198 L 62 198 Z M 62 60 "/>
</clipPath>
<clipPath id="clip14">
  <path d="M 14.570312 57.53125 L 130.375 6.171875 L 207.871094 180.90625 L 92.066406 232.265625 Z M 14.570312 57.53125 "/>
</clipPath>
<clipPath id="clip15">
  <path d="M 14.570312 57.53125 L 130.375 6.171875 L 207.871094 180.90625 L 92.066406 232.265625 Z M 14.570312 57.53125 "/>
</clipPath>
<clipPath id="clip16">
  <path d="M 14.570312 57.53125 L 130.3125 6.203125 L 207.734375 180.777344 L 91.996094 232.105469 Z M 14.570312 57.53125 "/>
</clipPath>
</defs>
<g id="surface1">
<g clip-path="url(#clip1)" clip-rule="nonzero">
<g clip-path="url(#clip2)" clip-rule="nonzero">
<g clip-path="url(#clip3)" clip-rule="nonzero">
<g clip-path="url(#clip4)" clip-rule="nonzero">
<path style=" stroke:none;fill-rule:nonzero;fill:rgb(74.119568%,73.329163%,73.728943%);fill-opacity:1;" d="M 94.035156 105.601562 C 74.839844 114.117188 52.300781 105.4375 43.792969 86.253906 C 35.289062 67.074219 43.984375 44.542969 63.179688 36.027344 C 82.378906 27.515625 104.917969 36.191406 113.425781 55.371094 C 121.933594 74.554688 113.234375 97.089844 94.035156 105.601562 M 66.304688 43.078125 C 51.003906 49.863281 44.066406 67.832031 50.847656 83.125 C 57.632812 98.421875 75.609375 105.34375 90.910156 98.558594 C 106.21875 91.769531 113.152344 73.800781 106.367188 58.503906 C 99.585938 43.207031 81.613281 36.289062 66.304688 43.078125 "/>
</g>
</g>
</g>
</g>
<g clip-path="url(#clip5)" clip-rule="nonzero">
<g clip-path="url(#clip6)" clip-rule="nonzero">
<g clip-path="url(#clip7)" clip-rule="nonzero">
<g clip-path="url(#clip8)" clip-rule="nonzero">
<path style=" stroke:none;fill-rule:nonzero;fill:rgb(74.119568%,73.329163%,73.728943%);fill-opacity:1;" d="M 88.535156 93.199219 C 76.164062 98.683594 61.691406 93.109375 56.207031 80.75 C 50.726562 68.386719 56.308594 53.914062 68.679688 48.429688 C 81.050781 42.941406 95.523438 48.519531 101.003906 60.882812 C 106.488281 73.242188 100.90625 87.710938 88.535156 93.199219 "/>
</g>
</g>
</g>
</g>
<g clip-path="url(#clip9)" clip-rule="nonzero">
<g clip-path="url(#clip10)" clip-rule="nonzero">
<g clip-path="url(#clip11)" clip-rule="nonzero">
<g clip-path="url(#clip12)" clip-rule="nonzero">
<path style=" stroke:none;fill-rule:nonzero;fill:rgb(16.859436%,22.349548%,32.548523%);fill-opacity:1;" d="M 67.652344 141.566406 C 66.585938 142.039062 65.6875 142.8125 65.070312 143.816406 L 63.839844 145.792969 C 63.023438 147.113281 62.761719 148.675781 63.113281 150.195312 C 63.464844 151.707031 64.398438 152.996094 65.722656 153.8125 C 65.949219 153.957031 66.152344 154.125 66.332031 154.316406 C 66.875 154.871094 120.359375 209.816406 160.175781 194.757812 C 161.257812 194.347656 162.332031 193.910156 163.371094 193.449219 C 173.78125 188.832031 181.769531 181.625 185.863281 173.15625 C 189.730469 165.152344 189.964844 156.460938 186.515625 148.6875 C 186.324219 148.253906 186.113281 147.835938 185.90625 147.410156 C 185.847656 147.296875 185.792969 147.15625 185.746094 147.027344 C 185.691406 146.871094 185.636719 146.707031 185.570312 146.554688 L 157.582031 83.453125 C 156.28125 80.515625 152.824219 79.191406 149.890625 80.492188 L 147.765625 81.433594 C 144.828125 82.738281 143.488281 86.1875 144.792969 89.125 C 145.503906 90.730469 144.78125 92.605469 143.175781 93.320312 C 141.574219 94.03125 139.695312 93.304688 138.984375 91.703125 C 137.679688 88.765625 134.226562 87.4375 131.292969 88.738281 L 129.167969 89.679688 C 126.226562 90.984375 124.898438 94.433594 126.199219 97.371094 C 126.910156 98.976562 126.1875 100.851562 124.578125 101.566406 C 122.976562 102.277344 121.097656 101.550781 120.386719 99.949219 C 119.085938 97.011719 115.640625 95.683594 112.691406 96.988281 L 110.570312 97.929688 C 107.628906 99.234375 106.296875 102.683594 107.597656 105.621094 C 108.308594 107.222656 107.585938 109.101562 105.984375 109.8125 C 104.378906 110.523438 102.496094 109.804688 101.785156 108.199219 L 82.335938 64.351562 C 81.035156 61.410156 77.589844 60.078125 74.648438 61.382812 L 72.519531 62.328125 C 69.582031 63.628906 68.253906 67.078125 69.558594 70.019531 L 108.027344 156.757812 C 108.59375 158.035156 108.261719 159.527344 107.203125 160.445312 C 106.152344 161.363281 104.632812 161.484375 103.445312 160.75 L 73.097656 141.9375 C 71.453125 140.917969 69.425781 140.78125 67.652344 141.566406 Z M 165.945312 199.253906 C 164.800781 199.761719 163.613281 200.253906 162.417969 200.699219 C 144.152344 207.613281 120.875 202.453125 95.089844 185.785156 C 77.183594 174.210938 64.074219 161.09375 62.015625 158.988281 C 59.4375 157.265625 57.636719 154.675781 56.929688 151.648438 C 56.183594 148.472656 56.722656 145.210938 58.4375 142.441406 L 59.667969 140.472656 C 60.964844 138.375 62.835938 136.753906 65.074219 135.761719 C 68.773438 134.121094 73.023438 134.40625 76.453125 136.535156 L 98.035156 149.921875 L 63.742188 72.597656 C 61.023438 66.460938 63.804688 59.246094 69.945312 56.523438 L 72.074219 55.578125 C 78.21875 52.855469 85.429688 55.636719 88.152344 61.769531 L 103.261719 95.847656 C 104.464844 94.273438 106.0625 92.980469 107.992188 92.125 L 110.113281 91.183594 C 113.378906 89.734375 116.9375 89.839844 119.964844 91.171875 C 121.019531 88.027344 123.335938 85.320312 126.59375 83.875 L 128.714844 82.933594 C 131.972656 81.488281 135.539062 81.589844 138.566406 82.921875 C 139.613281 79.78125 141.929688 77.074219 145.191406 75.628906 L 147.3125 74.683594 C 153.460938 71.960938 160.667969 74.734375 163.390625 80.878906 L 191.378906 143.976562 C 191.503906 144.261719 191.609375 144.535156 191.691406 144.765625 C 191.910156 145.21875 192.125 145.660156 192.324219 146.113281 C 196.542969 155.625 196.285156 166.203125 191.585938 175.917969 C 186.839844 185.738281 177.734375 194.027344 165.945312 199.253906 "/>
</g>
</g>
</g>
</g>
<g clip-path="url(#clip13)" clip-rule="nonzero">
<g clip-path="url(#clip14)" clip-rule="nonzero">
<g clip-path="url(#clip15)" clip-rule="nonzero">
<g clip-path="url(#clip16)" clip-rule="nonzero">
<path style=" stroke:none;fill-rule:nonzero;fill:rgb(100%,100%,100%);fill-opacity:1;" d="M 67.652344 141.566406 C 66.585938 142.039062 65.6875 142.8125 65.070312 143.816406 L 63.839844 145.792969 C 63.023438 147.113281 62.761719 148.675781 63.113281 150.195312 C 63.464844 151.707031 64.398438 152.996094 65.722656 153.8125 C 65.949219 153.957031 66.152344 154.125 66.332031 154.316406 C 66.875 154.871094 120.359375 209.816406 160.175781 194.757812 C 161.257812 194.347656 162.332031 193.910156 163.371094 193.449219 C 173.78125 188.832031 181.769531 181.625 185.863281 173.15625 C 189.730469 165.152344 189.964844 156.460938 186.515625 148.6875 C 186.324219 148.253906 186.113281 147.835938 185.90625 147.410156 C 185.847656 147.296875 185.792969 147.15625 185.746094 147.027344 C 185.691406 146.871094 185.636719 146.707031 185.570312 146.554688 L 157.582031 83.453125 C 156.28125 80.515625 152.824219 79.191406 149.890625 80.492188 L 147.765625 81.433594 C 144.828125 82.738281 143.488281 86.1875 144.792969 89.125 C 145.503906 90.730469 144.78125 92.605469 143.175781 93.320312 C 141.574219 94.03125 139.695312 93.304688 138.984375 91.703125 C 137.679688 88.765625 134.226562 87.4375 131.292969 88.738281 L 129.167969 89.679688 C 126.226562 90.984375 124.898438 94.433594 126.199219 97.371094 C 126.910156 98.976562 126.1875 100.851562 124.578125 101.566406 C 122.976562 102.277344 121.097656 101.550781 120.386719 99.949219 C 119.085938 97.011719 115.640625 95.683594 112.691406 96.988281 L 110.570312 97.929688 C 107.628906 99.234375 106.296875 102.683594 107.597656 105.621094 C 108.308594 107.222656 107.585938 109.101562 105.984375 109.8125 C 104.378906 110.523438 102.496094 109.804688 101.785156 108.199219 L 82.335938 64.351562 C 81.035156 61.410156 77.589844 60.078125 74.648438 61.382812 L 72.519531 62.328125 C 69.582031 63.628906 68.253906 67.078125 69.558594 70.019531 L 108.027344 156.757812 C 108.59375 158.035156 108.261719 159.527344 107.203125 160.445312 C 106.152344 161.363281 104.632812 161.484375 103.445312 160.75 L 73.097656 141.9375 C 71.453125 140.917969 69.425781 140.78125 67.652344 141.566406 "/>
</g>
</g>
</g>
</g>
</g>
</svg>
