<svg id="Layer_1" data-name="Layer 1" xmlns="http://www.w3.org/2000/svg" viewBox="0 0 548.65 575.19"><defs><style>.cls-1{fill:#003c63;}.cls-2{fill:#ef341a;}.cls-3,.cls-4,.cls-7{fill:none;}.cls-3{stroke:#002a52;}.cls-3,.cls-4,.cls-5,.cls-6,.cls-7{stroke-miterlimit:10;stroke-width:60px;}.cls-4{stroke:#004170;}.cls-5,.cls-6{fill:#018796;}.cls-5{stroke:#006b8c;}.cls-6{stroke:#018796;}.cls-7{stroke:#00527f;}</style></defs><path class="cls-1" d="M7413.44,7010.72l-.84-.63Z" transform="translate(-6925.17 -6911.9)"/><path class="cls-2" d="M7247.1,7228.26l1,1Z" transform="translate(-6925.17 -6911.9)"/><path class="cls-2" d="M7250.09,7230.37l.94.92Z" transform="translate(-6925.17 -6911.9)"/><path class="cls-2" d="M7257.08,7236.33l1,.94Z" transform="translate(-6925.17 -6911.9)"/><path class="cls-2" d="M7258.09,7237.29l1,1Z" transform="translate(-6925.17 -6911.9)"/><path class="cls-2" d="M7259.1,7238.28l1,1Z" transform="translate(-6925.17 -6911.9)"/><path class="cls-2" d="M7261.09,7239.39l.95.89Z" transform="translate(-6925.17 -6911.9)"/><line class="cls-3" x1="226.73" y1="23.37" x2="529.84" y2="267.46"/><line class="cls-4" x1="180.35" y1="80.95" x2="483.46" y2="325.04"/><line class="cls-5" x1="75.17" y1="223.26" x2="378.28" y2="467.36"/><line class="cls-6" x1="18.82" y1="285.75" x2="321.93" y2="529.85"/><line class="cls-7" x1="134.05" y1="150.15" x2="437.16" y2="394.24"/><path class="cls-1" d="M7018,7487.1c-.27-.22-.55-.43-.83-.63Z" transform="translate(-6925.17 -6911.9)"/></svg>