<svg id="Layer_1" data-name="Layer 1" xmlns="http://www.w3.org/2000/svg" viewBox="0 0 1007.8 884.32"><defs><style>.cls-1{fill:#ef341a;}.cls-2{fill:#1d8696;}.cls-2,.cls-3{stroke:#399;}.cls-2,.cls-3,.cls-4,.cls-5,.cls-6{stroke-miterlimit:10;stroke-width:60px;}.cls-3,.cls-4,.cls-5,.cls-6{fill:none;}.cls-4{stroke:#136b8c;}.cls-5{stroke:#d64d45;}.cls-6{stroke:#aa3636;}.cls-7{fill:#003c63;}</style></defs><path class="cls-1" d="M7247.1,7239.25c.33.33.67.66,1,1C7247.77,7239.91,7247.43,7239.58,7247.1,7239.25Z" transform="translate(-6885.5 -6818.56)"/><path class="cls-1" d="M7250.09,7241.35l.94.93Z" transform="translate(-6885.5 -6818.56)"/><path class="cls-1" d="M7257.08,7247.32l1,.94Z" transform="translate(-6885.5 -6818.56)"/><path class="cls-1" d="M7258.09,7248.28l1,1Z" transform="translate(-6885.5 -6818.56)"/><path class="cls-1" d="M7259.1,7249.27l1,1Z" transform="translate(-6885.5 -6818.56)"/><path class="cls-1" d="M7261.09,7250.38l.95.89Z" transform="translate(-6885.5 -6818.56)"/><line class="cls-2" x1="314.5" y1="884.32" x2="314.5" y2="599"/><circle class="cls-3" cx="314.5" cy="314.5" r="284.5"/><circle class="cls-4" cx="314" cy="314.5" r="224.35"/><circle class="cls-5" cx="314" cy="314.5" r="165.34"/><circle class="cls-6" cx="314.5" cy="314.48" r="115.22"/><path class="cls-7" d="M7893.3,7261.93l-.84-.63Z" transform="translate(-6885.5 -6818.56)"/></svg>