<svg id="Layer_1" data-name="Layer 1" xmlns="http://www.w3.org/2000/svg" viewBox="0 0 2501.06 2553.2"><defs><style>.cls-1{fill:#c8d9cf;}.cls-2{fill:#e8b6b1;}.cls-3{fill:#f6bb95;}.cls-4{fill:#f3dcc9;}.cls-5{fill:#c4d8da;}.cls-6{fill:#f6b992;}.cls-7{fill:#f3ddcc;}</style></defs><polygon class="cls-1" points="1253.99 1271.44 426.75 291.72 335.32 376.89 1253.99 1271.44"/><polygon class="cls-2" points="1248.38 1271.94 520.42 216.35 421.13 292.22 1248.38 1271.94"/><polygon class="cls-3" points="1247.48 1281.63 633.85 155.73 527.17 220.81 1247.48 1281.63"/><polygon class="cls-4" points="1247.55 1278.25 752.1 95.22 628.24 155.1 1247.55 1278.25"/><polygon class="cls-5" points="1257.27 1281.82 846.25 67.22 729.98 113 1257.27 1281.82"/><polygon class="cls-1" points="1251.86 1280.23 961.01 31.39 840.84 65.63 1251.86 1280.23"/><polygon class="cls-2" points="1247.48 1288.91 1088.76 16.52 965.66 38.01 1247.48 1288.91"/><polygon class="cls-3" points="1242.5 1286.27 1208.38 4.46 1083.78 13.87 1242.5 1286.27"/><polygon class="cls-4" points="1249.03 1283.59 1323.65 3.5 1198.7 2.32 1249.03 1283.59"/><polygon class="cls-5" points="1244.61 1280.09 1443.47 13.34 1319.23 0 1244.61 1280.09"/><polygon class="cls-1" points="1237.29 1286.49 1567.47 47.47 1445.3 21.22 1237.29 1286.49"/><polygon class="cls-2" points="1233.67 1282.17 1682.88 81.17 1563.85 43.15 1233.67 1282.17"/><polygon class="cls-3" points="1235.84 1289.97 1782.45 129.53 1649.77 75.86 1235.84 1289.97"/><polygon class="cls-4" points="1241.43 1288.5 1890.35 182.56 1779.62 124.65 1241.43 1288.5"/><polygon class="cls-5" points="1232.28 1291.78 1993.23 259.72 1889.17 190.56 1232.28 1291.78"/><polygon class="cls-1" points="1230.49 1286.43 2088.29 333.34 1991.44 254.37 1230.49 1286.43"/><polygon class="cls-2" points="1228.3 1276.24 2184.88 422.34 2097.22 333.29 1228.3 1276.24"/><polygon class="cls-3" points="1227.64 1270.64 2262.8 513.9 2184.22 416.74 1227.64 1270.64"/><polygon class="cls-4" points="1217.93 1270.01 2326.52 625.62 2258.53 520.77 1217.93 1270.01"/><polygon class="cls-5" points="1221.32 1269.99 2390.26 742.16 2327 620 1221.32 1269.99"/><polygon class="cls-1" points="1218.01 1279.81 2420.84 835.5 2371.88 720.54 1218.01 1279.81"/><polygon class="cls-2" points="1219.46 1274.35 2459.82 949.24 2422.28 830.05 1219.46 1274.35"/><polygon class="cls-3" points="1210.65 1270.21 2478.2 1076.53 2453.33 954.07 1210.65 1270.21"/><polygon class="cls-4" points="1213.16 1265.16 2493.55 1195.77 2480.71 1071.47 1213.16 1265.16"/><polygon class="cls-5" points="1216.02 1271.61 2497.67 1310.97 2495.42 1186.03 1216.02 1271.61"/><polygon class="cls-1" points="1219.4 1267.1 2491.14 1431.02 2501.06 1306.46 1219.4 1267.1"/><polygon class="cls-2" points="1212.79 1259.96 2460.43 1555.91 2483.32 1433.06 1212.79 1259.96"/><polygon class="cls-3" points="1217.01 1256.21 2429.92 1672.2 2464.65 1552.17 1217.01 1256.21"/><polygon class="cls-4" points="1209.28 1258.61 2384.33 1773.07 2434.33 1638.96 1209.28 1258.61"/><polygon class="cls-5" points="1210.91 1264.15 2334.29 1882.38 2389.13 1770.1 1210.91 1264.15"/><polygon class="cls-1" points="1207.38 1255.09 2259.98 1987.35 2326.26 1881.42 1207.38 1255.09"/><polygon class="cls-2" points="1212.67 1253.15 2189.01 2084.4 2265.28 1985.42 1212.67 1253.15"/><polygon class="cls-5" points="1244.36 1283.27 2002.21 2317.61 2099.29 2238.93 1244.36 1283.27"/><polygon class="cls-1" points="1250 1283.16 1903.57 2386.35 2007.85 2317.5 1250 1283.16"/><polygon class="cls-2" points="1251.56 1273.56 1786.25 2439.02 1897.15 2381.45 1251.56 1273.56"/><polygon class="cls-3" points="1251.25 1276.93 1664.11 2491.25 1791.79 2440.05 1251.25 1276.93"/><polygon class="cls-4" points="1241.8 1272.7 1568.25 2512.71 1687.4 2475.04 1241.8 1272.7"/><polygon class="cls-5" points="1247.09 1274.66 1451.3 2540.55 1573.54 2514.67 1247.09 1274.66"/><polygon class="cls-1" points="1252.06 1266.3 1322.83 2546.6 1447.11 2533.63 1252.06 1266.3"/><polygon class="cls-2" points="1256.85 1269.28 1202.66 2550.39 1327.62 2549.58 1256.85 1269.28"/><polygon class="cls-3" points="1250.15 1271.5 1087.6 2543.41 1212.17 2553.2 1250.15 1271.5"/><polygon class="cls-4" points="1254.32 1275.3 968.74 2525.35 1091.77 2547.22 1254.32 1275.3"/><polygon class="cls-5" points="1262.06 1269.41 847.38 2482.77 967.46 2517.37 1262.06 1269.41"/><polygon class="cls-1" points="1265.38 1273.97 734.57 2441.21 850.7 2487.33 1265.38 1273.97"/><polygon class="cls-2" points="1263.74 1266.04 638.56 2386.11 767.23 2448.79 1263.74 1266.04"/><polygon class="cls-3" points="1258.06 1267.13 534.57 2325.78 641.05 2391.18 1258.06 1267.13"/><polygon class="cls-4" points="1267.42 1264.49 437.24 2241.72 536.3 2317.88 1267.42 1264.49"/><polygon class="cls-1" points="1268.84 1269.94 347.48 2161.73 438.65 2247.18 1268.84 1269.94"/><polygon class="cls-2" points="1270.33 1280.26 257.24 2066.29 338.56 2161.17 1270.33 1280.26"/><polygon class="cls-3" points="1270.59 1285.89 185.81 1969.59 257.51 2071.93 1270.59 1285.89"/><polygon class="cls-4" points="1280.23 1287.19 129.93 1853.75 190.54 1963.03 1280.23 1287.19"/><polygon class="cls-5" points="1276.86 1286.97 74.36 1733.1 129.06 1859.32 1276.86 1286.97"/><polygon class="cls-1" points="1280.83 1277.41 50.27 1637.87 91.2 1755.93 1280.83 1277.41"/><polygon class="cls-2" points="1279.02 1282.75 19.22 1521.72 48.46 1643.21 1279.02 1282.75"/><polygon class="cls-3" points="1287.51 1287.49 9.64 1393.47 26.02 1517.35 1287.51 1287.49"/><polygon class="cls-4" points="1284.66 1292.36 2.54 1273.45 6.79 1398.34 1284.66 1292.36"/><polygon class="cls-5" points="1282.26 1285.72 6.35 1158.24 0 1283.04 1282.26 1285.72"/><polygon class="cls-1" points="1278.57 1289.99 21.13 1038.93 2.67 1162.51 1278.57 1289.99"/><polygon class="cls-2" points="1284.67 1297.57 60.36 916.45 29.08 1037.43 1284.67 1297.57"/><polygon class="cls-3" points="1280.2 1301.01 98.8 802.53 55.89 919.89 1280.2 1301.01"/><polygon class="cls-4" points="1288.08 1299.16 151.23 705.04 92.12 835.39 1288.08 1299.16"/><polygon class="cls-5" points="1286.84 1293.51 208.68 599.43 146.24 707.67 1286.84 1293.51"/><polygon class="cls-6" points="1289.74 1302.8 290.03 499.82 216.62 600.94 1289.74 1302.8"/><polygon class="cls-7" points="1284.32 1304.37 367.52 407.9 284.61 501.39 1284.32 1304.37"/><polygon class="cls-3" points="1239.89 1294.75 2177.83 2169.08 2258.48 2073.63 1239.89 1294.75"/><polygon class="cls-4" points="1245.4 1293.59 2093.79 2255.06 2183.35 2167.91 1245.4 1293.59"/><circle class="cls-3" cx="1247.54" cy="1276.81" r="422.25"/></svg>