<svg id="Layer_1" data-name="Layer 1" xmlns="http://www.w3.org/2000/svg" viewBox="0 0 2274.87 3358.06"><defs><style>.cls-1{fill:#bd5c51;}.cls-2{fill:#f6efe2;}.cls-3{fill:#fc6;}.cls-4{fill:#ad544a;}.cls-5{fill:none;}</style></defs><rect class="cls-1" x="7190.68" y="5986.04" width="155.59" height="2004.82" rx="77.17" transform="translate(-5715.04 8825.24) rotate(-90.01)"/><rect class="cls-2" x="8113.01" y="5436.39" width="157.79" height="1629.76" rx="75.43" transform="translate(10388.6 7068.83) rotate(179.99)"/><rect class="cls-3" x="7070.34" y="5862.2" width="155.64" height="1981.65" rx="77.17" transform="translate(-5699.94 8569.47) rotate(-90.01)"/><rect class="cls-3" x="7990.68" y="5435.33" width="155.96" height="1495.41" rx="77.17" transform="translate(10142.12 6932.38) rotate(179.99)"/><rect class="cls-2" x="6912.97" y="5739.12" width="155.64" height="1981.65" rx="77.17" transform="translate(-5734.25 8289.02) rotate(-90.01)"/><rect class="cls-4" x="7842.57" y="5432.62" width="155.96" height="1375.05" rx="77.17" transform="translate(9845.88 6806.62) rotate(179.99)"/><circle class="cls-5" cx="102.77" cy="1231.14" r="83.28"/><rect class="cls-4" x="6915.7" y="5724.84" width="163.23" height="2002.57" rx="77.17" transform="translate(7713.3 -5717.35) rotate(89.88)"/><rect class="cls-4" x="5998.03" y="6653.99" width="157.79" height="2132.26" rx="75.43" transform="translate(-6011.57 -5420.35) rotate(-0.12)"/><rect class="cls-3" x="7028.29" y="5861.47" width="173.64" height="1989.36" rx="77.17" transform="translate(7960.88 -5705.38) rotate(89.88)"/><rect class="cls-3" x="6122.31" y="6789.34" width="155.96" height="1998.06" rx="77.17" transform="translate(-6011.71 -5420.11) rotate(-0.12)"/><rect class="cls-2" x="7182.39" y="5987.24" width="168.74" height="2001.38" rx="77.17" transform="translate(8243.99 -5725.52) rotate(89.88)"/><rect class="cls-2" x="6266.3" y="6910.78" width="155.96" height="1879.89" rx="77.17" transform="translate(-6011.83 -5419.81) rotate(-0.12)"/><circle class="cls-5" cx="2188.14" cy="1618.64" r="83.28"/></svg>