<svg id="Layer_1" data-name="Layer 1" xmlns="http://www.w3.org/2000/svg" viewBox="0 0 548.65 553.21"><defs><style>.cls-1{fill:#ef341a;}.cls-2,.cls-3,.cls-4,.cls-5,.cls-6{fill:none;stroke-miterlimit:10;stroke-width:60px;}.cls-2{stroke:#f39e5c;}.cls-3{stroke:#f36826;}.cls-4{stroke:#f34a05;}.cls-5{stroke:#f97001;}.cls-6{stroke:#ee2711;}</style></defs><path class="cls-1" d="M7247.1,7239.25c.33.33.67.66,1,1C7247.77,7239.91,7247.43,7239.58,7247.1,7239.25Z" transform="translate(-6925.17 -6922.89)"/><path class="cls-1" d="M7250.09,7241.35l.94.93Z" transform="translate(-6925.17 -6922.89)"/><path class="cls-1" d="M7257.08,7247.32l1,.94Z" transform="translate(-6925.17 -6922.89)"/><path class="cls-1" d="M7258.09,7248.28l1,1Z" transform="translate(-6925.17 -6922.89)"/><path class="cls-1" d="M7259.1,7249.27l1,1Z" transform="translate(-6925.17 -6922.89)"/><path class="cls-1" d="M7261.09,7250.38l.95.89Z" transform="translate(-6925.17 -6922.89)"/><line class="cls-2" x1="226.73" y1="23.37" x2="529.84" y2="267.46"/><line class="cls-3" x1="180.35" y1="80.95" x2="483.46" y2="325.04"/><line class="cls-4" x1="75.17" y1="223.26" x2="378.28" y2="467.36"/><line class="cls-5" x1="18.82" y1="285.75" x2="321.93" y2="529.85"/><line class="cls-6" x1="134.05" y1="150.15" x2="437.16" y2="394.24"/></svg>