<svg id="Layer_1" data-name="Layer 1" xmlns="http://www.w3.org/2000/svg" xmlns:xlink="http://www.w3.org/1999/xlink" viewBox="0 0 154.78 170.93"><defs><style>.cls-1{fill:none;}.cls-2{clip-path:url(#clip-path);}.cls-3{clip-path:url(#clip-path-2);}.cls-4{clip-path:url(#clip-path-4);}.cls-5{fill:#bdbbbc;}.cls-6{clip-path:url(#clip-path-5);}.cls-7{clip-path:url(#clip-path-9);}.cls-8{fill:#2b3953;}.cls-9{clip-path:url(#clip-path-13);}.cls-10{fill:#fff;}</style><clipPath id="clip-path" transform="translate(-7122.53 -7112.43)"><rect class="cls-1" x="7122" y="7111.68" width="77" height="77"/></clipPath><clipPath id="clip-path-2" transform="translate(-7122.53 -7112.43)"><rect class="cls-1" x="7129.88" y="7103.32" width="126.68" height="191.15" transform="translate(-2300.89 3534.41) rotate(-23.92)"/></clipPath><clipPath id="clip-path-4" transform="translate(-7122.53 -7112.43)"><rect class="cls-1" x="7129.85" y="7103.34" width="126.61" height="190.97" transform="translate(-2300.77 3534.14) rotate(-23.92)"/></clipPath><clipPath id="clip-path-5" transform="translate(-7122.53 -7112.43)"><rect class="cls-1" x="7136" y="7125.68" width="50" height="50"/></clipPath><clipPath id="clip-path-9" transform="translate(-7122.53 -7112.43)"><rect class="cls-1" x="7138" y="7133.68" width="140" height="150"/></clipPath><clipPath id="clip-path-13" transform="translate(-7122.53 -7112.43)"><rect class="cls-1" x="7144" y="7139.68" width="127" height="138"/></clipPath></defs><g id="surface1"><g class="cls-2"><g class="cls-3"><g class="cls-3"><g class="cls-4"><path class="cls-5" d="M7176,7185.28a38.06,38.06,0,1,1,19.39-50.23,38.13,38.13,0,0,1-19.39,50.23m-27.74-62.53a30.35,30.35,0,1,0,40.07,15.43,30.4,30.4,0,0,0-40.07-15.43" transform="translate(-7122.53 -7112.43)"/></g></g></g></g><g class="cls-6"><g class="cls-3"><g class="cls-3"><g class="cls-4"><path class="cls-5" d="M7170.54,7172.88a24.49,24.49,0,1,1,12.46-32.32,24.5,24.5,0,0,1-12.46,32.32" transform="translate(-7122.53 -7112.43)"/></g></g></g></g><g class="cls-7"><g class="cls-3"><g class="cls-3"><g class="cls-4"><path class="cls-8" d="M7149.65,7221.24a5.86,5.86,0,0,0-2.58,2.25l-1.23,2a5.8,5.8,0,0,0,1.88,8,3,3,0,0,1,.61.5c.55.56,54,55.5,93.85,40.44,1.08-.41,2.15-.84,3.19-1.3,10.41-4.62,18.4-11.83,22.49-20.3a28.72,28.72,0,0,0,.66-24.47c-.2-.43-.41-.85-.61-1.27a2.66,2.66,0,0,1-.16-.39c-.06-.15-.11-.32-.18-.47l-28-63.1a5.83,5.83,0,0,0-7.69-3l-2.12.94a5.84,5.84,0,0,0-3,7.69,3.18,3.18,0,1,1-5.81,2.58,5.82,5.82,0,0,0-7.69-3l-2.12.94a5.84,5.84,0,0,0-3,7.69,3.18,3.18,0,0,1-5.81,2.58,5.83,5.83,0,0,0-7.7-3l-2.12.94a5.84,5.84,0,0,0-3,7.69,3.18,3.18,0,0,1-5.81,2.58L7164.34,7144a5.83,5.83,0,0,0-7.69-3l-2.13.94a5.83,5.83,0,0,0-3,7.7l38.47,86.73a3.19,3.19,0,0,1-4.58,4l-30.35-18.82A5.85,5.85,0,0,0,7149.65,7221.24Zm98.3,57.69c-1.15.51-2.34,1-3.53,1.45-18.27,6.91-41.54,1.75-67.33-14.92a206.74,206.74,0,0,1-33.07-26.79,12.18,12.18,0,0,1-3.58-16.55l1.23-2a12,12,0,0,1,5.4-4.71,12.18,12.18,0,0,1,11.38.77L7180,7229.6l-34.3-77.33a12.19,12.19,0,0,1,6.21-16.07l2.12-.95a12.2,12.2,0,0,1,16.08,6.2l15.11,34.07a12.14,12.14,0,0,1,4.73-3.72l2.12-.94a12.19,12.19,0,0,0,16.48-7.31l2.12-.94a12.18,12.18,0,0,0,16.48-7.3l2.12-1a12.19,12.19,0,0,1,16.08,6.2l28,63.09c.12.29.23.56.31.79.22.46.43.9.63,1.35a34.9,34.9,0,0,1-.73,29.8c-4.75,9.83-13.86,18.11-25.64,23.34" transform="translate(-7122.53 -7112.43)"/></g></g></g></g><g class="cls-9"><g class="cls-3"><g class="cls-3"><g class="cls-4"><path class="cls-10" d="M7149.65,7221.24a5.86,5.86,0,0,0-2.58,2.25l-1.23,2a5.8,5.8,0,0,0,1.88,8,3,3,0,0,1,.61.5c.55.56,54,55.5,93.85,40.44,1.08-.41,2.15-.84,3.19-1.3,10.41-4.62,18.4-11.83,22.49-20.3a28.72,28.72,0,0,0,.66-24.47c-.2-.43-.41-.85-.61-1.27a2.66,2.66,0,0,1-.16-.39c-.06-.15-.11-.32-.18-.47l-28-63.1a5.83,5.83,0,0,0-7.69-3l-2.12.94a5.84,5.84,0,0,0-3,7.69,3.18,3.18,0,1,1-5.81,2.58,5.82,5.82,0,0,0-7.69-3l-2.12.94a5.84,5.84,0,0,0-3,7.69,3.18,3.18,0,0,1-5.81,2.58,5.83,5.83,0,0,0-7.7-3l-2.12.94a5.84,5.84,0,0,0-3,7.69,3.18,3.18,0,0,1-5.81,2.58L7164.34,7144a5.83,5.83,0,0,0-7.69-3l-2.13.94a5.83,5.83,0,0,0-3,7.7l38.47,86.73a3.19,3.19,0,0,1-4.58,4l-30.35-18.82a5.85,5.85,0,0,0-5.45-.37" transform="translate(-7122.53 -7112.43)"/></g></g></g></g></g></svg>